<?xml version="1.0" encoding="UTF-8"?>
<svg width="185px" height="185px" viewBox="0 0 185 185" version="1.1" xmlns="http://www.w3.org/2000/svg" xmlns:xlink="http://www.w3.org/1999/xlink">
    <!-- Generator: Sketch 51.3 (57544) - http://www.bohemiancoding.com/sketch -->
    <title>D2S_AffordablePreservation-v2</title>
    <desc>Created with Sketch.</desc>
    <defs></defs>
    <g id="Landing" stroke="none" stroke-width="1" fill="none" fill-rule="evenodd">
        <g id="SF-DTS---Home" transform="translate(-1031.000000, -921.000000)">
            <g id="Intro-and-3-markets" transform="translate(0.000000, 707.000000)">
                <g id="Our-Markets" transform="translate(130.000000, 50.000000)">
                    <g id="card3" transform="translate(799.000000, 157.000000)">
                        <g id="D2S_AffordablePreservation-v2" transform="translate(102.000000, 7.000000)">
                            <circle id="Oval-2" fill="#FFFFFF" cx="92.5" cy="92.5" r="92.5"></circle>
                            <g id="icon" transform="translate(10.000000, 10.000000)" fill="#F36C21" fill-rule="nonzero">
                                <path d="M50.7711111,71.8788889 L58.1044444,71.8788889 L58.1044444,64.5455556 L50.7711111,64.5455556 L50.7711111,71.8788889 Z M56.8822222,70.6566667 L55,70.6566667 L55,65.7677778 L56.8088889,65.7677778 L56.8822222,70.6566667 Z M51.9933333,65.7677778 L53.7777778,65.7677778 L53.7777778,70.6566667 L51.9933333,70.6566667 L51.9933333,65.7677778 Z" id="Shape"></path>
                                <path d="M44.5133333,64.5822222 L37.18,64.5822222 L37.18,71.9155556 L44.5133333,71.9155556 L44.5133333,64.5822222 Z M38.4022222,65.8044444 L40.2111111,65.8044444 L40.2111111,70.6933333 L38.4388889,70.6933333 L38.4022222,65.8044444 Z M43.2911111,70.6933333 L41.4822222,70.6933333 L41.4822222,65.8044444 L43.2911111,65.8044444 L43.2911111,70.6933333 Z" id="Shape"></path>
                                <path d="M85.2988889,69.2266667 L92.6322222,69.2266667 L92.6322222,61.8933333 L85.2988889,61.8933333 L85.2988889,69.2266667 Z M91.41,68.0044444 L89.5522222,68.0044444 L89.5522222,63.1155556 L91.3611111,63.1155556 L91.41,68.0044444 Z M86.5211111,63.1155556 L88.33,63.1155556 L88.33,68.0044444 L86.5211111,68.0044444 L86.5211111,63.1155556 Z" id="Shape"></path>
                                <path d="M71.39,69.2266667 L78.7233333,69.2266667 L78.7233333,61.8933333 L71.39,61.8933333 L71.39,69.2266667 Z M77.5011111,68.0044444 L75.6433333,68.0044444 L75.6433333,63.1155556 L77.4522222,63.1155556 L77.5011111,68.0044444 Z M72.6122222,63.1155556 L74.4211111,63.1155556 L74.4211111,68.0044444 L72.6122222,68.0044444 L72.6122222,63.1155556 Z" id="Shape"></path>
                                <path d="M44.5133333,77.4155556 L37.18,77.4155556 L37.18,83.6733333 L35.6644444,83.6733333 L35.6644444,87.34 L46.0655556,87.34 L46.0655556,83.6733333 L44.5133333,83.6733333 L44.5133333,77.4155556 Z M43.2911111,83.5266667 L41.4822222,83.5266667 L41.4822222,78.6377778 L43.2911111,78.6377778 L43.2911111,83.5266667 Z M38.4022222,78.6377778 L40.2111111,78.6377778 L40.2111111,83.5266667 L38.4388889,83.5266667 L38.4022222,78.6377778 Z M44.8066667,86.1177778 L36.8866667,86.1177778 L36.8866667,84.8955556 L44.8433333,84.8955556 L44.8066667,86.1177778 Z" id="Shape"></path>
                                <circle id="Oval" cx="56.1122222" cy="84.1011111" r="1"></circle>
                                <polygon id="Shape" points="40.1011111 59.0455556 40.7733333 60.06 47.8011111 55.4277778 54.8288889 60.06 55.5011111 59.0455556 47.8011111 53.9611111"></polygon>
                                <path d="M69.8255556,87.3522222 L80.2266667,87.3522222 L80.2266667,83.6855556 L78.6744444,83.6855556 L78.6744444,77.4155556 L71.3411111,77.4155556 L71.3411111,83.6733333 L69.8255556,83.6733333 L69.8255556,87.3522222 Z M77.4522222,83.49 L75.6433333,83.49 L75.6433333,78.6011111 L77.4522222,78.6011111 L77.4522222,83.49 Z M72.5633333,78.6011111 L74.3722222,78.6011111 L74.3722222,83.49 L72.6122222,83.49 L72.5633333,78.6011111 Z M71.0111111,84.8588889 L78.9677778,84.8588889 L78.9677778,86.0811111 L71.0477778,86.0811111 L71.0111111,84.8588889 Z" id="Shape"></path>
                                <path d="M119.325556,71.8788889 L126.658889,71.8788889 L126.658889,64.5455556 L119.325556,64.5455556 L119.325556,71.8788889 Z M125.436667,70.6566667 L123.627778,70.6566667 L123.627778,65.7677778 L125.436667,65.7677778 L125.436667,70.6566667 Z M120.547778,65.7677778 L122.356667,65.7677778 L122.356667,70.6566667 L120.547778,70.6566667 L120.547778,65.7677778 Z" id="Shape"></path>
                                <path d="M113.055556,64.5822222 L105.722222,64.5822222 L105.722222,71.9155556 L113.055556,71.9155556 L113.055556,64.5822222 Z M106.944444,65.8044444 L108.777778,65.8044444 L108.777778,70.6933333 L106.993333,70.6933333 L106.944444,65.8044444 Z M111.833333,70.6933333 L110,70.6933333 L110,65.8044444 L111.833333,65.8044444 L111.833333,70.6933333 Z" id="Shape"></path>
                                <path d="M113.055556,77.4155556 L105.722222,77.4155556 L105.722222,83.6733333 L104.218889,83.6733333 L104.218889,87.34 L114.62,87.34 L114.62,83.6733333 L113.055556,83.6733333 L113.055556,77.4155556 Z M111.833333,83.5266667 L110,83.5266667 L110,78.6377778 L111.833333,78.6377778 L111.833333,83.5266667 Z M106.944444,78.6377778 L108.777778,78.6377778 L108.777778,83.5266667 L106.993333,83.5266667 L106.944444,78.6377778 Z M113.348889,86.1177778 L105.441111,86.1177778 L105.441111,84.8955556 L113.397778,84.8955556 L113.348889,86.1177778 Z" id="Shape"></path>
                                <circle id="Oval" cx="124.654444" cy="84.1011111" r="1"></circle>
                                <polygon id="Shape" points="108.643333 59.0455556 109.315556 60.06 116.343333 55.4277778 123.371111 60.06 124.055556 59.0455556 116.343333 53.9611111"></polygon>
                                <circle id="Oval" cx="90.4933333" cy="84.1011111" r="1"></circle>
                                <polygon id="Shape" points="75.0322222 58.52 79.2244444 61.2944444 79.8966667 60.2677778 75.0322222 57.0655556 70.1677778 60.2677778 70.84 61.2944444"></polygon>
                                <polygon id="Shape" points="88.9411111 58.52 93.1333333 61.2944444 93.8055556 60.2677778 88.9411111 57.0655556 84.0766667 60.2677778 84.7488889 61.2944444"></polygon>
                                <rect id="Rectangle-path" x="33.2933333" y="112.481111" width="13.9944444" height="1.22222222"></rect>
                                <rect id="Rectangle-path" x="89.2466667" y="112.481111" width="13.9944444" height="1.22222222"></rect>
                                <rect id="Rectangle-path" x="61.27" y="112.481111" width="13.9944444" height="1.22222222"></rect>
                                <rect id="Rectangle-path" x="117.235556" y="112.481111" width="13.9944444" height="1.22222222"></rect>
                                <path d="M82.2555556,4.88888889 C39.5354667,4.88888942 4.90336179,39.5191711 4.90111218,82.2392599 C4.89886257,124.959349 39.5273201,159.593278 82.2474087,159.597777 C124.967497,159.602277 159.60325,124.975644 159.61,82.2555556 C159.569584,39.5486485 124.962456,4.93605229 82.2555556,4.88888889 Z M82.2555556,6.11111111 C104.462353,6.12266115 125.558326,15.8248988 140.019797,32.6774322 C154.481267,49.5299657 160.86802,71.854456 157.507778,93.8055556 L146.96,93.8055556 L146.96,83.8444444 L150.455556,80.3488889 L149.587778,79.4811111 L146.96,82.1088889 L146.96,75.7777778 L145.737778,75.7777778 L145.737778,80.1411111 L143.867778,78.2711111 L143,79.1388889 L145.737778,81.8888889 L145.737778,93.7811111 L134.09,93.7811111 L134.09,54.4011111 L121.745556,54.4011111 L116.343333,50.8444444 L110.99,54.3766667 L103.4,54.3766667 L103.4,49.7688889 L98.7066667,49.7688889 L98.7066667,54.4011111 L69.0922222,54.4011111 L69.0922222,49.7688889 L64.3988889,49.7688889 L64.3988889,54.4011111 L53.2033333,54.4011111 L47.8011111,50.8444444 L42.4477778,54.3766667 L34.8577778,54.3766667 L34.8577778,49.7688889 L30.1522222,49.7688889 L30.1522222,54.4011111 L30.1522222,93.8177778 L18.7366667,93.8177778 L18.7366667,83.8444444 L22.2322222,80.3488889 L21.3644444,79.4444444 L18.7366667,82.0722222 L18.7366667,75.7777778 L17.5144444,75.7777778 L17.5144444,80.1411111 L15.6444444,78.3322222 L14.7766667,79.2 L17.5144444,81.8888889 L17.5144444,93.7811111 L7.00333333,93.7811111 C3.6509674,71.8338357 10.0413325,49.5162355 24.5018869,32.6694665 C38.9624413,15.8226975 60.0537291,6.123748 82.2555556,6.11111111 Z M151.555556,113.666667 C149.121869,119.010434 146.078715,124.055016 142.486667,128.7 L22,128.7 C18.4165675,124.053736 15.3816515,119.009214 12.9555556,113.666667 L19.2988889,113.666667 L19.2988889,112.444444 L12.4055556,112.444444 C10.3450557,107.728395 8.77242452,102.813923 7.71222222,97.7777778 L156.823333,97.7777778 C155.755169,102.8148 154.174342,107.729289 152.105556,112.444444 L145.212222,112.444444 L145.212222,113.666667 L151.555556,113.666667 Z M22.99,129.958889 L141.545556,129.958889 C141.044444,130.57 140.543333,131.181111 140.03,131.78 L24.5055556,131.78 C23.9922222,131.181111 23.4788889,130.582222 22.99,129.958889 Z M7.48,96.5555556 C7.39037037,96.0666667 7.30481481,95.5777778 7.22333333,95.0888889 L157.287778,95.0888889 C157.206296,95.5777778 157.120741,96.0666667 157.031111,96.5555556 L7.48,96.5555556 Z M33.6355556,54.4011111 L31.3744444,54.4011111 L31.3744444,50.9911111 L33.6233333,50.9911111 L33.6355556,54.4011111 Z M34.8577778,55.6233333 L40.6022222,55.6233333 L31.3622222,61.7344444 L31.3622222,55.6233333 L34.8577778,55.6233333 Z M98.6822222,93.7933333 L95.0888889,93.7933333 L95.0888889,91.5444444 L93.5366667,91.5444444 L93.5366667,75.6555556 L83.9055556,75.6555556 L83.9055556,91.5444444 L82.3655556,91.5444444 L82.3655556,93.7811111 L65.7433333,93.7811111 L65.7433333,73.3333333 L98.7433333,73.3333333 L98.6822222,93.7933333 Z M92.3144444,91.5444444 L85.1277778,91.5444444 L85.1277778,76.8777778 L92.3144444,76.8777778 L92.3144444,91.5444444 Z M93.5366667,92.7666667 L93.8666667,92.7666667 L93.8666667,93.7811111 L83.5877778,93.7811111 L83.5877778,92.7666667 L93.5366667,92.7666667 Z M132.867778,61.7588889 L123.554444,55.6477778 L132.867778,55.6477778 L132.867778,61.7588889 Z M132.867778,63.2255556 L132.867778,93.7811111 L129.201111,93.7811111 L129.201111,91.5444444 L127.648889,91.5444444 L127.648889,75.6555556 L118.078889,75.6555556 L118.078889,91.5444444 L116.538889,91.5444444 L116.538889,93.7811111 L99.9166667,93.7811111 L99.9166667,63.1644444 L116.343333,52.3355556 L132.867778,63.2255556 Z M126.487778,91.5444444 L119.301111,91.5444444 L119.301111,76.8777778 L126.487778,76.8777778 L126.487778,91.5444444 Z M127.71,92.7666667 L128.04,92.7666667 L128.04,93.7811111 L117.761111,93.7811111 L117.761111,92.7666667 L127.71,92.7666667 Z M99.9166667,61.71 L99.9166667,55.5988889 L109.144444,55.5988889 L99.9166667,61.71 Z M102.177778,54.3766667 L99.9288889,54.3766667 L99.9288889,50.9911111 L102.177778,50.9911111 L102.177778,54.3766667 Z M98.6822222,72.1111111 L65.6822222,72.1111111 L65.6822222,55.6233333 L98.6822222,55.6233333 L98.6822222,72.1111111 Z M67.87,54.4011111 L65.6211111,54.4011111 L65.6211111,50.9911111 L67.87,50.9911111 L67.87,54.4011111 Z M64.3255556,61.7344444 L55.0122222,55.6233333 L64.3255556,55.6233333 L64.3255556,61.7344444 Z M64.3255556,63.2011111 L64.3255556,93.7566667 L60.6588889,93.7566667 L60.6588889,91.5444444 L59.1677778,91.5444444 L59.1677778,75.6555556 L49.5366667,75.6555556 L49.5366667,91.5444444 L47.9844444,91.5444444 L47.9844444,93.7811111 L31.3622222,93.7811111 L31.3622222,63.2255556 L47.8011111,52.3844444 L64.3255556,63.2011111 Z M57.9455556,91.5444444 L50.7588889,91.5444444 L50.7588889,76.8777778 L57.9455556,76.8777778 L57.9455556,91.5444444 Z M59.1677778,92.7666667 L59.4977778,92.7666667 L59.4977778,93.7811111 L49.2066667,93.7811111 L49.2066667,92.7666667 L59.1555556,92.7666667 L59.1677778,92.7666667 Z M82.2555556,158.387778 C60.6054724,158.392292 39.9825344,149.156879 25.5688889,133.002222 L138.942222,133.002222 C124.528577,149.156879 103.905639,158.392292 82.2555556,158.387778 Z" id="Shape"></path>
                                <path d="M82.2555556,0 C36.8270666,-2.78169268e-15 5.56338535e-15,36.8270666 0,82.2555556 C-5.56338535e-15,127.684044 36.8270666,164.511111 82.2555556,164.511111 C127.684044,164.511111 164.511111,127.684044 164.511111,82.2555556 C164.457232,36.8494026 127.661709,0.0538786127 82.2555556,0 Z M82.2555556,162.066667 C38.177096,162.066667 2.44444444,126.334015 2.44444444,82.2555556 C2.44444444,38.177096 38.177096,2.44444444 82.2555556,2.44444444 C126.334015,2.44444444 162.066667,38.177096 162.066667,82.2555556 C162.019512,126.314468 126.314468,162.019512 82.2555556,162.066667 Z" id="Shape"></path>
                                <path d="M143.525556,83.7588889 L143.525556,82.5366667 C138.844444,82.5366667 138.465556,81.0822222 138.465556,79.3344444 C138.47392,77.6621729 139.767665,76.2779189 141.435556,76.1566667 L141.997778,76.0833333 L141.997778,75.5211111 C141.998469,73.2168157 143.731676,71.2815335 146.021954,71.0277544 C148.312232,70.7739753 150.427077,72.2828659 150.932222,74.5311111 L151.005556,74.8733333 L151.347778,74.9711111 C153.064192,75.4794815 154.242432,77.0554399 154.244444,78.8455556 C154.244444,79.7133333 153.963333,82.5122222 150.26,82.5122222 L150.26,83.7344444 C151.621979,83.8693643 152.975836,83.4092681 153.973583,82.4724163 C154.971331,81.5355645 155.515662,80.2133239 155.466667,78.8455556 C155.45148,76.6634968 154.089503,74.7178155 152.044444,73.9566667 C151.268465,71.3112437 148.722566,69.5901138 145.978521,69.8558592 C143.234475,70.1216046 141.066153,72.2992805 140.812222,75.0444444 C138.751109,75.4615208 137.265918,77.2682481 137.255556,79.3711111 C137.243333,82.4755556 139.064444,83.7588889 143.525556,83.7588889 Z" id="Shape"></path>
                                <path d="M15.3022222,83.7588889 L15.3022222,82.5366667 C10.6211111,82.5366667 10.2422222,81.0822222 10.2422222,79.3344444 C10.2505862,77.6621729 11.5443313,76.2779189 13.2122222,76.1566667 L13.7744444,76.0833333 L13.7744444,75.5211111 C13.7874031,73.2213968 15.5242649,71.297648 17.8107024,71.0505501 C20.0971399,70.8034522 22.2049023,72.3117081 22.7088889,74.5555556 L22.7822222,74.8977778 L23.1244444,74.9955556 C24.8408586,75.5039259 26.0190988,77.0798844 26.0211111,78.87 C26.0211111,79.7377778 25.74,82.5366667 22.0366667,82.5366667 L22.0366667,83.7588889 C23.3986459,83.8938088 24.7525029,83.4337125 25.7502501,82.4968608 C26.7479972,81.560009 27.292329,80.2377683 27.2433333,78.87 C27.2281463,76.6879413 25.8661694,74.74226 23.8211111,73.9811111 C23.045132,71.3356882 20.4992326,69.6145582 17.7551872,69.8803037 C15.0111418,70.1460491 12.8428198,72.323725 12.5888889,75.0688889 C10.5277757,75.4859652 9.0425846,77.2926925 9.03222222,79.3955556 C9.02,82.4755556 10.8411111,83.7588889 15.3022222,83.7588889 Z" id="Shape"></path>
                            </g>
                        </g>
                    </g>
                </g>
            </g>
        </g>
    </g>
</svg>