<?xml version="1.0" encoding="UTF-8"?>
<svg width="185px" height="185px" viewBox="0 0 185 185" version="1.1" xmlns="http://www.w3.org/2000/svg" xmlns:xlink="http://www.w3.org/1999/xlink">
    <!-- Generator: Sketch 51.3 (57544) - http://www.bohemiancoding.com/sketch -->
    <title>D2S_RuralHousing-v2</title>
    <desc>Created with Sketch.</desc>
    <defs></defs>
    <g id="Landing" stroke="none" stroke-width="1" fill="none" fill-rule="evenodd">
        <g id="SF-DTS---Home" transform="translate(-626.000000, -921.000000)">
            <g id="Intro-and-3-markets" transform="translate(0.000000, 707.000000)">
                <g id="Our-Markets" transform="translate(130.000000, 50.000000)">
                    <g id="card2" transform="translate(400.000000, 157.000000)">
                        <g id="D2S_RuralHousing-v2" transform="translate(96.000000, 7.000000)">
                            <circle id="Oval-2" fill="#FFFFFF" cx="92.5" cy="92.5" r="92.5"></circle>
                            <g id="icon" transform="translate(10.000000, 10.000000)" fill="#84BC41" fill-rule="nonzero">
                                <path d="M89.2222222,89.9066667 L101.774444,89.9066667 L101.774444,82.6833333 L89.2222222,82.6833333 L89.2222222,89.9066667 Z M100.564444,88.6844444 L96.4211111,88.6844444 L96.4211111,83.9055556 L100.552222,83.9055556 L100.564444,88.6844444 Z M90.4444444,83.9055556 L95.2111111,83.9055556 L95.2111111,88.6966667 L90.4444444,88.6966667 L90.4444444,83.9055556 Z" id="Shape"></path>
                                <polygon id="Shape" points="82.0966667 66.99 94.9177778 72.9544444 95.4311111 71.8422222 82.0966667 65.6455556 68.75 71.8422222 69.2633333 72.9544444"></polygon>
                                <path d="M62.6388889,82.6833333 L62.6388889,89.9188889 L75.2033333,89.9188889 L75.2033333,82.6833333 L62.6388889,82.6833333 Z M63.8611111,83.9055556 L68.6277778,83.9055556 L68.6277778,88.6966667 L63.8611111,88.6966667 L63.8611111,83.9055556 Z M73.9811111,88.6966667 L69.85,88.6966667 L69.85,83.9055556 L73.9811111,83.9055556 L73.9811111,88.6966667 Z" id="Shape"></path>
                                <circle id="Oval" cx="84.2966667" cy="89.5644444" r="1"></circle>
                                <path d="M82.2555556,4.88888889 C39.5354667,4.88888942 4.90336179,39.5191711 4.90111218,82.2392599 C4.89886257,124.959349 39.5273201,159.593278 82.2474087,159.597777 C124.967497,159.602277 159.60325,124.975644 159.61,82.2555556 C159.569584,39.5486485 124.962456,4.93605229 82.2555556,4.88888889 Z M82.2555556,6.11111111 C124.287441,6.15827311 158.347363,40.2236628 158.387778,82.2555556 C158.387778,84.7 158.265556,87.1444444 158.033333,89.5888889 L156.322222,89.5888889 L156.322222,87.6822222 L155.1,87.6822222 L155.1,89.5277778 L153.01,89.5277778 L153.01,87.6822222 L151.787778,87.6822222 L151.787778,89.5277778 L149.697778,89.5277778 L149.697778,87.6822222 L148.475556,87.6822222 L148.475556,89.5277778 L146.385556,89.5277778 L146.385556,87.6822222 L145.163333,87.6822222 L145.163333,89.5277778 L143.073333,89.5277778 L143.073333,87.6822222 L141.851111,87.6822222 L141.851111,89.5277778 L139.761111,89.5277778 L139.761111,83.9788889 L143.574444,80.1655556 L142.706667,79.2977778 L139.761111,82.2433333 L139.761111,75.2766667 L138.538889,75.2766667 L138.538889,80.1655556 L136.412222,78.0388889 L135.544444,78.9066667 L138.526667,81.8888889 L138.526667,89.54 L136.436667,89.54 L136.436667,87.6822222 L135.214444,87.6822222 L135.214444,89.5277778 L133.124444,89.5277778 L133.124444,87.6822222 L131.902222,87.6822222 L131.902222,89.5277778 L129.812222,89.5277778 L129.812222,87.6822222 L128.59,87.6822222 L128.59,89.5277778 L126.5,89.5277778 L126.5,87.6822222 L125.277778,87.6822222 L125.277778,89.5277778 L123.187778,89.5277778 L123.187778,68.75 L129.702222,62.2355556 L128.834444,61.3677778 L123.175556,67.0266667 L123.175556,54.2911111 L121.953333,54.2911111 L121.953333,63.47 L117.7,59.2044444 L116.832222,60.0722222 L121.965556,65.2055556 L121.965556,89.54 L119.875556,89.54 L119.875556,87.6822222 L118.653333,87.6822222 L118.653333,89.5277778 L116.563333,89.5277778 L116.563333,87.6822222 L115.341111,87.6822222 L115.341111,89.5277778 L113.251111,89.5277778 L113.251111,87.6822222 L112.028889,87.6822222 L112.028889,89.5277778 L110,89.5277778 L110,87.6822222 L108.777778,87.6822222 L108.777778,89.5277778 L106.773333,89.5277778 L106.773333,66.3055556 L91.2266667,66.3055556 L82.2188889,62.0888889 L73.3333333,66.3544444 L57.8233333,66.3544444 L57.8233333,89.5766667 L55.9533333,89.5766667 L55.9533333,87.6822222 L54.7311111,87.6822222 L54.7311111,89.5277778 L52.6411111,89.5277778 L52.6411111,87.6822222 L51.4188889,87.6822222 L51.4188889,89.5277778 L49.3288889,89.5277778 L49.3288889,87.6822222 L48.1066667,87.6822222 L48.1066667,89.5277778 L46.0166667,89.5277778 L46.0166667,87.6822222 L44.7944444,87.6822222 L44.7944444,89.5277778 L42.7044444,89.5277778 L42.7044444,87.6822222 L41.4822222,87.6822222 L41.4822222,89.5277778 L39.3922222,89.5277778 L39.3922222,75.9611111 L45.9066667,69.4466667 L45.0388889,68.5788889 L39.38,74.2377778 L39.38,61.5511111 L38.1577778,61.5511111 L38.1577778,70.73 L33.88,66.4644444 L33.0122222,67.3322222 L38.1455556,72.4655556 L38.1455556,89.5766667 L36.08,89.5766667 L36.08,87.6822222 L34.8577778,87.6822222 L34.8577778,89.5277778 L32.7677778,89.5277778 L32.7677778,87.6822222 L31.5455556,87.6822222 L31.5455556,89.5277778 L29.4555556,89.5277778 L29.4555556,87.6822222 L28.2333333,87.6822222 L28.2333333,89.5277778 L26.1433333,89.5277778 L26.1433333,87.6822222 L24.9211111,87.6822222 L24.9211111,89.5277778 L22.8311111,89.5277778 L22.8311111,87.6822222 L21.6088889,87.6822222 L21.6088889,89.5277778 L19.5555556,89.5277778 L19.5555556,87.6822222 L19.5555556,85.9588889 L22.6966667,82.8177778 L21.8288889,81.95 L19.5555556,84.2355556 L19.5555556,78.6866667 L18.3333333,78.6866667 L18.3333333,82.5 L16.7444444,80.9111111 L15.8766667,81.7788889 L18.3211111,84.2233333 L18.3211111,89.54 L16.2433333,89.54 L16.2433333,87.6822222 L15.0211111,87.6822222 L15.0211111,89.5277778 L12.8944444,89.5277778 L12.8944444,87.6822222 L11.6722222,87.6822222 L11.6722222,89.5277778 L9.58222222,89.5277778 L9.58222222,87.6822222 L8.36,87.6822222 L8.36,89.5277778 L6.47777778,89.5277778 C6.24555556,87.0833333 6.12333333,84.7 6.12333333,82.1944444 C6.19740717,40.1864182 40.2474904,6.15820049 82.2555556,6.11111111 Z M70.8888889,132.855556 L79.8111111,123.933333 L119.301111,148.695556 C114.961443,151.127005 110.392692,153.12481 105.661111,154.66 L70.8888889,132.855556 Z M104.133333,155.148889 C98.2805975,156.915061 92.2354461,157.965678 86.13,158.277778 L61.1844444,142.608889 L70.5588889,133.222222 L70.1922222,133.808889 L104.133333,155.148889 Z M80.7522222,123.053333 L88.4155556,115.39 L129.971111,141.484444 C126.989922,143.893771 123.831757,146.075479 120.523333,148.011111 L80.7522222,123.053333 Z M50.6,151.47 C47.3147056,149.962388 44.1411013,148.22242 41.1033333,146.263333 L89.5644444,97.7777778 L104.231111,97.7777778 L50.6,151.47 Z M74.5555556,96.5555556 L60.0355556,96.5555556 L59.0944444,96.5555556 L59.0944444,74.5555556 L82.3166667,63.5555556 L105.648889,74.5555556 L105.648889,96.5555556 L89.1122222,96.5555556 L86.6677778,96.5555556 L86.6677778,81.1555556 L77.8311111,81.1555556 L77.8311111,96.5555556 L74.6166667,96.5555556 L74.5555556,96.5555556 Z M9.58222222,96.5555556 L9.58222222,90.7622222 L11.6722222,90.7622222 L11.6722222,96.5555556 L12.8944444,96.5555556 L12.8944444,90.7622222 L14.9844444,90.7622222 L14.9844444,96.5555556 L7.49222222,96.5555556 C7.12555556,94.6407407 6.83222222,92.7014815 6.61222222,90.7377778 L8.36,90.7377778 L8.36,96.5555556 L9.58222222,96.5555556 Z M18.3333333,95.5411111 L18.3333333,96.5555556 L19.5555556,96.5555556 L19.5555556,90.7622222 L21.6455556,90.7622222 L21.6455556,96.5555556 L22.8677778,96.5555556 L22.8677778,90.7622222 L24.9577778,90.7622222 L24.9577778,96.5555556 L26.18,96.5555556 L26.18,90.7622222 L28.2333333,90.7622222 L28.2333333,96.5555556 L29.4555556,96.5555556 L29.4555556,90.7622222 L31.5455556,90.7622222 L31.5455556,96.5555556 L32.7677778,96.5555556 L32.7677778,90.7622222 L34.8577778,90.7622222 L34.8577778,96.5555556 L36.08,96.5555556 L36.08,90.7622222 L38.17,90.7622222 L38.17,96.5555556 L39.3922222,96.5555556 L39.3922222,90.7622222 L41.4822222,90.7622222 L41.4822222,96.5555556 L42.7044444,96.5555556 L42.7044444,90.7622222 L44.7944444,90.7622222 L44.7944444,96.5555556 L46.0166667,96.5555556 L46.0166667,90.7622222 L48.1066667,90.7622222 L48.1066667,96.5555556 L49.3288889,96.5555556 L49.3288889,90.7622222 L51.4188889,90.7622222 L51.4188889,96.5555556 L52.6411111,96.5555556 L52.6411111,90.7622222 L54.7311111,90.7622222 L54.7311111,96.5555556 L55.9533333,96.5555556 L55.9533333,90.7622222 L57.8233333,90.7622222 L57.8233333,96.5555556 L44.7944444,96.5555556 L29.5166667,96.5555556 L16.2066667,96.5555556 L16.2066667,90.7622222 L18.3333333,90.7622222 L18.3333333,95.5533333 L18.3333333,95.5411111 Z M66.5133333,69.5811111 L59.0455556,73.1377778 L59.0455556,67.5766667 L70.7055556,67.5766667 L66.5133333,69.5811111 Z M14.8255556,97.7777778 L9.15444444,103.473333 C8.55555556,101.615556 8.12777778,99.7211111 7.72444444,97.7777778 L14.8255556,97.7777778 Z M16.5488889,97.7777778 L28.2333333,97.7777778 L12.76,113.287778 C11.515811,110.531603 10.4383148,107.703175 9.53333333,104.817778 L16.5488889,97.7777778 Z M29.9933333,97.7777778 L43.5233333,97.7777778 L18.1255556,123.2 C16.3270524,120.399899 14.7143249,117.484741 13.2977778,114.473333 L29.9933333,97.7777778 Z M45.2222222,97.7777778 L58.7644444,97.7777778 L24.64,131.926667 C22.5374069,129.493118 20.5902169,126.929522 18.81,124.251111 L45.2222222,97.7777778 Z M93.8055556,67.5766667 L105.551111,67.5766667 L105.551111,73.1377778 L93.8055556,67.5766667 Z M85.3844444,96.5555556 L79.0533333,96.5555556 L79.0533333,82.3777778 L85.3844444,82.3777778 L85.3844444,96.5555556 Z M77.8311111,97.7777778 L87.8411111,97.7777778 L40.0644444,145.578889 C37.5413615,143.886813 35.1211615,142.046155 32.8166667,140.066667 L75.0811111,97.7777778 L77.8311111,97.7777778 Z M105.942222,97.7777778 L106.675556,97.7777778 L146.666667,122.833333 C144.793443,125.79552 142.718929,128.625516 140.457778,131.303333 L98.6822222,105.111111 L105.942222,97.7777778 Z M108.973333,97.7777778 L128.846667,97.7777778 L152.068889,112.358889 C150.660467,115.605976 149.026859,118.750672 147.18,121.77 L108.973333,97.7777778 Z M131.144444,97.7777778 L156.725556,97.7777778 C155.766123,102.378506 154.378985,106.879544 152.582222,111.222222 L131.144444,97.7777778 Z M106.7,96.5555556 L106.7,90.7622222 L108.777778,90.7622222 L108.777778,96.5555556 L110,96.5555556 L110,90.7622222 L112.09,90.7622222 L112.09,96.5555556 L113.312222,96.5555556 L113.312222,90.7622222 L115.402222,90.7622222 L115.402222,96.5555556 L116.624444,96.5555556 L116.624444,90.7622222 L118.714444,90.7622222 L118.714444,96.5555556 L119.936667,96.5555556 L119.936667,90.7622222 L122.026667,90.7622222 L122.026667,96.5555556 L123.248889,96.5555556 L123.248889,90.7622222 L125.338889,90.7622222 L125.338889,96.5555556 L126.561111,96.5555556 L126.561111,90.7622222 L128.651111,90.7622222 L128.651111,96.5555556 L129.873333,96.5555556 L129.873333,90.7622222 L131.963333,90.7622222 L131.963333,96.5555556 L133.185556,96.5555556 L133.185556,90.7622222 L135.275556,90.7622222 L135.275556,96.5555556 L136.497778,96.5555556 L136.497778,90.7622222 L138.587778,90.7622222 L138.587778,96.5555556 L139.81,96.5555556 L139.81,90.7622222 L141.9,90.7622222 L141.9,96.5555556 L143.122222,96.5555556 L143.122222,90.7622222 L145.212222,90.7622222 L145.212222,96.5555556 L146.434444,96.5555556 L146.434444,90.7622222 L148.524444,90.7622222 L148.524444,96.5555556 L149.746667,96.5555556 L149.746667,90.7622222 L151.836667,90.7622222 L151.836667,96.5555556 L153.058889,96.5555556 L153.058889,90.7622222 L155.148889,90.7622222 L155.148889,96.5555556 L156.371111,96.5555556 L156.371111,90.7622222 L157.96,90.7622222 C157.74,92.7259259 157.446667,94.6651852 157.08,96.58 L106.7,96.5555556 Z M25.4466667,132.855556 L60.4877778,97.7777778 L73.3333333,97.7777778 L31.8877778,139.272222 C29.6159163,137.262401 27.4651119,135.119759 25.4466667,132.855556 Z M51.7977778,152.007778 L60.3533333,143.452222 L83.9666667,158.338889 C83.3922222,158.338889 82.83,158.338889 82.2555556,158.338889 C71.7740479,158.360808 61.4022975,156.204882 51.7977778,152.007778 Z M131.01,140.677778 L89.2955556,114.51 L97.8511111,105.954444 L139.663333,132.183333 C137.007374,135.238548 134.113905,138.078888 131.01,140.677778 Z" id="Shape"></path>
                                <path d="M82.2555556,0 C36.8270666,-2.78169268e-15 5.56338535e-15,36.8270666 0,82.2555556 C-5.56338535e-15,127.684044 36.8270666,164.511111 82.2555556,164.511111 C127.684044,164.511111 164.511111,127.684044 164.511111,82.2555556 C164.457232,36.8494026 127.661709,0.0538786127 82.2555556,0 Z M82.2555556,162.066667 C38.177096,162.066667 2.44444444,126.334015 2.44444444,82.2555556 C2.44444444,38.177096 38.177096,2.44444444 82.2555556,2.44444444 C126.334015,2.44444444 162.066667,38.177096 162.066667,82.2555556 C162.019512,126.314468 126.314468,162.019512 82.2555556,162.066667 Z" id="Shape"></path>
                                <path d="M33.6355556,75.4966667 L33.6355556,74.2744444 C24.64,74.2744444 23.8577778,71.2677778 23.8577778,67.9311111 C23.8807813,64.6182192 26.4447692,61.8786886 29.7488889,61.6366667 L30.3111111,61.5388889 L30.3111111,60.9766667 C30.1191641,56.3796555 33.5197613,52.4190987 38.0929113,51.9134758 C42.6660613,51.4078529 46.8497315,54.5298674 47.6666667,59.0577778 L47.74,59.4 L48.0822222,59.4977778 C51.4265409,60.4889632 53.7196343,63.5630017 53.7166667,67.0511111 C53.7166667,70.5466667 51.6755556,74.2744444 45.9555556,74.2744444 L45.9555556,75.4966667 C52.5922222,75.4966667 54.9388889,70.95 54.9388889,67.0511111 C54.9277649,63.1901136 52.4764649,59.7582936 48.8277778,58.4955556 C47.5179413,53.8168213 43.0271801,50.7627896 38.1944962,51.2641805 C33.3618124,51.7655715 29.5936621,55.6764652 29.2722222,60.5244444 C25.5723893,61.0733762 22.8264947,64.2397197 22.8066667,67.98 C22.66,72.4777778 24.53,75.4966667 33.6355556,75.4966667 Z" id="Shape"></path>
                                <path d="M117.431111,68.2366667 L117.431111,67.0144444 C108.435556,67.0144444 107.653333,64.0077778 107.653333,60.6711111 C107.676337,57.3582192 110.240325,54.6186886 113.544444,54.3766667 L114.143333,54.3766667 L114.143333,53.7655556 C114.158971,49.3179522 117.508201,45.5894781 121.928667,45.0986626 C126.349133,44.6078471 130.434669,47.5108203 131.425556,51.8466667 L131.498889,52.1888889 L131.841111,52.2866667 C135.18543,53.2778521 137.478523,56.3518906 137.475556,59.84 C137.475556,63.3355556 135.434444,67.0633333 129.714444,67.0633333 L129.714444,68.2855556 C136.351111,68.2855556 138.697778,63.7388889 138.697778,59.84 C138.686654,55.9790025 136.235354,52.5471825 132.586667,51.2844444 C131.305448,46.5753803 126.801201,43.4879998 121.94701,43.9916222 C117.092819,44.4952445 113.318317,48.4415452 113.031111,53.3133333 C109.331278,53.8622651 106.585384,57.0286086 106.565556,60.7688889 C106.467778,65.2177778 108.325556,68.2366667 117.431111,68.2366667 Z" id="Shape"></path>
                                <path d="M16.3411111,85.91 L16.3411111,84.6877778 C11.8188889,84.6877778 11.8188889,83.1111111 11.8188889,81.8522222 C11.8340165,80.371254 12.9817851,79.149093 14.4588889,79.0411111 L15.0211111,78.98 L15.0211111,78.4177778 C15.0483716,76.3826121 16.5876903,74.6866525 18.6107032,74.4629092 C20.6337161,74.2391658 22.5064413,75.5577565 22.9777778,77.5377778 L23.0511111,77.88 L23.3933333,77.9777778 C24.9221532,78.4276845 25.9720012,79.8307989 25.9722222,81.4244444 C26.0200002,82.3554591 25.6517643,83.2595959 24.9671135,83.8923077 C24.2824626,84.5250195 23.3521409,84.8209291 22.4277778,84.7 L22.4277778,85.9222222 C23.6788307,86.0472673 24.9226108,85.6234906 25.8370648,84.7606212 C26.7515188,83.8977518 27.2467196,82.6806439 27.1944444,81.4244444 C27.2015897,79.4207535 25.9641948,77.6231208 24.09,76.9144444 C23.3734941,74.5076899 21.0544808,72.944053 18.5546475,73.1821324 C16.0548142,73.4202117 14.0726495,75.3934846 13.8233333,77.8922222 C11.9367628,78.2917917 10.5895634,79.9604818 10.5966667,81.8888889 C10.5966667,84.7366667 12.2222222,85.91 16.3411111,85.91 Z" id="Shape"></path>
                                <path d="M133.161111,74.4333333 C130.922543,74.8598519 129.298985,76.8111946 129.286667,79.09 C129.286667,81.5344444 130.105556,83.8444444 136.07,83.8444444 L136.07,82.6222222 C130.936667,82.6222222 130.508889,80.9477778 130.508889,79.09 C130.522648,77.2469408 131.946641,75.721993 133.784444,75.5822222 L134.346667,75.5088889 L134.346667,74.9466667 C134.399441,72.4591191 136.286259,70.3952271 138.75911,70.1201223 C141.231962,69.8450176 143.526247,71.443762 144.124444,73.8588889 L144.197778,74.2011111 L144.54,74.2988889 C146.42621,74.8612477 147.718715,76.5961881 147.717778,78.5644444 C147.717778,79.5177778 147.4,82.6222222 143.342222,82.6222222 L143.342222,83.8444444 C147.473333,83.8444444 148.94,80.9966667 148.94,78.5644444 C148.948374,76.2002865 147.486159,74.0800743 145.273333,73.2477778 C144.463554,70.352229 141.688616,68.4586099 138.697127,68.7601712 C135.705639,69.0617326 133.364468,71.4710884 133.148889,74.47 L133.161111,74.4333333 Z" id="Shape"></path>
                            </g>
                        </g>
                    </g>
                </g>
            </g>
        </g>
    </g>
</svg>