<?xml version="1.0" encoding="UTF-8"?>
<svg width="185px" height="185px" viewBox="0 0 185 185" version="1.1" xmlns="http://www.w3.org/2000/svg" xmlns:xlink="http://www.w3.org/1999/xlink">
    <!-- Generator: Sketch 51.3 (57544) - http://www.bohemiancoding.com/sketch -->
    <title>D2S_ManufacturedHousing-v2</title>
    <desc>Created with Sketch.</desc>
    <defs></defs>
    <g id="Landing" stroke="none" stroke-width="1" fill="none" fill-rule="evenodd">
        <g id="SF-DTS---Home" transform="translate(-233.000000, -921.000000)">
            <g id="Intro-and-3-markets" transform="translate(0.000000, 707.000000)">
                <g id="Our-Markets" transform="translate(130.000000, 50.000000)">
                    <g id="card1" transform="translate(17.000000, 164.000000)">
                        <g id="D2S_ManufacturedHousing-v2" transform="translate(86.000000, 0.000000)">
                            <circle id="Oval-2" fill="#FFFFFF" cx="92.5" cy="92.5" r="92.5"></circle>
                            <g id="icon" transform="translate(10.000000, 11.000000)" fill="#00A6E2" fill-rule="nonzero">
                                <path d="M143.527738,86.1289792 L143.527738,84.9103218 C138.531243,84.9103218 138.1169,83.2895076 138.1169,81.4737082 C138.125122,79.6763514 139.516931,78.1889224 141.309782,78.0614678 L141.870364,77.9883483 L141.870364,77.427766 C142.005681,75.0529216 143.835281,73.1225307 146.199465,72.8601786 C148.56365,72.5978265 150.771954,74.0801336 151.424638,76.3675341 L151.497757,76.7087582 L151.838981,76.8062508 C153.677981,77.3520096 154.937994,79.0436023 154.934371,80.9618722 C154.934371,81.8880517 154.629706,84.9103218 150.66907,84.9103218 L150.66907,86.1289792 C154.715012,86.1289792 156.153028,83.3504405 156.153028,80.9618722 C156.152601,78.6302358 154.690454,76.549113 152.497056,75.7582055 C151.604246,73.0348769 148.934287,71.3018156 146.083392,71.5951175 C143.232497,71.8884195 140.971329,74.1287984 140.651707,76.9768628 C138.466797,77.4010539 136.885374,79.3089642 136.873869,81.5346411 C136.898243,84.7884561 138.811534,86.1289792 143.527738,86.1289792 Z" id="Shape"></path>
                                <path d="M82.3023952,5.16138774 C39.7069102,5.16138827 5.17581843,39.6906621 5.17357538,82.2861471 C5.17133233,124.881632 39.6987873,159.414542 82.2942721,159.419029 C124.889757,159.423516 159.424486,124.89788 159.431216,82.3023952 C159.390918,39.7200535 124.88473,5.20841358 82.3023952,5.16138774 Z M82.3023952,6.38004504 C105.022715,6.37614578 126.549834,16.5510664 140.969304,34.1093079 C155.388774,51.6675493 161.183845,74.7622025 156.762357,97.0481486 L147.134964,97.0481486 L147.134964,86.2508449 L150.790936,82.594873 L149.925689,81.7296263 L147.074031,84.5812844 L147.074031,77.7568035 L145.855374,77.7568035 L145.855374,82.4851938 L143.808029,80.4378495 L142.942783,81.3030962 L145.855374,84.2156872 L145.855374,97.0603352 L135.167749,97.0603352 L135.167749,91.9054148 L135.167749,70.0792624 L135.167749,57.4052264 L116.741651,57.4052264 L113.32941,55.3944419 L109.965916,57.4052264 L30.1438625,57.4052264 L30.1438625,97.0603352 L18.8347227,97.0603352 L18.8347227,86.2508449 L22.4906946,82.594873 L21.6254479,81.7296263 L18.7737898,84.5812844 L18.7737898,77.7568035 L17.5551325,77.7568035 L17.5551325,82.4851938 L15.5077883,80.4378495 L14.6425416,81.3030962 L17.5551325,84.2156872 L17.5551325,97.0603352 L7.80587409,97.0603352 C3.3789791,74.7662839 9.17667322,51.661713 23.6049276,34.0990366 C38.0331819,16.5363603 59.5730776,6.36447025 82.3023952,6.38004504 Z M8.09835185,98.2789925 L67.8125598,98.2789925 C64.2784537,100.460389 58.1851671,102.922077 49.2645956,105.785921 C25.3789124,113.451276 18.5666181,117.533778 15.9465049,119.118032 C12.3129719,112.598638 9.66805452,105.575643 8.09835185,98.2789925 Z M31.3625198,67.9344256 L31.3625198,58.6238838 L107.869825,58.6238838 L91.8079222,68.1172242 L31.3625198,68.1172242 L31.3625198,67.9344256 Z M113.341597,56.8080844 L116.266374,58.5385777 L133.985652,69.3358815 L133.985652,91.9054148 L92.6853555,91.9054148 L92.6853555,69.0799634 L110.575245,58.4410852 L113.341597,56.8080844 Z M134.058771,67.6175747 L118.801182,58.6238838 L133.997838,58.6238838 L134.058771,67.6175747 Z M35.3475292,93.1362587 L35.3475292,97.0237755 L33.8729539,97.0237755 L33.8729539,93.1240721 L35.3475292,93.1362587 Z M45.742676,85.6902625 L45.742676,91.9176014 L39.0766206,91.9176014 L39.0766206,85.6780759 L45.742676,85.6902625 Z M91.5641907,69.348068 L91.5641907,91.9054148 L86.9454795,91.9054148 L86.9454795,73.4061969 L76.3675341,73.4061969 L76.3675341,91.9054148 L70.347367,91.9054148 L70.347367,69.3358815 L91.5641907,69.348068 Z M134.107517,93.1362587 L134.107517,97.0237755 L132.669502,97.0237755 L132.669502,93.1240721 L134.107517,93.1362587 Z M131.450844,97.0237755 L130.012829,97.0237755 L130.012829,93.1240721 L131.450844,93.1240721 L131.450844,97.0237755 Z M128.794171,97.0237755 L127.356156,97.0237755 L127.356156,93.1240721 L128.794171,93.1240721 L128.794171,97.0237755 Z M126.137499,97.0237755 L124.589804,97.0237755 L124.589804,93.1240721 L126.027819,93.1240721 L126.137499,97.0237755 Z M123.480826,97.0237755 L121.945317,97.0237755 L121.945317,93.1240721 L123.371146,93.1240721 L123.480826,97.0237755 Z M120.824153,97.0237755 L119.288644,97.0237755 L119.288644,93.1240721 L120.72666,93.1240721 L120.824153,97.0237755 Z M118.16748,97.0237755 L116.619785,97.0237755 L116.619785,93.1240721 L118.057801,93.1240721 L118.16748,97.0237755 Z M115.510807,97.0237755 L113.963112,97.0237755 L113.963112,93.1240721 L115.401128,93.1240721 L115.510807,97.0237755 Z M112.854134,97.0237755 L111.306439,97.0237755 L111.306439,93.1240721 L112.744455,93.1240721 L112.854134,97.0237755 Z M110.197461,97.0237755 L108.649766,97.0237755 L108.649766,93.1240721 L110.087782,93.1240721 L110.197461,97.0237755 Z M107.540788,97.0237755 L105.993093,97.0237755 L105.993093,93.1240721 L107.431109,93.1240721 L107.540788,97.0237755 Z M104.884115,97.0237755 L103.33642,97.0237755 L103.33642,93.1240721 L104.774436,93.1240721 L104.884115,97.0237755 Z M102.227442,97.0237755 L100.679747,97.0237755 L100.679747,93.1240721 L102.117763,93.1240721 L102.227442,97.0237755 Z M99.5707692,97.0237755 L98.0230745,97.0237755 L98.0230745,93.1240721 L99.4610901,93.1240721 L99.5707692,97.0237755 Z M96.9140963,97.0237755 L95.3420284,97.0237755 L95.3420284,93.1240721 L96.8044172,93.1240721 L96.9140963,97.0237755 Z M94.2574234,97.0237755 L92.697542,97.0237755 L92.697542,93.1240721 L94.1233711,93.1240721 L94.2574234,97.0237755 Z M41.7211069,93.1240721 L43.0981897,93.1240721 L43.0981897,97.0115889 L41.7211069,97.0115889 L41.7211069,93.1240721 Z M40.5024496,97.0115889 L39.0766206,97.0115889 L39.0766206,93.1240721 L40.5024496,93.1240721 L40.5024496,97.0115889 Z M44.316847,93.1240721 L45.6939297,93.1240721 L45.6939297,97.0115889 L44.2681007,97.0115889 L44.316847,93.1240721 Z M46.912587,93.1240721 L48.2896698,93.1240721 L48.2896698,97.0115889 L46.8638408,97.0115889 L46.912587,93.1240721 Z M49.5083271,93.1240721 L50.8854099,93.1240721 L50.8854099,97.0115889 L49.4595808,97.0115889 L49.5083271,93.1240721 Z M52.1040672,93.1240721 L53.4811499,93.1240721 L53.4811499,97.0115889 L52.0553209,97.0115889 L52.1040672,93.1240721 Z M54.6998072,93.1240721 L56.07689,93.1240721 L56.07689,97.0115889 L54.6510609,97.0115889 L54.6998072,93.1240721 Z M57.2955473,93.1240721 L58.67263,93.1240721 L58.67263,97.0115889 L57.2589876,97.0115889 L57.2955473,93.1240721 Z M59.8912874,93.1240721 L61.2196238,93.1240721 L61.2196238,97.0115889 L59.8547276,97.0115889 L59.8912874,93.1240721 Z M62.4870274,93.1240721 L63.8641102,93.1240721 L63.8641102,97.0115889 L62.4382811,97.0115889 L62.4870274,93.1240721 Z M65.0827675,93.1240721 L66.4598502,93.1240721 L66.4598502,97.0115889 L65.0462078,97.0115889 L65.0827675,93.1240721 Z M67.6785075,93.1240721 L69.1530829,93.1240721 L69.1530829,97.0115889 L67.6419478,97.0115889 L67.6785075,93.1240721 Z M85.763382,91.9054148 L77.5861914,91.9054148 L77.5861914,74.6248542 L85.7268222,74.6248542 L85.763382,91.9054148 Z M86.9820393,93.1240721 L91.5154444,93.1240721 L91.5154444,94.4524086 L70.347367,94.4524086 L70.347367,93.1240721 L86.9454795,93.1240721 L86.9820393,93.1240721 Z M70.347367,95.6832524 L91.4788847,95.6832524 L91.4788847,97.0115889 L70.347367,97.0115889 L70.347367,95.6832524 Z M69.1287097,91.9176014 L62.4382811,91.9176014 L62.4382811,85.6780759 L69.1165232,85.6780759 L69.1287097,91.9176014 Z M61.2318104,91.9176014 L54.6510609,91.9176014 L54.6510609,85.6780759 L61.2196238,85.6780759 L61.2318104,91.9176014 Z M53.4445902,91.9176014 L46.8638408,91.9176014 L46.8638408,85.6780759 L53.4324036,85.6780759 L53.4445902,91.9176014 Z M37.8579633,97.0115889 L36.4808805,97.0115889 L36.4808805,93.1240721 L37.8579633,93.1240721 L37.8579633,97.0115889 Z M69.1287097,69.3358815 L69.1287097,84.4594186 L31.3503332,84.4594186 L31.3503332,69.3358815 L69.1287097,69.3358815 Z M31.3503332,85.6780759 L37.8457767,85.6780759 L37.8457767,91.9054148 L31.3625198,91.9054148 L31.3503332,85.6780759 Z M31.3503332,93.1240721 L32.6542966,93.1240721 L32.6542966,97.0115889 L31.3625198,97.0115889 L31.3503332,93.1240721 Z M16.5558335,120.166078 C19.1028273,118.618383 25.8176291,114.584627 49.6423794,106.943646 C60.1837651,103.567965 66.7035817,100.850359 69.9817698,98.2789925 L91.3082727,98.2789925 C88.7369058,101.59374 85.5927699,104.250413 78.2808261,107.942945 C70.9688823,111.635477 67.3129103,116.266374 67.093552,121.872198 C66.4842234,136.617951 90.3333469,152.996706 96.3413274,156.884222 C64.6400528,162.888438 32.6152685,148.150287 16.5558335,120.166078 Z M98.0961939,156.542998 C95.4029612,154.849065 67.7150673,137.044481 68.3365825,121.920944 C68.5315677,116.790397 72.090047,112.403231 78.8657816,109.02755 C86.9089198,104.957235 90.0408691,102.081203 92.8437809,98.2668059 L156.518625,98.2668059 C150.174,127.477137 127.322335,150.271602 98.0961939,156.542998 Z" id="Shape"></path>
                                <path d="M82.3023952,0.286758514 C37.0064098,0.286758514 0.286758514,37.0064098 0.286758514,82.3023952 C0.286758514,127.598381 37.0064098,164.318032 82.3023952,164.318032 C127.598381,164.318032 164.318032,127.598381 164.318032,82.3023952 C164.26431,37.0286806 127.57611,0.340479977 82.3023952,0.286758514 Z M82.3023952,161.880717 C38.3525015,161.880717 2.72407313,126.252289 2.72407313,82.3023952 C2.72407313,38.3525015 38.3525015,2.72407313 82.3023952,2.72407313 C126.252289,2.72407313 161.880717,38.3525015 161.880717,82.3023952 C161.833701,126.232799 126.232799,161.833701 82.3023952,161.880717 Z" id="Shape"></path>
                                <path d="M15.2396837,86.1289792 L15.2396837,84.9103218 C10.2431887,84.9103218 9.82884522,83.2895076 9.82884522,81.4737082 C9.83706787,79.6763514 11.2288764,78.1889224 13.0217274,78.0614678 L13.5823097,77.9883483 L13.5823097,77.427766 C13.7176264,75.0529216 15.5472262,73.1225307 17.9114106,72.8601786 C20.275595,72.5978265 22.4838998,74.0801336 23.136583,76.3675341 L23.2097024,76.7087582 L23.5509265,76.8062508 C25.3899261,77.3520096 26.6499395,79.0436023 26.646316,80.9618722 C26.646316,81.8880517 26.3416517,84.9103218 22.3810155,84.9103218 L22.3810155,86.1289792 C26.4269577,86.1289792 27.8649733,83.3504405 27.8649733,80.9618722 C27.8645464,78.6302358 26.4023992,76.549113 24.2090014,75.7582055 C23.3161913,73.0348769 20.6462326,71.3018156 17.7953376,71.5951175 C14.9444425,71.8884195 12.683274,74.1287984 12.3636524,76.9768628 C10.1787423,77.4010539 8.59731938,79.3089642 8.58581477,81.5346411 C8.59800134,84.7884561 10.5234799,86.1289792 15.2396837,86.1289792 Z" id="Shape"></path>
                                <polygon id="Shape" points="96.0488496 70.6032851 113.146612 59.9278471 130.25656 70.6032851 130.902449 69.5674264 113.146612 58.502018 95.4029612 69.5674264"></polygon>
                                <circle id="Oval" cx="83.4966794" cy="83.2529479" r="1"></circle>
                                <path d="M56.8568307,81.0106185 L56.8568307,73.5889955 L39.8565612,73.5889955 L39.8565612,80.9984319 L56.8568307,81.0106185 Z M55.6381734,79.7919612 L48.9599313,79.7919612 L48.9599313,74.8076528 L55.6259868,74.8076528 L55.6381734,79.7919612 Z M41.0752185,74.8076528 L47.741274,74.8076528 L47.741274,79.7797746 L41.0752185,79.7797746 L41.0752185,74.8076528 Z" id="Shape"></path>
                                <path d="M119.386137,73.1137191 L106.907086,73.1137191 L106.907086,72.1875396 L101.837472,72.1875396 L101.837472,86.1655389 L106.907086,86.1655389 L106.907086,85.3734116 L119.386137,85.3734116 L119.386137,86.1655389 L124.455751,86.1655389 L124.455751,72.1875396 L119.386137,72.1875396 L119.386137,73.1137191 Z M119.386137,81.6443203 L113.75594,81.6443203 L113.75594,74.3323764 L119.386137,74.3323764 L119.386137,81.6443203 Z M112.537283,74.3323764 L112.537283,81.6443203 L106.907086,81.6443203 L106.907086,74.3323764 L112.537283,74.3323764 Z M103.056129,73.4061969 L105.688429,73.4061969 L105.688429,84.9712547 L103.056129,84.9712547 L103.056129,73.4061969 Z M106.907086,84.1791275 L106.907086,82.9604702 L119.386137,82.9604702 L119.386137,84.1791275 L106.907086,84.1791275 Z M123.237094,84.9712547 L120.604794,84.9712547 L120.604794,73.4061969 L123.237094,73.4061969 L123.237094,84.9712547 Z" id="Shape"></path>
                            </g>
                        </g>
                    </g>
                </g>
            </g>
        </g>
    </g>
</svg>