<?xml version="1.0" encoding="utf-8"?>
<!-- Generator: Adobe Illustrator 23.0.1, SVG Export Plug-In . SVG Version: 6.00 Build 0)  -->
<svg version="1.1" id="Layer_1" xmlns="http://www.w3.org/2000/svg" xmlns:xlink="http://www.w3.org/1999/xlink" x="0px" y="0px"
	 viewBox="0 0 276 96" style="enable-background:new 0 0 276 96;" xml:space="preserve">
<style type="text/css">
	.st0{fill:#00A6E2;}
	.st1{fill:none;stroke:#00A6E2;stroke-width:5;stroke-linejoin:round;}
	.st2{fill:#00A6E2;stroke:#00A6E2;stroke-width:5;stroke-linejoin:round;}
	.st3{fill:none;stroke:#00A6E2;stroke-width:5;stroke-linecap:round;stroke-linejoin:round;}
</style>
<g transform="translate(-329.000000, -2133.000000) translate(0.000000, 1863.000000) translate(0.000000, 234.000000) translate(328.000000, 31.000000)">
	<path class="st0" d="M2.3,44.5V13.4h10c2.7,0,5.2,0.6,7.4,1.9s3.9,3,5.1,5.3c1.2,2.3,1.9,4.8,1.9,7.6v1.4c0,2.8-0.6,5.4-1.8,7.7
		s-2.9,4-5.1,5.3c-2.2,1.3-4.6,1.9-7.3,1.9H2.3z M9.8,19.2v19.6h2.6c2.2,0,3.8-0.8,5-2.3s1.7-3.8,1.7-6.8v-1.3c0-3-0.6-5.3-1.7-6.8
		s-2.8-2.3-5-2.3H9.8z M38.6,44.5h-7.5V13.4h7.5V44.5z M43.8,44.5V13.4h10c2.7,0,5.2,0.6,7.4,1.9s3.9,3,5.1,5.3
		c1.2,2.3,1.9,4.8,1.9,7.6v1.4c0,2.8-0.6,5.4-1.8,7.7s-2.9,4-5.1,5.3c-2.2,1.3-4.6,1.9-7.3,1.9H43.8z M51.3,19.2v19.6h2.6
		c2.2,0,3.8-0.8,5-2.3s1.7-3.8,1.7-6.8v-1.3c0-3-0.6-5.3-1.7-6.8s-2.8-2.3-5-2.3H51.3z M94.4,26.9l5.7-13.5h8.1l-10,19.9v11.2h-7.6
		V33.4l-10-19.9h8.1L94.4,26.9z M136.2,29.6c0,3-0.6,5.7-1.7,8.1s-2.7,4.1-4.8,5.4c-2.1,1.3-4.4,1.9-7.1,1.9s-5-0.6-7.1-1.8
		s-3.7-3-4.8-5.2c-1.1-2.3-1.7-4.9-1.8-7.8v-1.8c0-3,0.6-5.7,1.7-8.1c1.1-2.3,2.7-4.1,4.8-5.4c2.1-1.3,4.5-1.9,7.1-1.9
		c2.6,0,5,0.6,7.1,1.9s3.7,3,4.8,5.4s1.7,5,1.7,8V29.6z M128.6,28.3c0-3.1-0.5-5.4-1.5-7c-1-1.6-2.5-2.4-4.4-2.4
		c-3.8,0-5.7,2.8-6,8.5l0,2.3c0,3,0.5,5.4,1.5,7s2.5,2.5,4.5,2.5c1.9,0,3.4-0.8,4.4-2.4c1-1.6,1.5-3.9,1.6-6.9V28.3z M164.5,13.4
		v20.4c0,2.3-0.5,4.3-1.5,6c-1,1.7-2.4,3-4.2,3.9s-4,1.3-6.5,1.3c-3.8,0-6.8-1-9-2.9c-2.2-2-3.3-4.7-3.3-8.1V13.4h7.5v20.7
		c0.1,3.4,1.7,5.1,4.7,5.1c1.6,0,2.7-0.4,3.5-1.3c0.8-0.9,1.2-2.2,1.2-4.2V13.4H164.5z M16.6,79l-4,4.4v10.6H3V53.8h9.7v17.7
		l3.4-5.1l8.7-12.6h12L23.1,71.6l13.6,22.4H25.2L16.6,79z M72.6,93.9H63L48.8,69v25h-9.7V53.8h9.7l14.2,25v-25h9.7V93.9z
		 M112.7,74.7c0,3.9-0.7,7.4-2.2,10.4c-1.5,3-3.5,5.3-6.2,7s-5.7,2.4-9.1,2.4s-6.5-0.8-9.1-2.4c-2.6-1.6-4.7-3.8-6.2-6.7
		c-1.5-2.9-2.3-6.3-2.3-10.1v-2.3c0-3.9,0.7-7.4,2.2-10.4c1.4-3,3.5-5.3,6.2-7c2.7-1.6,5.8-2.5,9.2-2.5c3.4,0,6.4,0.8,9.1,2.4
		c2.7,1.6,4.7,3.9,6.2,6.9s2.2,6.4,2.2,10.3V74.7z M102.9,73c0-4-0.7-7-2-9.1c-1.3-2.1-3.2-3.1-5.7-3.1c-4.9,0-7.4,3.6-7.7,10.9l0,3
		c0,3.9,0.7,7,2,9.1c1.3,2.1,3.2,3.2,5.8,3.2c2.4,0,4.3-1,5.7-3.1s2-5.1,2-9V73z M148.8,79l4.6-25.2h9.6l-8.5,40.1h-10l-5.4-22.9
		l-5.3,22.9h-10l-8.5-40.1h9.6l4.6,25.2l5.5-25.2h8.2L148.8,79z"/>
	<g transform="translate(126.000000, 8.000000)">
		<path class="st1" d="M146.2,39.8c0,21.2-21.1,38.4-47.1,38.4c-5.8,0-11.4-0.9-16.5-2.4L55.5,88.4l10.6-21.1
			C57.4,60.3,52,50.5,52,39.8C52,18.6,73.1,1.4,99.1,1.4S146.2,18.6,146.2,39.8z"/>
		<path class="st2" d="M103.2,58.7c0,1.1-0.9,2-2,2l0,0c-1.1,0-2-0.9-2-2l0,0c0-1.1,0.9-2,2-2l0,0C102.3,56.7,103.2,57.6,103.2,58.7
			L103.2,58.7z"/>
		<path class="st3" d="M88.9,30.1c0-6.8,5.5-12.3,12.3-12.3c6.8,0,12.3,5.5,12.3,12.3s-5.5,12.3-12.3,12.3v6.1"/>
	</g>
</g>
</svg>
