<?xml version="1.0" encoding="utf-8"?>
<!-- Generator: Adobe Illustrator 23.0.1, SVG Export Plug-In . SVG Version: 6.00 Build 0)  -->
<svg version="1.1" id="Layer_1" xmlns="http://www.w3.org/2000/svg" xmlns:xlink="http://www.w3.org/1999/xlink" x="0px" y="0px"
	 viewBox="0 0 212 123" style="enable-background:new 0 0 212 123;" xml:space="preserve">
<style type="text/css">
	.st0{fill:#FFFFFF;}
</style>
<g>
	<g>
		<path class="st0" d="M64.7,73.6c0-2.1-0.3-3.8-0.8-5.2c-0.5-1.4-1.2-2.5-2-3.4s-1.7-1.5-2.6-1.9c-0.9-0.4-1.8-0.6-2.6-0.7v-0.1
			c0.4-0.1,1.2-0.4,2.1-0.9c1-0.4,2-1.2,2.9-2.2c1-1,1.9-2.4,2.6-4c0.7-1.7,1.1-3.8,1.1-6.3c0-4.5-1.5-8.1-4.4-10.6
			c-2.9-2.5-7.3-3.8-13.2-3.8H22.6v53.3h9.3V65.9h13.7c2.1,0,3.9,0.3,5.3,0.8c1.4,0.5,2.4,1.4,3.2,2.6c0.8,1.2,1.3,2.6,1.6,4.4
			c0.3,1.8,0.4,3.9,0.4,6.3c0,1.3,0.1,2.6,0.2,4c0.1,1.4,0.5,2.7,1.2,3.8h10c-1-1.1-1.7-2.9-2.2-5.5C65,79.6,64.7,76.8,64.7,73.6z
			 M54,56.5c-1.5,1.4-3.8,2.1-6.8,2.1H31.9V42H47c1.2,0,2.3,0.1,3.5,0.3c1.1,0.2,2.1,0.6,3,1.2c0.9,0.6,1.6,1.4,2.1,2.5
			s0.7,2.4,0.7,4.1C56.3,53,55.5,55.1,54,56.5z"/>
		<path class="st0" d="M133.5,64.1c-0.9-1.2-2-2.3-3.2-3.2c-1.3-0.9-2.8-1.7-4.5-2.2c-0.7-0.2-1.9-0.5-3.5-0.9s-3.3-0.9-5-1.3
			c-1.7-0.4-3.2-0.9-4.6-1.2c-1.4-0.4-2.2-0.6-2.3-0.6c-1.9-0.5-3.4-1.4-4.6-2.4c-1.2-1.1-1.8-2.5-1.8-4.4c0-1.3,0.3-2.5,0.9-3.4
			c0.6-0.9,1.4-1.6,2.3-2.1c0.9-0.5,2-0.9,3.1-1.1c1.1-0.2,2.3-0.3,3.4-0.3c3.2,0,5.9,0.7,8,2.1c2.1,1.4,3.3,3.8,3.5,7.3h9.3
			c0-2.8-0.5-5.2-1.6-7.3s-2.6-3.9-4.4-5.3c-1.9-1.4-4-2.5-6.5-3.2s-5.1-1.1-7.9-1.1c-2.4,0-4.7,0.3-7.1,0.9
			c-2.3,0.6-4.4,1.6-6.3,2.9c-1.8,1.3-3.3,2.9-4.4,4.9c-1.1,2-1.7,4.3-1.7,7c0,1.4,0.2,2.8,0.6,4.1c0.4,1.3,1,2.6,1.9,3.8
			s2.1,2.3,3.6,3.2c1.5,1,3.4,1.8,5.7,2.3c3.7,1,6.8,1.8,9.3,2.4c2.5,0.6,4.7,1.3,6.6,2c1.1,0.4,2.1,1.1,3,2.1s1.4,2.5,1.4,4.5
			c0,1-0.2,2-0.6,2.9c-0.4,1-1,1.8-1.9,2.6c-0.9,0.7-2.1,1.4-3.5,1.8c-1.4,0.5-3.2,0.7-5.2,0.7c-1.9,0-3.6-0.2-5.3-0.6
			c-1.6-0.4-3-1.1-4.3-2c-1.2-0.9-2.2-2.1-2.9-3.5s-1-3.2-1-5.2h-9.3c0,3.3,0.7,6.1,1.9,8.5s2.8,4.4,4.8,5.9s4.3,2.7,7,3.4
			s5.5,1.1,8.6,1.1c2.6,0,5.2-0.3,7.8-0.9c2.5-0.6,4.8-1.6,6.8-2.9c2-1.3,3.6-3.1,4.8-5.2c1.2-2.1,1.8-4.7,1.8-7.6
			c0-1.4-0.2-2.8-0.6-4.2C135,66.7,134.3,65.4,133.5,64.1z"/>
		<polygon class="st0" points="153.5,79.6 153.5,64 180.3,64 180.3,56.4 153.5,56.4 153.5,42.5 182.5,42.5 182.5,34.4 144.2,34.4 
			144.2,87.7 183,87.7 183,79.6 		"/>
		<polygon class="st0" points="106,29.5 106,21.4 80.6,4.9 55.3,21.4 55.3,29.5 80.6,13 		"/>
		<polygon class="st0" points="99,4.9 92.1,4.9 92.1,10.3 99,14.8 		"/>
		<polygon class="st0" points="94.1,29.5 80.8,20.7 67.5,29.5 76,29.5 76,87.7 85.3,87.7 85.3,29.5 		"/>
	</g>
	<g>
		<path class="st0" d="M6.3,106.8v4.7H12v-4.7h1.4v10.9H12v-5H6.3v5H4.9v-10.9H6.3z"/>
		<path class="st0" d="M15.5,112.1c0.2-0.5,0.4-0.9,0.7-1.3s0.7-0.7,1.2-0.9s1-0.3,1.6-0.3s1.2,0.1,1.6,0.3c0.5,0.2,0.9,0.5,1.2,0.9
			s0.6,0.8,0.7,1.3s0.2,1,0.2,1.6s-0.1,1.1-0.2,1.6s-0.4,0.9-0.7,1.3c-0.3,0.4-0.7,0.7-1.2,0.9s-1,0.3-1.6,0.3s-1.2-0.1-1.6-0.3
			c-0.5-0.2-0.9-0.5-1.2-0.9c-0.3-0.4-0.6-0.8-0.7-1.3s-0.2-1-0.2-1.6C15.2,113.1,15.3,112.6,15.5,112.1z M16.8,115
			c0.1,0.4,0.3,0.7,0.5,0.9s0.5,0.4,0.8,0.6c0.3,0.1,0.6,0.2,1,0.2s0.7-0.1,1-0.2c0.3-0.1,0.6-0.3,0.8-0.6c0.2-0.2,0.4-0.6,0.5-0.9
			c0.1-0.4,0.2-0.8,0.2-1.3s-0.1-0.9-0.2-1.3c-0.1-0.4-0.3-0.7-0.5-0.9c-0.2-0.3-0.5-0.4-0.8-0.6c-0.3-0.1-0.6-0.2-1-0.2
			s-0.7,0.1-1,0.2c-0.3,0.1-0.6,0.3-0.8,0.6c-0.2,0.3-0.4,0.6-0.5,0.9c-0.1,0.4-0.2,0.8-0.2,1.3S16.7,114.6,16.8,115z"/>
		<path class="st0" d="M25.6,109.8v1.2l0,0c0.6-0.9,1.4-1.3,2.5-1.3c0.5,0,0.9,0.1,1.3,0.3s0.7,0.5,0.8,1c0.3-0.4,0.6-0.8,1-1
			s0.9-0.3,1.4-0.3c0.4,0,0.8,0,1.1,0.1c0.3,0.1,0.6,0.2,0.8,0.4s0.4,0.4,0.5,0.7s0.2,0.6,0.2,1v5.8h-1.3v-5.2c0-0.2,0-0.5-0.1-0.7
			c0-0.2-0.1-0.4-0.2-0.6s-0.3-0.3-0.5-0.4c-0.2-0.1-0.5-0.1-0.8-0.1c-0.6,0-1.1,0.2-1.5,0.5s-0.5,0.9-0.5,1.5v4.9H29v-5.2
			c0-0.3,0-0.5-0.1-0.7s-0.1-0.4-0.2-0.6c-0.1-0.2-0.3-0.3-0.4-0.4s-0.4-0.1-0.7-0.1c-0.4,0-0.7,0.1-1,0.2c-0.3,0.2-0.5,0.3-0.7,0.5
			s-0.3,0.4-0.4,0.7s-0.1,0.4-0.1,0.6v4.9h-1.3v-7.9h1.5V109.8z"/>
		<path class="st0" d="M42.9,117.1c-0.6,0.4-1.3,0.7-2.2,0.7c-0.6,0-1.2-0.1-1.6-0.3c-0.5-0.2-0.8-0.5-1.2-0.9s-0.5-0.8-0.7-1.3
			s-0.2-1.1-0.3-1.7c0-0.6,0.1-1.1,0.3-1.6c0.2-0.5,0.4-0.9,0.8-1.3c0.3-0.4,0.7-0.6,1.2-0.9c0.5-0.2,0.9-0.3,1.5-0.3
			c0.7,0,1.3,0.1,1.7,0.4c0.5,0.3,0.8,0.7,1.1,1.1c0.3,0.4,0.5,0.9,0.6,1.5c0.1,0.5,0.1,1,0.1,1.5h-5.9c0,0.3,0,0.7,0.1,1
			s0.2,0.6,0.4,0.8c0.2,0.2,0.5,0.4,0.8,0.6c0.3,0.1,0.7,0.2,1.1,0.2c0.5,0,1-0.1,1.3-0.4c0.3-0.3,0.6-0.6,0.7-1.2H44
			C43.9,116,43.5,116.7,42.9,117.1z M42.6,112.1c-0.1-0.3-0.3-0.5-0.5-0.7s-0.4-0.4-0.7-0.5c-0.3-0.1-0.6-0.2-0.9-0.2
			s-0.6,0.1-0.9,0.2c-0.3,0.1-0.5,0.3-0.7,0.5s-0.3,0.4-0.5,0.7s-0.2,0.6-0.2,0.9h4.5C42.8,112.7,42.7,112.4,42.6,112.1z"/>
		<path class="st0" d="M54.7,106.8c1.1,0,1.9,0.3,2.5,0.8S58,109,58,110s-0.3,1.8-0.8,2.4c-0.6,0.6-1.4,0.8-2.5,0.8h-3.3v4.4H50
			v-10.9h4.7V106.8z M54.2,112c0.8,0,1.4-0.2,1.8-0.5c0.4-0.3,0.6-0.8,0.6-1.5c0-0.6-0.2-1.1-0.6-1.5c-0.4-0.3-1-0.5-1.8-0.5h-2.8v4
			H54.2z"/>
		<path class="st0" d="M59.4,112.1c0.2-0.5,0.4-0.9,0.7-1.3s0.7-0.7,1.2-0.9s1-0.3,1.6-0.3s1.2,0.1,1.6,0.3c0.5,0.2,0.9,0.5,1.2,0.9
			s0.6,0.8,0.7,1.3c0.2,0.5,0.2,1,0.2,1.6s-0.1,1.1-0.2,1.6c-0.2,0.5-0.4,0.9-0.7,1.3c-0.3,0.4-0.7,0.7-1.2,0.9s-1,0.3-1.6,0.3
			s-1.2-0.1-1.6-0.3c-0.5-0.2-0.9-0.5-1.2-0.9s-0.6-0.8-0.7-1.3c-0.2-0.5-0.2-1-0.2-1.6C59.2,113.1,59.3,112.6,59.4,112.1z
			 M60.7,115c0.1,0.4,0.3,0.7,0.5,0.9s0.5,0.4,0.8,0.6c0.3,0.1,0.6,0.2,1,0.2c0.3,0,0.7-0.1,1-0.2c0.3-0.1,0.6-0.3,0.8-0.6
			c0.2-0.2,0.4-0.6,0.5-0.9c0.1-0.4,0.2-0.8,0.2-1.3s-0.1-0.9-0.2-1.3c-0.1-0.4-0.3-0.7-0.5-0.9c-0.2-0.3-0.5-0.4-0.8-0.6
			c-0.3-0.1-0.6-0.2-1-0.2c-0.3,0-0.7,0.1-1,0.2c-0.3,0.1-0.6,0.3-0.8,0.6s-0.4,0.6-0.5,0.9c-0.1,0.4-0.2,0.8-0.2,1.3
			S60.6,114.6,60.7,115z"/>
		<path class="st0" d="M69.3,115.9c0.1,0.2,0.3,0.4,0.5,0.5s0.4,0.2,0.7,0.3c0.2,0.1,0.5,0.1,0.8,0.1c0.2,0,0.4,0,0.6,0
			c0.2,0,0.4-0.1,0.6-0.2s0.3-0.2,0.5-0.4c0.1-0.2,0.2-0.4,0.2-0.6c0-0.3-0.1-0.6-0.4-0.8c-0.3-0.2-0.6-0.3-1-0.4
			c-0.4-0.1-0.8-0.2-1.2-0.3s-0.9-0.2-1.2-0.4c-0.4-0.2-0.7-0.4-1-0.7s-0.4-0.7-0.4-1.2c0-0.4,0.1-0.7,0.3-1s0.4-0.5,0.7-0.7
			s0.6-0.3,0.9-0.4c0.3-0.1,0.7-0.1,1-0.1c0.4,0,0.9,0,1.2,0.1c0.4,0.1,0.7,0.2,1,0.4s0.5,0.4,0.7,0.8s0.3,0.7,0.3,1.2h-1.3
			c0-0.3-0.1-0.5-0.2-0.6c-0.1-0.2-0.3-0.3-0.4-0.4c-0.2-0.1-0.4-0.2-0.6-0.2c-0.2,0-0.4-0.1-0.6-0.1c-0.2,0-0.4,0-0.6,0
			c-0.2,0-0.4,0.1-0.5,0.2c-0.2,0.1-0.3,0.2-0.4,0.3s-0.2,0.3-0.2,0.5s0.1,0.4,0.2,0.6c0.2,0.1,0.4,0.3,0.6,0.4
			c0.2,0.1,0.5,0.2,0.8,0.2c0.3,0.1,0.6,0.1,0.9,0.2c0.3,0.1,0.6,0.2,1,0.3c0.3,0.1,0.6,0.2,0.8,0.4s0.4,0.4,0.6,0.6
			c0.1,0.3,0.2,0.6,0.2,0.9c0,0.5-0.1,0.9-0.3,1.2s-0.5,0.6-0.8,0.8s-0.7,0.3-1.1,0.4s-0.8,0.1-1.2,0.1s-0.9,0-1.2-0.1
			s-0.7-0.2-1-0.4s-0.5-0.5-0.7-0.8s-0.3-0.8-0.3-1.2h1.3C69.1,115.5,69.2,115.7,69.3,115.9z"/>
		<path class="st0" d="M76.9,115.9c0.1,0.2,0.3,0.4,0.5,0.5s0.4,0.2,0.7,0.3c0.2,0.1,0.5,0.1,0.8,0.1c0.2,0,0.4,0,0.6,0
			c0.2,0,0.4-0.1,0.6-0.2s0.3-0.2,0.5-0.4c0.1-0.2,0.2-0.4,0.2-0.6c0-0.3-0.1-0.6-0.4-0.8c-0.3-0.2-0.6-0.3-1-0.4
			c-0.4-0.1-0.8-0.2-1.2-0.3s-0.9-0.2-1.2-0.4c-0.4-0.2-0.7-0.4-1-0.7s-0.4-0.7-0.4-1.2c0-0.4,0.1-0.7,0.3-1s0.4-0.5,0.7-0.7
			s0.6-0.3,0.9-0.4c0.3-0.1,0.7-0.1,1-0.1c0.4,0,0.9,0,1.2,0.1c0.4,0.1,0.7,0.2,1,0.4s0.5,0.4,0.7,0.8s0.3,0.7,0.3,1.2h-1.3
			c0-0.3-0.1-0.5-0.2-0.6c-0.1-0.2-0.3-0.3-0.4-0.4s-0.4-0.2-0.6-0.2c-0.2,0-0.4-0.1-0.6-0.1c-0.2,0-0.4,0-0.6,0
			c-0.2,0-0.4,0.1-0.5,0.2c-0.2,0.1-0.3,0.2-0.4,0.3c-0.1,0.1-0.2,0.3-0.2,0.5s0.1,0.4,0.2,0.6c0.2,0.1,0.4,0.3,0.6,0.4
			c0.2,0.1,0.5,0.2,0.8,0.2c0.3,0.1,0.6,0.1,0.9,0.2c0.3,0.1,0.6,0.2,1,0.3c0.3,0.1,0.6,0.2,0.8,0.4s0.4,0.4,0.6,0.6
			c0.1,0.3,0.2,0.6,0.2,0.9c0,0.5-0.1,0.9-0.3,1.2s-0.5,0.6-0.8,0.8s-0.7,0.3-1.1,0.4c-0.4,0.1-0.8,0.1-1.2,0.1s-0.9,0-1.2-0.1
			c-0.4-0.1-0.7-0.2-1-0.4s-0.5-0.5-0.7-0.8s-0.3-0.8-0.3-1.2h1.3C76.7,115.5,76.8,115.7,76.9,115.9z"/>
		<path class="st0" d="M83.6,108.4v-1.6h1.3v1.6H83.6z M84.9,109.8v7.9h-1.3v-7.9H84.9z"/>
		<path class="st0" d="M88.3,106.8v4.1l0,0c0.2-0.4,0.5-0.8,1-1s1-0.3,1.5-0.3c0.6,0,1.1,0.1,1.6,0.3s0.8,0.5,1.1,0.9
			s0.5,0.8,0.7,1.3s0.2,1,0.2,1.6s-0.1,1.1-0.2,1.6c-0.1,0.5-0.4,0.9-0.7,1.3c-0.3,0.4-0.7,0.7-1.1,0.9c-0.5,0.2-1,0.3-1.6,0.3
			c-0.2,0-0.4,0-0.6-0.1s-0.5-0.1-0.7-0.2c-0.2-0.1-0.5-0.2-0.7-0.4s-0.4-0.4-0.5-0.6l0,0v1H87v-10.9h1.3V106.8z M92.9,112.6
			c-0.1-0.3-0.2-0.7-0.4-0.9c-0.2-0.3-0.5-0.5-0.8-0.7s-0.7-0.2-1.1-0.2c-0.4,0-0.8,0.1-1.1,0.3s-0.6,0.4-0.7,0.7
			c-0.2,0.3-0.3,0.6-0.4,1c-0.1,0.4-0.1,0.7-0.1,1.1c0,0.4,0,0.8,0.1,1.1s0.2,0.7,0.4,1s0.5,0.5,0.8,0.7s0.7,0.3,1.1,0.3
			c0.4,0,0.8-0.1,1.1-0.3s0.5-0.4,0.7-0.7s0.3-0.6,0.4-1c0.1-0.4,0.1-0.7,0.1-1.1C93,113.3,93,112.9,92.9,112.6z"/>
		<path class="st0" d="M97.3,106.8v10.9H96v-10.9H97.3z"/>
		<path class="st0" d="M104.9,117.1c-0.6,0.4-1.3,0.7-2.2,0.7c-0.6,0-1.2-0.1-1.6-0.3c-0.5-0.2-0.8-0.5-1.2-0.9s-0.5-0.8-0.7-1.3
			s-0.2-1.1-0.3-1.7c0-0.6,0.1-1.1,0.3-1.6s0.4-0.9,0.8-1.3c0.3-0.4,0.7-0.6,1.2-0.9c0.5-0.2,0.9-0.3,1.5-0.3c0.7,0,1.3,0.1,1.7,0.4
			c0.5,0.3,0.8,0.7,1.1,1.1c0.3,0.4,0.5,0.9,0.6,1.5c0.1,0.5,0.1,1,0.1,1.5h-5.9c0,0.3,0,0.7,0.1,1s0.2,0.6,0.4,0.8s0.5,0.4,0.8,0.6
			c0.3,0.1,0.7,0.2,1.1,0.2c0.5,0,1-0.1,1.3-0.4c0.3-0.3,0.6-0.6,0.7-1.2h1.3C105.8,116,105.5,116.7,104.9,117.1z M104.6,112.1
			c-0.1-0.3-0.3-0.5-0.5-0.7s-0.4-0.4-0.7-0.5s-0.6-0.2-0.9-0.2c-0.3,0-0.6,0.1-0.9,0.2c-0.3,0.1-0.5,0.3-0.7,0.5s-0.3,0.4-0.5,0.7
			c-0.1,0.3-0.2,0.6-0.2,0.9h4.5C104.7,112.7,104.7,112.4,104.6,112.1z"/>
		<path class="st0" d="M117,106.8c1,0,1.8,0.3,2.4,0.8c0.6,0.5,0.9,1.2,0.9,2.1c0,0.7-0.2,1.2-0.4,1.7c-0.3,0.5-0.8,0.8-1.4,1l0,0
			c0.3,0.1,0.6,0.2,0.8,0.3s0.4,0.3,0.5,0.5s0.2,0.4,0.3,0.7c0.1,0.2,0.1,0.5,0.1,0.8s0,0.5,0,0.8s0,0.5,0.1,0.8
			c0,0.3,0.1,0.5,0.2,0.8s0.2,0.4,0.3,0.6h-1.6c-0.1-0.1-0.2-0.3-0.2-0.5s-0.1-0.4-0.1-0.6c0-0.2,0-0.5,0-0.8s0-0.5-0.1-0.8
			c0-0.3-0.1-0.5-0.2-0.8c-0.1-0.2-0.2-0.4-0.3-0.6c-0.1-0.2-0.3-0.3-0.5-0.4s-0.5-0.2-0.9-0.2h-3.5v4.6H112v-10.9L117,106.8
			L117,106.8z M117.3,111.7c0.3-0.1,0.6-0.1,0.8-0.3c0.2-0.1,0.4-0.3,0.5-0.6c0.1-0.2,0.2-0.6,0.2-1c0-0.5-0.2-1-0.5-1.3
			s-0.8-0.5-1.5-0.5h-3.6v3.8h3C116.7,111.8,117,111.8,117.3,111.7z"/>
		<path class="st0" d="M123.8,106.8v10.9h-1.4v-10.9H123.8z"/>
		<path class="st0" d="M131.7,108.3c-0.5-0.3-1.1-0.5-1.8-0.5c-0.3,0-0.6,0-0.9,0.1c-0.3,0.1-0.6,0.2-0.8,0.3s-0.4,0.3-0.5,0.6
			s-0.2,0.5-0.2,0.9c0,0.3,0.1,0.6,0.3,0.8s0.5,0.4,0.8,0.5s0.7,0.2,1.1,0.3c0.4,0.1,0.8,0.2,1.3,0.3s0.9,0.2,1.3,0.4
			s0.8,0.3,1.1,0.6c0.3,0.2,0.6,0.5,0.8,0.9s0.3,0.8,0.3,1.3c0,0.6-0.1,1.1-0.4,1.5c-0.3,0.4-0.6,0.7-1,1s-0.9,0.4-1.4,0.6
			c-0.5,0.1-1,0.2-1.5,0.2c-0.6,0-1.2-0.1-1.7-0.2c-0.5-0.2-1-0.4-1.4-0.7s-0.7-0.7-1-1.2c-0.2-0.5-0.4-1.1-0.4-1.7h1.4
			c0,0.5,0.1,0.8,0.3,1.2s0.4,0.6,0.7,0.8s0.6,0.4,1,0.5s0.8,0.2,1.2,0.2c0.3,0,0.7,0,1-0.1s0.6-0.2,0.9-0.3s0.5-0.3,0.6-0.6
			c0.2-0.3,0.2-0.6,0.2-1s-0.1-0.7-0.3-0.9s-0.5-0.4-0.8-0.6c-0.3-0.1-0.7-0.3-1.1-0.4s-0.8-0.2-1.3-0.3c-0.4-0.1-0.9-0.2-1.3-0.3
			c-0.4-0.1-0.8-0.3-1.1-0.5s-0.6-0.5-0.8-0.8s-0.3-0.7-0.3-1.2s0.1-1,0.3-1.4s0.5-0.7,0.9-1s0.8-0.5,1.3-0.6s1-0.2,1.5-0.2
			c0.6,0,1.1,0.1,1.6,0.2c0.5,0.1,0.9,0.3,1.3,0.6s0.6,0.6,0.9,1.1c0.2,0.4,0.3,0.9,0.3,1.5h-1.4
			C132.5,109.2,132.2,108.6,131.7,108.3z"/>
		<path class="st0" d="M143.6,106.8v1.2h-6.1v3.5h5.6v1.2h-5.6v3.8h6.1v1.2h-7.5v-10.9H143.6z"/>
		<path class="st0" d="M154.2,106.8l4.2,10.9h-1.6l-1.2-3.3H151l-1.2,3.3h-1.5l4.2-10.9H154.2z M155.2,113.2l-1.8-5.1l0,0l-1.8,5.1
			H155.2z"/>
		<path class="st0" d="M165.4,117.6l-1.6-6.2l0,0l-1.6,6.2h-1.4l-2.5-7.9h1.4l1.8,6.4l0,0l1.6-6.4h1.4l1.6,6.4l0,0l1.8-6.4h1.3
			l-2.5,7.9H165.4z"/>
		<path class="st0" d="M177.5,117.6c-0.2,0.1-0.5,0.2-0.9,0.2c-0.3,0-0.6-0.1-0.8-0.3s-0.3-0.5-0.3-0.9c-0.4,0.4-0.8,0.7-1.2,0.9
			c-0.5,0.2-1,0.3-1.5,0.3c-0.4,0-0.7,0-1-0.1s-0.6-0.2-0.8-0.4s-0.4-0.4-0.6-0.7c-0.1-0.3-0.2-0.6-0.2-1s0.1-0.8,0.2-1.1
			c0.2-0.3,0.4-0.5,0.6-0.7c0.2-0.2,0.5-0.3,0.9-0.4c0.3-0.1,0.6-0.2,1-0.2c0.4-0.1,0.7-0.1,1-0.2c0.3,0,0.6-0.1,0.8-0.2
			c0.2-0.1,0.4-0.2,0.6-0.3s0.2-0.3,0.2-0.6s-0.1-0.5-0.2-0.7c-0.1-0.2-0.2-0.3-0.4-0.4s-0.4-0.2-0.6-0.2c-0.2,0-0.4,0-0.6,0
			c-0.5,0-1,0.1-1.4,0.3s-0.6,0.6-0.6,1.2h-1.3c0-0.5,0.1-0.9,0.3-1.2s0.4-0.6,0.7-0.8s0.7-0.4,1-0.4c0.4-0.1,0.8-0.1,1.3-0.1
			c0.4,0,0.7,0,1.1,0.1c0.3,0.1,0.7,0.2,1,0.3c0.3,0.2,0.5,0.4,0.7,0.7s0.3,0.7,0.3,1.1v4c0,0.3,0,0.5,0.1,0.7
			c0,0.1,0.2,0.2,0.4,0.2c0.1,0,0.2,0,0.4-0.1v1H177.5z M175.4,113.6c-0.2,0.1-0.4,0.2-0.6,0.3s-0.5,0.1-0.8,0.1s-0.6,0.1-0.9,0.1
			c-0.3,0-0.6,0.1-0.8,0.2s-0.4,0.2-0.6,0.4c-0.1,0.2-0.2,0.4-0.2,0.8c0,0.2,0,0.4,0.1,0.5s0.2,0.3,0.3,0.4c0.1,0.1,0.3,0.2,0.5,0.2
			s0.4,0.1,0.6,0.1c0.4,0,0.8-0.1,1.1-0.2c0.3-0.1,0.6-0.3,0.7-0.4s0.3-0.4,0.4-0.6c0.1-0.2,0.1-0.4,0.1-0.6L175.4,113.6
			L175.4,113.6z"/>
		<path class="st0" d="M179.9,109.8v1.7l0,0c0.3-0.6,0.7-1.1,1.2-1.4c0.5-0.3,1-0.4,1.7-0.4v1.4c-0.5,0-1,0.1-1.3,0.2
			c-0.4,0.1-0.7,0.3-0.9,0.6c-0.2,0.3-0.4,0.6-0.5,1s-0.2,0.8-0.2,1.3v3.5h-1.3v-7.9L179.9,109.8L179.9,109.8z"/>
		<path class="st0" d="M189.2,117.6v-1.1l0,0c-0.2,0.4-0.5,0.8-1,0.9s-1,0.3-1.5,0.3c-0.6,0-1.1-0.1-1.6-0.3s-0.8-0.5-1.1-0.9
			c-0.3-0.4-0.5-0.8-0.7-1.3s-0.2-1-0.2-1.6s0.1-1.1,0.2-1.6s0.4-0.9,0.7-1.3c0.3-0.4,0.7-0.7,1.1-0.9s1-0.3,1.6-0.3
			c0.2,0,0.4,0,0.7,0.1c0.2,0,0.5,0.1,0.7,0.2c0.2,0.1,0.5,0.2,0.7,0.4s0.4,0.4,0.5,0.6l0,0v-4h1.3v10.9L189.2,117.6L189.2,117.6z
			 M184.6,114.9c0.1,0.3,0.2,0.7,0.4,0.9s0.5,0.5,0.8,0.7s0.7,0.2,1.1,0.2s0.8-0.1,1.1-0.3s0.6-0.4,0.7-0.7s0.3-0.6,0.4-1
			s0.1-0.7,0.1-1.1c0-0.4,0-0.8-0.1-1.1s-0.2-0.7-0.4-1s-0.5-0.5-0.8-0.7s-0.7-0.3-1.1-0.3s-0.8,0.1-1.1,0.3
			c-0.3,0.2-0.5,0.4-0.7,0.7s-0.3,0.6-0.4,1s-0.1,0.7-0.1,1.1C184.4,114.1,184.5,114.5,184.6,114.9z"/>
		<path class="st0" d="M193.5,115.9c0.1,0.2,0.3,0.4,0.5,0.5s0.4,0.2,0.7,0.3c0.2,0.1,0.5,0.1,0.8,0.1c0.2,0,0.4,0,0.6,0
			s0.4-0.1,0.6-0.2s0.3-0.2,0.5-0.4c0.1-0.2,0.2-0.4,0.2-0.6c0-0.3-0.1-0.6-0.4-0.8s-0.6-0.3-1-0.4c-0.4-0.1-0.8-0.2-1.2-0.3
			c-0.4-0.1-0.9-0.2-1.2-0.4c-0.4-0.2-0.7-0.4-1-0.7s-0.4-0.7-0.4-1.2c0-0.4,0.1-0.7,0.3-1c0.2-0.3,0.4-0.5,0.7-0.7s0.6-0.3,0.9-0.4
			c0.3-0.1,0.7-0.1,1-0.1c0.4,0,0.9,0,1.2,0.1c0.4,0.1,0.7,0.2,1,0.4s0.5,0.4,0.7,0.8s0.3,0.7,0.3,1.2H197c0-0.3-0.1-0.5-0.2-0.6
			s-0.3-0.3-0.4-0.4c-0.2-0.1-0.4-0.2-0.6-0.2s-0.4-0.1-0.6-0.1s-0.4,0-0.6,0s-0.4,0.1-0.5,0.2c-0.2,0.1-0.3,0.2-0.4,0.3
			s-0.2,0.3-0.2,0.5s0.1,0.4,0.2,0.6s0.4,0.3,0.6,0.4c0.2,0.1,0.5,0.2,0.8,0.2c0.3,0.1,0.6,0.1,0.9,0.2c0.3,0.1,0.6,0.2,1,0.3
			c0.3,0.1,0.6,0.2,0.8,0.4c0.2,0.2,0.4,0.4,0.6,0.6c0.1,0.3,0.2,0.6,0.2,0.9c0,0.5-0.1,0.9-0.3,1.2c-0.2,0.3-0.5,0.6-0.8,0.8
			s-0.7,0.3-1.1,0.4c-0.4,0.1-0.8,0.1-1.2,0.1c-0.4,0-0.9,0-1.2-0.1c-0.4-0.1-0.7-0.2-1-0.4s-0.5-0.5-0.7-0.8s-0.3-0.8-0.3-1.2h1.3
			C193.3,115.5,193.4,115.7,193.5,115.9z"/>
		<path class="st0" d="M201.5,106.7c-0.2-0.1-0.4-0.2-0.7-0.2c-0.1,0-0.2,0-0.3,0c-0.1,0-0.2,0.1-0.3,0.1c-0.1,0.1-0.1,0.1-0.2,0.2
			c0,0.1-0.1,0.2-0.1,0.3s0,0.2,0.1,0.3s0.2,0.1,0.3,0.2c0.1,0,0.3,0.1,0.4,0.1c0.2,0,0.3,0.1,0.5,0.1s0.3,0.1,0.5,0.1
			c0.2,0.1,0.3,0.1,0.4,0.2c0.1,0.1,0.2,0.2,0.3,0.3c0.1,0.1,0.1,0.3,0.1,0.5s0,0.4-0.1,0.5s-0.2,0.3-0.4,0.4
			c-0.1,0.1-0.3,0.2-0.5,0.2s-0.4,0.1-0.5,0.1c-0.2,0-0.4,0-0.6-0.1s-0.4-0.1-0.5-0.3c-0.2-0.1-0.3-0.3-0.4-0.4
			c-0.1-0.2-0.1-0.4-0.1-0.6h0.5c0,0.2,0,0.3,0.1,0.4c0.1,0.1,0.1,0.2,0.3,0.3c0.1,0.1,0.2,0.1,0.4,0.2c0.1,0,0.3,0.1,0.4,0.1
			s0.2,0,0.4,0c0.1,0,0.2-0.1,0.3-0.1c0.1-0.1,0.2-0.1,0.2-0.2c0.1-0.1,0.1-0.2,0.1-0.4c0-0.1,0-0.2-0.1-0.3s-0.2-0.2-0.3-0.2
			c-0.1-0.1-0.3-0.1-0.4-0.1c-0.2,0-0.3-0.1-0.5-0.1s-0.3-0.1-0.5-0.1s-0.3-0.1-0.4-0.2c-0.1-0.1-0.2-0.2-0.3-0.3
			c-0.1-0.1-0.1-0.3-0.1-0.5s0-0.4,0.1-0.5s0.2-0.3,0.3-0.4c0.1-0.1,0.3-0.2,0.5-0.2s0.3-0.1,0.5-0.1s0.4,0,0.6,0.1
			c0.2,0,0.3,0.1,0.5,0.2c0.1,0.1,0.2,0.2,0.3,0.4c0.1,0.2,0.1,0.3,0.1,0.6h-0.6C201.8,107.1,201.7,106.9,201.5,106.7z"/>
		<path class="st0" d="M203.9,106.2l1.2,3.3l1.3-3.3h0.7v4h-0.5v-3.3l0,0l-1.2,3.3H205l-1.2-3.3l0,0v3.3h-0.5v-4H203.9z"/>
	</g>
</g>
</svg>
