<svg id="Layer_1" xmlns="http://www.w3.org/2000/svg" viewBox="0 0 341.5 226.1" enable-background="new 0 0 341.5 226.1"><style>.st0,.st2{fill-rule:evenodd;clip-rule:evenodd;fill:#ec4f27}.st2{fill:#fff}</style><g id="Group-12" transform="translate(0 1)"><path id="Fill-1" class="st0" d="M6.5 225.1l21.9-.4-1.3-66.5 26-.5 1.3 66.5 21.9-.5-2.9-143.9-21.9.4 1.2 60.3-26 .5-1.2-60.2-21.9.4z"/><path id="Fill-2" class="st0" d="M122.2 207.8c2.1 0 4-.4 5.6-1.2 1.6-.8 2.9-2 3.9-3.9 1-1.8 1.7-4.2 2.2-7.2.5-3 .7-6.7.6-11.2l-1.3-65.5c-.1-4.6-.4-8.5-1-11.5-.6-3.1-1.4-5.6-2.5-7.4-1.1-1.9-2.4-3.2-4-3.9-1.6-.8-3.5-1.1-5.6-1.1-2.2 0-4.1.5-5.7 1.3-1.6.8-2.9 2.2-4 4.1-1 1.9-1.8 4.4-2.3 7.5-.5 3.1-.7 7-.6 11.6l1.3 65.5c.1 4.5.4 8.2 1 11.1.6 2.9 1.4 5.3 2.6 7.1s2.5 3 4.1 3.7c1.6.7 3.5 1 5.7 1m.3 16.4c-2.3 0-4.8-.1-7.5-.4-2.7-.3-5.4-1-8.1-2.2-2.7-1.1-5.2-2.7-7.7-4.9s-4.7-4.9-6.7-8.4-3.5-7.8-4.8-13c-1.2-5.2-1.9-11.4-2.1-18.5l-1-51c-.1-7.2.3-13.4 1.4-18.6 1-5.2 2.5-9.5 4.3-13.1 1.8-3.6 4-6.4 6.4-8.5 2.4-2.1 4.9-3.8 7.6-4.9 2.7-1.1 5.3-1.9 7.9-2.3 2.6-.4 5.1-.6 7.3-.6 2.1-.1 4.5.1 7.1.3 2.6.3 5.3.9 7.9 1.9 2.6 1 5.2 2.5 7.7 4.5s4.8 4.7 6.7 8.2c2 3.5 3.6 7.8 4.9 13 1.3 5.2 2 11.4 2.1 18.8l1 51c.1 7.1-.3 13.3-1.4 18.5-1.1 5.2-2.5 9.5-4.4 13.1-1.9 3.6-4 6.5-6.5 8.7-2.5 2.2-5 3.9-7.6 5.2-2.6 1.3-5.2 2.1-7.8 2.6-2.2.3-4.6.6-6.7.6"/><path id="Fill-4" class="st0" d="M165.5 78.1l28.5-.6 15 55.5c1.6 6.1 2.9 12 3.8 17.6 1 5.6 1.9 10.8 2.8 15.7h.7c.7-5 1.4-10.2 2.1-15.9.7-5.6 1.8-11.5 3.1-17.7l13.2-56 28-.6 2.9 143.9-20.4.4-.9-47.6c-.1-7.3-.2-14.3-.2-21.1 0-6.7.1-12.9.2-18.6.1-5.7.3-10.6.5-15 .2-4.3.4-7.8.6-10.3h-1.6l-19.9 94.4-13.8.3-23.8-93.5h-1.6c.3 2.5.6 5.9 1 10.3.4 4.3.7 9.3 1.1 14.9.3 5.6.6 11.8.9 18.6.3 6.7.5 13.8.6 21.1l.9 47.6-20.4.4-3.3-143.8z"/><g id="Group-8" transform="translate(273.09 76.783)"><defs><filter id="Adobe_OpacityMaskFilter" filterUnits="userSpaceOnUse" x="3.8" y="-1.9" width="57.1" height="145"><feColorMatrix values="1 0 0 0 0 0 1 0 0 0 0 0 1 0 0 0 0 0 1 0"/></filter></defs><mask maskUnits="userSpaceOnUse" x="3.8" y="-1.9" width="57.1" height="145" id="mask-2_1_"><g filter="url(#Adobe_OpacityMaskFilter)"><path id="path-1_1_" class="st2" d="M1.6-.8l55.6-2 5.1 144.7-55.6 2z"/></g></mask><path id="Fill-6" mask="url(#mask-2_1_)" fill-rule="evenodd" clip-rule="evenodd" fill="#ec4f27" d="M3.8-.9l53.5-1 .3 17.1-31.6.7.9 43 24.4-.5.3 17.2-24.4.5 1 49.3 32.4-.6.3 17.2-54.2 1z"/></g><path id="Fill-24" class="st0" d="M302.3-1L264 38.1l12.3-.2.3 30.2 20.5-.3-.2-18.4 12-.2.2 18.4 20.4-.2-.3-30.2 12.3-.2z"/></g><g id="Group-26" transform="translate(.651 .997)"><g id="Group-7" transform="translate(.895 .017)"><g id="Group-11" transform="translate(.106 4.23)"><defs><filter id="Adobe_OpacityMaskFilter_1_" filterUnits="userSpaceOnUse" x="-1.7" y="7.9" width="40.1" height="77.5"><feColorMatrix values="1 0 0 0 0 0 1 0 0 0 0 0 1 0 0 0 0 0 1 0"/></filter></defs><mask maskUnits="userSpaceOnUse" x="-1.7" y="7.9" width="40.1" height="77.5" id="mask-4_1_"><g filter="url(#Adobe_OpacityMaskFilter_1_)"><path id="path-3_1_" class="st2" d="M-1.7 8.4l38.1-1.3 2.7 77L1 85.5z"/></g></mask><path id="Fill-9" d="M16.8 76.5c1.6-.1 3-.4 4.2-.8 1.3-.5 2.3-1.2 3.2-2.1.9-.9 1.5-2 1.9-3.4.4-1.3.6-2.9.5-4.7l-.3-6c-.1-1.8-.4-3.4-.8-4.8s-1.1-2.5-2-3.4c-.9-.9-2-1.6-3.3-2-1.3-.4-3-.6-4.9-.5l-3.3.3 1.5 27.6 3.3-.2zm-3-35.7c1.6-.1 3-.3 4.2-.8 1.3-.4 2.3-1.1 3.2-1.9.9-.8 1.5-1.9 2-3.2.4-1.3.6-2.8.5-4.6l-.2-3.1c-.1-1.8-.4-3.4-.8-4.7s-1.1-2.5-2-3.4c-.9-.9-2-1.6-3.4-2-1.4-.4-3-.6-4.9-.5l-2.3.1 1.3 24.4 2.4-.3zM-1.7 8.7L10.2 8c1.7-.1 3.5-.1 5.4-.1 1.9 0 3.7.2 5.5.5 1.8.3 3.5.8 5.1 1.5s3.1 1.6 4.3 2.9c1.3 1.2 2.3 2.8 3.1 4.6.8 1.9 1.3 4.1 1.4 6.8l.2 3.7c.1 2-.1 3.9-.6 5.7-.5 1.7-1.2 3.3-2.1 4.6-.9 1.4-1.9 2.5-3.1 3.4-1.2.9-2.4 1.6-3.7 1.9v.4c3.9.5 6.8 2.1 8.9 4.9 2.1 2.8 3.3 6.5 3.5 11.1l.2 3.9c.2 2.8 0 5.2-.5 7.3-.5 2.1-1.3 3.9-2.3 5.4-1 1.5-2.3 2.8-3.8 3.8s-3.1 1.8-4.9 2.4c-1.8.6-3.7 1.1-5.8 1.4-2.1.3-4.2.5-6.4.6l-12.2.7-4.1-76.7z" mask="url(#mask-4_1_)" fill-rule="evenodd" clip-rule="evenodd" fill="#fff"/></g><path id="Fill-12" class="st2" d="M55.4 49.6c2-.1 3.8-.4 5.1-.9 1.4-.5 2.5-1.3 3.3-2.5s1.4-2.6 1.7-4.3.4-3.9.2-6.5l-.3-6.1c-.1-2-.4-3.7-.8-5.1-.4-1.4-1.1-2.6-2-3.5s-2.1-1.5-3.5-1.9c-1.4-.4-3.2-.5-5.3-.4l-1.8.2 1.7 31.1 1.7-.1zM40.1 10.7l12.6-.7c1.4-.1 3-.1 4.8-.1 1.7 0 3.5.2 5.2.6 1.8.4 3.5 1 5.1 1.8 1.7.8 3.1 2 4.5 3.6 1.3 1.5 2.4 3.5 3.3 5.9.9 2.4 1.4 5.3 1.6 8.8l.1 1.9c.3 5.8-.3 10.6-1.8 14.4-1.5 3.8-3.8 6.5-7 8.3l14 30-12.3.8-11.8-28.1-4.4.2 1.5 28.7-11.4.6-4-76.7z"/><path id="Fill-14" class="st2" d="M81.7 8.5l11.7-.6 4.1 76.7-11.7.6z"/><path id="Fill-16" class="st2" d="M101 7.4l9.5-.5 21.4 50.4h.3c-.2-1.2-.3-2.5-.6-4-.2-1.5-.5-3.1-.7-5-.2-1.9-.4-4-.7-6.3-.2-2.4-.4-5-.6-8l-1.5-28 10.5-.5 4.1 76.7-9.5.5-21.2-49h-.4c.2 1.3.4 2.8.6 4.4.2 1.6.5 3.4.7 5.5.2 2.1.5 4.6.7 7.4.2 2.8.5 6.2.7 10.1l1.2 22.6-10.4.5L101 7.4z"/><path id="Fill-18" class="st2" d="M165.9 81.7c-.9 0-2 0-3.2-.1-1.2-.1-2.5-.5-3.8-1-1.3-.6-2.6-1.4-3.9-2.5-1.3-1.1-2.5-2.6-3.6-4.4-1.1-1.9-2-4.2-2.7-6.9-.8-2.7-1.2-6-1.4-9.9l-1.4-27.2c-.2-3.9-.1-7.2.4-10s1.2-5.1 2.2-7.1c1-1.9 2.1-3.5 3.4-4.7 1.3-1.2 2.7-2.1 4.1-2.8 1.4-.7 2.9-1.1 4.3-1.4 1.4-.2 2.8-.4 4-.5 3.1-.2 5.8.1 8 .9 2.2.7 4 1.8 5.4 3.2 1.4 1.4 2.5 3.1 3.2 5 .7 1.9 1.1 4 1.2 6.3.1 1.6.1 3.2 0 4.6-.1 1.4-.3 3-.5 4.7l-9.3.5-.2-3.6c-.4-8.4-2.9-12.5-7.5-12.3-1.2.1-2.3.3-3.2.8-.9.5-1.6 1.2-2.1 2.3-.5 1-.9 2.4-1.1 4-.2 1.7-.2 3.7-.1 6.2l1.8 34.8c.1 2.4.4 4.4.7 6 .4 1.6.9 2.8 1.5 3.7.6.9 1.4 1.6 2.3 1.9.9.4 2 .5 3.2.4 1.3-.1 2.4-.5 3.3-1.2.9-.7 1.6-1.7 2.2-2.9.5-1.2.9-2.6 1.1-4.2.2-1.6.3-3.3.2-5.2l-.5-10-6 .3-.4-7.6 17.3-.9 2.1 38.9-7.7.4-1.6-7.2c-1.3 2.9-2.9 5.1-4.7 6.4-2.2 1.4-4.4 2.2-7 2.3"/><path id="Fill-20" class="st2" d="M202 2.1l11.7-.6 4.1 76.7-11.7.6z"/><path id="Fill-22" class="st2" d="M228.9 9.9l-12.4.6-.5-9.1 36.4-2 .5 9.2-12.3.6 3.5 67.6-11.6.7z"/></g></g></svg>