<svg width="148" height="34" xmlns="http://www.w3.org/2000/svg" xmlns:xlink="http://www.w3.org/1999/xlink"><defs><path id="a" d="M.26.328h13.898v14.478H.261z"/><path id="c" d="M.239.326h14.783v20.513H.24z"/><path id="e" d="M.146.326H14.93v20.513H.146z"/><path id="g" d="M0 33.452h147.478V.018H0z"/></defs><g fill="none" fill-rule="evenodd"><path fill="#FFF" d="M0 13.405v20.178h3.603V25.09h8.922v-3.022H3.603V16.54h9.465v-3.135z"/><g transform="translate(0 .53)"><path d="M14.498 19.372h3.288v2.28h.057a4.99 4.99 0 0 1 1.601-1.938c.687-.494 1.487-.741 2.402-.741.134 0 .277.005.43.014.152.01.285.034.4.071v3.136a4.896 4.896 0 0 0-.587-.115 4.128 4.128 0 0 0-.471-.028c-.782 0-1.411.143-1.887.428-.477.285-.849.627-1.116 1.026-.267.399-.448.807-.543 1.225-.095.418-.143.751-.143.998v7.325h-3.431V19.372z" fill="#FFF"/><g transform="translate(22.558 18.645)"><mask id="b" fill="#fff"><use xlink:href="#a"/></mask><path d="M10.726 6.2a4.21 4.21 0 0 0-.185-1.255c-.124-.4-.32-.75-.586-1.054a2.864 2.864 0 0 0-1.016-.727c-.41-.18-.891-.271-1.444-.271-1.03 0-1.901.31-2.616.926-.715.618-1.11 1.411-1.187 2.38h7.034zm3.432 1.538v.456c0 .153-.01.304-.029.456H3.692c.038.495.167.946.387 1.354.218.409.51.76.871 1.055.362.295.773.527 1.23.698.457.171.933.256 1.43.256.858 0 1.581-.156 2.173-.47a4.078 4.078 0 0 0 1.458-1.297l2.288 1.825c-1.354 1.824-3.317 2.736-5.891 2.736-1.068 0-2.05-.167-2.945-.5a6.936 6.936 0 0 1-2.33-1.41 6.35 6.35 0 0 1-1.545-2.238C.446 9.776.261 8.774.261 7.653c0-1.102.185-2.105.557-3.007a6.858 6.858 0 0 1 1.53-2.308A6.853 6.853 0 0 1 4.65.854 7.725 7.725 0 0 1 7.524.328c.953 0 1.834.156 2.645.47.81.314 1.51.78 2.102 1.397.59.617 1.052 1.387 1.386 2.308.334.922.501 2 .501 3.235z" fill="#FFF" mask="url(#b)"/></g><g transform="translate(37.963 12.613)"><mask id="d" fill="#fff"><use xlink:href="#c"/></mask><path d="M3.728 13.543c0 .532.08 1.064.242 1.596a4.37 4.37 0 0 0 .73 1.425c.323.418.734.76 1.23 1.026.495.266 1.076.399 1.744.399.629 0 1.19-.129 1.687-.385.496-.257.92-.594 1.272-1.012.353-.418.62-.888.801-1.41.18-.523.271-1.05.271-1.582s-.09-1.065-.27-1.597A4.33 4.33 0 0 0 9.36 9.552c-.496-.265-1.058-.399-1.687-.399-.668 0-1.249.129-1.744.385A3.657 3.657 0 0 0 4.7 10.55a4.405 4.405 0 0 0-.73 1.41 5.324 5.324 0 0 0-.242 1.583zm11.294 6.897h-3.26v-2.052h-.057a4.666 4.666 0 0 1-1.987 1.824 6.097 6.097 0 0 1-2.73.627c-1.05 0-1.988-.195-2.817-.585a6.47 6.47 0 0 1-2.116-1.567A6.959 6.959 0 0 1 .71 16.378a8.387 8.387 0 0 1-.472-2.835c0-1.008.162-1.948.486-2.822a6.892 6.892 0 0 1 1.373-2.28 6.415 6.415 0 0 1 2.116-1.525c.82-.37 1.716-.556 2.688-.556.63 0 1.19.071 1.687.214.495.142.929.318 1.3.527.372.21.692.437.958.684.268.248.487.485.658.713h.086V.326h3.431V20.44z" fill="#FFF" mask="url(#d)"/></g><g transform="translate(54.468 12.613)"><mask id="f" fill="#fff"><use xlink:href="#e"/></mask><path d="M3.635 13.543c0 .532.08 1.064.243 1.596a4.37 4.37 0 0 0 .73 1.425c.323.418.733.76 1.229 1.026.496.266 1.077.399 1.744.399.629 0 1.191-.129 1.687-.385.496-.257.92-.594 1.272-1.012.353-.418.62-.888.801-1.41.18-.523.272-1.05.272-1.582s-.091-1.065-.272-1.597a4.33 4.33 0 0 0-2.074-2.451c-.495-.265-1.057-.399-1.686-.399-.667 0-1.248.129-1.744.385a3.657 3.657 0 0 0-1.23 1.012 4.405 4.405 0 0 0-.73 1.41 5.324 5.324 0 0 0-.242 1.583zM14.93 20.44h-3.26v-2.052h-.057a4.666 4.666 0 0 1-1.988 1.824 6.097 6.097 0 0 1-2.73.627c-1.049 0-1.987-.195-2.817-.585a6.47 6.47 0 0 1-2.116-1.567 6.959 6.959 0 0 1-1.344-2.309 8.387 8.387 0 0 1-.472-2.835c0-1.008.162-1.948.487-2.822a6.892 6.892 0 0 1 1.372-2.28A6.415 6.415 0 0 1 4.12 6.916c.82-.37 1.716-.556 2.688-.556.63 0 1.191.071 1.687.214.496.142.93.318 1.301.527.371.21.691.437.958.684.267.248.486.485.657.713h.086V.326h3.432V20.44z" fill="#FFF" mask="url(#f)"/></g><mask id="h" fill="#fff"><use xlink:href="#g"/></mask><path d="M72.362 33.052h3.431v-13.68h-3.431v13.68zm-.486-18.326c0-.55.204-1.03.615-1.44.41-.407.93-.612 1.558-.612.629 0 1.158.196 1.587.585.429.39.643.879.643 1.467 0 .59-.214 1.08-.643 1.468-.43.39-.958.584-1.587.584s-1.149-.204-1.558-.612c-.41-.409-.615-.888-.615-1.44zM88.363 24.844c0-.437-.061-.855-.186-1.254-.123-.399-.319-.75-.585-1.054a2.874 2.874 0 0 0-1.016-.727c-.41-.18-.89-.27-1.443-.27-1.03 0-1.902.308-2.617.925-.715.618-1.11 1.411-1.187 2.38h7.034zm3.432 1.54v.455c0 .153-.01.304-.029.456H81.33a3.376 3.376 0 0 0 1.259 2.409c.361.295.771.527 1.229.698.457.171.934.256 1.43.256.858 0 1.582-.156 2.173-.47a4.08 4.08 0 0 0 1.459-1.296l2.287 1.824c-1.354 1.824-3.318 2.736-5.89 2.736-1.069 0-2.05-.167-2.946-.5a6.936 6.936 0 0 1-2.33-1.41 6.37 6.37 0 0 1-1.545-2.238c-.371-.882-.557-1.885-.557-3.006 0-1.102.186-2.105.557-3.007a6.86 6.86 0 0 1 1.53-2.308 6.845 6.845 0 0 1 2.302-1.483 7.726 7.726 0 0 1 2.874-.527 7.26 7.26 0 0 1 2.644.47 5.74 5.74 0 0 1 2.103 1.397c.59.618 1.053 1.387 1.386 2.308.334.922.5 2 .5 3.235zM96.43 12.874h5.634l5.261 14.336h.086l5.204-14.336h5.662v20.179h-3.575V16.835h-.057l-6.148 16.218h-2.516l-6.062-16.218h-.057v16.218H96.43zM129.761 26.81h-.772c-.553 0-1.135.025-1.744.072a7.622 7.622 0 0 0-1.688.314c-.514.161-.943.39-1.286.683-.344.295-.515.699-.515 1.212 0 .323.072.594.215.812.142.219.328.395.557.527.229.134.486.229.772.286.286.057.572.085.858.085 1.182 0 2.078-.313 2.688-.94.61-.628.915-1.483.915-2.566v-.484zm.057 4.504h-.085c-.344.608-.897 1.107-1.66 1.496-.762.39-1.629.585-2.601.585-.554 0-1.13-.072-1.73-.214a5.149 5.149 0 0 1-1.659-.713 4.13 4.13 0 0 1-1.257-1.31c-.335-.543-.501-1.212-.501-2.01 0-1.026.29-1.843.872-2.45.58-.609 1.33-1.075 2.245-1.398.915-.323 1.93-.536 3.045-.64a35.184 35.184 0 0 1 3.274-.158v-.342c0-.855-.31-1.486-.93-1.895-.619-.409-1.358-.613-2.215-.613-.725 0-1.42.152-2.088.456-.668.304-1.22.675-1.658 1.112l-1.773-2.08a7.76 7.76 0 0 1 2.702-1.626 9.255 9.255 0 0 1 3.103-.541c1.22 0 2.225.171 3.016.513.791.342 1.415.789 1.873 1.34.458.551.777 1.168.958 1.852.181.684.272 1.368.272 2.053v8.322h-3.203v-1.74zM145.133 23.163c-.267-.38-.667-.698-1.201-.955a3.726 3.726 0 0 0-1.63-.385c-.629 0-1.182.128-1.658.385a3.596 3.596 0 0 0-1.187 1.012 4.338 4.338 0 0 0-.7 1.41 5.63 5.63 0 0 0-.23 1.582c0 .533.082 1.06.244 1.583.161.522.405.992.73 1.41.323.418.728.755 1.215 1.012.485.256 1.053.385 1.7.385a4.36 4.36 0 0 0 1.602-.314 3.062 3.062 0 0 0 1.287-.912l2.144 2.166c-.572.608-1.3 1.079-2.187 1.41a8.12 8.12 0 0 1-2.874.5 8.487 8.487 0 0 1-2.873-.485 6.81 6.81 0 0 1-2.374-1.425 6.757 6.757 0 0 1-1.602-2.28c-.39-.893-.586-1.91-.586-3.05 0-1.101.196-2.099.586-2.992a6.84 6.84 0 0 1 1.588-2.28 7.092 7.092 0 0 1 2.33-1.454 7.837 7.837 0 0 1 2.845-.513c1.01 0 1.988.19 2.931.57.944.38 1.692.903 2.245 1.568l-2.345 2.052zM44.667 12.938V8.672L31.325.018 17.982 8.672v4.266l13.343-8.692zM41.007 5.202V.018h-3.66v2.81z" fill="#FFF" mask="url(#h)"/></g></g></svg>