<svg viewBox="0 0 189 50" xmlns="http://www.w3.org/2000/svg">
  <path d="M.71.984h3.071c.453 0 .922.016 1.406.047a9.39 9.39 0 0 1 1.418.2c.461.101.899.251 1.313.45.414.2.775.467 1.084.803.309.336.555.752.738 1.248.184.497.276 1.092.276 1.788v.972a4.5 4.5 0 0 1-.229 1.465 4.346 4.346 0 0 1-.603 1.178c-.25.34-.536.62-.856.844a2.84 2.84 0 0 1-.984.45v.094c.992.18 1.74.65 2.244 1.413.504.761.756 1.736.756 2.923v1.02c0 .726-.08 1.357-.24 1.892-.16.536-.385.993-.674 1.372-.29.378-.633.689-1.032.931a5.357 5.357 0 0 1-1.312.569 8.36 8.36 0 0 1-1.524.28A17.32 17.32 0 0 1 3.898 21H.711V.984zm3.563 8.567a3.98 3.98 0 0 0 1.114-.147 2.25 2.25 0 0 0 .861-.457c.238-.207.422-.476.55-.808.13-.332.194-.733.194-1.201v-.82c0-.47-.047-.884-.14-1.243a2.25 2.25 0 0 0-.463-.914 2.006 2.006 0 0 0-.844-.568c-.348-.13-.772-.194-1.272-.194h-.585v6.352h.585zm.282 9.34c.406 0 .775-.053 1.107-.159.332-.105.617-.27.856-.492.238-.222.421-.506.55-.85.13-.343.194-.75.194-1.218v-1.559c0-.468-.047-.884-.14-1.248a2.201 2.201 0 0 0-.464-.914 2.037 2.037 0 0 0-.838-.562c-.343-.13-.765-.194-1.265-.194h-.867v7.196h.867zM11.98.984h3.293c.375 0 .788.016 1.237.047.449.032.898.108 1.347.229.45.12.883.302 1.301.545a3.8 3.8 0 0 1 1.113.996c.325.422.584.95.78 1.588.195.636.293 1.408.293 2.314v.504c0 1.523-.219 2.764-.657 3.72-.437.958-1.082 1.647-1.933 2.07L21.964 21h-3.21l-2.66-7.488h-1.137V21H11.98V.984zm3.434 10.336c.531 0 .98-.058 1.348-.175.367-.118.664-.315.89-.592.227-.278.391-.645.493-1.102.101-.457.152-1.021.152-1.693V6.176c0-.516-.047-.961-.14-1.336a2.087 2.087 0 0 0-.475-.926 1.997 1.997 0 0 0-.885-.539c-.367-.117-.828-.176-1.383-.176h-.457v8.121h.457zM23.262.984h3.035V21h-3.035V.984zm5.457 0h2.46l4.852 13.395h.07a39.34 39.34 0 0 0-.093-1.043c-.04-.383-.074-.818-.106-1.307a55.486 55.486 0 0 1-.117-3.744v-7.3h2.719V21H36.02L31.19 7.957h-.093c.023.352.054.732.093 1.143.04.41.075.892.106 1.447a80.302 80.302 0 0 1 .117 4.57V21H28.72V.984zm16.25 20.203c-.235 0-.508-.025-.82-.076a3.431 3.431 0 0 1-.967-.322 4.088 4.088 0 0 1-.979-.697c-.32-.301-.607-.7-.861-1.196s-.46-1.105-.615-1.828c-.157-.722-.235-1.584-.235-2.584v-7.09c0-1.007.082-1.869.246-2.583.164-.715.383-1.317.657-1.805.273-.488.587-.877.943-1.166.355-.29.724-.51 1.107-.662a4.62 4.62 0 0 1 1.137-.3c.375-.046.723-.07 1.043-.07.813 0 1.498.112 2.057.335.558.222 1.011.527 1.359.914.348.386.598.838.75 1.353.152.516.229 1.063.229 1.64 0 .43-.026.827-.077 1.19-.05.364-.119.764-.205 1.201h-2.425v-.949c0-2.195-.59-3.293-1.77-3.293-.32 0-.598.055-.832.164-.234.11-.43.295-.586.557-.156.262-.271.607-.346 1.037-.074.43-.111.965-.111 1.606v9.07c0 .625.037 1.144.111 1.558.075.414.188.746.34.997.152.25.344.427.574.533.23.105.506.158.827.158.335 0 .625-.088.867-.264.242-.176.441-.416.597-.72.157-.305.272-.665.346-1.079.074-.414.111-.863.111-1.347v-2.614h-1.558v-1.992h4.512V21h-2.016l-.328-1.898c-.383.742-.822 1.275-1.319 1.6-.496.323-1.084.485-1.763.485zM56.329.985h3.034V21h-3.035V.984zm7.308 2.391h-3.223V.985h9.469v2.39h-3.211V21h-3.035V3.375zM1.21 23.146h3.92V33.97h4.647V23.146h3.92V49h-3.92V37.057H5.13V49H1.21V23.146zm23.66 26.081c-.414 0-.863-.033-1.348-.098a5.237 5.237 0 0 1-2.807-1.317c-.44-.389-.828-.9-1.166-1.537-.338-.635-.608-1.42-.81-2.353-.202-.934-.302-2.046-.302-3.338v-9.158c0-1.301.103-2.414.31-3.337.207-.924.482-1.7.825-2.331.343-.631.734-1.133 1.173-1.507a5.143 5.143 0 0 1 1.377-.855c.48-.197.956-.325 1.43-.386.475-.06.914-.09 1.318-.09.383 0 .81.027 1.279.083.469.055.938.176 1.407.363.47.187.926.464 1.37.832.444.369.838.868 1.18 1.499.344.63.619 1.413.826 2.346.207.934.31 2.061.31 3.383v9.158c0 1.282-.106 2.384-.318 3.307-.212.924-.49 1.706-.832 2.347-.343.64-.74 1.155-1.188 1.543-.45.389-.909.692-1.378.909-.47.217-.936.36-1.4.431-.464.07-.883.106-1.256.106zm0-2.952c.383 0 .719-.065 1.006-.196.288-.132.525-.359.712-.682.186-.322.328-.749.423-1.279.096-.53.144-1.198.144-2.005V30.352c0-.828-.048-1.52-.144-2.074-.095-.555-.237-1.002-.423-1.34-.187-.338-.424-.577-.712-.719a2.257 2.257 0 0 0-1.006-.212 2.35 2.35 0 0 0-1.03.212c-.292.142-.534.381-.726.72-.192.337-.336.784-.432 1.339-.095.555-.143 1.246-.143 2.074v11.76c0 .808.048 1.477.143 2.006.096.53.24.957.432 1.28.192.322.434.55.726.68.293.132.636.197 1.03.197zm11.08-23.129h5.117l2.482 10.006c.263 1.11.47 2.167.62 3.171.152 1.004.299 1.95.44 2.838h.121c.141-.888.288-1.834.439-2.838.151-1.004.358-2.061.62-3.171l2.559-10.006h5.01V49h-3.663v-8.552a181.89 181.89 0 0 1 .136-7.122c.04-1.014.086-1.91.136-2.687.05-.777.096-1.392.137-1.847h-.288L45.91 45.67h-2.483l-3.935-16.878h-.288c.04.455.086 1.07.136 1.847.05.777.096 1.673.137 2.687a177.242 177.242 0 0 1 .136 7.122V49H35.95V23.146zm22.828 0h9.581v3.088H62.7v7.735h4.374v3.088h-4.375v8.855h5.813V49h-9.733V23.146z" fill="#344150"/>
  <path d="M79.063 1.463h18.175V7.14H86.272v14.222h8.6v5.678h-8.6V49h-7.209V1.463zm25.49 0h8.295L121.643 49h-7.292l-1.308-8.517h-8.684L103.107 49h-7.32l8.767-47.537zm7.655 33.593l-3.34-23.685h-.306l-3.368 23.685h7.014zm21.538 14.361c-.742 0-1.545-.06-2.407-.18a9.457 9.457 0 0 1-2.589-.766c-.863-.39-1.688-.941-2.477-1.656-.788-.714-1.484-1.656-2.087-2.825-.603-1.169-1.086-2.611-1.448-4.328-.361-1.716-.542-3.762-.542-6.137V16.687c0-2.394.185-4.44.556-6.137.371-1.698.863-3.126 1.475-4.286.613-1.16 1.318-2.083 2.116-2.77.798-.686 1.623-1.21 2.477-1.572a9.796 9.796 0 0 1 2.546-.71 18.066 18.066 0 0 1 2.352-.167c1.893 0 3.475.265 4.746.794 1.27.528 2.291 1.252 3.061 2.17.77.919 1.317 1.99 1.642 3.215.325 1.225.487 2.524.487 3.897 0 1.02-.05 1.962-.153 2.825a38.181 38.181 0 0 1-.46 2.852h-5.844v-2.421c0-2.616-.287-4.574-.863-5.873-.575-1.298-1.42-1.948-2.532-1.948-.668 0-1.253.13-1.754.39-.5.26-.918.7-1.252 1.322-.334.621-.59 1.442-.766 2.463-.176 1.02-.264 2.291-.264 3.813v21.709c0 1.484.07 2.718.209 3.702.139.983.366 1.772.682 2.365.315.594.728 1.016 1.238 1.267.51.25 1.127.375 1.851.375.464 0 .91-.106 1.336-.32.427-.213.802-.547 1.127-1.002.325-.454.585-1.03.78-1.725.194-.696.292-1.517.292-2.463v-4.648h6.596V38.2c0 3.822-.872 6.643-2.616 8.461-1.745 1.818-4.25 2.737-7.515 2.755zm17.475-42.276h-7.654V1.463h22.488V7.14h-7.626V49h-7.208V7.14zm15.137 32.23c0-1.021.06-1.963.18-2.826a29.6 29.6 0 0 1 .543-2.797h5.595v2.31c0 1.28.078 2.412.236 3.396.158.983.418 1.813.78 2.49.361.678.844 1.188 1.447 1.531.603.344 1.34.515 2.212.515 1.373 0 2.422-.375 3.145-1.127.724-.751 1.086-1.85 1.086-3.298 0-.742-.051-1.424-.153-2.046a8.528 8.528 0 0 0-.529-1.85c-.25-.613-.59-1.258-1.016-1.935a25.289 25.289 0 0 0-1.642-2.268l-7.515-8.934c-1.336-1.707-2.365-3.428-3.089-5.163-.724-1.735-1.085-3.586-1.085-5.553 0-1.577.245-3.024.737-4.341.492-1.318 1.202-2.454 2.13-3.41.927-.955 2.073-1.698 3.436-2.226 1.364-.53 2.909-.794 4.635-.794 2.096 0 3.845.297 5.246.891 1.4.594 2.519 1.373 3.354 2.338a8.477 8.477 0 0 1 1.767 3.242c.343 1.197.515 2.399.515 3.605 0 1.02-.079 1.962-.237 2.825a213.52 213.52 0 0 1-.542 2.852h-5.567v-2.254c0-2.524-.362-4.458-1.085-5.803-.724-1.345-1.902-2.018-3.535-2.018-1.354 0-2.366.376-3.034 1.127-.668.752-1.002 1.758-1.002 3.02 0 .668.051 1.271.153 1.81a7.2 7.2 0 0 0 .446 1.488c.195.455.431.895.71 1.322.278.427.593.872.946 1.336l8.377 10.131c1.522 1.985 2.69 3.892 3.507 5.72a14.068 14.068 0 0 1 1.225 5.802c0 1.689-.265 3.21-.794 4.565-.528 1.354-1.284 2.505-2.268 3.451-.983.946-2.17 1.675-3.562 2.185s-2.96.765-4.704.765c-2.152 0-3.938-.287-5.358-.862-1.42-.576-2.55-1.336-3.395-2.283a8.14 8.14 0 0 1-1.781-3.228 13.457 13.457 0 0 1-.515-3.702z" fill="#EC4F27"/>
</svg>