<svg xmlns="http://www.w3.org/2000/svg" width="1371.748" height="840.606" viewBox="0 0 1371.748 840.606"><defs><style>.ac,.j,.m,.o,.r,.s,.v,.w,.x,.y,.z{fill-rule:evenodd}.j,.k{fill:#dde3e9}.d{fill:#e3e3e3}.g{fill:#84d5f2}.h{fill:#32b4e3}.i{fill:#f2f2f2}.m,.u{fill:#c5cfd6}.o{fill:#89c5cc}.r{fill:#c1dee2}.s{fill:#69a1ac}.v{fill:#d4a181}.w{fill:#191847}.x{fill:#2f3676}.y{fill:#b28b67}.z{fill:rgba(0,0,0,.1)}.ac{fill:#e4e4e4}</style></defs><g transform="translate(.109 -248)"><g><g transform="translate(0 524.027)"><path d="M934.985 474.227c.787 102.094-730.892 110.22-871.213 61.388S18.223 379.33 309.422 375.809s624.774-3.676 625.563 98.418z" style="fill-rule:evenodd;fill:#ddd;opacity:.22"/><path d="M323.37 261.91c11.21-47.013 248.341-102.229 485.193-128.165 201.88-22.106 403.418-23.118 467.265 19.773 139.1 93.442 127.833 275.08-178.714 293.798S302.652 348.809 323.371 261.91z" style="opacity:.1;fill:#dde3e9;fill-rule:evenodd"/></g><g transform="translate(595.196 562.876)"><path style="fill:#028dbe" d="M26.314 5.69H167.13v234.694H26.314z"/><path d="M20.628 246.073h152.2V0h-152.2zm140.816-11.379H32.004V11.379h129.437z" class="d"/><path d="M91.033 7.69h11.379v232.694H91.033z" class="d"/><path style="fill:#ccd5db" d="M14 242.674h167.131v13.356H14z"/><path d="M167.13 6.401v321.46a35.85 35.85 0 01-24.181 2.134 35.387 35.387 0 01-17.069-10.668l11.379-84.632a446.372 446.372 0 01-17.069-37.693C91.803 125.68 86.309 58.184 88.19 5.691z" style="fill:#30c0f4"/><path d="M138.209 30.581l8.534 193.919c-5.83-34.589-11-71.139-15.172-109.524q-5.05-46.436-7.586-89.61z" class="g"/><path d="M112.132 25.366a1290.009 1290.009 0 0029.396 203.402 985.779 985.779 0 01-33.164-117.282 985.788 985.788 0 01-14.723-86.12z" class="g"/><path d="M150.061 25.366a2335.25 2335.25 0 001.9 138.92q1.459 33.617 3.793 65.9l3.319-5.689 2.371-201.979z" class="g"/><path d="M145.321 242.674l1.421 78.786h-13.441z" class="g"/><path d="M159.749 242.674l1.692 72.385h-5.84z" class="g"/><path d="M167.13 231.137c-2.417 3.706-7.176 5.208-16.595 8.06a130.527 130.527 0 01-14.349 3.475l-6.039-13.432a54.457 54.457 0 0036.982-14.7c1.216 3.111 3.737 10.868.001 16.597z" class="g"/><path d="M29.159 52.629a3.8 3.8 0 007.349-.474l.948-46.465h-8.3z" class="g"/><path d="M46.228 7.917v44.344a3.649 3.649 0 001.188 1.65 3.914 3.914 0 002.845.835 3.777 3.777 0 003.229-2.607 2.6 2.6 0 00.085-.333l.469-21.855v-.007q.149-7.17.306-14.339l.171-7.692z" class="g"/><path d="M71.774 6.802c-.057 2.627-.114 5.248-.164 7.875l-.491 23.292v.042q-.139 6.86-.285 13.728a4.063 4.063 0 01-.142.507 3.8 3.8 0 01-3.179 2.5 3.851 3.851 0 01-4.025-2.544V6.329h.825z" class="g"/><path d="M89.838 7.695c-.057 2.578-.114 5.15-.164 7.729q-.107 4.737-.206 9.468v.082q-.288 13.414-.569 26.822c-.021.082-.036.164-.064.245a3.783 3.783 0 01-3.257 2.708 3.85 3.85 0 01-3.99-2.408c-.014-.027-.021-.061-.036-.089V7.231h.341z" class="g"/><path d="M107.085 7.695l-.171 7.729c-.007.491-.021 1-.028 1.487v.034l-.747 34.851a3.7 3.7 0 01-1.458 2.237 3.741 3.741 0 01-1.856.716 3.859 3.859 0 01-4.032-2.5V7.231h.654z" class="g"/><path d="M115.655 52.736a3.861 3.861 0 004.03 2.5 3.787 3.787 0 003.319-2.956l.948-44.567h-8.3z" class="g"/><path d="M132.708 52.736a3.861 3.861 0 004.03 2.5 3.786 3.786 0 003.319-2.956l.949-44.567h-8.3z" class="g"/><path d="M151.452 52.251a3.862 3.862 0 004.03 2.5 3.787 3.787 0 003.319-2.956l.948-44.567h-8.3z" class="g"/><path d="M26.918 7.231l-3.325 47.057a3.959 3.959 0 012.783-1.377 3.76 3.76 0 012.783 1.377V7.231z" class="h"/><path d="M38.563 6.69l-2.766 47.6a12.569 12.569 0 0111.616 0V6.69z" class="h"/><path d="M52.699 52.394c.192-.1.462-.229.789-.368a12.622 12.622 0 015.021-1.022 12.819 12.819 0 014.978 1c.27.111.548.243.825.389V6.282h-.827v.473h-8.129l-.462 7.874-.853 14.685z" class="h"/><path d="M70.28 52.394c.114-.061.249-.129.412-.2a12.8 12.8 0 015.391-1.164 12.97 12.97 0 015.5 1.212l.306.15V7.231h-.341v.463h-8.612l-.462 7.712-1.358 22.85z" class="h"/><path d="M87.833 52.394a10.455 10.455 0 011-.449 13.107 13.107 0 019.957.143 7.094 7.094 0 01.654.306V7.231h-.654v.463h-8.3l-.462 7.712-.562 9.448v.055z" class="h"/><path d="M107.43 7.714l-2.766 46.574a12.821 12.821 0 015.808-1.363 12.958 12.958 0 015.808 1.363V7.714z" class="h"/><path d="M124.451 7.714l-2.762 46.574a12.822 12.822 0 015.8-1.363 12.96 12.96 0 015.808 1.363V7.714z" class="h"/><path d="M139.515 52.394c.142-.075.327-.163.541-.258a13.1 13.1 0 0111.073.258V7.714h-8.954l-.462 7.709-1.358 22.9z" class="h"/><path d="M158.959 5.69l-2.766 46.7a12.8 12.8 0 015.808-1.367 12.93 12.93 0 015.808 1.367V5.69z" class="h"/><path d="M25.812 5.69H168.13v8.058H25.812z" class="g"/></g><g transform="translate(169.5)"><g transform="translate(0 441.565)"><ellipse cx="44.869" cy="23.754" class="i" rx="44.869" ry="23.754" transform="translate(7.39 12.669)"/><path d="M104.518 52.787C104.518 23.633 81.121 0 52.259 0S0 23.633 0 52.787" class="j"/></g><path d="M49.62 248h5.279v218.609H49.62z" class="k"/></g><g transform="translate(91.187)" style="opacity:.7"><g transform="translate(0 371.799)"><ellipse cx="33.538" cy="19.17" class="i" rx="33.538" ry="19.17" transform="translate(5.524 10.224)"/><path d="M78.124 42.6C78.124 19.073 60.636 0 39.062 0S0 19.073 0 42.6" class="j"/></g><path d="M36.951 248h5.279v148.08h-5.279z" class="k"/></g><g transform="translate(1.655 750.104)"><g transform="translate(22.82)"><path d="M24.068.172a16.782 16.782 0 018.519.9c5.62 2.386 7.218 9.026 7.141 14.422-.083 5.809-1.317 12.153 3.1 16.833 2.03 2.152 4.555 3.8 6.549 5.99a28.313 28.313 0 015.039 7.9c2.272 5.285 3.387 11.5 1.31 17.043-1.829 4.881-6.432 9.286-5.437 14.836 1.037 5.79 6.875 10.216 10.524 14.528 4.13 4.88 7.933 11.118 8.558 17.518.6 6.133-2.071 12.337-6.168 16.973-8.186 9.264-20.492 13.806-32.9 13.778-5.268-.012-11.232-.25-15.778-3.081a8.7 8.7 0 01-2.982-3.221 10.5 10.5 0 00-2.886-2.891 17.115 17.115 0 01-5.492-7.335c-4.5-11.145-.9-24.932 5.4-34.829 1.493-2.345 2.716-4.6 1.991-7.4-.757-2.917-2.618-5.549-4.264-8.057a64.806 64.806 0 01-4.754-7.523 17.07 17.07 0 01-1.471-8.819A30 30 0 016.526 42c3.4-4.471 7.386-8.748 7.4-14.606.01-6.208-4.141-11.731-2.373-18.043a12.028 12.028 0 014.573-6.862C18.394.99 21.4.5 24.068.172z" class="j"/><path d="M22.211 10.097a1.431 1.431 0 011.825-1.116c1.025.287 1.005 1.244.978 2.1a28.188 28.188 0 00.927 7.715c1.31 5.29 3.732 10.164 5.65 15.246s2.813 10.318 1.688 15.688c-1.06 5.066-2.725 10-3.81 15.072-.956 4.47-1.974 9.185-.517 13.644 1.4 4.292 4.5 7.788 6.729 11.666a55 55 0 016.94 26.1 48.812 48.812 0 01-.975 12.727c-.568 2.4-1.332 5.653-3.392 7.312-.95.765-2.575 1.03-3.374-.1-.751-1.063-.092-2.709.146-3.842a58.236 58.236 0 00.993-14.9 53.787 53.787 0 00-2.327-14.247 48.215 48.215 0 00-6.069-11.856c-2.567-3.812-5.236-7.631-6.3-12.147-1.078-4.587-.2-9.254.969-13.754 1.238-4.759 2.86-9.381 4.537-14.012a24.586 24.586 0 001.311-13.5c-1.78-9.324-6.55-18.081-5.929-27.796z" class="m"/></g><g transform="translate(31.749 9.922)"><path d="M90.181 1.57A21.324 21.324 0 0199.7 7.063c5.331 5.745 3.7 14.429.752 20.771-3.168 6.826-7.968 13.688-5.262 21.52 1.244 3.6 3.335 6.862 4.515 10.49a36.582 36.582 0 011.735 11.961c-.128 7.432-2.105 15.362-7.472 20.837-4.726 4.821-12.452 7.636-14.219 14.717-1.843 7.387 2.663 15.658 4.664 22.656 2.265 7.92 3.428 17.275.778 25.169-2.539 7.565-8.949 13.512-16.206 16.864-14.5 6.7-31.332 5.667-45.87-.821-6.172-2.755-13.042-6.139-16.878-11.852a11.176 11.176 0 01-1.794-5.361 13.485 13.485 0 00-1.859-4.914A22.065 22.065 0 01.02 137.57c.61-15.522 12.118-29.956 24.741-38.381 2.991-2 5.618-4.028 6.244-7.711.654-3.844-.138-7.924-.742-11.746-.6-3.777-1.525-7.539-1.6-11.37A22.27 22.27 0 0131.6 57.168c3.569-6.6 9.306-11.6 15.9-15.251 6.348-3.52 13.287-6.5 16.394-13.426 3.293-7.337 1.344-16.028 6.754-22.573C72.883 3.207 76.025.8 79.633.181c3.46-.595 7.24.385 10.548 1.389z" class="j"/><path d="M82.996 13.698a1.824 1.824 0 012.714-.368c1.048.876.524 2 .045 3a36.929 36.929 0 00-2.957 9.623c-1.239 6.952-.96 13.993-1.378 21.016s-2.111 13.7-6.24 19.47c-3.892 5.443-8.424 10.414-12.349 15.852-3.459 4.793-7.118 9.842-7.751 15.886-.61 5.817 1.182 11.58 1.759 17.343 1.194 11.929-1.076 23.551-5.556 34.551a63.783 63.783 0 01-7.806 14.561c-1.924 2.549-4.518 6-7.8 6.882-1.512.408-3.55-.13-3.891-1.891-.321-1.652 1.311-3.256 2.183-4.473a76.111 76.111 0 008.963-17.122 70.483 70.483 0 004.74-18.092 63.057 63.057 0 00-.888-17.221c-1.006-5.859-2.126-11.782-1-17.686 1.142-6 4.61-11.065 8.336-15.78 3.94-4.987 8.258-9.611 12.643-14.215a32.1 32.1 0 008.6-15.3c2.81-11.983 1.818-24.852 7.633-36.036z" class="m"/></g><g transform="translate(0 55.562)"><path d="M13.2 0c5.848 0 10.99 3.1 14.532 7.5 4.147 5.149 4.985 11.438 6.669 17.575a15.689 15.689 0 004.8 8.161c2.3 1.887 5.214 2.265 7.963 3.187a18.583 18.583 0 0111.685 11.7c2.138 6.607-.127 13.269.263 19.964.358 6.149 6.421 9.985 11.3 12.932 4.81 2.907 9.143 5.627 10.591 11.29 1.536 6.005 2.052 12.709-.076 18.641-3.542 9.878-13.91 14.227-23.927 14.9-9.091.612-20.522-.349-27.35-6.948-4.085-3.949-5.565-9.472-5.381-14.967a45.56 45.56 0 011.666-10.1 45.585 45.585 0 001.7-7.089c.635-6.434-5.312-7.669-10.373-9.436A24.686 24.686 0 013.2 64.913C.283 59.413-.941 53.238.807 47.182A20.7 20.7 0 015.515 38.9c.967-1.05 2.329-1.926 3.2-3.03a4.088 4.088 0 00.359-3.57c-1.298-5.58-5.341-10.2-6.788-15.762C.981 11.515 1.753 5.263 6.345 2.022A12 12 0 0113.2 0z" class="m"/><path d="M21.171 14.526c6.2 6.6 7.883 15.561 8.378 24.243.277 4.869-.011 10 1.419 14.727 1.224 4.042 4.093 7.132 7.051 10.052 5.954 5.879 12.593 11.855 14.334 20.362 1.022 4.993.332 10.15 1.744 15.088a41.5 41.5 0 006.293 12.692c2.214 3.052 5.1 5.389 7.517 8.234.738.868 1.8 2.147 1.491 3.373-.357 1.436-2.185 1.89-3.483 1.665-3.025-.526-5.572-3.415-7.55-5.515a47.5 47.5 0 01-7.349-10.08 42.375 42.375 0 01-4.767-13.1c-.792-4.789-.4-9.781-2.206-14.377C41 74.156 33.62 69.59 28.285 63.564c-6.648-7.511-5.657-16.86-4.976-26.1.374-5.078.746-10.812-1.82-15.448-.979-1.77-3.163-3.42-3.584-5.431-.385-1.844 1.72-3.706 3.266-2.059z" style="fill:#afb9c5;fill-rule:evenodd"/></g><path d="M27.781 178.591c0 37.761 6.163 57.546 38.695 57.546s38.694-19.785 38.694-57.546z" class="o"/></g><g transform="translate(400.652 669.52)"><g transform="translate(24.282)"><rect width="40.118" height="9.502" rx="2" transform="translate(22.17 152.026)" style="fill:#afb9c5"/><path d="M40.346 74.957h4.821a177.032 177.032 0 007.619 46.452h6.86a16.364 16.364 0 010 32.728H24.81a16.364 16.364 0 110-32.728h7.918a177.032 177.032 0 007.618-46.452z" class="j"/><path d="M4.88 1.772Q23.027 0 41.174 0t36.293 1.772l4.88 83.883q-20.587 1.971-41.173 1.971T0 85.655z" class="m"/></g><path d="M131.967 271.327H109.8v-86.57H22.17v86.57H0v-109.8h131.967z" style="fill:#f2f2f2;fill-rule:evenodd"/></g><g transform="translate(658.883 832.008)"><g transform="translate(8.908)"><path d="M2.317.143C8.37 14.525 18.656 24.518 24.108 39.472a84.922 84.922 0 014.66 28.387c.044 5.364-.049 10.732-.074 16.1-.024 5.231-.167 10.429-.611 15.626-.446 5.225-.946 10.388-1.166 15.645-.172 4.1-.25 8.861-1.638 12.6-1.1 2.972-3.911 3.407-4.655-.2a28.81 28.81 0 01-.316-6.3c.059-2.642.212-5.28.291-7.921.315-10.6-.093-21.2.12-31.8.208-10.36 1.54-20.708.067-31-1.217-8.5-4.308-15.795-7.86-22.791-3.418-6.73-7.137-13.3-9.447-20.953A36.893 36.893 0 012.056.021q.161-.075.261.122z" class="r"/><path d="M.667 28.517a11.525 11.525 0 012.678 3.377c1.007 1.553 2.192 2.955 3.2 4.509 2.1 3.24 3.945 6.679 5.859 10.05a65.825 65.825 0 017.761 20.623c1.417 7.672 1.8 15.591 2.393 23.378.63 8.253 1.265 16.566 1.348 24.851a88.766 88.766 0 01-.208 11.338c-.277 2.294-1.313 4.25-3.647 4.232-4.959-.039-7.287-5.532-8.259-10.036a84.576 84.576 0 01-1.491-20.46c.274-8.179 1.693-16.235 2.308-24.382.651-8.625.283-17.1-2.682-25.218-1.5-4.1-3.237-8.109-4.8-12.186a39.393 39.393 0 00-2.107-5.135A49.284 49.284 0 010 28.094z" class="o"/><path d="M57.788 11.319l.456-.355a45.335 45.335 0 01-1.834 5.03 41.053 41.053 0 00-1.185 4.889c-.86 3.893-1.853 7.7-2.665 11.623-1.607 7.768-1.3 16.137-.249 24.756 1 8.141 2.57 16.27 3.32 24.41a112.07 112.07 0 01.3 20.152c-.4 4.374-1.725 9.6-5.325 9.155-1.7-.208-2.579-2.248-2.935-4.551-.572-3.7-.692-7.588-.915-11.267-.5-8.21-.6-16.4-.7-24.521-.093-7.667-.349-15.485.163-22.959a70.363 70.363 0 014.249-19.705c1.164-3.159 2.273-6.392 3.58-9.4.627-1.444 1.393-2.72 2.02-4.163a8.908 8.908 0 011.72-3.094z" class="r"/><path d="M2.199 52.284c.656-1.1 2.1 2.53 2.319 2.986q-.139-.341-.28-.681a30.214 30.214 0 013.232 6.9c.733 2.456 1.362 4.963 2.049 7.437 1.29 4.642 2.953 9.152 4.122 13.835a45.02 45.02 0 011.15 13.771 117.643 117.643 0 00-.128 14.792 43.077 43.077 0 001.442 6.778c.522 2.257.934 4.544 1.551 6.773.142-.29.16.68.159.754a4.68 4.68 0 01-.259 1.548 4.179 4.179 0 01-2.632 2.886c-2.368.677-4.567-1.478-5.331-3.753a62.257 62.257 0 01-2.222-10.3 48.569 48.569 0 01-.45-9.5c.28-6.29 1.418-12.5 1.726-18.785.335-6.848-1.021-13.276-2.157-19.939a58.23 58.23 0 00-2.134-9.45 26.559 26.559 0 00-1.582-3.476c-.335-.651-1.018-1.812-.575-2.576z" class="r"/><path d="M21.415 41.591c-.272 7.842-.74 15.625-1.786 23.384-1.067 7.919-2.293 15.81-3.319 23.736-1 7.715-2.047 15.558-1.907 23.38.1 5.762-.853 15.509 5.547 18.353 6.481 2.88 7.872-9.419 8.3-13.478a152.032 152.032 0 00.156-23.49c-.406-8.037-1.085-16.033-1.925-24.041-.934-8.895-1.666-17.829-2.254-26.749-.291-4.412-.363-8.817-.282-13.23.076-4.164-.082-8.372-1.563-12.326l-.232.169" class="s"/><path d="M54.874 66.436c-1.166 1.7-2.341 3.38-3.441 5.178a27.308 27.308 0 00-4.286 11.4c-1.121 9.63-.222 20.03 0 29.955.044 2.028-.212 3.995.587 5.925.725 1.75 2.08 3.084 3.371 3.077 2.765-.016 2.343-6.787 2.348-9.767.008-5.224-.577-10.5-.527-15.719A109.136 109.136 0 0154.04 81.22a87.951 87.951 0 013.337-14.2c.2-.618 1.664-5.394.284-4.571" class="o"/><path d="M42.664 15.075c-1.818 0-1.807 9.063-1.861 10.227-.2 4.2-.151 8.4-.276 12.6a228.48 228.48 0 01-1.987 27.482c-.742 4.879-1.6 9.737-2.526 14.578s-2.173 9.713-2.783 14.629c-.586 4.727-.255 9.548-.174 14.3a125.171 125.171 0 00.851 14.306c.154 1.169.336 2.335.53 3.5a27.72 27.72 0 00.341 3.09c.438 1.474 2.316 1.957 3.58 1.726 3.421-.625 5.606-4.92 6.775-8.059a75.446 75.446 0 003.064-12.579 109.927 109.927 0 001.648-14.514c.495-9.9-.14-19.811-.849-29.679-.394-5.488-.85-10.952-1.547-16.406-.694-5.431-1.585-10.838-2.165-16.285-.421-3.958-.837-7.922-1.11-11.9-.066-.946-.121-7.016-1.511-7.016" class="s"/><path d="M40.387 80.951c-.3-9.515-4.121-51.309-4.991-62.815-.217-2.88-2.313-14.871-2.584-18.136-.737.923-.674 15.287-.666 18.587.009 3.265-.4 6.476-.6 9.723-.219 3.314-5.119 46.106-5.751 49.29-1.268 6.333-2.111 12.833-2.768 19.309-.636 6.312-1.625 12.972-.774 19.317a19.4 19.4 0 001.009 4.24c.544 1.45.918 2.791 1.355 4.308.7 2.444 1.976 4.589 3.931 5.6 4.008 2.069 6.16-2.614 7.251-6.691a109.1 109.1 0 003.385-19.966c.58-7.565 1.436-15.146 1.2-22.763" class="o"/></g><g transform="translate(0 108.95)"><rect width="62.355" height="62.355" rx="2" transform="translate(6.852)" style="fill:#fff"/><rect width="6.852" height="77.43" class="u" rx="2" transform="translate(0 6.852)"/><rect width="6.852" height="77.43" class="u" rx="2" transform="translate(34.261 6.852)"/><rect width="6.852" height="77.43" class="u" rx="2" transform="translate(69.207 6.852)"/></g></g></g><g transform="translate(109.503 534.102)"><g transform="translate(93.788)"><path d="M45.002 13.074c6.817 12.706 6.007 44.936-2.8 47.207-3.513.906-11-1.313-18.615-5.9l4.781 33.827H.131l9.719-45.3C4.431 36.539.761 28.742 1.374 20.005 3.141-5.171 38.185.368 45.002 13.074z" class="v"/><path d="M29.695.707c7.922.679 15 3.095 17 4.529 0 7.5-1.453 9.725-13.865 9.529-3.049 1.61-5.394 4.384-7.836 8.019q1.617 22.582 8.576 22.582c6.956 0 12.857-4.416 15.909-4.416 2.225 0 1.728 2.784.253 4.848-1.217 1.7-7.142 3.345-7.142 5.985s4.681.6 4.681 2.164c0 2.59.823 7.46-3.673 7.46-4.55 0-17.594-1.658-19.83-8.41q-2.164-6.536-2.8-27.089a6.747 6.747 0 00-.842-.052 7.058 7.058 0 00-4.932 12.107 107.693 107.693 0 01-5.561 7.2c-7.876-4.728-13.722-18.566-6.022-31.86C5.74 6.791 10.56 3.312 16.253 1.697a20.477 20.477 0 0113.442-.99z" class="w"/></g><g transform="translate(18.63 185.843)"><path d="M65.877 0l42.649 149.666 31.117 110.312h22.7L129.277 0z" class="w"/><path d="M54.471 0c-.986 77.14-4.35 119.214-5.386 126.222s-16.7 51.594-46.984 133.756h23.514q57.836-118.231 64.571-133.756C94.674 115.872 108.53 73.8 129.401 0z" class="x"/><path d="M0 281.149l1.176-24.7h24.7q17.575 12.352 45.883 20v4.7h-44.7L11.764 278.8v2.349z" class="w"/><path d="M136.459 281.149l1.176-24.7h24.7q17.575 12.352 45.883 20v4.7h-44.7l-15.295-2.349v2.349z" class="w"/></g><g transform="translate(0 62.324)"><path d="M40.167 109.426l24.583.1q-22.768 73.5-24.583 78c-2.722 6.746 3.038 17.02 5.5 22.541-8.023 3.59-7.168-9.705-17.289-5-9.238 4.3-16.265 12.085-26.938 5.5-1.312-.81-2.75-3.858.724-6.24 8.655-5.935 21.128-16.322 22.814-19.741q3.447-6.994 15.187-75.156zm147.913-4.585l33.324 32.509q14.544 6.2 23.834 13.7c1.393 1.68 2.909 4.9-3.644 3.458s-13.51-2.661-14.742-.53 2.4 5.4.121 8.185q-2.276 2.789-15.309-17.742l-34.653-20.43z" class="y"/><path d="M110.028 6.273L120.2 4.528q26.27 65.624 91.73 119.255l-32.973 40.063C135.32 112.937 108.422 60.414 110.028 6.273z" class="w"/><path d="M65.685 134.106h90.581Q124.785 57.569 124.785 4.071L97.464 0C75.985 34.536 69.926 77.058 65.685 134.106z" class="j"/><path d="M98.68 0q3.2.11 9.752.4l6.6 18.868q1.048 34.507 12.235 139.081H67.892q.233 7.223.77 14.58h-44.15Q34.418 61.167 96.864 0l.021.02.011-.02z" class="x"/><path d="M84.507 158.81h-16.6a310.375 310.375 0 013.907-62.071q2.536 45.021 12.693 62.071z" class="z"/><path d="M81.109 122.343l29.279-13.612v13.611z" style="fill:rgba(255,255,255,.2);fill-rule:evenodd"/></g></g><g transform="translate(230.601 621.88)"><g transform="translate(54.522)"><path d="M65.491 29.851c6.883 12.829 6.065 45.369-2.83 47.662-3.547.914-11.1-1.325-18.8-5.961l4.83 34.151h-28.5l9.813-45.736c-5.473-6.424-9.177-14.297-8.558-23.118 1.784-25.418 37.165-19.826 44.045-6.998z" class="y"/><path d="M9.019 28.388a8.908 8.908 0 01-1.857-3.451 34.906 34.906 0 01-1.189-3.919c-.6-2.671-.6-5.744 1.3-7.818a8.964 8.964 0 015.938-2.572 10.912 10.912 0 014.21.534c1.341.441 2.5 1.319 3.8 1.865a16.991 16.991 0 012-8.349 8.324 8.324 0 016.2-4.043 12.289 12.289 0 017.55 1.521c.587.318 1.169.65 1.725 1.027a4.835 4.835 0 001.5.823c.61.143.912-.209 1.308-.654a9.939 9.939 0 011.542-1.388A9.082 9.082 0 0151.541.5 7.9 7.9 0 0155.006 3c.79 1.037 1.354 2.682 2.445 3.4.463.307.79-.1 1.211-.4.633-.451 1.237-.949 1.878-1.388A8.6 8.6 0 0163.459 3.3c1.528-.353 3.639-.271 4.076 1.73a8.26 8.26 0 01-.015 2.313c-.073 1.04-.149 2.079-.239 3.118a22.512 22.512 0 01-.3 2.324 3.4 3.4 0 00-.151 1.6c.221.517 1.242.223 1.678.241a6.63 6.63 0 012.523.555 2.715 2.715 0 011.527 1.412 2.537 2.537 0 01.042 1.327 3.961 3.961 0 00.081 1.363c1.157-.57 5.166-1.835 5.67.238a3.243 3.243 0 01-.506 2.052 17.79 17.79 0 01-1.868 2.844A25.431 25.431 0 0171 29.245a3.261 3.261 0 01.851 5.463 4.041 4.041 0 01-2.968.86 6.561 6.561 0 00-1.227-.1 2.934 2.934 0 01-.556.187 16.542 16.542 0 01-4.551-.578A15.008 15.008 0 0155.6 31.45a2.14 2.14 0 00-1.6-.737c-.6.006-1.183.17-1.779.185-1.578.04-3-.731-4.466-1.245a16.852 16.852 0 01-1.463 5.941c-.66 1.452-2.039 1.663-3.395 1.791-4.333.408-8.682-.047-13.021-.041 4.2.949 8.54 1.341 12.7 2.458 1.882.5.445 1.773-.36 2.652a15.286 15.286 0 00-2.993 5.131c-2.055-2.678-5.686-4.443-8.9-3.62-3.555.909-6.058 5.717-3.785 9.173 1.32 2.006 3.7 2.781 5.686 3.643-1.547 1.608-1.921 3.984-2.852 5.985a4.283 4.283 0 01-2.131 2.447 2.492 2.492 0 00-1.125.448c-.371.384-.46.812-.934 1.142a5.267 5.267 0 01-6.525-.5c-1.517-1.553-1.122-4.01.145-5.584-2.016-.841-5.69-1.922-4.889-5.063C9.539 55.362-1.069 48.276 4.8 43.1 1.577 41.278-1.38 36.833.687 32.914c1.592-3.017 5.294-4.366 8.332-4.526" class="w"/></g><g transform="translate(0 205.298)"><g transform="translate(0 49.907)"><path d="M32.807 0h91.755l12.023 147.8H0z" class="m"/><path d="M32.807 0h28.22l16.89 147.8H0z" class="z"/></g><path d="M228.735 24.664l.341-.2c9.8-5.5 25.815 1.97 25.8 10.278-.034 25.149-22.94 143.675-24.136 151.168s-14.008 9.472-14.754.025c-1.187-15.032-3.393-67.07-1.186-91.157.911-9.943 1.892-19.412 2.858-27.86q-18.023 32.618-55.764 93.418l-13.658-6.252q16.088-53.108 26.383-74.986c11.752-24.973 22.772-46.359 27.41-53.893 7.297-11.85 19.997-7.715 26.706-.541z" class="y"/><path d="M149.213 134.421l46.882-111.264c11.23-18.1 42.716 3.683 38.886 14.18-8.695 23.834-52.914 100.994-55.504 108.094z" style="fill:#1f28cf;fill-rule:evenodd"/><path d="M146.865 146.906q-4.597 3.737-5.952 6.085a59.285 59.285 0 00-3.756 8.658l58.331 33.678q6.59-6.164 2.036-9.588t-7.52-5.777l-20.255-27.79a1.056 1.056 0 00-1.475-.231l-.02.016-4.283 3.283q-5.75-.514-8.585-2.15-2.368-1.367-5.463-5.761a2.111 2.111 0 00-2.939-.51q-.06.038-.119.087z" class="ac"/><path d="M213.121 179.606q-2.112 5.535-2.112 8.246a59.284 59.284 0 001.076 9.378h67.355q2.625-8.632-3.031-9.321t-9.4-1.243l-31.437-13.936a1.056 1.056 0 00-1.393.537l-.01.024-2.066 4.985q-5.237 2.43-8.51 2.43-2.734 0-7.611-2.258a2.111 2.111 0 00-2.8 1.029q-.035.061-.061.129z" class="ac"/><path d="M258.166 43.292c0 31.568-14.963 105.2-14.972 112.156l-32.193.025q7.068-98.558 5.013-99.619c-2.056-1.062-84.262 8.224-108.917 8.224-35.553 0-50.26-22.464-51.454-64.077h70.429c14.34 1.537 89.138 16.654 116.917 21.85 11.892 2.224 15.177 12.749 15.177 21.441z" style="fill:#2b44ff;fill-rule:evenodd"/></g><g transform="translate(44.867 79.5)"><path d="M36.011 0L69.26 5.131c0 18.662 14.875 36.123 24.285 51.146 14.628 23.354 40.657 49.239 23.968 83.934Q94.953 187.1 0 155.442c0-16.838 13.864-33.766 14.306-54.24.421-19.491 4.072-78.545 19.309-98.492q.414-1.348.844-2.71l1.055.5z" class="r"/><path d="M74.914 131.347q3.335-17.18 4.327-22.939 26.566 29.967 30.7 30.315c5.177.436 9-4.147 10.091-2.858 1.8 5.335-3.284 18.69-13 20.632-4.641.927-11.823-8.626-14.782-12.011q-1.746-2-17.328-13.138zm30.593-61.063c4.591 0 7.057 1.895 9.772 5.717s5.283 21.851.925 21.851-22.619-6.969-22.619-11.654 12.46-6.669 12.46-10.2-5.131-5.714-.542-5.714z" class="y"/><path d="M65.64 148.771l-.145.524-.688 2.456c-52.022-36.29-52.041-80.274-36.566-129.58-11.665 48.541-6.92 89.475 37.399 126.6z" style="fill:rgba(0,0,0,.2);fill-rule:evenodd"/></g></g><g transform="translate(454.891 670.856)"><g transform="translate(84.794)"><path d="M23.075 0A18.5 18.5 0 004.634 17.1C1.542 28.822-2.312 53.749 1.762 57.717h26.229v-.059A18.5 18.5 0 0045.281 39.2V18.493A18.493 18.493 0 0026.788 0z" class="w"/><path d="M8.07 11.84c-5.241 9.738-4.618 34.437 2.155 36.178 2.7.694 8.456-1.006 14.312-4.525l-3.675 25.924h21.706l-7.472-34.719c4.167-4.876 6.987-10.851 6.516-17.547C40.254-2.141 13.311 2.106 8.07 11.84z" class="v"/><path d="M25.383.902C15.328.902 11.88 5.379 9.13 9.386l-.341.498c2.1 7.2 10.273 8.266 17.531 12.754a4.965 4.965 0 113.134 8.808h-.225c-1 10.708-.6 22.937 2.38 25.839h26.229c1.461-25.314-12.662-15.513-12.662-39.342-.881-.858-1.713-1.706-2.536-2.438l.029-.7Q35.856.902 25.383.902z" class="w"/></g><g transform="translate(43.289 145.881)"><path d="M98.404 0L64.417 111.134l-16.464 94.512H35.044L52.444 0z" style="fill:#ba8b72;fill-rule:evenodd"/><path d="M110.563 0c-2.308 61.018.408 92.493.925 98.036s7.591 41.49 24.34 109.47l-13.756-4.725C95.603 140.434 86.583 108.03 83.547 99.843S72.448 58.375 59.357 0z" class="v"/><path d="M135.698 202.62a19.634 19.634 0 011.548 6.143 45.352 45.352 0 01-.813 7.13H85.527q-1.984-6.564 2.291-7.088t7.1-.945l23.699-10.573a.86.86 0 011.136.435l.01.023 1.535 3.732a16.22 16.22 0 006.431 1.848 14.711 14.711 0 005.63-1.661 1.72 1.72 0 012.283.841q.029.056.056.115z" class="ac"/><path d="M50.8 202.62a19.634 19.634 0 011.548 6.143 45.352 45.352 0 01-.813 7.13H.629q-1.984-6.564 2.291-7.088t7.1-.945l23.699-10.573a.86.86 0 011.136.435l.01.023 1.535 3.732a16.22 16.22 0 006.431 1.848 14.711 14.711 0 005.63-1.661 1.72 1.72 0 012.283.841q.029.056.056.115z" class="ac"/><path d="M102.92 0L88.469 56.621H44.331L50.912 0z" style="fill:#76afba;fill-rule:evenodd"/><path d="M111.048 0q7.132 21.383 2.709 56.621H68.716L56.331 0z" class="o"/></g><g transform="rotate(172 106.03 104.554)"><path d="M35.075 96.2l19.792-.074Q32.256 23.057 30.862 19.61C28.77 14.44 33.2 6.566 35.089 2.335c-6.164-2.752-5.508 7.438-13.284 3.829C14.708 2.87 9.309-3.1 1.108 1.95.1 2.57-1 4.906 1.665 6.732c6.65 4.549 16.235 12.509 17.528 15.129q2.649 5.36 15.882 74.341zm125.2-22.549l25.6-24.915a77.654 77.654 0 0018.312-10.5c1.07-1.287 2.235-3.754-2.8-2.65s-10.38 2.039-11.326.406 1.842-4.136.093-6.273q-1.749-2.137-11.763 13.6l-26.616 15.658z" class="v"/><path d="M95.383 152.205l7.815 1.337c12.313-43.411 75.571-73.002 79.457-89.23 1.424-5.947-2.87-8.96-.651-10.773l-10.162-7.418c-1.72 2.002-5.39-1.66-13.058.901s-63.4 53.78-63.4 105.183z" style="fill:#e55f00;fill-rule:evenodd"/><path d="M81.31 161.281l24.694-1.723a3.439 3.439 0 003.193-3.671l-.662-9.412c-.917-57.508 32.408-72.17 24.987-95.232-6.129-19.039-64.771-39.502-74.918-20.844-4.108 7.555-5.972 16.692-6.183 26.626q-3.89-11.449-6.154-19.711c-2.603-9.502-12.695-11.012-12.695-14.673l-13.295 3.661c.9 4.973-5.366 7.395-3.685 18.505q11.294 74.672 60.692 108.255l.353 5.026a3.444 3.444 0 003.673 3.193z" style="fill:#ff6a00;fill-rule:evenodd"/></g></g></g></svg>