<svg xmlns="http://www.w3.org/2000/svg" width="120.072" height="120.072" viewBox="0 0 120.072 120.072"><g><g transform="translate(7.505 2.502)"><path d="M50.035 83.605s28.962-20.853 28.962-36.3c0-17.831-23.7-23.459-28.962-1.786-5.273-21.674-28.972-16.046-28.972 1.785 0 15.449 28.972 36.301 28.972 36.301z" style="stroke:#00a6e1;stroke-linejoin:round;stroke-miterlimit:10;stroke-width:5px;fill:none"/><path d="M50.07 0h-.085C37.523 12.493 0 22.619 0 22.619c0 39.834 2.5 74.855 50.03 92.451 47.529-17.6 50.03-52.622 50.03-92.451 0 0-37.522-10.126-49.99-22.619z" style="stroke-linecap:round;stroke:#00a6e1;stroke-linejoin:round;stroke-miterlimit:10;stroke-width:5px;fill:none"/></g><path style="fill:none" d="M0 0h120.072v120.072H0z"/></g></svg>