<svg xmlns="http://www.w3.org/2000/svg" width="308.557" height="220" viewBox="0 0 308.557 220"><defs><style>.n{fill:#00a6e1}.c{fill:#88bd45}.d,.k{opacity:.1}.e{fill:#f2f2f2}.g{fill:#3f3d56}.h{fill:#ffb718}.i{fill:#ccc}.k{fill:#ff6a00}.l{fill:#2f2e41}.m{fill:#ffb8b8}.o{fill:#575a88}.p{fill:#8985a8}.r{fill:#6c63ff}.s{fill:#a0616a}</style></defs><g transform="translate(0 30.137)"><circle cx="110" cy="110" r="110" transform="translate(44.816 -30.137)" style="fill:#447bbd;opacity:.16"/><path d="M135.029 144.281c15.878.881 30.914 6.841 45.26 13.325s28.537 13.647 43.992 17.204c9.938 2.297 21.342 2.791 29.478-3.017 7.829-5.588 10.5-15.426 12-24.557 1.127-6.876 1.846-14.121-.815-20.62-1.848-4.513-5.196-8.337-7.486-12.666-7.964-15.074-1.842-33.388 7.308-47.816 4.29-6.767 9.25-13.216 12.597-20.433s6.24-25.002 3.545-32.48c-2.669-7.414-5.152-14.691-16.11-19.851-21.923-7.916-88.924 20.305-162.212-6.126-11.863-3.111-23.602-2.092-37.248.052-7.58 1.193-19.553 9.516-25.126 14.477A20.897 20.897 0 0035.76 27.05c7.598 13.633 29.175 17.359 34.405 31.944 2.875 8.03-.367 16.862-4.87 24.184-9.658 15.714-25.63 29.373-26.765 47.496-.782 12.45 6.57 25.056 18.166 31.152 12.153 6.388 29.167 5.897 38.382-4.173 9.495-10.376 25.934-14.152 39.95-13.371z" style="opacity:.209;fill:#00a6e1"/><path d="M6.534 125.74a12.752 12.752 0 006.091 5.171 10.979 10.979 0 00-7.064-13.1 12.752 12.752 0 00.973 7.929z" class="c"/><path d="M6.534 125.74a12.752 12.752 0 006.091 5.171 10.979 10.979 0 00-7.064-13.1 12.752 12.752 0 00.973 7.929z" class="d"/><path d="M7.875 124.55a12.752 12.752 0 014.878 6.327 12.752 12.752 0 01-7.875-1.346A12.752 12.752 0 010 123.204a12.752 12.752 0 017.875 1.346z" class="c"/><g transform="translate(0 10.132)"><path d="M293.695 60.644c0 26.69-15.867 36.01-35.44 36.01s-35.44-9.319-35.44-36.01 35.44-60.645 35.44-60.645 35.44 33.955 35.44 60.645z" class="e"/><path d="M293.695 60.644c0 26.69-15.867 36.01-35.44 36.01s-35.44-9.319-35.44-36.01 35.44-60.645 35.44-60.645 35.44 33.955 35.44 60.645z" style="fill:#fff;opacity:.546"/><path d="M256.963 92.571l.363-22.338L272.432 42.6l-15.049 24.13.163-10.044 10.411-19.993-10.367 17.335.294-18.064 11.148-15.917-11.1 13.077L258.113 0l-1.152 43.849.094-1.809-11.334-17.349 11.152 20.821-1.056 20.175-.031-.535L242.72 46.9l13.027 20.149-.132 2.523-.024.038.011.207-2.68 51.183h3.58l.43-26.438 12.995-20.1z" class="g"/></g><g transform="translate(74.865 45.504)"><path d="M165.588 42.916c0 18.888-11.228 25.483-25.08 25.483s-25.08-6.595-25.08-25.483S140.508 0 140.508 0s25.08 24.028 25.08 42.916z" class="e"/><path d="M139.594 65.51l.257-15.81 10.69-19.556-10.65 17.078.116-7.108 7.367-14.149-7.337 12.268.208-12.783 7.889-11.264-7.856 9.254.129-23.44-.815 31.031.067-1.28-8.021-12.277 7.892 14.734-.747 14.277-.022-.379-9.247-12.92 9.219 14.258-.093 1.786-.017.027.008.147-1.9 36.222h2.533l.3-18.709 9.2-14.223z" class="g"/></g><circle cx="18.192" cy="18.192" r="18.192" class="h" transform="translate(15.85 52.552)"/><path d="M10.901 101.879l-2.157-3.595L28.873 81.03h51.761v5.032l-18.69 20.13-21.567 4.314z" class="g"/><path d="M89.546 91.155V79.906h-6.777v3.547l-2.133-2.424-17.254 17.254-2.876 2.876-3.594 14.378 6.47 15.816h33.07V99.006z" class="i"/><path d="M8.745 98.284h54.637v33.07H8.745z" class="e"/><path d="M44.331 108.708h11.502v10.065H44.331z" class="g"/><path d="M29.593 108.348h10.065v23.005H29.593z" class="i"/><path d="M18.093 111.943v-3.591h-4.316v3.594h4.316z" class="g"/><path d="M17.731 114.818h-3.954v3.595h4.316v-3.595z" class="g"/><path d="M20.966 108.348h4.313v3.595h-4.313z" class="g"/><path d="M20.966 114.819h4.313v3.595h-4.313z" class="g"/><path d="M78.839 112.302v-3.594h-4.314v3.594h4.314z" class="g"/><path d="M78.479 115.178h-3.954v3.595h4.314v-3.595z" class="g"/><path d="M81.714 108.708h4.313v3.595h-4.313z" class="g"/><path d="M81.714 115.178h4.313v3.595h-4.313z" class="g"/><path d="M215.261 101.858l-2.157-3.594 20.13-17.254h51.761v5.032l-18.692 20.13-21.567 4.313z" class="g"/><path d="M293.909 91.136V79.892h-6.777v3.547l-2.133-2.424-17.254 17.254-2.876 2.875-3.595 14.378 6.47 15.816h33.07V98.983z" class="i"/><path d="M213.107 98.264h54.637v33.07h-54.637z" class="e"/><path d="M248.693 108.688h11.502v10.065h-11.502z" class="g"/><path d="M233.956 108.329h10.065v23.005h-10.065z" class="i"/><path d="M222.452 111.924v-3.594h-4.314v3.594h4.314z" class="g"/><path d="M222.093 114.799h-3.954v3.595h4.314v-3.595z" class="g"/><path d="M225.329 108.329h4.313v3.595h-4.313z" class="g"/><path d="M225.329 114.799h4.313v3.595h-4.313z" class="g"/><path d="M283.201 112.28v-3.594h-4.31v3.594h4.313z" class="g"/><path d="M282.841 115.159h-3.95v3.595h4.313v-3.595z" class="g"/><path d="M286.076 108.688h4.313v3.595h-4.313z" class="g"/><path d="M286.076 115.158h4.313v3.595h-4.313z" class="g"/><path d="M205.329 109.983h.541v21.369h-.541z" class="g"/><path d="M210.862 112.706c.034 7.472-5.223 13.554-5.223 13.554s-5.313-6.033-5.347-13.505 5.223-13.554 5.223-13.554 5.309 6.033 5.347 13.505z" class="c"/><path d="M106.868 109.442h.541v21.369h-.541z" class="g"/><path d="M112.402 112.165c.034 7.472-5.223 13.554-5.223 13.554s-5.313-6.033-5.347-13.505 5.223-13.554 5.223-13.554 5.312 6.033 5.347 13.505z" class="c"/><path d="M112.402 112.165c.034 7.472-5.223 13.554-5.223 13.554s-5.313-6.033-5.347-13.505 5.223-13.554 5.223-13.554 5.312 6.033 5.347 13.505z" class="d"/><path d="M99.835 109.442h.541v21.369h-.541z" class="g"/><path d="M105.369 112.165c.034 7.472-5.223 13.554-5.223 13.554s-5.313-6.033-5.347-13.505 5.223-13.554 5.223-13.554 5.312 6.033 5.347 13.505z" class="c"/><path style="fill:#bfbfbf" d="M1.002 130.812h307.554v.541H1.002z"/><g transform="translate(-15.344 20.563)"><path d="M131.598 30.188l-3.388-2.71 18.972-16.939h48.108v14.906l-31.168 21z" class="g"/><path d="M204.061 20.04v-9.164h-6.387v2.244l-2.386-2.582-15.582 16.939-6.1 4.065-9.455 69.082 14.26 14.26h33.14V28.155z" class="i"/><path d="M128.21 27.477h51.496v87.407H128.21z" class="e"/><path d="M148.199 93.541h9.486v21.344h-9.486z" class="i"/><path d="M138.035 99.639v-3.388h-4.065v3.388h4.065z" class="g"/><path d="M137.697 102.349h-3.727v3.384h4.065v-3.388z" class="g"/><path d="M140.746 96.251h4.065v3.388h-4.065z" class="g"/><path d="M140.746 102.349h4.065v3.388h-4.065z" class="g"/><path d="M165.815 99.639v-3.388h-4.065v3.388h4.065z" class="g"/><path d="M165.477 102.349h-3.727v3.384h4.065v-3.388z" class="g"/><path d="M168.526 96.251h4.065v3.388h-4.065z" class="g"/><path d="M168.526 102.349h4.065v3.388h-4.065z" class="g"/><path d="M194.274 31.882v-3.388h-4.065v3.388h4.065z" class="g"/><path d="M193.935 34.592h-3.727v3.388h4.065v-3.388z" class="g"/><path d="M196.984 28.494h4.065v3.388h-4.065z" class="g"/><path d="M196.984 34.592h4.065v3.388h-4.065z" class="g"/><path d="M194.274 50.854v-3.388h-4.065v3.388h4.065z" class="g"/><path d="M193.935 53.564h-3.727v3.388h4.065v-3.388z" class="g"/><path d="M196.984 47.466h4.065v3.388h-4.065z" class="g"/><path d="M196.984 53.564h4.065v3.388h-4.065z" class="g"/><path d="M194.274 69.826v-3.388h-4.065v3.388h4.065z" class="g"/><path d="M193.935 72.536h-3.727v3.388h4.065v-3.388z" class="g"/><path d="M196.984 66.438h4.065v3.388h-4.065z" class="g"/><path d="M196.984 72.536h4.065v3.388h-4.065z" class="g"/><path d="M194.274 88.798v-3.385h-4.065v3.388h4.065z" class="g"/><path d="M193.935 91.508h-3.727v3.388h4.065v-3.388z" class="g"/><path d="M196.984 85.41h4.065v3.388h-4.065z" class="g"/><path d="M196.984 91.508h4.065v3.388h-4.065z" class="g"/><path d="M133.97 31.882h39.299v8.131H133.97z" class="g"/><path d="M133.97 48.143h39.299v8.131H133.97z" class="g"/><path d="M133.97 64.405h39.299v8.131H133.97z" class="g"/><path d="M133.97 80.667h39.299v8.131H133.97z" class="g"/><path d="M187.427-3.577c-7.676.035-13.925.149-13.925.149s7.427-9.838 13.9-6.193a88.336 88.336 0 0013.9 6.065s-6.199-.056-13.875-.021z" class="e"/><path d="M104.535 46.333c-7.676.036-13.925.149-13.925.149s7.427-9.838 13.9-6.193a88.338 88.338 0 0013.9 6.065s-6.199-.056-13.875-.021z" class="e"/><path d="M132.402 6.854c-7.677.036-13.925.146-13.925.146s7.427-9.838 13.9-6.193a88.34 88.34 0 0013.9 6.065s-6.199-.053-13.875-.018z" class="e"/><path d="M180.481 101.865h7.953v-1.92h4.388v1.92h8.228v8.5h-8.228v10.7h-4.388v-10.7h-7.953l-4.114-4.661z" class="g"/></g><g transform="translate(-34.389 -85.85)"><ellipse cx="24.083" cy="5.949" class="k" rx="24.083" ry="5.949" transform="translate(84.217 255.322)"/><path d="M109.991 117.145s.531.609-.379 1.786-.175 3.733 1.553 3.8 2.567.789 2.15 1.743-.917 3.22.965 2.875 2.478.4 2.144.981.839-1.146.839-1.146 1.049 1.563 2.337.469 1.8-11.011-.825-11.179a66.926 66.926 0 00-8.784.671z" class="l"/><path d="M123.298 164.306l.6 4.187h2.692l-.9-4.786z" class="m"/><path d="M126.888 165.951s3.589 3.29 2.692 3.589-4.187 3.888-4.785 4.187c-.535.267-6.281 2.094-5.384 0a7.864 7.864 0 012.991-3.29l.6-3.589z" class="e"/><path d="M126.888 165.951s3.589 3.29 2.692 3.589-4.187 3.888-4.785 4.187c-.535.267-6.281 2.094-5.384 0a7.864 7.864 0 012.991-3.29l.6-3.589z" class="d"/><path d="M126.887 161.166l.6 4.187h2.692l-.9-4.785z" class="m"/><path d="M115.64 150.051l3.92-12.962s-6.58-5.982-2.094-7.776 5.683 7.178 5.683 7.178l-1.5 15.552h-5.982z" class="m"/><path d="M124.793 140.529s-7.73 9.914-6.557 11.388 3.267 10.446 3.267 10.446-.3 3.589.9 3.589 4.187-.6 4.187-1.5-2.692-12.262-2.692-12.262l7.776-10.169z" class="n"/><path d="M124.793 140.529s-7.73 9.914-6.557 11.388 3.267 10.446 3.267 10.446-.3 3.589.9 3.589 4.187-.6 4.187-1.5-2.692-12.262-2.692-12.262l7.776-10.169z" class="d"/><path d="M125.393 141.127l7.776-4.187s5.384 2.692 3.888 5.085-8.374 8.673-8.374 8.673 2.093 10.169 1.794 10.468-3.589 1.5-4.486 1.2-5.683-11.963-4.486-12.562 5.084-6.879 5.084-6.879z" class="n"/><path d="M104.156 255.557s5.383 3.29 5.982 3.29 8.673 2.094 5.084 3.589-17.347-.6-17.048-1.5 0-6.281.6-6.281 5.382.902 5.382.902z" class="l"/><path d="M110.139 255.078s5.384 3.29 5.982 3.29 8.673 2.093 5.084 3.589-17.347-.6-17.048-1.5 0-6.281.6-6.281 5.382.902 5.382.902z" class="l"/><path d="M103.938 192.709s1.416 8.115 2.911 11.405-.3 18.842-1.2 21.235-9.571 30.806-6.879 31.1a68.173 68.173 0 008.075 0l8.673-27.217-1.5-36.489z" class="o"/><path d="M103.938 192.709s1.416 8.115 2.911 11.405-.3 18.842-1.2 21.235-9.571 30.806-6.879 31.1a68.173 68.173 0 008.075 0l8.673-27.217-1.5-36.489z" class="d"/><path d="M106.251 191.972s1.2 8.075 3.888 9.87 1.794 3.589 1.794 3.589l-1.2 15.852s-11.664 28.712-8.075 32.3 6.879 2.094 8.374 1.794 4.187-6.58 2.692-8.374 2.991-12.561 4.187-14.356 0-4.187 1.5-4.785 4.785-4.486 4.785-7.178 4.187-31.4 1.5-33.2-19.946 3.7-19.946 3.7z" class="o"/><circle cx="6.58" cy="6.58" r="6.58" class="m" transform="translate(93.988 136.94)"/><circle cx="5.384" cy="5.384" r="5.384" class="m" transform="translate(110.139 114.209)"/><path d="M105.056 143.52s3.589 6.58 5.384 6.58-7.178 6.879-7.178 6.879-2.991-8.673-3.589-8.972 5.383-4.487 5.383-4.487z" class="m"/><path d="M106.251 149.502s-7.776 2.692-7.477 3.589-2.094 2.991-2.094 3.888-.6 8.973 2.991 15.552 9.272 11.365 6.58 14.356-6.879 8.075-2.393 8.075 11.664-6.58 18.244-4.187 5.084-6.58 5.084-6.58.9-6.879-.9-8.973-8.075-17.048-8.075-18.842-5.982-8.674-7.477-8.674-4.483 1.796-4.483 1.796z" class="p"/><path d="M117.018 122.882a51.092 51.092 0 012.564 5.456c.128.825 4.315-5.456 4.315-5.456l-4.785-3.29z" class="m"/><path d="M117.915 126.472l5.084-5.383 5.982 2.692s5.579 12.263 5.93 13.16-8.921 5.084-9.818 5.084-7.178-9.272-7.178-9.272-1.495-4.486 0-6.281z" class="e"/><path d="M115.522 133.65v5.388h3.589l-1.18-5.384z" class="m"/><path d="M117.57 137.688a2.231 2.231 0 00-2.107 1.416c-.234.632-.154 1.3.956 1.574 2.393.6 2.692 0 2.692 0s4.153-.6 3.273-1.794-3.273-1.2-3.273-1.2z" class="m"/><path d="M130.476 163.558s3.589 3.29 2.692 3.589-4.187 3.888-4.785 4.187c-.535.267-6.281 2.094-5.384 0a7.864 7.864 0 012.991-3.29l.6-3.589z" class="e"/><path d="M98.224 138.455c.412-.241.9-.542.91-1.019a.9.9 0 00-.591-.792 2.649 2.649 0 00-1.034-.139 1.347 1.347 0 00-.4.04c-.341.1-.537.451-.805.686a3.368 3.368 0 01-1.427.571 9.344 9.344 0 00-2.392.991 1.126 1.126 0 00-.379.312 1.527 1.527 0 00-.152.774 7.752 7.752 0 01-1.13 2.808 3.074 3.074 0 00-.22 2.91 9.913 9.913 0 01.592.84c.378.787-.094 1.757.179 2.586a2.261 2.261 0 00.573.858 4.548 4.548 0 001.884 1.143c.68.209 1.523.349 1.789 1.008a5.36 5.36 0 00.252.875 1.387 1.387 0 00.983.493 4.194 4.194 0 001.273.092 1.58 1.58 0 001.1-.588 3.209 3.209 0 01.445-.656c.433-.362 1.091-.076 1.647-.172a1.2 1.2 0 00.944-.886 1.678 1.678 0 01.192-.677c.345-.442 1.254-.13 1.482-.643.148-.333-.162-.685-.462-.892a13.119 13.119 0 01-1.474-1 1.715 1.715 0 01-.625-1.58c.206-.867 1.338-1.345 1.376-2.235a1.6 1.6 0 00-.755-1.262 11.63 11.63 0 01-1.253-.877c-.268-.26-.47-.585-.762-.818a3.574 3.574 0 00-1.92-.542c-.36-.037-1.8-.2-1.74-.752.044-.456 1.532-1.243 1.9-1.457z" class="l"/><path d="M117.915 126.173s-3.29 1.2-3.29 2.692-1.5 6.281 0 6.281a18.3 18.3 0 004.486-1.148z" class="e"/><path d="M117.018 147.707s8.674-2.991 8.973-2.991 4.486-2.393 4.187-3.29l-1.194-7.477s-4.785-9.87-1.5-9.87 5.084 7.776 5.084 7.776 7.178 13.459 3.29 16.45-20.039 8.374-20.936 7.477 2.096-8.075 2.096-8.075z" class="m"/><path d="M125.392 128.267l2.019 1.945-2.617 2.541s-3.589-1.5-3.29-.6 2.094 3.589 3.29 3.589 7.423-3.888 7.45-5.084-3.861-5.384-4.758-5.683-2.094 3.292-2.094 3.292z" class="m"/><path d="M121.596 126.186s4.394 3.879 4.992 3.879 1.686-5.828 1.686-5.828-3.545-2.31-4.859-1.68-1.819 3.629-1.819 3.629z" class="e"/><path d="M106.249 151.297s0-4.187 8.973-4.187h3.888l-1.794 9.87-5.982 1.794z" class="p"/><path d="M125.85 117.411a23.211 23.211 0 01-2.631-.162 7.34 7.34 0 00-2.5-3.566 9.468 9.468 0 00-2.516-1.381c-1.993-.847-5.31-.319-5.5.644-3.921 1.874-2.93 5.164-2.93 5.164.609 1.288 1.976.717 3.136.134a2.292 2.292 0 002 1.764c1.915.072 2.844.874 2.382 1.931s-1.016 3.567 1.069 3.185 2.745.449 2.375 1.087.93-1.269.93-1.269 1.162 1.731 2.588.519a1.082 1.082 0 00.3-.509 2.144 2.144 0 001.487.26c1.708-.764.647-2.56.647-2.56s2.281-.35 1.546-.292-1.2-.895.044-2.612-1.274-2.298-2.427-2.337z" class="l"/><path d="M113.429 115.782l.851.283-.85 2.555-.851-.284z" class="r"/></g><g transform="translate(-59.704 -9.021)"><ellipse cx="32.083" cy="3.449" class="k" rx="32.083" ry="3.449" transform="translate(240.532 186.493)"/><path d="M302.677 118.978l7.216-1.408s1.76-5.984 3.872-5.28-1.408 6.688-1.408 6.688l-10.031 4.576z" class="s"/><path d="M258.856 124.966l-3.167 4.048s-4.576-.176-3.168 2.288 4.576 1.056 4.752.528 5.28-5.1 5.28-5.1z" class="s"/><path d="M271.791 120.299l2.64-1.408s11.263-.88 15.487 1.936-17.775 3.168-17.775 3.168z" class="r"/><path d="M276.806 117.746s-1.408-3.344.528-3.7a8.685 8.685 0 013.344 0l-2.112 1.76z" class="h"/><path d="M276.806 117.746s-1.408-3.344.528-3.7a8.685 8.685 0 013.344 0l-2.112 1.76z" class="d"/><path d="M267.127 137.985l-5.1-.352.88 1.584s-7.04 2.112-4.752 8.1a77.313 77.313 0 005.808 11.615l2.288 4.4s4.752.7 4.928-.7 0-2.112-.88-2.816a4.313 4.313 0 01-1.408-2.816c0-.7.176-1.408-.352-1.76s-.7-.88-.7-1.936-1.936-4.928-1.936-4.928 6.16-.176 8.1 1.408 8.271 7.568 8.271 7.568a5.328 5.328 0 01.88 1.232c.352.7.352 1.056 1.056 1.408s.176 1.76 0 1.936-1.936 7.215-1.936 7.215-1.935 3.344.176 3.52 4.048.352 4.224 0a9.6 9.6 0 01.7-1.408c.528-.88 0-2.816 0-2.816s5.1-6.512 3.52-10.559-4.928-13.2-4.928-13.2l-5.1-2.112-9.328-3.344z" class="l"/><path d="M266.775 162.448s-1.056 4.048-1.408 4.224-4.224 3.52-1.584 4.048 4.576.352 5.1-.176.352-1.056 1.232-1.232 2.464-.7 2.288-1.936-1.056-4.576-1.584-4.928-4.044 0-4.044 0z" class="l"/><path d="M282.087 171.423a3.009 3.009 0 00-.7 3.52c.88 2.288 2.112 4.752 2.112 4.752s1.408 4.4 3.7 3.7a2.5 2.5 0 001.618-1.891 4.521 4.521 0 00-.639-3.68l-1.331-2-1.408-3.7z" class="l"/><path d="M277.686 119.683s-2.112-.176-2.464.352-1.936 7.568 0 8.271 7.744 1.936 8.623 1.056 1.232-8.624 1.232-8.624z" class="s"/><path d="M277.686 119.683s-2.112-.176-2.464.352-1.936 7.568 0 8.271 7.744 1.936 8.623 1.056 1.232-8.624 1.232-8.624z" class="d"/><path d="M274.519 125.49s2.464 2.464 4.048 2.112 5.279-1.936 5.632-2.64 4.751-.88 4.751-.88l-4.751 13.2 3.344 11.087s1.936-2.288-3.344-2.464-12.319-2.816-13.551-6.336c0 0-7.743-1.056-8.1-1.232s.88-1.232.88-1.232l5.1-1.408 3.7-4.752z" class="e"/><path d="M276.103 120.034s.88-1.232 0-1.232a33.975 33.975 0 00-4.224.176c-.88.176-4.224-.7-4.576.352s-.352 7.567.352 8.1 1.056.528.176 1.584-2.992 4.576-2.464 5.808-5.632 1.584-4.752 2.992a2.891 2.891 0 002.288 1.408s.352-2.816 2.464-1.408 4.928 4.928 7.215 2.64a10.319 10.319 0 003.344-7.392 24.91 24.91 0 00-.352-6.688c-.351-1.764.529-6.34.529-6.34z" class="n"/><path d="M285.254 123.378s1.408 1.232 0 4.224-5.1 10.031-2.112 14.607 4.224 5.808 3.52 6.688a3.417 3.417 0 00-.7 1.936l1.936-.7a22.172 22.172 0 011.056-4.224c.7-1.76-1.408-7.04-1.408-7.04l.7-6.864a54.512 54.512 0 013.168-4.576c.352-.176-.7-7.744-.7-7.744s-1.76-.528-2.64 0-2.82 3.693-2.82 3.693z" class="n"/><path d="M268.359 119.504h-1.056l-7.216 3.7s-.528-2.288-.88-1.76-.176 1.936-1.056 2.288-1.408.88 0 1.584 1.584.176 1.584 1.408 1.056 1.408 1.936 1.056 1.056-.528 1.936-.176.352.88 1.584.352 4.4-.352 4.4-.352z" class="n"/><path d="M289.478 120.034l1.232-.352s3.7.352 4.576.352 1.76-.176 2.288-.176a11.383 11.383 0 003.52-.7c.352-.352 1.936-1.232 2.112-.7s2.112 3.872.352 5.456-2.112.88-3.168 1.584-9.5 2.112-9.679 1.936-1.233-7.4-1.233-7.4z" class="n"/><circle cx="5.28" cy="5.28" r="5.28" class="s" transform="translate(276.983 116.163)"/><path d="M278.377 121.654a1 1 0 01.109.37 1.383 1.383 0 001.323 1.066.826.826 0 00.716 1 4.546 4.546 0 00.784-1.536 1.41 1.41 0 01.265-.6 1.21 1.21 0 01.751-.283 39.533 39.533 0 014.235-.315 1.055 1.055 0 00.557-.114c.4-.257.265-.875.014-1.276a4 4 0 00-2.129-1.661 10.065 10.065 0 00-1.961-.325 24.162 24.162 0 00-2.651-.275 4.339 4.339 0 00-2.535.678c-.529.373-1.4 1.418-.973 2.078.068.106.283.157.375.265.124.146.125.368.266.5.237.22.665.15.854.428z" class="l"/><path d="M282.263 112.642s-5.984 2.112-5.456 5.1 2.112 6.512 5.456 6.336 5.1-3.816 5.1-3.816l-.88-4.984s-3.34-2.636-4.22-2.636z" class="h"/><path d="M281.508 123.204s2.352-2.552 3.537-1.073a23.858 23.858 0 00-3.537 1.073z" class="l"/><path d="M285.923 188.698a15.114 15.114 0 01-10.861-4.823c-9.312-9.248-18.158-10.176-18.247-10.184l.059-.587c.09.008 9.062.949 18.461 10.285 4.83 4.8 9.816 5.091 13.148 4.492a16.435 16.435 0 006.159-2.482l.182.52a16.8 16.8 0 01-6.291 2.542 14.7 14.7 0 01-2.61.237z" class="l"/><circle cx="2.112" cy="2.112" r="2.112" class="l" transform="translate(259.472 176.615)"/><circle cx="2.112" cy="2.112" r="2.112" class="l" transform="translate(274.431 186.47)"/></g></g></svg>