<svg xmlns="http://www.w3.org/2000/svg" width="266.126" height="220" viewBox="0 0 235.223 220"><defs><linearGradient id="a" x1=".5" x2=".5" y1="1" gradientUnits="objectBoundingBox"><stop offset="0" stop-color="gray" stop-opacity=".251"/><stop offset=".54" stop-color="gray" stop-opacity=".122"/><stop offset="1" stop-color="gray" stop-opacity=".102"/></linearGradient></defs><g transform="translate(-29.748 -4.656)"><circle cx="110" cy="110" r="110" fill="#447bbd" opacity=".16" transform="translate(34.884 4.656)"/><ellipse cx="91.855" cy="4.972" fill="#6c63ff" opacity=".1" rx="91.855" ry="4.972" transform="translate(58.419 206.209)"/><path fill="#ffc1c7" d="M202.304 191.69l-.79 1.159-4.885 7.268-4.147 1.251-3.094-3.028.15-2 .771-10.378s-19.144-11.262-20.855-13.369-8.295-4.016-8.295-4.016-10.072-4.674-13.824-12.837 6.254-9.414 6.254-9.414l37.59 35.951z"/><path fill="#447bbd" d="M206.913 195.903l-11.915 11.125a44.648 44.648 0 01-12.969.4c-3.913-.59-3.16-2.736-2.13-4.213l.018-.026a4.329 4.329 0 012.538-1.67 10.258 10.258 0 006.815-4.89l3.687 3.16 6.385-7.446 4.721 2.217z"/><path fill="#fff" d="M192.166 205.051l11.897-10.357"/><path fill="#447bbd" d="M204.063 194.562l-2.8-1.317.263-.4.79-1.159-11.133-9.414-37.592-35.94s-10.006 1.245-6.254 9.409 13.824 12.837 13.824 12.837 6.583 1.909 8.295 4.016 20.868 13.364 20.868 13.364l-.772 10.378-.037.5-.245-.208a10.259 10.259 0 01-6.815 4.89 4.329 4.329 0 00-2.538 1.669l-.018.026c-1.053 1.475-1.783 3.621 2.13 4.213a44.649 44.649 0 0012.969-.395l11.915-11.125z" opacity=".1"/><g opacity=".2" transform="translate(208.168 71.806)"><path fill="none" stroke="#535461" stroke-miterlimit="10" stroke-width="2" d="M1.775 58.179s7.426-18.3 21.292-25.089a29.911 29.911 0 0013.58-13.187 50.347 50.347 0 003.4-8.55"/><path fill="#6c63ff" d="M48.766 7.023C47.32 8.84 39.839 11.5 39.839 11.5s.9-7.887 2.346-9.7a4.213 4.213 0 116.583 5.235z"/><path fill="#6c63ff" d="M46.196 21.414c-2.2.74-9.922-1.1-9.922-1.1s5.043-6.13 7.244-6.87a4.213 4.213 0 112.678 7.971z"/><path fill="#6c63ff" d="M32.279 38.427c-2.272-.474-8.01-5.959-8.01-5.959s7.449-2.746 9.722-2.275a4.213 4.213 0 01-1.712 8.234z"/><path fill="#6c63ff" d="M18.849 48.926c-2.32-.079-8.9-4.519-8.9-4.519s6.878-3.966 9.2-3.884a4.213 4.213 0 11-.295 8.4z"/><path fill="#6c63ff" d="M29.087 15.17c.295 2.3 5.324 8.445 5.324 8.445s3.313-7.215 3.015-9.517a4.213 4.213 0 00-8.339 1.072z"/><path fill="#6c63ff" d="M13.536 27.65c.972 2.107 7.61 6.465 7.61 6.465s1-7.873.026-9.983a4.213 4.213 0 00-7.636 3.518z"/><path fill="#6c63ff" d="M.082 41.853c.6 2.243 6.407 7.657 6.407 7.657s2.317-7.592 1.717-9.835a4.213 4.213 0 00-8.123 2.178z"/><path d="M48.766 7.023C47.32 8.84 39.839 11.5 39.839 11.5s.9-7.887 2.346-9.7a4.213 4.213 0 116.583 5.235z" opacity=".25"/><path d="M46.196 21.414c-2.2.74-9.922-1.1-9.922-1.1s5.043-6.13 7.244-6.87a4.213 4.213 0 112.678 7.971z" opacity=".25"/><path d="M32.279 38.427c-2.272-.474-8.01-5.959-8.01-5.959s7.449-2.746 9.722-2.275a4.213 4.213 0 01-1.712 8.234z" opacity=".25"/><path d="M18.849 48.926c-2.32-.079-8.9-4.519-8.9-4.519s6.878-3.966 9.2-3.884a4.213 4.213 0 11-.295 8.4z" opacity=".25"/><path d="M29.087 15.17c.295 2.3 5.324 8.445 5.324 8.445s3.313-7.215 3.015-9.517a4.213 4.213 0 00-8.339 1.072z" opacity=".25"/><path d="M13.536 27.65c.972 2.107 7.61 6.465 7.61 6.465s1-7.873.026-9.983a4.213 4.213 0 00-7.636 3.518z" opacity=".25"/><path d="M.082 41.853c.6 2.243 6.407 7.657 6.407 7.657s2.317-7.592 1.717-9.835a4.213 4.213 0 00-8.123 2.178z" opacity=".25"/></g><g opacity=".2" transform="translate(190.538 31.519)"><path fill="none" stroke="#535461" stroke-miterlimit="10" stroke-width="2" d="M7.582 69.188S8.519 49.46 19.35 38.456a29.924 29.924 0 008.44-16.942 50.37 50.37 0 00.369-9.2"/><path fill="#6c63ff" d="M34.949 5.332c-.761 2.2-6.939 7.178-6.939 7.178s-1.764-7.739-1.006-9.933a4.213 4.213 0 017.944 2.754z"/><path fill="#6c63ff" d="M37.3 19.758c-1.843 1.427-9.727 2.254-9.727 2.254s2.725-7.457 4.555-8.885a4.213 4.213 0 015.172 6.63z"/><path fill="#6c63ff" d="M29.806 40.427c-2.3.308-9.535-2.965-9.535-2.965s6.117-5.061 8.426-5.369a4.213 4.213 0 011.117 8.334z"/><path fill="#6c63ff" d="M20.626 54.787c-2.215.7-9.9-1.317-9.9-1.317s5.172-6.02 7.389-6.712a4.213 4.213 0 112.507 8.023z"/><path fill="#6c63ff" d="M19.087 19.546c1.053 2.075 7.826 6.2 7.826 6.2s.729-7.9-.313-9.977a4.213 4.213 0 00-7.513 3.776z"/><path fill="#6c63ff" d="M8.554 36.478c1.617 1.667 9.322 3.576 9.322 3.576s-1.667-7.763-3.284-9.43a4.213 4.213 0 00-6.038 5.854z"/><path fill="#6c63ff" d="M.575 54.336c1.317 1.917 8.584 5.1 8.584 5.1s-.334-7.931-1.643-9.848a4.213 4.213 0 00-6.941 4.74z"/></g><path fill="#6c63ff" d="M113.488 22.517s-6.275-.377-5.53 4.021a1.072 1.072 0 00.558 1.13s0-.327.643-.216a2.8 2.8 0 00.682.034 1.425 1.425 0 00.835-.345s1.764-.729 2.449-3.613c0 0 .508-.629.487-.79l-1.053.453a1.9 1.9 0 01.076 1.4s-.034-1.372-.237-1.34c-.042 0-.55.263-.55.263a3.125 3.125 0 01.153 2.3s.179-1.641-.348-2.2l-.745.434a3.3 3.3 0 01.234 2.5 4.7 4.7 0 00-.39-2.391l-.677.527a3.2 3.2 0 01.263 2.286s-.053-2-.413-2.154a4.124 4.124 0 00-.679.735s.466.985.176 1.5c0 0-.176-1.335-.324-1.34a4.424 4.424 0 00-.65 1.49 3.217 3.217 0 01.508-1.58 1.783 1.783 0 00-.9.466s.092-.624 1.053-.679a4.1 4.1 0 01.616-.711 3.813 3.813 0 00-1.525.176 1.712 1.712 0 011.7-.324l.669-.542a5.558 5.558 0 00-1.783.016 2.146 2.146 0 011.962-.14l.727-.434a6.517 6.517 0 00-1.7-.147 2.624 2.624 0 011.917.029l.527-.232s-.79-.153-1.011-.179-.24-.087-.24-.087a2.707 2.707 0 011.467.163 6.139 6.139 0 001.053-.479z" opacity=".196"/><path fill="#6c63ff" d="M97.009 43.918s-2.143 5.912 2.283 6.451a1.074 1.074 0 001.243-.216s-.311-.1-.024-.677a2.819 2.819 0 00.216-.645 1.425 1.425 0 00-.092-.9s-.2-1.9-2.768-3.373c0 0-.461-.666-.621-.693l.134 1.143a1.905 1.905 0 011.364.324s-1.317-.355-1.354-.153c0 .042.1.6.1.6a3.14 3.14 0 012.249.506s-1.522-.635-2.209-.292l.205.84a3.285 3.285 0 012.459.485 4.688 4.688 0 00-2.4-.305l.313.79a3.267 3.267 0 012.267.392s-1.935-.527-2.183-.213a4.064 4.064 0 00.513.861s1.074-.169 1.49.263c0 0-1.33-.208-1.377-.068a4.513 4.513 0 001.243 1.053 3.2 3.2 0 01-1.364-.932 1.775 1.775 0 00.192.985s-.571-.263-.353-1.2a4.242 4.242 0 01-.508-.79 3.883 3.883 0 00-.263 1.514 1.715 1.715 0 01.174-1.722l-.332-.79a5.33 5.33 0 00-.49 1.712 2.165 2.165 0 01.421-1.92l-.211-.819a6.629 6.629 0 00-.624 1.58 2.612 2.612 0 01.574-1.827l-.076-.566s-.369.706-.458.919-.153.205-.153.205a2.725 2.725 0 01.574-1.361 6.376 6.376 0 00-.154-1.161z" opacity=".1"/><path fill="#6c63ff" d="M138.625 38.939s-2.146 5.909 2.283 6.449a1.072 1.072 0 001.24-.213s-.308-.1-.024-.679a2.835 2.835 0 00.227-.645 1.4 1.4 0 00-.095-.9s-.2-1.9-2.768-3.376c0 0-.458-.666-.619-.693l.132 1.145a1.9 1.9 0 011.364.321s-1.317-.355-1.351-.15c0 .039.1.6.1.6a3.118 3.118 0 012.246.506s-1.519-.637-2.209-.292l.205.837a3.292 3.292 0 012.462.485 4.667 4.667 0 00-2.4-.3l.313.79a3.267 3.267 0 012.267.392s-1.935-.527-2.183-.216a4.142 4.142 0 00.511.861s1.077-.169 1.493.263c0 0-1.332-.208-1.377-.071a4.513 4.513 0 001.243 1.053 3.223 3.223 0 01-1.367-.935 1.769 1.769 0 00.192 1s-.574-.263-.355-1.2a4.157 4.157 0 01-.506-.79 3.82 3.82 0 00-.263 1.514 1.714 1.714 0 01.176-1.722l-.334-.79a5.277 5.277 0 00-.487 1.714 2.171 2.171 0 01.421-1.922l-.211-.819a6.563 6.563 0 00-.624 1.58 2.6 2.6 0 01.571-1.827l-.076-.564s-.369.706-.456.916-.153.208-.153.208a2.7 2.7 0 01.574-1.361 6.655 6.655 0 00-.162-1.169z" opacity=".196"/><path fill="#6c63ff" d="M67.627 31.534s-2.146 5.912 2.283 6.449a1.066 1.066 0 001.24-.213s-.308-.1-.024-.677a2.965 2.965 0 00.226-.645 1.425 1.425 0 00-.095-.9s-.2-1.9-2.768-3.376c0 0-.458-.664-.619-.69l.132 1.143a1.906 1.906 0 011.364.324s-1.317-.358-1.351-.153c0 .042.1.6.1.6a3.132 3.132 0 012.246.506s-1.522-.637-2.209-.292l.205.84a3.285 3.285 0 012.459.485 4.676 4.676 0 00-2.4-.305l.313.79a3.267 3.267 0 012.267.392s-1.938-.527-2.183-.216a4.149 4.149 0 00.511.864s1.077-.171 1.49.263c0 0-1.33-.208-1.377-.068a4.587 4.587 0 001.246 1.053 3.2 3.2 0 01-1.367-.935 1.769 1.769 0 00.192 1s-.574-.263-.355-1.2a4.113 4.113 0 01-.506-.79 3.831 3.831 0 00-.263 1.514 1.715 1.715 0 01.174-1.722l-.332-.79a5.352 5.352 0 00-.49 1.714 2.165 2.165 0 01.421-1.92l-.208-.822a6.565 6.565 0 00-.624 1.58 2.6 2.6 0 01.571-1.827l-.076-.564s-.369.706-.456.919-.153.205-.153.205a2.707 2.707 0 01.571-1.361 5.9 5.9 0 00-.155-1.175z" opacity=".196"/><path fill="#6c63ff" d="M136.552 71.633s1.656 6.056 5.585 3.95a1.072 1.072 0 00.89-.89s-.311.092-.411-.542a2.843 2.843 0 00-.187-.656 1.43 1.43 0 00-.592-.679s-1.256-1.435-4.213-1.161c0 0-.758-.279-.906-.208l.769.858a1.914 1.914 0 011.3-.527s-1.288.471-1.19.653c.018.037.427.437.427.437a3.113 3.113 0 012.128-.882s-1.609.358-1.975 1.035l.653.569a3.289 3.289 0 012.288-1.024s-1.669.432-2.138 1.138l.716.471a3.194 3.194 0 012.078-.987s-1.878.7-1.906 1.082a4.155 4.155 0 00.916.411s.79-.758 1.364-.65c0 0-1.206.6-1.164.737a4.677 4.677 0 001.619.137 3.2 3.2 0 01-1.654.024 1.775 1.775 0 00.729.706s-.621.113-.98-.774a4.1 4.1 0 01-.872-.355 3.839 3.839 0 00.658 1.388 1.71 1.71 0 01-.851-1.506l-.724-.45a5.476 5.476 0 00.587 1.683 2.167 2.167 0 01-.764-1.812l-.645-.548a6.651 6.651 0 00.408 1.659 2.628 2.628 0 01-.585-1.825l-.39-.416s.105.79.158 1.014 0 .263 0 .263a2.71 2.71 0 01-.319-1.443 6.5 6.5 0 00-.807-.88z" opacity=".196"/><path fill="url(#a)" d="M382.351 246.55a14.415 14.415 0 001.893 1.822l5.13 4.371a9.015 9.015 0 003 1.946 4.7 4.7 0 004.1-.629l-.087-.029.087-.058a7.736 7.736 0 01-2.467-1.13 2.773 2.773 0 01-1.086-1.843v-.108a1.931 1.931 0 01.029-.3 6.528 6.528 0 003.089-1.088l-.09-.032.09-.055c-2.733-.877-4.627-3.442-5.485-6.156a31.2 31.2 0 01-.953-8.447 20.745 20.745 0 00-1.53-8.332 13.678 13.678 0 01-1.277-2.923 4.546 4.546 0 01-.087-.94 12.553 12.553 0 01.585-3.023 63.013 63.013 0 001.443-6.717 15.764 15.764 0 00.234-2.436 6.261 6.261 0 00-.377-2.341c-1.206-3.134-5.4-4.611-6.038-7.9a6.916 6.916 0 01-.095-1.34v-.737c0-.245 0-.527-.021-.769-.182-2.315-1.614-4.324-3-6.2-1.664-2.259-3.423-4.608-5.98-5.812a14.223 14.223 0 00-7.007-1.04 18.229 18.229 0 00-3.471-2.357 15.652 15.652 0 00-5.69-2.217c-2.541-.279-5.053.7-7.6.858-3.465.224-6.867-1.053-10.333-1.317s-7.455.9-9 4.392a8.376 8.376 0 00-.653 2.667c-.016.176-.026.35-.034.527v.018a16.573 16.573 0 00.061 2.136v.082a3.9 3.9 0 00.042.427.4.4 0 00.013.124 3.356 3.356 0 00.045.395l.016.124c.021.166.045.332.066.5a5.3 5.3 0 00.219 1.006 1.891 1.891 0 00.279.527 2.227 2.227 0 001.527.711l.461.066c-.047.095-.1.19-.142.287a16.37 16.37 0 00-1.58 7.049 16.662 16.662 0 0014.146 16.4l.482.6c2.954 3.7 6.662 8.645 8.426 12.2-2.038 2.531-4.424 7.018-5.1 14.543l-1.009 2.354c-2.114 3.041-2.66 7.428-2.114 11.51-.6 2.207-1.275 4.979-1.746 7.273-3.5-.777-15.468-2.7-18.3-4.566l-8.295-3.908s-10.8-7.542-16.605-5.024a46.6 46.6 0 00-7.012-6.665c-2.475-1.856-8.632-9.108-8.632-9.108l-9.646-12.8a6.786 6.786 0 00-.59-3.294c-1.138-1.522-7.16-4.9-8.363-4.171s-2.209-1.58-2.209-1.58l-.092-.05c-.226-.132-.869-.5-1.762-.974a23.4 23.4 0 01.079-3.2c.018-.179.042-.358.068-.527a14.68 14.68 0 0013.735-11.2c.042-.166.071-.337.105-.506a2.588 2.588 0 002.43-.706 3.886 3.886 0 00.611-3.5 32.733 32.733 0 01-.922-3.579c-.166-1.672.424-3.423-.118-5a5.561 5.561 0 00-2.936-2.968c-1.28-.64-2.681-1.014-3.989-1.6-1.248-.553-2.409-1.3-3.7-1.733a15.3 15.3 0 00-5.266-.545 13.3 13.3 0 00-3.45-1.014 4.912 4.912 0 00-3.768.982c-.79.7-1.432 1.825-2.5 1.862a3.234 3.234 0 01-1.469-.466c-1.33-.637-3.012-1-4.213-.153a4.348 4.348 0 00-1.483 3.07 9.98 9.98 0 01-.753 3.4 14.778 14.778 0 01-1.3 1.735 7.457 7.457 0 00-1.456 5.124v.053c-.063-.263-.124-.508-.169-.766a4.3 4.3 0 00.026.582 14.986 14.986 0 00.587 2.662l1.09 3.818a22.433 22.433 0 002.172 5.63 9.271 9.271 0 001.477 1.856 6.823 6.823 0 003.31 1.92 4.242 4.242 0 001.353.082.873.873 0 01-.024.163c-.1-.018-.2-.04-.29-.053a2.812 2.812 0 00-1.293.034c-2.08.74-2.712 2.991-2.9 3.876-.042.226-.055.363-.055.363s.034.132.074.355l-.018.076c-.042.224-.055.363-.055.363s.034.132.074.361l-.542.013-9.078 1.187a20.761 20.761 0 00-5.1.076 2.108 2.108 0 00-.263.076c-1.317.456-7.349 4.619-12.763 8.45a1.978 1.978 0 00-.016-.308l-1.54 1.1v.319c-.384.263-.766.542-1.135.808-1.656 1.185-3.16 2.254-4.279 3.073-1.364.98-2.209 1.6-2.209 1.6a1.6 1.6 0 00-.832.935c-.427.987-.574 2.973.966 6.881a53.9 53.9 0 013.344 11.657 8.379 8.379 0 00-2.172.527 3.932 3.932 0 00-2.357 2.107 3.626 3.626 0 00-.018 2.344c1.269 4.5 22.28 30.072 22.28 30.072l.263.024a18.457 18.457 0 003.239 0 3.688 3.688 0 002.323-.832s4.658 5.98 11.5 1.906c-.047 5.424-.184 9.4.677 11.407 1.34 3.112 1.34 10.2 1.34 10.2l1.274.045c-.068.263-.145.527-.226.79-.587 1.941-1.454 4.287-2.37 4.848-1.543.948-.811 17.242-.748 18.649v.084l-.09 6.583v.527a6.378 6.378 0 01-.513-.811s-2.481 2.37-2.525 7.373a48.017 48.017 0 00.045 5.172s10.006-.387 11.884.3 17.579-.6 17.579-.6a2.308 2.308 0 00-1.093-2.673c2.67-.192 5.582-.7 7.289-1.941 3.752-2.71-7.571-4.821-8.361-5.251s-4.7-3.881-6.32-5.174a3.286 3.286 0 00-1.669-.621l.2-5.9c2.409-2.715 5.019-17.685 5.019-17.685.853-.711 1.224-2.441 1.377-3.5a1.6 1.6 0 001.1-1.472c2.757.092 6.225.071 6.891-.59 1.138-1.127 1-4.969 1-4.969l-1.606-40.668-.105-.155a20.277 20.277 0 00.016-5.614c3.608 1.03 6.415 1.73 6.415 1.73s5.43 1 9.24 1.843a6.228 6.228 0 00-1.38 2.317c-3.423 9.743 15.992 9.34 15.992 9.34l9.166 4.24L340 280.787a2352.524 2352.524 0 01-20.244-6.1 14.157 14.157 0 00-1.617-.392 13.749 13.749 0 00-13.232 4.879c-.037.05-.071.095-.111.142a5.793 5.793 0 00-.137 6.875 829.812 829.812 0 003.22 4.521c-2.736.827-7.262 3.131-4.511 9.056 3.813 8.213 14.048 12.9 14.048 12.9s6.691 1.922 8.426 4.042a31.117 31.117 0 004.832 3.5 12.515 12.515 0 003.552 3.007c2.933.966 8.645 5.6 12.663 9.082l-.6 8.311-.04.5-.249-.21a10.426 10.426 0 01-6.928 4.922 4.411 4.411 0 00-2.578 1.68l-.018.024-.153.221-.116-.087c-1.053 1.482-1.543 3.642 2.433 4.237a45.72 45.72 0 0013.166-.4l6.2-5.735a6.092 6.092 0 002.37 1.23c4.637 1.053 17.661 6.093 17.661 6.093 0-1.414 11.51-19.6 11.51-19.6 15.536-29.408-1.359-51.385-3.226-53.673l-.166-.2-.145-2.444-.032-.561s8.384-3.708 5.172-5.472-5-10.246-8.029-13.777c-2.37-2.754-2.233-9.148-2.483-14.6a8.771 8.771 0 001.7 3.687c.018.024.04.042.058.066l-.224-.195a2.708 2.708 0 00.179.234zm-103.31-2.259a37.093 37.093 0 004.213 3.589 73.838 73.838 0 01-3.557-1.843 77.398 77.398 0 00-.656-1.746zM247.1 216.734a4.353 4.353 0 01-1.356 1.978l-.527-2.272c.693.11 1.335.212 1.883.294zm105.245 62.437c.208-.448.424-.887.642-1.317a4.937 4.937 0 002.341-1.627 33.423 33.423 0 011.016 4.861v.118a7.415 7.415 0 01-.3 1.957c-.242.769-.685 1.493-1.488 1.58a29.379 29.379 0 01-4.442-1.035c-.714-.195-1.5-.413-2.336-.65 1.322-.088 3.148-.827 4.57-3.887zm20.605-55.561a4.343 4.343 0 00-2.775-1.593 31.117 31.117 0 01-1.037-.724c-2.212-1.619-6.628-5.266-8.653-9.925a11.151 11.151 0 001.648-.6 11.921 11.921 0 002.328-1.409c.242-.19.479-.387.706-.592a12.291 12.291 0 001.58-1.725c.187-.263.369-.513.527-.79a12.143 12.143 0 00.7-1.259 15.689 15.689 0 001.1-3.16c.1-.437.192-.882.263-1.33s.14-.9.19-1.351a38.139 38.139 0 00.187-4.811v-.316a23.534 23.534 0 00-.527-4.843c.118.045.237.09.35.142a3.545 3.545 0 01.542.329c-.042-.061-.09-.121-.134-.182a6.841 6.841 0 011.843 2.035 29.063 29.063 0 013.118 24.855 14.85 14.85 0 00-.948 3.442c-.371 4.242 3.687 7.478 5.2 11.465a20.782 20.782 0 01.974 6.4c-1.138-5.548-5.3-11.01-7.173-14.051z" transform="translate(-167.62 -140.754)"/><path fill="#ffc1c8" d="M104.677 166.739s-.2 3.292-1.448 4.345c0 0-2.567 14.878-4.937 17.577l-.395 1.514-9.875-1.118 1.975-13.166 1.843-12.113z"/><path d="M104.677 166.739s-.2 3.292-1.448 4.345c0 0-2.567 14.878-4.937 17.577l-.395 1.514-9.875-1.118 1.975-13.166 1.843-12.113z" opacity=".03"/><path fill="#ff748f" d="M94.036 188.846l4.255-.187-.226 6.7-3.257 2.183-5.867-1.285 2.141-8.953z"/><path d="M94.036 188.846l4.255-.187-.226 6.7-3.257 2.183-5.867-1.285 2.141-8.953z" opacity=".03"/><path fill="#447bbd" d="M94.807 194.844s3.342-.985 4.927.3 5.44 4.711 6.212 5.14 11.9 2.528 8.224 5.224-13.106 1.927-13.106 1.927-6.17-1.8-6.341-1.885-3.95-1.927-4.068-2.057 1.069-8.69 1.069-8.69z"/><path d="M94.807 194.844s3.342-.985 4.927.3 5.44 4.711 6.212 5.14 11.9 2.528 8.224 5.224-13.106 1.927-13.106 1.927-6.17-1.8-6.341-1.885-3.95-1.927-4.068-2.057 1.069-8.69 1.069-8.69z" opacity=".099"/><path fill="#ff6a00" d="M85.126 105.847l-.2 12.239-.448 26.109-.263.229c-7.834 6.781-13.364-.4-13.364-.4a3.592 3.592 0 01-2.286.827 17.863 17.863 0 01-3.186 0l-.263-.024s-20.676-25.429-21.927-29.906a3.65 3.65 0 01.018-2.328 3.9 3.9 0 012.32-2.083 8.182 8.182 0 012.138-.527 54.1 54.1 0 00-3.292-11.586c-1.517-3.884-1.369-5.856-.951-6.846a1.585 1.585 0 01.819-.93s.832-.614 2.172-1.58a876.218 876.218 0 014.213-3.055l1.514-1.085c5.585-4.008 12.316-8.727 13.693-9.216a2.014 2.014 0 01.263-.076c2.825-.682 12.308.735 12.308.735z"/><path fill="none" d="M85.125 105.847l-.2 12.239c-9.366-2.762-18.075-21.066-19.223-22.509-.982-1.253.026-15.212.4-19.957 2.825-.682 12.308.735 12.308.735z"/><path d="M85.125 105.847l-.2 12.239c-9.366-2.762-18.075-21.066-19.223-22.509-.982-1.253.026-15.212.4-19.957 2.825-.682 12.308.735 12.308.735z" opacity=".1"/><path fill="#ffc1c7" d="M192.627 82.01s-7.307 3.752-8.229 18.5c0 0-1.185 7.5-1.843 8.821s-3.818 13.759-3.423 15.273c0 0-.658 1.514-3.094.856s-15.6-2.7-18.564-4.674l-8.163-3.884s-15.931-11.257-19.288-1.58 15.734 9.287 15.734 9.287l9.019 4.213 27.32 9.014s3.621 1.646 6.056-3.621a61.8 61.8 0 015.53-9.48s5.53-15.536 5.464-18.169 5.923-8.885 5.923-8.885 1.185-16.589-8.558-16.26z"/><path d="M192.627 82.01s-7.307 3.752-8.229 18.5c0 0-1.185 7.5-1.843 8.821s-3.818 13.759-3.423 15.273c0 0-.658 1.514-3.094.856s-15.6-2.7-18.564-4.674l-8.163-3.884s-15.931-11.257-19.288-1.58 15.734 9.287 15.734 9.287l9.019 4.213 27.32 9.014s3.621 1.646 6.056-3.621a61.8 61.8 0 015.53-9.48s5.53-15.536 5.464-18.169 5.923-8.885 5.923-8.885 1.185-16.589-8.558-16.26z" opacity=".03"/><path fill="#ffc1c8" d="M115.341 94.818a12.715 12.715 0 002.238 1.411s6.056 7.207 8.492 9.05 10.4 8.887 8.79 11.555-3.423 2.072-3.423 2.072l-14.254-9.875s-5-3.586-6.022-5.3a39.591 39.591 0 01-2.272-5.3z"/><path d="M115.341 94.818a12.715 12.715 0 002.238 1.411s6.056 7.207 8.492 9.05 10.4 8.887 8.79 11.555-3.423 2.072-3.423 2.072l-14.254-9.875s-5-3.586-6.022-5.3a39.591 39.591 0 01-2.272-5.3z" opacity=".03"/><path fill="#dce6f2" d="M107.344 82.508l10.235 13.724-9.216 3.589-3.818-11.489z"/><path fill="#8ba8ca" d="M107.344 82.508l10.235 13.724-9.216 3.589-3.818-11.489z"/><path fill="#447bbd" d="M110.01 117.498l1.843 2.7 1.58 40.42s.132 3.818-.987 4.937-10.27.395-10.27.395.329-41.21.461-42 7.373-6.452 7.373-6.452z"/><path d="M110.01 117.498l1.843 2.7 1.58 40.42s.132 3.818-.987 4.937-10.27.395-10.27.395.329-41.21.461-42 7.373-6.452 7.373-6.452z" opacity=".15"/><path fill="#ffc1c8" d="M97.683 168.593a33.413 33.413 0 01-2.107 4.276s-1.712 9.767-2.441 10.667c-.527.658-.769 5.572-.856 8.134-.032.927-.045 1.546-.045 1.546l-10.064 4.8-.045-6.341v-.084c-.063-1.4-.79-17.593.735-18.535.9-.556 1.748-2.9 2.325-4.816.44-1.482.716-2.723.716-2.723s11.181-.727 12.113.471c.343.425.106 1.462-.331 2.605z"/><path d="M97.683 168.593a968.38 968.38 0 01-12.513-.369c.44-1.483.716-2.723.716-2.723s11.181-.727 12.113.471c.358.441.121 1.479-.316 2.621z" opacity=".1"/><path fill="#447bbd" d="M84.467 108.675s-3.094 16.458-2.5 27.056-.461 18.427.856 21.527 1.317 10.138 1.317 10.138 17.906.658 19.749.395 1.777-1.646 1.777-1.646-1.251-10.933-.066-14.356.987-13.89.987-13.89l5-16.853s1.514-7.571-1.646-10.665-25.474-1.706-25.474-1.706z"/><path fill="#ffc1c7" d="M190.718 195.64l-.79 1.159-4.885 7.268-4.147 1.251-3.094-3.028.15-2 .772-10.378s-19.144-11.262-20.855-13.369-8.295-4.016-8.295-4.016-10.072-4.674-13.825-12.837 6.254-9.414 6.254-9.414l37.59 35.951z"/><path d="M189.941 196.796l-4.885 7.268-4.147 1.251-3.094-3.028.15-2 3.4 2.92 6.386-7.439z" opacity=".1"/><path fill="#447bbd" d="M195.327 199.853l-11.915 11.125a44.649 44.649 0 01-12.969.395c-3.913-.59-3.16-2.736-2.13-4.213l.018-.026a4.329 4.329 0 012.538-1.669 10.259 10.259 0 006.815-4.89l3.687 3.16 6.385-7.442 4.721 2.217z"/><path fill="#fff" d="M195.329 199.979l-11.918 11.135a44.649 44.649 0 01-12.969.395c-3.913-.59-3.423-2.736-2.394-4.213a8.163 8.163 0 004.105 1.709 65.556 65.556 0 008.426 0l11.9-10.357z"/><path fill="#ffc1c8" d="M96.954 66.632c-.969.485-1.414 1.98-1.593 3.687a31.5 31.5 0 00.187 6.42s-13.166-3.6-11.76-4.3c.808-.4 1.238-3.336 1.456-5.751.163-1.785.211-3.289.211-3.289s14.132 1.917 11.499 3.233z"/><path fill="#ffc1c7" d="M201.757 82.608s-15.976 15.1-15.449 10.709a5.336 5.336 0 00-.553-2.454c-1.477-3.56-5.561-9.087-8.755-13.129-2.344-2.965-4.213-5.132-4.213-5.132s19.841-16.676 18.261-7.2a11.373 11.373 0 00.866 6.367c1.978 4.656 6.359 8.318 8.547 9.935.79.586 1.296.904 1.296.904z"/><path d="M188.854 68.299c-.287.355-1.351 1.6-1.667 1.933-3 3.126-3.4 7.636-8.076 7.636a16.414 16.414 0 01-2.107-.134c-2.344-2.965-4.213-5.132-4.213-5.132s19.836-16.676 18.256-7.2c-.374 2.252-3.026.928-2.193 2.897z" opacity=".1"/><path fill="#ffc1c7" d="M195.611 60.839a16.437 16.437 0 11-4.814-11.686 16.5 16.5 0 014.814 11.686z"/><path d="M201.754 82.607s-15.976 15.1-15.449 10.709a5.337 5.337 0 00-.553-2.454l2.309-5.445a15.623 15.623 0 0110.22-3.871 14.864 14.864 0 012.046.14l.132.021c.795.583 1.295.9 1.295.9z" opacity=".1"/><path fill="#88bd45" d="M220.54 193.204s-11.323 18.08-11.323 19.486c0 0-12.816-5-17.379-6.056s-8.866-10.62-8.866-10.62-12.113-11.412-16.853-12.992c-4.021-1.34-23.344-28.6-29.1-36.82a5.793 5.793 0 01.137-6.833l.108-.14a13.548 13.548 0 0114.6-4.461c8.289 2.562 22.646 6.965 29.887 8.953a30.4 30.4 0 004.371 1.03c.79-.082 1.224-.79 1.464-1.567a7.444 7.444 0 00.292-1.943v-.119a33.4 33.4 0 00-1.043-4.95c-.845-2.9-2.309-6.3-4.74-7.921-2.017-1.346-3.621-4.313-4.461-7.763-1.13-4.658-.869-10.2 1.651-13.83l2.436-5.746 4.074-9.611 2.27-5.356a15.623 15.623 0 0110.22-3.871 14.869 14.869 0 012.046.14c1.746.242 3.255.766 3.884 1.8 1.93 3.16 6.32 8.953 7.2 14.746s-.174 15.273 2.81 18.785 4.74 11.936 7.9 13.693-5.09 5.44-5.09 5.44l.032.556.142 2.43s.058.066.163.2c1.833 2.27 18.44 24.114 3.168 53.34z"/><path fill="#447bbd" d="M217.379 139.86c-3.46.724-11.028 2.3-14.4 2.994l-.592.121c-.2.04-.419.076-.658.111-3.392.466-10.749.237-14.117.1a7.45 7.45 0 00.292-1.943v-.118a111.244 111.244 0 0013.838-1.72c.424-.087.843-.179 1.251-.263.59-.137 1.164-.282 1.712-.435a46.059 46.059 0 0112.376-1.464l.142 2.43s.038.055.156.187z"/><path fill="#ff6584" d="M202.963 139.13v3.723l-.592.121c-.2.039-.419.076-.658.111v-3.675c.423-.093.842-.185 1.25-.28z"/><path d="M206.188 146.261s-7.044 16.129-11.323 17.708-14.944 7.176-14.944 7.176 6.122 5.4 12.508-.527 15.603-21.724 13.759-24.357z" opacity=".1"/><path d="M213.89 144.094s.658 6.122-.263 7.241.263-7.241.263-7.241z" opacity=".1"/><path d="M217.709 148.104s3.555 37.26-14.088 37.458c0 .005 16.524-16.392 14.088-37.458z" opacity=".1"/><path d="M222.185 157.057s5.069 19.552-1.58 21.79a49.594 49.594 0 001.58-21.79z" opacity=".1"/><path d="M190.652 152.054c-.329 0-13.693 2.3-10.8 4.147s10.8-4.147 10.8-4.147z" opacity=".1"/><path d="M199.869 125.661s10.928 9.677 8.821 10.73" opacity=".1"/><path d="M198.947 128.755s6.32 7.768 5.6 8.229" opacity=".1"/><path d="M212.442 127.565s2.9 3.621 2.436 4.411" opacity=".1"/><path d="M215.339 125.661s4.147 3.22 3.226 4.477" opacity=".1"/><path fill="#ffc1c7" d="M192.298 86.426s13.5 1.053 12.9 11.915-10.662 13.627-10.662 13.627l-13.1-3.752s5.859-21.066 10.862-21.79z"/><path d="M151.872 134.767c8.289 2.562 22.646 6.965 29.887 8.953a3.829 3.829 0 01-3.089.171l-27.32-9.014-1.069-.5a13.593 13.593 0 011.591.39z" opacity=".1"/><path d="M198.104 107.923c-1.282 1.712-2.412 3.555-2.37 4.708a27.582 27.582 0 01-1.259 5.448 91.074 91.074 0 01-7.636 18.1c-.845-2.9-2.309-6.3-4.74-7.921-2.017-1.346-3.621-4.313-4.461-7.763a45.657 45.657 0 011.5-5.1c.658-1.317 1.843-8.821 1.843-8.821a39.434 39.434 0 01.745-5.659 23.848 23.848 0 014.074-9.611 11.374 11.374 0 013.423-3.228l3.884-.592c4.477-.15 6.636 3.255 7.676 6.986a15.61 15.61 0 01-2.679 13.453z" opacity=".1"/><path fill="#ffc1c7" d="M188.414 87.014s-7.307 3.752-8.229 18.5c0 0-1.185 7.5-1.843 8.821s-3.818 13.759-3.423 15.273c0 0-.658 1.514-3.094.856s-15.6-2.7-18.564-4.674l-8.163-3.884s-15.931-11.257-19.288-1.58 15.734 9.287 15.734 9.287l9.019 4.213 27.32 9.014s3.621 1.646 6.056-3.621a53.814 53.814 0 011.893-3.7 91.539 91.539 0 007.85-18.48 26.623 26.623 0 001.259-5.448c-.029-1.153 1.1-3 2.37-4.708a15.521 15.521 0 002.66-13.456c-1.04-3.731-3.21-7.136-7.676-6.983z"/><path d="M96.954 66.632c-.969.485-1.414 1.98-1.593 3.687h-.517a14.4 14.4 0 01-9.6-3.644c.163-1.785.211-3.289.211-3.289s14.132 1.929 11.499 3.246z" opacity=".1"/><path fill="#ffc1c8" d="M109.33 55.31a14.483 14.483 0 11-14.483-14.483A14.483 14.483 0 01109.33 55.31z"/><path d="M114.223 112.029s-7.571 3.028-9.94 4.082-15.931-1.382-15.931-1.382-7.044-3.555-6.451-7.11-5.661-15.2-5.661-15.2-.2-10.335 2.567-12.31 1.712-6.122 1.712-6.122.013-.137.055-.361c.171-.88.79-3.118 2.841-3.852a2.723 2.723 0 011.272-.034c1.967.3 5.2 1.762 7.871 3.112a102.358 102.358 0 014.461 2.4l.09.05s.987 2.3 2.172 1.58 7.11 2.633 8.229 4.147.329 8.624.132 10.4 1.119 7.044 2.567 10.067 4.014 10.533 4.014 10.533z" opacity=".1"/><path fill="#9cbce2" d="M114.223 111.239s-7.571 3.028-9.94 4.082-15.931-1.382-15.931-1.382-7.044-3.555-6.451-7.11-5.661-15.2-5.661-15.2-.2-10.335 2.567-12.31 1.712-6.122 1.712-6.122.013-.137.055-.361c.171-.88.79-3.118 2.841-3.852a2.723 2.723 0 011.272-.034c1.967.3 5.2 1.762 7.871 3.112a102.358 102.358 0 014.461 2.4l.09.05s.987 2.3 2.172 1.58 7.11 2.633 8.229 4.147.329 8.624.132 10.4 1.119 7.044 2.567 10.067 4.014 10.533 4.014 10.533z"/><path fill="#447bbd" d="M89.712 101.128s-6.5 10.533-7.549 11.1l.395 3.687s9.261-1.933 9.832-4.521.263-10.4.263-10.4z"/><path d="M89.712 101.128s-6.5 10.533-7.549 11.1l.395 3.687s9.261-1.933 9.832-4.521.263-10.4.263-10.4z" opacity=".2"/><path d="M98.852 87.709s1.151 4.445 2.962 5.959-2.962-5.959-2.962-5.959z" opacity=".1"/><path fill="#ffc1c8" d="M87.561 99.427c.166.3 5.727 7.868 11.586 10.665s18.928 6.091 18.928 6.091 10.6 1.975 12.408 2.731 4.116-2.633-7.241-7.47-13.561-6.978-13.561-6.978-9.875-4.811-11.455-7.181-10.665 2.142-10.665 2.142z"/><path d="M91.708 136.255c.2-.132 4.937-5.2 5.53-3.028s-5.53 3.028-5.53 3.028z" opacity=".1"/><path d="M94.473 126.249c-.066.2-.724 5.793-2.633 6.451" opacity=".1"/><path d="M96.448 127.768s-1.712 5.991-3.884 6.38" opacity=".1"/><path d="M87.759 145.734s2.9.066 3.292-1.777" opacity=".1"/><path d="M91.708 157.721c.395.066 6.583 4.016 5 4.806s-5-4.806-5-4.806z" opacity=".1"/><path d="M92.27 191.063v.608c-.032.927-.045 1.546-.045 1.546l-10.064 4.8-.045-6.341v-.513l4.029.129z" opacity=".1"/><path fill="#ff748f" d="M94.152 200.282l-8.395 3.213-3.768-2.228.039-3.049.087-6.546 4.029.129 6.125-.213v4.584z"/><path d="M94.144 200.284l-8.395 3.213-3.768-2.228.039-3.049a6.1 6.1 0 004.629 2.4s2.954-3.687 4.753-4.756a1.1 1.1 0 01.858-.116v.429z" opacity=".1"/><path fill="#447bbd" d="M86.657 201.141a6.053 6.053 0 01-5.14-3.213s-2.441 2.357-2.486 7.326a47.519 47.519 0 00.045 5.14s9.851-.384 11.694.3 17.306-.6 17.306-.6 1.027-2.7-3.642-3.642-8.524-5.912-8.653-6.125-2.57-5-4.369-3.95-4.755 4.764-4.755 4.764z"/><path d="M95.735 39.31l-.982-.134.614-.016z" opacity=".1"/><path d="M109.33 55.309a14.516 14.516 0 01-.387 3.336 2.317 2.317 0 01-.624-.263c-.282-.182-.564-.432-.9-.4a1.066 1.066 0 00-.527.242c-1.559 1.14-2.718 3.015-4.613 3.378a3.044 3.044 0 00.074-1.722 3.563 3.563 0 01-3.12 1 1.5 1.5 0 00.045-1.035 30.222 30.222 0 01-4.158 1.93c-.05-.263-.1-.506-.147-.758-2.017.985-1.859 4.326-3.876 5.311-1.2.587-2.9.166-3.726 1.224a1.975 1.975 0 00-.09.129 14.483 14.483 0 1122.04-12.358z" opacity=".1"/><path fill="#626161" d="M95.737 38.781a14.232 14.232 0 00-3.76-1.159 4.781 4.781 0 00-3.708.977c-.79.7-1.409 1.812-2.462 1.843a3.169 3.169 0 01-1.448-.463c-1.317-.632-2.962-.99-4.15-.153a4.315 4.315 0 00-1.459 3.055 9.769 9.769 0 01-.74 3.384 15.011 15.011 0 01-1.282 1.725 7.452 7.452 0 00-1.432 5.093 14.783 14.783 0 00.574 2.646l1.074 3.794a22.411 22.411 0 002.138 5.6 7.583 7.583 0 004.582 3.631 3.064 3.064 0 003.255-.961c.169-.263.276-.545.461-.79.816-1.053 2.525-.635 3.726-1.222 2.017-.985 1.859-4.326 3.876-5.311l.15.756a30.64 30.64 0 004.155-1.928 1.519 1.519 0 01-.042 1.035 3.573 3.573 0 003.118-1 3.044 3.044 0 01-.074 1.722c1.9-.366 3.055-2.241 4.613-3.381a1.087 1.087 0 01.527-.24c.334-.029.614.221.9.4a2.523 2.523 0 003.118-.4 3.892 3.892 0 00.6-3.481 29.172 29.172 0 01-.9-3.555c-.166-1.662.413-3.4-.118-4.977a5.5 5.5 0 00-2.9-2.949c-1.267-.637-2.633-1.009-3.926-1.58-1.227-.55-2.37-1.288-3.644-1.722a16.511 16.511 0 00-5.793-.527"/><path fill="#ff6a00" d="M95.988 87.83s2.107-14.175-15.931-13.474l-9.085 1.208s8.666 1.559 10.751 1.788l.221.032c1.928.353 8.603-.088 14.044 10.446z"/><path d="M84.467 144.357v-.163c7.397-6.396 0 .163 0 .163z" opacity=".1"/><path d="M68.555 144.85a17.869 17.869 0 01-3.186 0L43.21 112.603a3.9 3.9 0 012.32-2.083z" opacity=".24"/><path d="M54.184 110.323l-1.053 1.251s-7.989-13.271-9.706-20.013a1.585 1.585 0 01.819-.93s.832-.614 2.172-1.58c.498 3.171 2.196 10.924 7.768 21.272z" opacity=".24"/><path d="M60.044 106.238l-2.107 1.185c-5.751-6.731-6.241-18.038-6.188-22.543l1.517-1.09c.206 5.915 6.778 22.448 6.778 22.448z" opacity=".24"/><path d="M65.574 105.056c-.066.856-2.5 9.545 1.053 10.994s-1.053-10.994-1.053-10.994z" opacity=".1"/><path d="M73.21 120c.132.461 1.317 15.47 3.884 14.285s1.185-18.3 1.185-18.3z" opacity=".1"/><path d="M195.61 60.839a16.437 16.437 0 01-4.6 11.428 9.617 9.617 0 01-3.66.063 3.645 3.645 0 01-1.712-.687 4.452 4.452 0 01-1.109-1.6c-.961-2.067-1.454-4.455-2.8-6.225s-4.084-2.546-5.385-.732c-.708.985-.827 2.5-1.772 3.181-1.135.822-2.633-.145-3.515-1.317-2.607-3.423-1.714-10.154-6.686-11.1l-.2-.034a16.5 16.5 0 0131.443 7.025z" opacity=".1"/><path fill="#575656" d="M164.63 53.603c-.806-.155-1.741-.134-2.28-.829a3.191 3.191 0 01-.487-1.519c-.324-2.333-.5-4.837.429-6.952 1.525-3.468 5.448-4.627 8.858-4.369s6.757 1.53 10.167 1.317c2.507-.163 4.979-1.132 7.478-.856a15.217 15.217 0 015.6 2.207 13.393 13.393 0 014.545 3.573c1.733 2.383 2.059 5.675 2.107 8.763.058 3.626-.2 7.391-1.719 10.583-2.207 4.632-7.128 7.389-11.715 6.559a3.644 3.644 0 01-1.712-.687 4.476 4.476 0 01-1.106-1.6c-.964-2.07-1.456-4.455-2.8-6.228s-4.084-2.544-5.385-.729c-.708.982-.827 2.5-1.772 3.181-1.135.819-2.633-.147-3.515-1.317-2.614-3.429-1.721-10.154-6.693-11.097z"/><path fill="#575656" d="M204.704 45.948c2.509 1.2 4.25 3.531 5.885 5.777 1.361 1.867 2.77 3.863 2.949 6.164a24.628 24.628 0 00.111 2.828c.629 3.273 4.74 4.74 5.941 7.858a9.14 9.14 0 01.137 4.658 62.854 62.854 0 01-1.419 6.67 8.881 8.881 0 00-.487 4.024 12.349 12.349 0 001.253 2.9 20.814 20.814 0 011.509 8.282 31.341 31.341 0 00.935 8.4c.845 2.7 2.71 5.245 5.4 6.117a6.344 6.344 0 01-3.039 1.08 2.537 2.537 0 001.053 2.338 7.677 7.677 0 002.428 1.124 4.582 4.582 0 01-4.034.621 9.043 9.043 0 01-2.952-1.933l-5.048-4.342a14.247 14.247 0 01-1.862-1.812c-3.265-4.058-1.317-10.206-3.139-15.081-1.485-3.963-5.477-7.181-5.111-11.4a14.872 14.872 0 01.932-3.423 29.142 29.142 0 00-3.068-24.7 5.847 5.847 0 00-2.207-2.257c-1.461-.7-3.55-.4-4.379-1.791a6.949 6.949 0 01-.566-2.852 14.563 14.563 0 018.778.75z"/><path d="M76.467 90.531a9.585 9.585 0 0116.732-4.835 21.029 21.029 0 013.71 5.73c2.633 6.649 2.831 7.241 2.831 7.241s-16.26 3.16-16.129 5.53l-7.373-11.783s.055-.738.229-1.883z" opacity=".1"/><path fill="#9cbce2" d="M76.467 89.742a9.585 9.585 0 0116.732-4.835 21.029 21.029 0 013.71 5.73c2.633 6.649 2.831 7.241 2.831 7.241s-16.26 3.16-16.129 5.53l-7.373-11.783s.055-.738.229-1.883z"/><path d="M81.044 79.348c.2.329 7.966 9.809 12.047 11.16s-12.047-11.16-12.047-11.16z" opacity=".1"/><path d="M47.668 109.994s20.539 24.23 23.172 34.03" opacity=".1"/><path fill="none" stroke="#000" stroke-miterlimit="10" stroke-width="2" d="M48.458 87.611s4.477 23.172 13.166 32.915 17.643 26.332 17.643 26.332" opacity=".1"/><g opacity=".1" transform="translate(75.135 45.651)"><path d="M36.786 8.247a3.139 3.139 0 01-.748 2.107 2.523 2.523 0 01-3.118.4c-.282-.179-.561-.429-.9-.4a1.087 1.087 0 00-.527.24c-1.483 1.085-2.6 2.833-4.345 3.315a3.042 3.042 0 01-.137 1.382c1.9-.366 3.055-2.241 4.613-3.381a1.088 1.088 0 01.527-.24c.334-.029.614.221.9.4a2.523 2.523 0 003.118-.4 3.888 3.888 0 00.617-3.423z"/><path d="M35.736 3.307c.021.216.058.429.1.643a16.653 16.653 0 000-3.95c.005 1.074-.211 2.212-.1 3.307z"/><path d="M26.964 12.24a3.573 3.573 0 01-3.118 1 1.519 1.519 0 00.042-1.035 30.638 30.638 0 01-4.155 1.928l-.15-.756c-2.017.985-1.859 4.326-3.876 5.311-1.2.587-2.9.163-3.726 1.222-.184.24-.292.527-.461.79a3.06 3.06 0 01-3.255.961 7.561 7.561 0 01-4.582-3.631 22.515 22.515 0 01-2.138-5.6L.471 8.636C.295 8.004.116 7.372 0 6.727a3.865 3.865 0 00.029.579 14.783 14.783 0 00.574 2.646l1.074 3.794a22.413 22.413 0 002.138 5.6 7.583 7.583 0 004.582 3.631 3.064 3.064 0 003.255-.961c.169-.263.276-.545.461-.79.816-1.053 2.525-.635 3.726-1.222 2.017-.985 1.859-4.326 3.876-5.311l.15.756a30.64 30.64 0 004.147-1.928 1.519 1.519 0 01-.042 1.035 3.573 3.573 0 003-.89 3.042 3.042 0 000-1.427z"/></g><path d="M97.017 75.25c-1.417.816-4.708 2.633-5.374 2.323-.711-.329-8.468-3.044-11.06-3.95.171-.88.79-3.118 2.841-3.852a2.723 2.723 0 011.272-.034l7.868 3.112c2.204 1.119 4.034 2.163 4.453 2.401z" opacity=".1"/><path fill="#9cbce2" d="M97.017 74.46c-1.417.816-4.708 2.633-5.374 2.323-.711-.329-8.468-3.044-11.06-3.95.171-.88.79-3.118 2.841-3.852a2.723 2.723 0 011.272-.034l7.868 3.112c2.204 1.119 4.034 2.163 4.453 2.401z"/><path d="M201.054 54.625a21.081 21.081 0 01-1.714 8.529c-2.207 4.632-7.128 7.389-11.715 6.559a3.645 3.645 0 01-1.712-.687 4.476 4.476 0 01-1.106-1.6c-.964-2.07-1.456-4.455-2.8-6.228s-4.084-2.544-5.385-.729c-.708.982-.827 2.5-1.772 3.181-1.135.819-2.633-.147-3.515-1.317-2.607-3.423-1.714-10.156-6.686-11.1-.806-.155-1.741-.134-2.28-.829a3.19 3.19 0 01-.487-1.519 27.13 27.13 0 01-.211-1.933 19.182 19.182 0 00.211 4.3 3.19 3.19 0 00.487 1.519c.54.7 1.475.674 2.28.829 4.972.943 4.079 7.668 6.686 11.1.88 1.156 2.37 2.122 3.515 1.317.945-.682 1.053-2.2 1.772-3.181 1.3-1.814 4.037-1.04 5.385.729s1.843 4.158 2.8 6.228a4.476 4.476 0 001.106 1.6 3.644 3.644 0 001.712.687c4.587.829 9.509-1.928 11.715-6.559 1.522-3.191 1.777-6.957 1.72-10.583-.006-.113-.006-.218-.006-.313z" opacity=".1"/><g opacity=".1" transform="translate(196.258 47.641)"><path d="M22.014 19.623a9.14 9.14 0 01.137 4.658 62.837 62.837 0 01-1.419 6.665 8.881 8.881 0 00-.487 4.024 12.349 12.349 0 001.253 2.9 20.815 20.815 0 011.509 8.282 31.34 31.34 0 00.935 8.4 10.369 10.369 0 003.023 4.766 11.107 11.107 0 01-1.706-3.349 31.235 31.235 0 01-.935-8.4 20.748 20.748 0 00-1.509-8.279 12.759 12.759 0 01-1.253-2.9 9 9 0 01.487-4.026 62.812 62.812 0 001.419-6.683 9.151 9.151 0 00-.137-4.661 8.585 8.585 0 00-2.257-3.01 6.149 6.149 0 01.94 1.614z"/><path d="M30.656 62.084a6.878 6.878 0 01-1.959-1.022 6.367 6.367 0 01-2.4.7A2.536 2.536 0 0027.35 64.1a3.649 3.649 0 00.448.308 2.106 2.106 0 01-.176-1.24 6.4 6.4 0 003.034-1.084z"/><path d="M3.286.898c-1-.479-2.3-.49-3.286-.9a2.7 2.7 0 00.224.527c.83 1.39 2.918 1.09 4.379 1.791a3.592 3.592 0 01.527.324A5.068 5.068 0 003.286.898z"/><path d="M28.924 65.704a4.574 4.574 0 01-3.184.15 9.043 9.043 0 01-2.952-1.933l-5.048-4.342c-.24-.205-.477-.413-.708-.624.053.071.105.145.163.216a14.084 14.084 0 001.862 1.812l5.048 4.345a9.085 9.085 0 002.952 1.933 4.582 4.582 0 004.034-.624 8.529 8.529 0 01-2.167-.932z"/><path d="M13.014 2.77c1.361 1.867 2.77 3.863 2.949 6.164a24.656 24.656 0 00.111 2.827 7.041 7.041 0 002.409 3.658 5.2 5.2 0 01-1.093-2.251 24.7 24.7 0 01-.111-2.831c-.179-2.3-1.58-4.3-2.949-6.162A28.167 28.167 0 0011.094.27c.68.802 1.306 1.655 1.92 2.5z"/></g><path d="M197.72 44.953s-1.58 2.633 2.9 4.827l.263-.7z" opacity=".1"/><path fill="#ff6584" d="M197.456 44.953s-1.58 2.633 2.9 4.827l.263-.7z"/><path fill="#88bd45" d="M259.788 193.991s1.448 1.893-.666 4.74-3.858 5.266-3.16 7.049c0 0 3.192-5.306 5.793-5.38s.89-3.218-1.967-6.409z"/><path d="M259.788 193.991a2.388 2.388 0 01.3.592c2.533 2.978 3.881 5.756 1.446 5.825-2.267.066-4.987 4.121-5.64 5.145.021.079.047.155.076.234 0 0 3.191-5.306 5.793-5.38s.878-3.225-1.975-6.416z" opacity=".1"/><path fill="#ffd037" d="M262.478 196.403c0 .666-.076 1.206-.169 1.206s-.166-.527-.166-1.206.092-.353.184-.353.151-.313.151.353z"/><path fill="#ffd037" d="M263.401 197.198c-.585.319-1.1.511-1.138.429s.392-.406.977-.724.355-.087.4 0 .348-.024-.239.295z"/><path fill="#88bd45" d="M252.138 193.991s-1.448 1.893.666 4.74 3.858 5.266 3.16 7.049c0 0-3.189-5.306-5.793-5.38s-.879-3.218 1.967-6.409z"/><path d="M252.142 193.991a2.383 2.383 0 00-.3.592c-2.533 2.978-3.881 5.756-1.446 5.825 2.267.066 4.987 4.121 5.64 5.145a2.057 2.057 0 01-.079.234s-3.189-5.306-5.793-5.38-.872-3.225 1.978-6.416z" opacity=".1"/><path fill="#ffd037" d="M249.458 196.403c0 .666.076 1.206.169 1.206s.166-.527.166-1.206-.092-.353-.184-.353-.151-.313-.151.353z"/><path fill="#ffd037" d="M248.536 197.198c.585.319 1.093.511 1.138.429s-.392-.406-.977-.724-.355-.087-.4 0-.346-.024.239.295z"/><path fill="#a8a8a8" d="M249.918 205.541s4.045-.126 5.266-.993 6.222-1.906 6.525-.527 6.077 6.923 1.511 6.96-10.609-.711-11.826-1.451-1.476-3.989-1.476-3.989z"/><path d="M263.3 210.512c-4.566.037-10.609-.711-11.826-1.451-.927-.566-1.3-2.591-1.419-3.523h-.137s.263 3.263 1.475 4.005 7.26 1.488 11.826 1.451c1.317 0 1.772-.479 1.748-1.174-.19.429-.687.692-1.667.692z" opacity=".2"/><path fill="#88bd45" d="M69.155 200.898a3.075 3.075 0 001.011-1.522 1.361 1.361 0 00-.706-1.554c-.648-.248-1.34.2-1.864.656a2.49 2.49 0 01-1.814.874 2.757 2.757 0 00.853-2.583 1.085 1.085 0 00-.237-.527c-.358-.384-1.011-.219-1.443.084-1.369.961-1.751 2.823-1.756 4.495a8.292 8.292 0 01-.026-1.843 1.9 1.9 0 00-.7-1.638 2.107 2.107 0 00-1.053-.263 2.193 2.193 0 00-1.722.49 1.694 1.694 0 00.068 2.107 6.83 6.83 0 001.78 1.427 3.95 3.95 0 011.274 1.214 1.27 1.27 0 01.095.219h3.84a10.734 10.734 0 002.4-1.636z"/><path fill="none" stroke="#535461" stroke-miterlimit="10" stroke-width="2" d="M38.493 205.051s-3.687-12.561.693-21.808a19.857 19.857 0 001.606-12.447 33.51 33.51 0 00-1.764-5.843"/><path fill="#6c63ff" d="M41.764 159.109c0 1.538-2.789 6-2.789 6s-2.789-4.477-2.789-6a2.789 2.789 0 015.577 0z"/><path fill="#6c63ff" d="M46.369 167.635c-.837 1.293-5.6 3.526-5.6 3.526s.084-5.266.922-6.554a2.788 2.788 0 114.682 3.029z"/><path fill="#6c63ff" d="M46.172 182.21c-1.375.693-6.617.213-6.617.213s2.733-4.5 4.108-5.193a2.788 2.788 0 112.51 4.98z"/><path fill="#6c63ff" d="M43.534 193.201c-1.238.916-6.486 1.317-6.486 1.317s1.933-4.9 3.16-5.812a2.789 2.789 0 113.315 4.477z"/><path fill="#6c63ff" d="M34.914 171.458c1.1 1.074 6.249 2.186 6.249 2.186s-1.261-5.111-2.37-6.185a2.789 2.789 0 10-3.884 4z"/><path fill="#6c63ff" d="M32 184.353c1.375.693 6.617.216 6.617.216s-2.731-4.5-4.108-5.193A2.787 2.787 0 1032 184.353z"/><path fill="#6c63ff" d="M30.878 197.278c1.238.914 6.486 1.317 6.486 1.317s-1.933-4.9-3.16-5.814a2.789 2.789 0 00-3.315 4.477z"/><path fill="#88bd45" d="M41.764 159.109c0 1.538-2.789 6-2.789 6s-2.789-4.477-2.789-6a2.789 2.789 0 015.577 0z"/><path fill="#88bd45" d="M46.369 167.635c-.837 1.293-5.6 3.526-5.6 3.526s.084-5.266.922-6.554a2.788 2.788 0 114.682 3.029z"/><path fill="#88bd45" d="M46.172 182.21c-1.375.693-6.617.213-6.617.213s2.733-4.5 4.108-5.193a2.788 2.788 0 112.51 4.98z"/><path fill="#88bd45" d="M43.534 193.201c-1.238.916-6.486 1.317-6.486 1.317s1.933-4.9 3.16-5.812a2.789 2.789 0 113.315 4.477z"/><path fill="#88bd45" d="M34.914 171.458c1.1 1.074 6.249 2.186 6.249 2.186s-1.261-5.111-2.37-6.185a2.789 2.789 0 10-3.884 4z"/><path fill="#88bd45" d="M32 184.353c1.375.693 6.617.216 6.617.216s-2.731-4.5-4.108-5.193A2.787 2.787 0 1032 184.353z"/><path fill="#88bd45" d="M30.878 197.278c1.238.914 6.486 1.317 6.486 1.317s-1.933-4.9-3.16-5.814a2.789 2.789 0 00-3.315 4.477z"/><path fill="#a8a8a8" d="M29.748 204.261s4.505-.9 5.706-2.088 6.609-3.281 7.21-1.791 8.11 6.562 3 7.457-12.015 1.193-13.519.6-2.397-4.178-2.397-4.178z"/><path d="M45.669 207.284c-5.108.9-12.015 1.193-13.519.6-1.143-.456-1.938-2.633-2.251-3.652l-.15.032s.9 3.579 2.4 4.174 8.411.3 13.519-.6c1.472-.263 1.893-.866 1.735-1.633-.131.502-.639.884-1.734 1.079z" opacity=".2"/></g></svg>