<svg xmlns="http://www.w3.org/2000/svg" width="266.126" height="220" viewBox="0 0 244.048 220"><defs><linearGradient id="a" x1=".64" x2=".64" y1="-.297" y2=".703" gradientUnits="objectBoundingBox"><stop offset="0" stop-color="gray" stop-opacity=".251"/><stop offset=".54" stop-color="gray" stop-opacity=".122"/><stop offset="1" stop-color="gray" stop-opacity=".102"/></linearGradient></defs><g transform="translate(-7.516 12)"><circle cx="110" cy="110" r="110" fill="#447bbd" opacity=".16" transform="translate(30.926 -12)"/><path fill="#00a6e1" d="M176.312 76.944h-.8v.644h.9zm-9.025 0a.04.04 0 000 .017c-.022.176-.046.352-.07.53v.1h6.9v-.039l.482-.605zm-18.482 0V56.166h7.933c-.084-.055-.171-.113-.26-.166l-.116-.075-.149-.092c-.087-.051-.174-.1-.265-.149s-.147-.082-.224-.123l-.053-.029h-6.867v-1.149l-.186.072-.2.092h-.014l-.041.022-.123.065-.123.065a6.8 6.8 0 00-.362.212l-.116.077-.241.154c-.311.207-.617.424-.933.627-.08.051-.159.1-.241.147-.171.1-.347.2-.528.285a2.015 2.015 0 01-.241.1l-.13.051-.121.041a5.645 5.645 0 01-.868.227v20.319h-11.89c0 .024.017.043.024.068.065.193.13.383.193.576h11.695v22.271h.181l.21.012.379.022.605.072.277.027.3.031h.046l.533.065.113.014.258.036.369.053.885-.039.121.022a.837.837 0 01.149.024V77.588h18.408v-.1c.024-.178.048-.354.07-.53a.039.039 0 010-.017zm27.508 0h-.8v.644h.9zm-9.522 0l-.084.644h7.69l.523-.644zm-17.986 0V56.166h7.933c-.084-.055-.171-.113-.26-.166l-.116-.075-.149-.092c-.087-.051-.174-.1-.265-.149s-.147-.082-.224-.123l-.053-.029h-6.867v-1.149l-.186.072-.2.092h-.014l-.041.022-.123.065-.123.065a6.8 6.8 0 00-.362.212l-.116.077-.241.154c-.311.207-.617.424-.933.627-.08.051-.159.1-.241.147-.171.1-.347.2-.528.285a2.015 2.015 0 01-.241.1l-.13.051-.121.041a5.645 5.645 0 01-.868.227v20.319h-11.89c0 .024.017.043.024.068l.2.576h11.692v22.268h.181l.21.012.379.022.605.075.277.027.3.031h.046l.533.065.113.014.258.036.369.053.885-.039.121.022a.837.837 0 01.149.024V77.588h17.926l.084-.644zm60.171-43.268h30.028c0-.215 0-.429-.014-.641h-30.015V7.808q-2.228.482-4.449 1v24.227h-54.408l-.137-.123.207-.183 20.238-18.186q-3.038.116-6.074.053l-15.548 13.97V13.283q-2.228-.316-4.446-.7v15.28L121.619 7.427c-2.855-.764-5.712-1.543-8.575-2.3l30.92 27.788-.137.123H87.066V-.048q-1.136-.106-2.271-.186a71.695 71.695 0 00-2.17-.123v33.392H38.406v22.49H27.84c.06.215.123.429.186.641h10.378v20.778h-6.253q-.065.321-.137.644h6.39v58.1c1.447.224 2.944.381 4.446.482V77.588h39.765v53.417c1.493-.4 2.973-.81 4.449-1.247v-52.17h57.292v46.671a37.857 37.857 0 004.408-1.244l.039-.014V77.588h55.722v21.89q2.218-.326 4.449-.625V77.588h39.622l.386-.644h-40.007V56.166h38.019c.051-.212.094-.427.14-.641h-38.159zm-166.123 0h39.765v21.849H42.852zm0 43.268V56.166h39.765v20.778zm44.213-43.268h57.292v21.849H87.066zm0 43.268V56.166h57.292v20.778zm117.461 0h-55.723V56.166h55.722zm0-21.42h-55.723V34.262l.781-.586h54.941zm-37.24 21.42a.04.04 0 000 .017c-.022.176-.046.352-.07.53v.1h6.9v-.039l.482-.605zm9.025 0h-.8v.644h.9zm-27.508 0V56.166h7.933c-.084-.055-.171-.113-.26-.166l-.116-.075-.149-.092c-.087-.051-.174-.1-.265-.149s-.147-.082-.224-.123l-.053-.029h-6.866v-1.149l-.186.072-.2.092h-.014l-.041.022-.123.065-.123.065a6.8 6.8 0 00-.362.212l-.116.077-.241.154c-.311.207-.617.424-.933.627-.08.051-.159.1-.241.147-.171.1-.347.2-.528.285a2.015 2.015 0 01-.241.1l-.13.051-.121.041a5.645 5.645 0 01-.868.227v20.319h-11.89c0 .024.017.043.024.068.065.193.13.383.193.576h11.695v22.271h.181l.21.012.379.022.605.072.277.027.3.031h.046l.533.065.113.014.258.036.369.053.885-.039.121.022a.837.837 0 01.149.024V77.588h18.408v-.1c.024-.178.048-.354.07-.53a.039.039 0 010-.017z" opacity=".1" style="isolation:isolate"/><path fill="#00a6e1" d="M61.972 18.634h.345a.7.7 0 01-.422-.562c0-.444.663-.805 1.473-.805h10.313c.81 0 1.471.362 1.471.805 0 .441-.661.805-1.471.805h-.345a.692.692 0 01.422.559c0 .379-.482.7-1.126.781H75.6c.808 0 1.471.362 1.471.805s-.663.805-1.471.805H65.281c-.808 0-1.471-.364-1.471-.805 0-.379.482-.694 1.126-.781h-2.968c-.81 0-1.471-.362-1.471-.805s.665-.802 1.475-.802z" opacity=".1" style="isolation:isolate"/><path fill="#00a6e1" d="M173.721 26.295h.345a.7.7 0 01-.42-.562c0-.444.661-.805 1.471-.805h10.311c.81 0 1.473.362 1.473.805 0 .441-.663.8-1.473.8h-.338a.7.7 0 01.42.562c0 .379-.482.7-1.126.781h2.968c.81 0 1.471.362 1.471.805s-.661.805-1.471.805h-10.316c-.81 0-1.473-.364-1.473-.805 0-.379.482-.7 1.126-.781h-2.968c-.808 0-1.471-.362-1.471-.805s.663-.8 1.471-.8z" opacity=".1" style="isolation:isolate"/><path fill="#00a6e1" d="M46.146 59.079h.342a.7.7 0 01-.42-.562c0-.441.663-.805 1.471-.805h10.314c.808 0 1.471.364 1.471.805 0 .444-.663.805-1.471.805h-.345a.69.69 0 01.42.559c0 .379-.482.7-1.126.781h2.968c.81 0 1.473.364 1.473.805s-.663.805-1.473.805h-10.3c-.81 0-1.471-.362-1.471-.805 0-.376.482-.694 1.126-.781h-2.978c-.81 0-1.473-.362-1.473-.805s.672-.802 1.472-.802z" opacity=".1" style="isolation:isolate"/><ellipse cx="15.664" cy="51.546" fill="#00a6e1" opacity=".1" rx="15.664" ry="51.546" style="isolation:isolate" transform="rotate(-78.45 153.651 -13.538)"/><path fill="#464645" d="M183.966 90.698s2.742-13.457 13.209-12.211c0 0 7.234.5 8.722 5.233v10.467z"/><path fill="#838383" d="M241.289 95.685l-93.213-7.728-11.962 2.49.747 16.7.815.1.928 25.075 91.467 16.447 9.722-8.225v-27.182l1.244-.731z"/><path d="M241.415 95.685l-.251 16.947-10.094 4.736-.125-17.7z" opacity=".05" style="isolation:isolate"/><path d="M239.795 113.379l.123 26.669-9.72 8.225.624-30.906z" opacity=".05" style="isolation:isolate"/><path d="M137.802 108.246l93.095 11.36.048-2.156-93.213-10.053z" opacity=".05" style="isolation:isolate"/><path d="M239.794 114.358v-.979l-9.223 4.07v2.161z" opacity=".05" style="isolation:isolate"/><path fill="#6e6e6e" d="M135.989 90.447l11.962-2.493 93.213 7.728-10.467 3.986z"/><path d="M231.234 96.165l4.574.3-7.581 2.269-3.86-.277z" opacity=".1" style="isolation:isolate"/><path fill="#fff" d="M231.234 95.965l4.574.3-7.581 2.271-3.86-.28z"/><path fill="#d3dae1" d="M230.687 96.479c.181-.077.371.07.564.106.111.022.224 0 .335.022.224.029.446.178.661.1"/><path fill="#d3dae1" d="M230.451 96.616c.178-.077.371.068.564.106.111.019.224 0 .335.019.224.031.446.181.661.106"/><path fill="#d3dae1" d="M229.906 96.891c.181-.077.374.067.567.1.109.022.224 0 .333.022.227.031.448.181.661.1"/><path d="M211.461 93.913l4.574.3-7.581 2.269-3.86-.279z" opacity=".1" style="isolation:isolate"/><path fill="#fff" d="M211.461 93.715l4.574.3-7.581 2.269-3.86-.277z"/><path fill="#d3dae1" d="M210.915 94.229c.181-.077.371.068.564.106.111.019.224 0 .335.019.224.031.446.181.661.106"/><path fill="#d3dae1" d="M210.678 94.366c.178-.077.371.068.564.1.111.022.224 0 .335.022.224.031.446.181.661.1"/><path fill="#d3dae1" d="M210.133 94.639c.181-.077.374.07.567.106.109.022.224 0 .333.022.227.029.448.181.661.1"/><path d="M220.948 95.039l4.577.3-7.581 2.271-3.863-.28z" opacity=".1" style="isolation:isolate"/><path fill="#fff" d="M220.948 94.841l4.577.3-7.581 2.269-3.863-.28z"/><path fill="#d3dae1" d="M220.398 95.355c.181-.077.374.068.567.1.109.022.222 0 .333.022.224.029.449.181.661.1"/><path fill="#d3dae1" d="M220.162 95.489c.181-.077.374.07.567.106.109.022.222 0 .333.022.224.029.449.181.661.1"/><path fill="#d3dae1" d="M219.619 95.765c.178-.077.371.068.564.106.111.019.224 0 .335.019.224.031.446.181.661.106"/><g transform="translate(-7.22 -32.436)"><ellipse cx="59.414" cy="12.23" fill="#6c63ff" opacity=".1" rx="59.414" ry="12.23" style="isolation:isolate" transform="translate(68.559 195.693)"/><path fill="url(#a)" d="M446.969 254.341a39.8 39.8 0 00-3.143-10.883l.191-1.878s.041-.939-.021-2.347a10.682 10.682 0 01.343-2.606c.513-1.629-.643-3.63-.772-3.815s.065-3.756-1.092-5.508-8.856-5.009-8.856-5.009-.414-.866-1-1.878l.053-.1a11.025 11.025 0 00-1.761-2.374c-.472-.5-.927-.792-1.294-.651a10.582 10.582 0 01-.34-1.488c.076.021.156.041.232.056a2.4 2.4 0 00.968.023 2.877 2.877 0 001.59-1.409c1.99-3.022 3.7-6.338 4.052-9.915a6.305 6.305 0 00-.1-2.189 7.377 7.377 0 00-.687-1.6 12.861 12.861 0 00-1.937-2.855 11.032 11.032 0 00-5.2-2.849 18.007 18.007 0 00-6.72-.5c-.587.068-1.174.164-1.761.2a18.291 18.291 0 01-2.233-.038l-3.841-.223-.018-.059-.64-.038a1.619 1.619 0 00.314 1.567 2.674 2.674 0 01.648 1.514 3.1 3.1 0 01-.742 1.467 1.412 1.412 0 00-.238 1.535.883.883 0 00.156.17 1.934 1.934 0 001.411.376h.088a9.559 9.559 0 00-1.945 5.787 9.731 9.731 0 005.308 8.621c.056.191.112.387.164.587a17.974 17.974 0 01.616 6.344l-.068.147-.041-.155s-4.525 3.069-5.869 3.882a8.48 8.48 0 00-2.758 4.319c-.065.751-2.183 12.081-2.183 12.081a27.746 27.746 0 00-1.062 3.5l-2.7 2.374s-5.575.5-7.189.126l.047.311a24.375 24.375 0 00-4.331-.587 4.592 4.592 0 00-2.347.314l-.056.026-.044.021a9.308 9.308 0 00-2.465.693 5.626 5.626 0 00-.261.114l.018-.384-6.033-.311-3.081-.625s-1.092-.88-1.734-.751-1.99-.751-1.99-.751a5.361 5.361 0 00-.992-.616c-.1-.71-.167-1.141-.167-1.141s-2.4-9.513-4.193-15.106a12.875 12.875 0 00-3.956-6.376c-.455-.792-.754-1.3-.754-1.3A5.827 5.827 0 00363 219.9c-.044-.07-.076-.106-.094-.106a.34.34 0 00-.173.026 18.666 18.666 0 01-.026-8.4 9.276 9.276 0 003.386-7.148v-.249a9.234 9.234 0 00-2.18-5.957l-.1-.112a.77.77 0 00.076-.062 1.573 1.573 0 00.555-1.514 10.375 10.375 0 00-.8-1.541 10.019 10.019 0 01-.326-1.256 3.872 3.872 0 00-.924-1.611l.044.117a5.576 5.576 0 00-4.909-1.649c-1.323.211-2.556.827-3.885 1.018-.954.135-1.925.047-2.884.144a7.483 7.483 0 00-2.559.739 1.468 1.468 0 00-.543.4 2.147 2.147 0 00-.27.754c-.326 1.188-1.359 2.036-2.107 3.028a7.086 7.086 0 00-1.42 3.914 3.061 3.061 0 00.1 1.071c.065.208.164.4.211.616a4.23 4.23 0 01-.355 1.928 3.755 3.755 0 00.208 2.447c1.159 2.594 4.965 3.46 5.757 6.183a7.57 7.57 0 001.9.587c.053.27.1.543.138.819a.216.216 0 00-.05.029 5.836 5.836 0 00-1.282 2.934l-.123.1c-.42.346-1.855 1.508-3.151 2.4-1.541 1.065-4.108 4.633-5.9 5.7s-3.275 7.629-2.887 10.015 1.989 9.076 1.347 11.517.962 13.583.962 13.583a16.39 16.39 0 013.146.933l-.032.487-.1 1.467s-2.908 10.517-1.8 18.613-.513 8.929-.513 8.929.34 3.589-.513 4.842a10.418 10.418 0 00-1.027 4.005s-.085 6.177.085 7.923.255 4.927-.343 5.678-1.711 5.672-1.626 7.174-2.139 4.927-.942 9.349-3.521 4.507-3.521 4.507.6 6.749 1.884 8.68l.188.276-.1.355c-.484 1.761-1.147 4.539-.687 5.211.684 1 1.027.833 1.027.833l.255 4.507s5.135 4.34 9.073 4.176 3.166-4.176 3.166-4.176l-3.354-8.7-.114-.293 3.727-7.042s1.027-3.087 1.282-4.173 1.659-4.925 1.659-4.925 3.521-8.345 3.595-9.349.343-6.423 1.027-7.512a69.5 69.5 0 002.568-7.336l.047.041a2.474 2.474 0 01.64 2.462 19.669 19.669 0 00-.173 4.839 32.916 32.916 0 01-.514 4.176c-.343 1.42-.425 13.02.173 15.772a44.666 44.666 0 01.44 7.89c-.4 1.658-.754 3.718-.1 3.961 1.115.42 6.764.335 6.764.335s2.394-.836 5.649 2.086 13.263-.833 13.263-.833 3.081-.836-3-3.254c-4.24-1.687-6.978-2.811-8.768-4.014.041-.079.085-.158.123-.244 0 0-2.482-2.347-.428-6.508a18.124 18.124 0 001.969-7.679l.343-14.023-1.027-18.616-.8-19.537.141-.047c.135 3.592.836 12.142 4.507 10.484 4.622-2.086.684-7.512.684-7.512l-2.075-4.044.619-.211-2.321-7.5a16.917 16.917 0 01-.088-4.422 17.522 17.522 0 00-.053-2.582 46.307 46.307 0 016.473-.965c.616.15 4.064.179 5.42.185-.443.346-.8.69-.8.69l5.52 3.715s1.872-1.024 2.262-2.11a2.433 2.433 0 001.033-.552c.059 1.282.4 2.67 1.585 2.7a2.057 2.057 0 00.863-.17l9.026-1.787-.775 4.839.54.96c-.273 4.082-.587 8.416-.863 12.227l-.126.833.065.015c-.428 5.869-.772 10.314-.772 10.314a5.408 5.408 0 012.251-2.262l.059 8.709s.452 13.771.452 15.649.062 6.071.062 6.071.965 5.132 1.541 6.822 1.027 9.39 1.027 9.39 1.35 2.127.772 2.934 2.248 2.565 2.248 2.565-1.8 2.441-1.928 4.07c-.015.188.17.387.5.587-.106.085-.214.17-.335.252a5.862 5.862 0 01-3.891.786c-5.009-.44-8.539 4.193-5.458 5.132s12.324 1.127 12.324 1.127 2.8-1.746 4.988-.96a54.07 54.07 0 00.073 3.744l-.026.021a20.352 20.352 0 01-6.262 4.017c-3.521 1.188-4.3 6.01.255 6.635s11.233-.751 11.233-.751 3.465-2.565 6.1-3.128 4.88-1.816 4.431-3.319c-.293-.96-1.048-3.474-1.558-5.164q-.044-.153-.088-.293c.079-.176.158-.358.232-.546 0 0-1.347-7.01-.255-8.762s.514-19.282.514-19.282-1.863-4.443-.9-7.133-1.54-6.511-1.54-6.511a118.943 118.943 0 011.006-11.922q.05-.273.1-.528a24.01 24.01 0 003.58-1.382s.643-9.642 1.027-11.831c.038-.205.091-.537.156-.968l.293-1.546.346-1.761 1.174-6 2.119-2.741 5.458-5.575s1.32-2.95.677-8.522zM362.8 219.912l-.041.029a.549.549 0 01-.015-.065.264.264 0 00.056.036zm53.924 6.834l-.211.461.772-.769-1.048 1.174.352-.739zm-5.211 10.769c-.2.537-.42 1.118-.646 1.722l.414-1.235z" transform="translate(-253.932 -146.573)"/><path fill="#575988" d="M140.741 108.499s-.719 4.786 1.438 4.848 3.6-3.691 3.6-3.691l-.88-3z"/><path d="M140.741 108.499s-.719 4.786 1.438 4.848 3.6-3.691 3.6-3.691l-.88-3z" opacity=".2" style="isolation:isolate"/><path fill="#464645" d="M92.433 212.093c-3.838.167-8.844-4.17-8.844-4.17l-.249-4.5s-.332.167-1-.833c-.449-.672.2-3.457.669-5.208.229-.857.417-1.467.417-1.467l8.422 2.254.4 1.065 3.269 8.692s.751 4-3.084 4.167z"/><path fill="#464645" d="M131.125 199.335s-9.757 3.753-12.911.833-5.5-2.086-5.5-2.086-5.5.085-6.591-.334c-.64-.244-.293-2.33.106-3.991.27-1.147.563-2.1.563-2.1s9.589-3.254 11.092-1.253a7.188 7.188 0 001.6 1.526c1.737 1.256 4.451 2.394 8.744 4.146 5.903 2.422 2.897 3.259 2.897 3.259z"/><path fill="#ffd6d6" d="M122.373 123.103l2.667 5.338s3.838 5.423-.666 7.506-4.419-12.007-4.419-12.007z"/><path fill="#dce6f2" d="M111.195 76.817s2.92 1.335 4.671 6.922 4.088 15.1 4.088 15.1 1.585 10.757 1.332 13.428a17.307 17.307 0 00.085 4.419l2.251 7.506-4.5 1.585-6.922-26.521z"/><path d="M111.195 76.817s2.92 1.335 4.671 6.922 4.088 15.1 4.088 15.1 1.585 10.757 1.332 13.428a17.307 17.307 0 00.085 4.419l2.251 7.506-4.5 1.585-6.922-26.521z" opacity=".05" style="isolation:isolate"/><path d="M91.849 198.167l.4 1.065-.493.942c-1.919.833-6.673.167-6.673.167s-.88-1.118-2.083-2.958c.229-.857.417-1.467.417-1.467z" opacity=".1" style="isolation:isolate"/><path d="M119.787 192.327c-2.433 5.511-10.7 3.465-13 2.776-.379-.115-.587-.191-.587-.191s.015-.449.021-1.156c.27-1.147.563-2.1.563-2.1s9.589-3.254 11.092-1.253a7.19 7.19 0 001.6 1.526 2.838 2.838 0 00.311.398z" opacity=".1" style="isolation:isolate"/><path fill="#447bbd" d="M119.37 185.323c-2 4.167.42 6.505.42 6.505-2.433 5.508-10.7 3.466-13 2.773a10.899 10.899 0 01-.587-.188 50.8 50.8 0 00-.417-8.51c-.584-2.752-.5-14.343-.167-15.76a33.548 33.548 0 00.5-4.173 20.332 20.332 0 01.167-4.836 2.5 2.5 0 00-.622-2.459l-.044-.044a69.436 69.436 0 01-2.5 7.336c-.669 1.08-.915 6.505-1 7.506s-3.5 9.343-3.5 9.343-1.332 3.835-1.582 4.918-1.253 4.173-1.253 4.173l-4.02 7.758c-1.919.833-6.673.167-6.673.167s-.916-1.174-2.168-3.087-1.834-8.671-1.834-8.671 4.586-.085 3.418-4.5 1-7.841.919-9.343 1-6.42 1.585-7.171.5-3.92.332-5.672-.082-7.923-.082-7.923a10.593 10.593 0 011-4c.833-1.25.5-4.839.5-4.839s1.582-.833.5-8.923 1.761-18.6 1.761-18.6l.1-1.467.153-2.377s23.853-1.5 25.772.332a6.329 6.329 0 011.218 1.746 17.381 17.381 0 011.379 4.44l1 25.271 1 18.6-.334 14.012a18.628 18.628 0 01-1.941 7.663z"/><path d="M112.296 135.448l-2.5 54.209-3 4.941c-.379-.111-.587-.188-.587-.188a50.8 50.8 0 00-.417-8.51c-.584-2.752-.5-14.343-.167-15.76a33.558 33.558 0 00.5-4.173 20.332 20.332 0 01.167-4.836 2.5 2.5 0 00-.622-2.459l.041-.293z" opacity=".1" style="isolation:isolate"/><path d="M85.341 193.663s6.505-2.585 7.506-1.761-7.67 2.083-7.67 2.083z" opacity=".1" style="isolation:isolate"/><path d="M117.451 186.822c-.249.085-6.588 2.347-6 4.754s6-4.754 6-4.754z" opacity=".1" style="isolation:isolate"/><path fill="#ffd6d6" d="M97.645 63.433s2.124 5.129 1 7.758 12.134 7.13 12.134 7.13-3.876-10.009-.123-15.64-13.011.752-13.011.752z"/><path fill="#464645" d="M175.27 211.926c-2.565.563-5.942 3.128-5.942 3.128s-6.505 1.376-10.948.751-3.688-5.443-.25-6.632a19.969 19.969 0 006.106-4.011c.563-.519.9-.88.9-.88l12.45-2.5s.2.7.484 1.655c.5 1.693 1.235 4.2 1.517 5.161.436 1.515-1.753 2.765-4.317 3.328z"/><path fill="#464645" d="M172.08 202.293s-5.255.563-7.444-.687-5.317.751-5.317.751-9.008-.188-12.01-1.127.437-5.575 5.317-5.129a5.606 5.606 0 003.794-.786 4 4 0 001.652-2.477l10.564.625 1.467 3.744z"/><path d="M170.259 198.915s-12.277-2.007-13.844-3.6a4 4 0 001.652-2.477l10.563.625 1.467 3.744z" opacity=".1" style="isolation:isolate"/><path fill="#575988" d="M152.062 128.673l.126 18.325s.437 13.762.437 15.64.062 6.065.062 6.065.939 5.129 1.5 6.819 1 9.39 1 9.39 1.315 2.127.751 2.934 2.189 2.565 2.189 2.565-1.761 2.441-1.875 4.067 14.009 3.935 14.009 3.935l-5.5-56.419-4.381-14.135z"/><path d="M152.062 128.673l.126 18.325s.437 13.762.437 15.64.062 6.065.062 6.065.939 5.129 1.5 6.819 1 9.39 1 9.39 1.315 2.127.751 2.934 2.189 2.565 2.189 2.565-1.761 2.441-1.875 4.067 14.009 3.935 14.009 3.935l-5.5-56.419-4.381-14.135z" opacity=".1" style="isolation:isolate"/><path d="M178.068 203.449c-4.087 9.745-13.809 2.224-13.809 2.224s0-.188-.023-.511c.563-.519.9-.88.9-.88l12.45-2.5s.201.707.482 1.667z" opacity=".1" style="isolation:isolate"/><path fill="#575988" d="M178.21 202.606c-4.005 10.27-13.95 2.565-13.95 2.565s-.314-5.317.314-7.755-.69-9.76-.69-9.76-.751-6.505-1.438-8a14.265 14.265 0 01-.625-4.754 9.077 9.077 0 00-.314-3.63 24.425 24.425 0 01-.88-4.754 50.163 50.163 0 00-.563-7.568l-1.94-9.683-3.5-19.83 1.094-.188 19.61-3.439s3.691 18.78 2.438 20.7a8.078 8.078 0 00-.7 2.538c-.716 4.261-.983 11.911-.983 11.911s2.438 3.815 1.5 6.505.88 7.13.88 7.13.563 17.515-.5 19.267.247 8.745.247 8.745z"/><path fill="#c9a780" d="M176.332 74.566s-17.765 12.509-13.762 6.253c2.157-3.369 1.761-7.659.916-10.9a25.735 25.735 0 00-1.761-4.78s15.094-6.42 13.093-.666a10.781 10.781 0 00-.587 4.179 11.151 11.151 0 002.101 5.914z"/><path fill="#d28690" d="M144.347 103.214s-7.506-2.168-8.756-.041.376 6.8 2.641 7.547 7.465-2.544 7.465-2.544z"/><path fill="#575988" d="M152.939 99.525l-3.128 2.879s-5.443.5-7.007.123c0 0 1.441 9.633-.625 10.822l12.635-2.565z"/><path fill="#464645" d="M152.939 99.525l-3.128 2.879s-5.443.5-7.007.123c0 0 1.441 9.633-.625 10.822l12.635-2.565z" opacity=".1" style="isolation:isolate"/><path d="M112.778 58.178a9.39 9.39 0 01-9.39 9.39c-4.818-2.315-9.39-4.2-9.39-9.39a9.39 9.39 0 1118.765-.742q.015.371 0 .742z" opacity=".1" style="isolation:isolate"/><path fill="#ffd6d6" d="M112.775 57.925a9.372 9.372 0 11-2.124-5.936 9.372 9.372 0 012.124 5.936z"/><path d="M118.253 115.341a21.213 21.213 0 01-2.908 1.508s-4.754-.69-5.44.123-6.749 1.127-6.749 1.127-9.258-.437-10.634-1.626a5.638 5.638 0 00-1.406-.833l.153-2.377s23.853-1.5 25.772.332a6.323 6.323 0 011.212 1.746z" opacity=".1" style="isolation:isolate"/><path fill="#eff4f9" d="M119.412 113.66c-.188 1.062-4.067 2.688-4.067 2.688s-4.754-.687-5.44.126-6.749 1.127-6.749 1.127-9.258-.44-10.634-1.629-4.443-1.761-4.443-1.761-1.564-11.133-.936-13.571-.939-9.135-1.315-11.511 1.062-8.944 2.814-10.006 4.255-4.63 5.754-5.693c1.265-.895 2.661-2.054 3.069-2.4l.12-.1a5.922 5.922 0 011.253-2.934c1-.995 10.194 6.318 10.194 6.318s.065.563.69-.5c.141-.238 1.353 1.511 1.564 2.251 0 0 5 8.759 5.317 10.564s1.626 7.694 1.875 9.132c.065.37.17 1.667.293 3.4.023.34.044.7.07 1.077.185 2.882.384 6.561.5 9.343 0 .317.026.622.035.916a31.166 31.166 0 01.036 3.163z"/><path d="M87.647 91.078s3.439 4.19 4.566 4.19-4.566-4.19-4.566-4.19z" opacity=".1" style="isolation:isolate"/><path d="M94.893 100.086s-5.631 6.13-4.88 7.257 4.88-7.257 4.88-7.257z" opacity=".1" style="isolation:isolate"/><path d="M90.764 112.284s6.456-7.069 6.749-9.507z" opacity=".1" style="isolation:isolate"/><path d="M98.895 112.783s7.444-3.941 8.069-7.069-8.069 7.069-8.069 7.069z" opacity=".1" style="isolation:isolate"/><path d="M108.34 74.754l-1.033 2.5 1.72.813 1.69 4.724s4.66 9.319 4.472 14.167a85.885 85.885 0 00.845 12.134l2.688-.5-1.268-14.258a20.573 20.573 0 00-1.637-6.4c-2.148-4.918-6.145-14-6.4-14-.343 0-.1.126-.1.126z" opacity=".1" style="isolation:isolate"/><path fill="#447bbd" d="M108.59 74.502l-1.033 2.5 1.722.813 1.687 4.724s4.66 9.32 4.472 14.167a85.87 85.87 0 00.845 12.134l2.691-.5-1.271-14.258a20.493 20.493 0 00-1.634-6.4c-2.148-4.921-6.144-14-6.394-14-.346 0-.106.126-.106.126z"/><path fill="#ffd6d6" d="M139.051 111.263c-1.309-.1-4.448-1.687-5.7-2.347l-.528-.293.065-4.845a8.521 8.521 0 01.957-.484c1.667-.728 5.085-1.717 6.8 1.467 2.314 4.269.064 6.613-1.594 6.502z"/><path d="M110.655 51.989a1.39 1.39 0 01-.437.179c-1.089.238-2.327-.7-3.26-.1a2.363 2.363 0 00-.778 1.811q-.2 1.761-.4 3.5a4.312 4.312 0 01-.258 1.206 3.026 3.026 0 01-2.879 1.532 1.717 1.717 0 01-1.241-.411c-.2-.205-.311-.493-.534-.681-1.467-1.229-1.913 1.784-1.526 2.641.622 1.4 2.832 2.749 1.9 4.528a1.7 1.7 0 01-.681.684 9.39 9.39 0 1110.088-14.889z" opacity=".1" style="isolation:isolate"/><path fill="#353045" d="M100.62 59.014c.22.185.332.472.534.678a1.721 1.721 0 001.241.411 3.01 3.01 0 002.876-1.535 4.189 4.189 0 00.261-1.2l.4-3.5a2.353 2.353 0 01.778-1.81c.933-.587 2.171.335 3.26.1a1.593 1.593 0 001.174-1.837 10.335 10.335 0 00-.775-1.538 10.009 10.009 0 01-.32-1.253c-.607-2.277-3.281-3.556-5.6-3.175-1.291.214-2.491.83-3.785 1.018-.927.135-1.875.047-2.811.147a7.1 7.1 0 00-2.494.737 1.449 1.449 0 00-.528.4 2.205 2.205 0 00-.264.751c-.314 1.174-1.323 2.039-2.054 3.028a7.215 7.215 0 00-1.391 3.906 3.132 3.132 0 00.1 1.071c.062.205.158.4.205.616a4.293 4.293 0 01-.346 1.925 3.85 3.85 0 00.205 2.447c1.127 2.591 4.839 3.457 5.61 6.177a6.159 6.159 0 002.183.587 2.106 2.106 0 001.925-.983c.924-1.761-1.282-3.128-1.9-4.525-.4-.865.037-3.875 1.516-2.643z"/><path d="M174.832 64.475a10.779 10.779 0 00-.587 4.179c-.452.384-.945-.766-1.467-.469-1.432.827-3.087 2.8-4.859 2.8a9.735 9.735 0 01-4.422-1.059 25.726 25.726 0 00-1.761-4.78s15.097-6.425 13.096-.671z" opacity=".1" style="isolation:isolate"/><path fill="#c9a780" d="M177.667 60.722a9.757 9.757 0 110-.006z"/><path fill="#f0f3f7" d="M177.251 76.735s-1.837 2-2.086 2.166-5.575 22.594-5.669 22.856-6.341 20.514-6.341 20.514l-10.01 4.92.836-24.772 7.336-20.429s2.421-2.752 3.169-3.753 10.091-7.007 10.091-7.007l1.6 3.289z"/><path d="M175.926 75.02l-11.508 8.24-.185-4.525c.751-1 10.091-7 10.091-7z" opacity=".1" style="isolation:isolate"/><path fill="#f0f3f7" d="M176.176 74.519l-11.508 8.24-.179-4.522c.751-1 10.091-7.007 10.091-7.007z"/><path fill="#575988" d="M164.105 76.224l.384 2.013-2.573 2.614 2.054-4.6s-4.4 3.066-5.722 3.879a8.354 8.354 0 00-2.691 4.316c-.05.751-2.127 12.072-2.127 12.072s-1.564 4.19-1.124 5.379-2.377 38.657-2.377 38.657a5.574 5.574 0 013.762-2.884l-1-22.143s1.221-14.73 1.282-14.918l2.846-8.727z"/><path d="M164.741 78.486l-.2 4.108s-2.785 8.788-3.721 10.226-3.785 10.009-3.785 10.009l-1.603 14.889-2.752 1.253-1.356-2.5 2.254-14.378s4.252-12.133 4.88-13.386l3.137-6.608z" opacity=".1" style="isolation:isolate"/><path fill="#c94c43" d="M164.489 78.237l-.2 4.108s-2.785 8.788-3.724 10.226-3.782 10.009-3.782 10.009l-1.6 14.886-2.752 1.25-1.376-2.5 2.254-14.378s4.252-12.136 4.877-13.386l3.16-6.6z"/><path fill="#d28690" d="M132.047 109.593l5.379 3.724s3.794-2.127 1.584-3.5a9.8 9.8 0 00-4.88-1.585c-.71-.003-2.083 1.361-2.083 1.361z"/><path fill="#d28690" d="M136.064 102.709a.827.827 0 00-.39.707c0 1.141.129 4.164 1.086 2.8 1.174-1.67.96-3.169 2.752-2.086a10.566 10.566 0 012.876 2.641l-.5-3.586s-3.685-1.824-5.824-.476z"/><path d="M177.769 146.499a8.077 8.077 0 00-.7 2.538 21.2 21.2 0 01-18.994-3.665 95.7 95.7 0 01-2.377-10.006 32.611 32.611 0 01.029-6.133l19.61-3.439s3.685 18.765 2.432 20.705z" opacity=".1" style="isolation:isolate"/><path fill="#575988" d="M189.029 90.514a19.441 19.441 0 00-.311 4.941l-4.5 21.268s-2.189 16.388-2.565 18.577-1 11.822-1 11.822a21.187 21.187 0 01-22.594-2.251 95.961 95.961 0 01-2.377-10.009c-.628-3.715 1.221-18.6 2.095-25.209.261-1.957.437-3.19.437-3.19l3.284-12.2s4.035-10.291 5.537-13.293 7.535-9.745 7.535-9.745c.748-.475 1.945 1.2 2.835 2.732.672 1.156 1.174 2.23 1.174 2.23s7.506 3.251 8.63 4.988.939 5.317 1.065 5.5 1.256 2.213.755 3.839z"/><path d="M171.329 82.947s.563 3.316-.88 4.316c-1.394.968-11.77 21.371-12.415 22.644.261-1.96.437-3.193.437-3.193l3.284-12.2s4.038-10.291 5.537-13.3 7.538-9.745 7.538-9.745c.748-.475 1.943 1.2 2.832 2.732-1.342 2.795-4.139 8.059-6.333 8.746z" opacity=".1" style="isolation:isolate"/><path fill="#575988" d="M171.079 82.697s.56 3.316-.88 4.316-11.767 21.368-12.421 22.641c.261-1.957.437-3.19.437-3.19l3.284-12.2s4.035-10.291 5.537-13.293 7.535-9.745 7.535-9.745c.748-.475 1.946 1.2 2.835 2.732-1.335 2.785-4.135 8.052-6.327 8.739z"/><path fill="#88bd45" d="M185.965 112.66l-3.53 18.366-.337 1.758-.76 3.953-3.242-.687-1.511-.32-20.913-4.431-1.538-.326-3.509-.742.687-4.56.285-1.9 2.532-16.814z"/><path fill="#d28690" d="M166.449 127.672s-8.319 3-6.505 6.567 13.448-2.752 13.448-2.752z"/><path d="M172.391 153.253c0 .249.314 3.442 1.564 4.566s-1.564-4.566-1.564-4.566z" opacity=".1" style="isolation:isolate"/><path d="M164.01 164.574s1.5 4.129 7.441 5.819-7.441-5.819-7.441-5.819z" opacity=".1" style="isolation:isolate"/><path d="M177.667 60.722a9.756 9.756 0 01-4.892 8.46 5.2 5.2 0 01-1.467-1.224 1.9 1.9 0 01-.5-1.837c.205-.5.748-.81.88-1.323a1.948 1.948 0 00-.047-.945c-.109-.484-.211-.968-.317-1.45-.091-.411-.252-.895-.66-.995s-.748.241-1.068.493a3.349 3.349 0 01-3.228.531c-.942-.508-.678-2.207-.83-3.125a.545.545 0 00-.205-.414.858.858 0 00-.425-.029 1.225 1.225 0 01-1.062-.942 8.132 8.132 0 01-.17-1.511 1.686 1.686 0 00-.675-1.306 2.087 2.087 0 00-1.112-.182l-1.84.021a9.76 9.76 0 0117.606 5.787z" opacity=".1" style="isolation:isolate"/><path fill="#a27035" d="M169.855 61.902c.32-.252.672-.587 1.068-.49s.566.587.657.992l.317 1.447a1.965 1.965 0 01.05.948c-.15.516-.69.827-.9 1.323a1.9 1.9 0 00.5 1.834 5.282 5.282 0 003.019 1.8 2.217 2.217 0 00.942.021 2.788 2.788 0 001.549-1.406 22.764 22.764 0 003.95-9.909 6.358 6.358 0 00-.1-2.186 7.332 7.332 0 00-.669-1.6 12.91 12.91 0 00-1.887-2.855 10.717 10.717 0 00-5.071-2.843 17.173 17.173 0 00-6.547-.514c-.587.067-1.15.164-1.728.2a17.394 17.394 0 01-2.177-.035l-4.319-.258a1.678 1.678 0 00.293 1.567 2.812 2.812 0 01.634 1.514 3.115 3.115 0 01-.725 1.467 1.445 1.445 0 00-.232 1.535 1.642 1.642 0 001.467.481l2.177-.023a2.08 2.08 0 011.106.191 1.69 1.69 0 01.675 1.306 8.672 8.672 0 00.17 1.511 1.221 1.221 0 001.062.942.79.79 0 01.426.032.54.54 0 01.205.411c.153.918-.129 2.614.83 3.125a3.379 3.379 0 003.258-.528z"/><path d="M182.259 81.182a4.783 4.783 0 00-5.032 3.213c-1.174 3.342-3.131 9.372-2.641 11.755.69 3.377 1.5 9.008 1.5 9.008s3.565 2.054 1.761 4.126a11.686 11.686 0 00-2.315 5.006 5.2 5.2 0 00-2.814 3.128c-.5 2.127-3.879 5.065-3.879 5.065l-5.065 5.068s8.38 8.51 10.071 8.944l5.191-6.068 6.13-8.131 5.317-5.575s1.25-2.934.625-8.51a40.728 40.728 0 00-3.062-10.889l.188-1.878s.572-13.454-5.975-14.262z" opacity=".1" style="isolation:isolate"/><path fill="#575988" d="M182.757 81.18a4.783 4.783 0 00-5.026 3.213c-1.174 3.342-3.131 9.372-2.641 11.755.687 3.377 1.5 9.008 1.5 9.008s3.565 2.054 1.761 4.126a11.66 11.66 0 00-2.314 4.998 5.212 5.212 0 00-2.817 3.128c-.5 2.127-3.876 5.065-3.876 5.065l-5.068 5.068s8.38 8.51 10.071 8.944l5.191-6.068 6.115-8.131 5.317-5.575s1.253-2.934.625-8.51a40.9 40.9 0 00-3.063-10.883l.188-1.878s.584-13.451-5.963-14.26z"/><path d="M177.52 100.212s5.317 6.5 7.571 5.065-7.571-5.065-7.571-5.065z" opacity=".1" style="isolation:isolate"/><path d="M179.521 95.206c.563.188 5.194 6.632 7.571 5.869s-7.571-5.869-7.571-5.869z" opacity=".1" style="isolation:isolate"/><path d="M180.836 106.275a3.483 3.483 0 004.129 3.19c3.814-.502-4.129-3.19-4.129-3.19z" opacity=".1" style="isolation:isolate"/><path d="M163.978 76.503l-2.063 4.6 2.576-2.615z" opacity=".1" style="isolation:isolate"/><path fill="#f0f3f7" d="M163.978 76.253l-2.063 4.6 2.576-2.614z"/><path d="M155.671 131.305l-1.538-.326-2.823-5.3.285-1.9z" opacity=".216" style="isolation:isolate"/><path d="M182.435 131.029l-.337 1.758-4 3.266-1.511-.32z" opacity=".216" style="isolation:isolate"/><path d="M119.373 110.509c-.775.129-1.526.246-2.213.335-3.815.5-12.888-4-12.888-4S93.201 97.586 90.011 88.83s3.815-10.071 3.815-10.071c2.641-1.5 8.383 2.688 9.2 3.377a5.224 5.224 0 011.438 3.565c-.065 1.127 1.878 2.565 1.878 2.565s3.316 5.754 4.129 6.379a3.264 3.264 0 011.25 2.254c.249 1.065 2.438 1.94 3.378 1.875s2.054.314 2.054.813c0 .4.919.6 1.673.666.219 3.205.441 7.407.547 10.256z" opacity=".1" style="isolation:isolate"/><path d="M119.338 109.593c-.587.094-1.15.179-1.678.249-3.815.5-12.885-4-12.885-4s-11.071-9.258-14.261-18.014 3.815-10.071 3.815-10.071c2.641-1.5 8.38 2.688 9.193 3.377a5.239 5.239 0 011.441 3.565c-.062 1.127 1.875 2.565 1.875 2.565s3.316 5.754 4.129 6.379a3.278 3.278 0 011.253 2.254c.252 1.065 2.438 1.937 3.377 1.875s2.054.314 2.054.813c0 .293.522.49 1.1.587.023.34.044.7.07 1.077.198 2.884.397 6.562.517 9.344z" opacity=".1" style="isolation:isolate"/><path d="M133.848 103.293l-.238 5.622h-.255l-.528-.293.065-4.845a8.526 8.526 0 01.956-.484z" opacity=".1" style="isolation:isolate"/><path fill="#eff4f9" d="M93.827 78.255s-7 1.315-3.815 10.071 14.261 18.017 14.261 18.017 9.07 4.5 12.888 4 9.63-1.813 10.382-1.626 5.819.188 5.819.188l.249-5.869-5.869-.314-3-.625s-1.065-.88-1.69-.751-1.937-.751-1.937-.751a3.739 3.739 0 00-1.761-.813c-.757 0-2.189-.188-2.189-.687s-1.127-.88-2.054-.813-3.143-.813-3.4-1.89a3.265 3.265 0 00-1.25-2.251c-.813-.625-4.129-6.382-4.129-6.382s-1.94-1.438-1.878-2.562a5.249 5.249 0 00-1.438-3.568c-.814-.686-6.566-4.874-9.189-3.374z"/><path d="M111.844 98.396s-2.691 2.691-2 3.19z" opacity=".1" style="isolation:isolate"/><path d="M114.72 100.523s-3.5 2.691-2.565 2.879 2.565-2.879 2.565-2.879z" opacity=".1" style="isolation:isolate"/><path d="M108.775 104.514c.5.252 7.943 4.695 10.76 4.63z" opacity=".1" style="isolation:isolate"/><path d="M109.279 74.816s-1.315 4.316-1.816 4.316c-.393 0-7-5.346-9.751-7.594l.12-.1a5.905 5.905 0 011.25-2.934c1.001-.995 10.197 6.312 10.197 6.312z" opacity=".1" style="isolation:isolate"/><path fill="#eff4f9" d="M109.03 74.314s-1.312 4.316-1.813 4.316c-.4 0-7-5.346-9.754-7.594l.12-.1a5.922 5.922 0 011.253-2.934c.994-.995 10.194 6.312 10.194 6.312z"/><g opacity=".15" transform="translate(91.312 45.883)"><path d="M0 14.481c.88 2.01 3.3 2.984 4.71 4.586-.837-1.969-3.281-2.934-4.71-4.586z"/><path d="M8.971 19.111a2.109 2.109 0 01-1.925.983 5.614 5.614 0 01-1.931-.493 3.751 3.751 0 01.5 1.062 6.135 6.135 0 002.183.587 2.088 2.088 0 001.925-.983c.56-1.071-.024-1.987-.707-2.852a1.863 1.863 0 01-.045 1.696z"/><path d="M19.859 4.404a10.063 10.063 0 00-.775-1.538 9.618 9.618 0 01-.32-1.256 3.889 3.889 0 00-.9-1.611 3.737 3.737 0 01.15.443 10.067 10.067 0 00.329 1.262 10.063 10.063 0 01.775 1.538 1.593 1.593 0 01-1.174 1.837c-1.086.238-2.324-.7-3.257-.1a2.344 2.344 0 00-.781 1.808q-.2 1.761-.4 3.5a4.2 4.2 0 01-.258 1.2 3.023 3.023 0 01-2.879 1.535 1.728 1.728 0 01-1.238-.411 8.164 8.164 0 00-.537-.681c-1.467-1.232-1.913 1.781-1.526 2.641a5.308 5.308 0 00.716 1.077c-.323-.968.129-3.756 1.561-2.562a7.606 7.606 0 01.534.681 1.74 1.74 0 001.241.411 3.023 3.023 0 002.879-1.535 4.194 4.194 0 00.258-1.206q.2-1.761.4-3.5a2.352 2.352 0 01.778-1.808c.936-.6 2.174.335 3.26.094a1.59 1.59 0 001.164-1.819z"/></g><path d="M176.138 69.031a2.27 2.27 0 01-.942-.023 5.283 5.283 0 01-3.016-1.8 1.889 1.889 0 01-.5-1.837c.205-.5.745-.807.88-1.323a1.966 1.966 0 00-.05-.948l-.314-1.448c-.091-.411-.249-.895-.657-.992s-.748.238-1.068.49a3.342 3.342 0 01-3.228.531c-.939-.511-.678-2.207-.831-3.125a.548.548 0 00-.205-.411.838.838 0 00-.428-.032 1.228 1.228 0 01-1.062-.942 8.324 8.324 0 01-.167-1.511 1.694 1.694 0 00-.678-1.306 2.11 2.11 0 00-1.106-.191l-2.177.023c-.537 0-1.174-.035-1.467-.481a1.462 1.462 0 01.232-1.535 3.038 3.038 0 00.725-1.467 2.76 2.76 0 00-.634-1.514 2.719 2.719 0 01-.37-.839l-.625-.038a1.689 1.689 0 00.293 1.567 2.8 2.8 0 01.634 1.511 3.115 3.115 0 01-.725 1.467 1.437 1.437 0 00-.229 1.535 1.64 1.64 0 001.467.484l2.177-.026a2.107 2.107 0 011.106.194 1.684 1.684 0 01.678 1.306 8.1 8.1 0 00.17 1.511 1.215 1.215 0 001.062.939.859.859 0 01.426.032.552.552 0 01.205.414c.153.916-.129 2.615.83 3.125a3.329 3.329 0 003.228-.531c.32-.252.675-.587 1.071-.493s.566.587.654.992l.32 1.45a1.964 1.964 0 01.047.948c-.147.514-.69.827-.9 1.32a1.894 1.894 0 00.5 1.837 5.281 5.281 0 003.037 1.8 2.27 2.27 0 00.942.023 2.213 2.213 0 001.221-.927 1.631 1.631 0 01-.526.241z" opacity=".1" style="isolation:isolate"/></g><ellipse cx="5.828" cy=".895" fill="#00a6e1" opacity=".1" rx="5.828" ry=".895" style="isolation:isolate" transform="translate(40.511 169.237)"/><ellipse cx="16.879" cy="2.59" fill="#6c63ff" opacity=".1" rx="16.879" ry="2.59" style="isolation:isolate" transform="translate(173.537 180.331)"/><ellipse cx="13.166" cy="2.021" fill="#6c63ff" opacity=".1" rx="13.166" ry="2.021" style="isolation:isolate" transform="translate(225.233 169.929)"/><ellipse cx="22.326" cy="3.426" fill="#6c63ff" opacity=".1" rx="22.326" ry="3.426" style="isolation:isolate" transform="translate(179.904 189.657)"/><g transform="translate(-22.127 -11.945)"><ellipse cx="11.892" cy="1.825" fill="#00a6e1" opacity=".1" rx="11.892" ry="1.825" style="isolation:isolate" transform="translate(244.005 160.061)"/><path fill="#88bd45" d="M246.524 144.396s-1.683 7.833 5.8 8.757l.463-.871s-5.8-5.456-6.263-7.886z"/><path fill="#88bd45" d="M255.168 152.219l-1.742.369-.172.039s-4.645-3.769-4.586-12.182a20.8 20.8 0 002.219 3.508c1.841 2.432 3.932 5.683 4.281 8.266z"/><path fill="#88bd45" d="M255.753 153.025a1.093 1.093 0 01-.935.123c-4.467-1.043-2.952-15.6-2.952-15.6.246.113.492 1.968 1.545 4.359 1.796 4.196 3.779 10.07 2.342 11.118z"/><path fill="#88bd45" d="M265.663 144.396s.29 7.833-7.193 8.757l-.468-.886s7.198-5.441 7.661-7.871z"/><path fill="#88bd45" d="M263.517 140.46a14.486 14.486 0 01-5.973 12.182l-.177-.039-1.737-.369c.344-2.583 2.46-5.83 4.276-8.266a18.921 18.921 0 013.611-3.508z"/><path fill="#88bd45" d="M257.343 152.272a2.714 2.714 0 01-.984.763 1.917 1.917 0 01-.369.123c-1.1.256-1.476-.536-1.417-1.884.1-2.4 1.609-6.553 2.952-9.668a12.075 12.075 0 012.8-4.049s-.066 11.326-2.982 14.715z"/><path fill="#88bd45" d="M256.093 132.44s-4.989 17.712-.694 20.359 1.796-18.794.694-20.359z"/><path d="M246.524 144.396s-1.683 7.833 5.8 8.757l.463-.871s-5.8-5.456-6.263-7.886z" opacity=".1" style="isolation:isolate"/><path d="M255.168 152.219l-1.742.369-.172.039s-4.645-3.769-4.586-12.182a20.8 20.8 0 002.219 3.508c1.841 2.432 3.932 5.683 4.281 8.266z" opacity=".1" style="isolation:isolate"/><path d="M255.753 153.025a1.093 1.093 0 01-.935.123c-4.467-1.043-2.952-15.6-2.952-15.6.246.113.492 1.968 1.545 4.359 1.796 4.196 3.779 10.07 2.342 11.118z" opacity=".1" style="isolation:isolate"/><path d="M265.663 144.396s.29 7.833-7.193 8.757l-.468-.886s7.198-5.441 7.661-7.871z" opacity=".1" style="isolation:isolate"/><path d="M263.517 140.46a14.486 14.486 0 01-5.973 12.182l-.177-.039-1.737-.369c.344-2.583 2.46-5.83 4.276-8.266a18.921 18.921 0 013.611-3.508z" opacity=".1" style="isolation:isolate"/><path d="M257.343 152.272a2.714 2.714 0 01-.984.763 1.917 1.917 0 01-.369.123c-1.1.256-1.476-.536-1.417-1.884.1-2.4 1.609-6.553 2.952-9.668a12.075 12.075 0 012.8-4.049s-.066 11.326-2.982 14.715z" opacity=".1" style="isolation:isolate"/><path d="M256.093 132.44s-4.989 17.712-.694 20.359 1.796-18.794.694-20.359z" opacity=".1" style="isolation:isolate"/><path fill="#88bd45" d="M246.524 144.396s-.984 7.833 6.494 8.757l.462-.871s-6.494-5.456-6.956-7.886z"/><path fill="#88bd45" d="M255.864 152.219l-1.742.369-.172.039s-5.338-3.769-5.294-12.167c0 0 1.367 1.476 2.913 3.508 1.852 2.421 3.943 5.668 4.295 8.251z"/><path d="M255.861 152.219l-1.741.369c-1.648-1.446-2.3-5.225-2.539-8.634 1.84 2.434 3.931 5.682 4.28 8.265z" opacity=".1" style="isolation:isolate"/><path fill="#88bd45" d="M256.452 153.025a1.1 1.1 0 01-.94.123c-4.467-1.043-3.651-15.6-3.651-15.6a20.2 20.2 0 012.239 4.359c1.806 4.196 3.784 10.07 2.352 11.118z"/><path fill="#88bd45" d="M265.663 144.396s.984 7.833-6.494 8.757l-.463-.871s6.494-5.456 6.957-7.886z"/><path fill="#88bd45" d="M263.517 140.46c.059 8.413-5.279 12.182-5.279 12.182l-.172-.039-1.742-.369c.344-2.583 2.46-5.83 4.281-8.266 1.544-2.032 2.912-3.508 2.912-3.508z"/><path d="M260.605 143.953c-.227 3.178-.807 6.677-2.219 8.31a2.527 2.527 0 01-.32.325l-1.742-.369c.345-2.583 2.441-5.831 4.281-8.266z" opacity=".1" style="isolation:isolate"/><path fill="#88bd45" d="M258.037 152.272a2.662 2.662 0 01-.984.763 1.979 1.979 0 01-.364.123c-1.1.256-1.476-.536-1.422-1.884.108-2.4 1.614-6.553 2.952-9.668a18.93 18.93 0 012.111-4.049c-.001-.01.624 11.326-2.293 14.715z"/><path d="M256.452 153.025a1.181 1.181 0 01-.708-.226c-2.1-1.309-2.145-6.219-1.644-10.893 1.806 4.197 3.783 10.07 2.352 11.119z" opacity=".1" style="isolation:isolate"/><path d="M258.036 152.268c-.241.526-.566.8-.984.763a1.32 1.32 0 01-.6-.226 3.176 3.176 0 01-1.191-1.535c.108-2.4 1.614-6.553 2.952-9.668.487 4.314.65 8.889-.177 10.666z" opacity=".1" style="isolation:isolate"/><path fill="#88bd45" d="M256.092 132.44s-4.29 17.712 0 20.359 1.102-18.794 0-20.359z"/><path fill="#4b4770" d="M264.324 151.933h-17.86v2.957h2.726l.069.349 1.093 5.742h10.386l1.092-5.742.064-.349h2.436z"/><path d="M264.324 151.933h-17.86v2.957h2.726l.069.349 1.093 5.742h10.386l1.092-5.742.064-.349h2.436z" opacity=".1" style="isolation:isolate"/><path fill="#4b4770" d="M262.824 153.67l-.3 1.57-1.093 5.742h-10.386l-1.092-5.742-.3-1.57z"/><path d="M262.824 153.67l-.3 1.57h-12.571l-.3-1.57z" opacity=".1" style="isolation:isolate"/><path fill="#4b4770" d="M247.158 151.933h17.864v2.957h-17.864z"/></g><g transform="translate(73.027 -32.474)"><path fill="#88bd45" d="M50.206 141.639s-1.569 2.049.721 5.152 4.185 5.725 3.435 7.637c0 0-3.435-5.725-6.269-5.828s-.999-3.501 2.113-6.961z"/><path d="M58.486 141.639a2.3 2.3 0 01.321.641c2.748 3.229 4.208 6.234 1.569 6.3-2.456.069-5.4 4.465-6.108 5.576a2.181 2.181 0 00.08.252s3.435-5.725 6.3-5.828.935-3.481-2.162-6.941z" opacity=".1" style="isolation:isolate"/><path fill="#ffd037" d="M61.406 144.25c0 .721-.086 1.305-.183 1.305s-.183-.572-.183-1.305.1-.378.2-.378.166-.344.166.378z"/><path fill="#ffd037" d="M62.402 145.114c-.63.344-1.185.573-1.231.464s.424-.435 1.059-.784.384-.092.429 0 .379-.029-.257.32z"/><path d="M50.208 141.639a2.519 2.519 0 00-.321.641c-2.748 3.229-4.208 6.234-1.569 6.3 2.456.069 5.4 4.465 6.114 5.576a2.18 2.18 0 01-.086.252s-3.435-5.725-6.269-5.828-.983-3.481 2.131-6.941z" opacity=".1" style="isolation:isolate"/><path fill="#ffd037" d="M47.295 144.25c0 .721.08 1.305.177 1.305s.183-.572.183-1.305-.1-.378-.2-.378-.16-.344-.16.378z"/><path fill="#88bd45" d="M58.486 141.639s1.569 2.049-.721 5.152-4.179 5.725-3.435 7.637c0 0 3.435-5.725 6.3-5.828s.953-3.501-2.144-6.961z"/><path fill="#ffd037" d="M46.291 145.114c.635.344 1.185.573 1.237.464s-.429-.435-1.065-.784-.384-.092-.429 0-.376-.029.257.32z"/><ellipse cx="16.39" cy="2.513" fill="#00a6e1" opacity=".1" rx="16.39" ry="2.513" style="isolation:isolate" transform="translate(37.958 165.076)"/><path fill="#65617d" d="M62.786 151.658l-.08.641-.109.9-.046.378-.109.9-.052.378-.109.9-1.254 10.3c-.109.916-1.609 1.631-3.435 1.631h-6.49c-1.809 0-3.309-.716-3.435-1.631l-1.254-10.3-.109-.9-.046-.378-.114-.9-.046-.378-.109-.9-.08-.641c-.063-.521.75-.956 1.775-.956h13.333c1.019 0 1.832.435 1.769.956z"/><path fill="#9d9cb5" d="M62.706 152.299l-.109.9h-16.5l-.109-.9z"/><path fill="#9d9cb5" d="M62.551 153.581l-.109.9H46.258l-.114-.9z"/><path fill="#9d9cb5" d="M62.394 154.864l-.115.9H46.413l-.109-.9z"/></g><g transform="translate(3 -56.833)"><ellipse cx="38.479" cy="5.904" fill="#6c63ff" opacity=".1" rx="38.479" ry="5.904" style="isolation:isolate" transform="translate(4.516 227.713)"/><path fill="#88bd45" d="M64.515 169.088a9.587 9.587 0 00-1.253 2.364c-.077.2-.154.44-.231.665a2.448 2.448 0 00-.434-.154 6.054 6.054 0 00-1.962-.165c0-.258.033-.55.038-.808.082-2.9-.258-6.932-3.023-5.222-2.65 1.649-.759 4.4.951 6.157.148.154.3.3.44.434-1.561 1.1-1.858 3.7-2.116 6.4s-2.551 5.651-4.073 7.328c-.154.171-.291.324-.429.467a5.58 5.58 0 00-4.425-1.138c-.06-.236-.132-.484-.2-.742-1.231-4.447-3.787-12.148-7.047-13.836l.429-.55c1.385-1.808 2.946-4.5.643-5.189s-2.512 2.331-2.386 4.6q.033.429.066.808a3.368 3.368 0 00-2.408 1.176l-.357-.423c-1.869-2.2-5.294-5.7-6.333-3.057-.967 2.463 2.05 5.662 4.172 7.515l.132.115c-1.424 5.777 4.793 10.488 8.141 12.55l.434.264c-4.617 5.442-7.47 15.645-7.47 15.645l12.929 2.309s8.575-7.4 7.476-14.347h.088c8.57-1.715 10.516-10.851 9.18-16.277l.154-.06a9.7 9.7 0 003.969-3c2.392-3.335-2.622-7.095-5.095-3.829z"/><path d="M64.515 169.088a9.587 9.587 0 00-1.253 2.364c-.077.2-.154.44-.231.665a2.448 2.448 0 00-.434-.154 6.054 6.054 0 00-1.962-.165c0-.258.033-.55.038-.808.082-2.9-.258-6.932-3.023-5.222-2.65 1.649-.759 4.4.951 6.157.148.154.3.3.44.434-1.561 1.1-1.858 3.7-2.116 6.4s-2.551 5.651-4.073 7.328c-.154.171-.291.324-.429.467a5.58 5.58 0 00-4.425-1.138c-.06-.236-.132-.484-.2-.742-1.231-4.447-3.787-12.148-7.047-13.836l.429-.55c1.385-1.808 2.946-4.5.643-5.189s-2.512 2.331-2.386 4.6q.033.429.066.808a3.368 3.368 0 00-2.408 1.176l-.357-.423c-1.869-2.2-5.294-5.7-6.333-3.057-.967 2.463 2.05 5.662 4.172 7.515l.132.115c-1.424 5.777 4.793 10.488 8.141 12.55l.434.264c-4.617 5.442-7.47 15.645-7.47 15.645l12.929 2.309s8.575-7.4 7.476-14.347h.088c8.57-1.715 10.516-10.851 9.18-16.277l.154-.06a9.7 9.7 0 003.969-3c2.392-3.335-2.622-7.095-5.095-3.829z" opacity=".1" style="isolation:isolate"/><path fill="#88bd45" d="M38.775 172.848l-1.512 4.4s-.841-.594-1.9-1.528c-2.122-1.853-5.14-5.052-4.172-7.515 1.039-2.644 4.464.847 6.333 3.056a24.36 24.36 0 011.251 1.587z"/><path fill="#88bd45" d="M41.966 170.292a20.9 20.9 0 01-1.473 1.737 23.188 23.188 0 01-.269-2.331c-.126-2.265.115-5.272 2.386-4.6s.742 3.384-.644 5.194z"/><path fill="#88bd45" d="M61.492 170.993c-.044 1.457-.187 2.622-.187 2.622a19.176 19.176 0 01-1.885-1.687c-1.71-1.776-3.6-4.513-.951-6.156 2.737-1.72 3.078 2.321 3.023 5.221z"/><path fill="#88bd45" d="M70.397 172.897a9.7 9.7 0 01-3.969 3 11.906 11.906 0 01-1.33.484l-1.781-2.5a17.668 17.668 0 01.737-2.43 9.585 9.585 0 011.253-2.364c2.463-3.265 7.487.495 5.09 3.81z"/><path d="M37.525 171.259c.753.88 1.253 1.561 1.253 1.561l-1.512 4.4s-.841-.594-1.9-1.528a8.629 8.629 0 011.7-3.886c.152-.184.311-.371.459-.547z" opacity=".1" style="isolation:isolate"/><path d="M41.967 170.292a20.9 20.9 0 01-1.473 1.737 23.187 23.187 0 01-.269-2.331 3.042 3.042 0 011.742.594z" opacity=".1" style="isolation:isolate"/><path fill="#88bd45" d="M49.399 187.859l-3.76 1.649s-.819-.4-2-1.132c-3.952-2.43-11.9-8.548-6.6-15.76s9.768 5.722 11.544 12.049c.535 1.923.816 3.194.816 3.194z"/><path d="M59.392 171.925a3.09 3.09 0 012.072-.935c-.044 1.457-.187 2.622-.187 2.622a19.191 19.191 0 01-1.885-1.687z" opacity=".1" style="isolation:isolate"/><path d="M66.439 175.901a11.883 11.883 0 01-1.33.484l-1.781-2.5a17.656 17.656 0 01.737-2.43c1.133.667 1.984 2.338 2.374 4.446z" opacity=".1" style="isolation:isolate"/><path fill="#88bd45" d="M57.097 192.235c-.2.044-.418.082-.632.115-12.6 1.913-4.156-4.887-4.156-4.887s.55-.55 1.336-1.38c1.523-1.677 3.809-4.612 4.073-7.328.4-4.084.852-7.916 5.673-6.794 4.73 1.111 5.637 17.883-6.294 20.274z"/><path fill="#e6e6e6" d="M32.776 223.618h24.082v6.333H32.776z"/><path fill="#e6e6e6" d="M28.95 203.037h31.465v22.098H28.95z"/><path d="M32.776 223.618h24.082v6.333H32.776z" opacity=".1" style="isolation:isolate"/><path d="M28.95 203.037h31.465v22.098H28.95z" opacity=".1" style="isolation:isolate"/><path fill="#65617d" d="M34.359 223.618h24.082v6.333H34.359z"/><path d="M48.585 184.672c.55 1.891.814 3.188.814 3.188l-3.76 1.649s-.819-.4-2-1.132a9.652 9.652 0 014.946-3.705z" opacity=".1" style="isolation:isolate"/><path d="M57.097 192.235c-.2.044-.418.083-.632.115-12.6 1.913-4.156-4.887-4.156-4.887s.55-.55 1.336-1.38a8.346 8.346 0 013.452 6.152z" opacity=".1" style="isolation:isolate"/><path fill="#88bd45" d="M36.602 204.29s7.058-25.286 16.958-17.486-4.029 19.789-4.029 19.789z"/><circle cx=".792" cy=".792" r=".792" opacity=".1" style="isolation:isolate" transform="translate(39.372 175.788)"/><circle cx=".792" cy=".792" r=".792" opacity=".1" style="isolation:isolate" transform="translate(39.306 179.482)"/><circle cx=".792" cy=".792" r=".792" opacity=".1" style="isolation:isolate" transform="translate(62.267 176.514)"/><circle cx=".792" cy=".792" r=".792" opacity=".1" style="isolation:isolate" transform="translate(43.797 195.451)"/><circle cx=".792" cy=".792" r=".792" opacity=".1" style="isolation:isolate" transform="translate(60.618 182.649)"/><circle cx=".792" cy=".792" r=".792" opacity=".1" style="isolation:isolate" transform="translate(52.438 190.834)"/><circle cx=".792" cy=".792" r=".792" opacity=".1" style="isolation:isolate" transform="translate(42.076 177.372)"/><circle cx=".792" cy=".792" r=".792" opacity=".1" style="isolation:isolate" transform="translate(60.09 178.889)"/><circle cx=".792" cy=".792" r=".792" opacity=".1" style="isolation:isolate" transform="translate(57.386 185.023)"/><circle cx=".792" cy=".792" r=".792" opacity=".1" style="isolation:isolate" transform="translate(49.074 194.858)"/><circle cx=".792" cy=".792" r=".792" opacity=".1" style="isolation:isolate" transform="translate(47.359 190.966)"/><circle cx=".792" cy=".792" r=".792" opacity=".1" style="isolation:isolate" transform="translate(43.264 182.187)"/><path d="M34.359 223.618h24.082v2.314H34.359z" opacity=".1" style="isolation:isolate"/><path fill="#65617d" d="M30.533 203.037h31.465v22.098H30.533z"/><circle cx=".792" cy=".792" r=".792" opacity=".1" style="isolation:isolate" transform="translate(50.13 198.42)"/><circle cx=".792" cy=".792" r=".792" opacity=".1" style="isolation:isolate" transform="translate(45.38 199.409)"/></g></g></svg>