<svg xmlns="http://www.w3.org/2000/svg" width="308.557" height="220" viewBox="0 0 248.756 220"><g transform="translate(-9.641 29.99)"><circle cx="110" cy="110" r="110" fill="#447bbd" opacity=".16" transform="translate(21.876 -29.99)"/><path fill="#00a6e1" d="M115.469-21.886c-10.112-4.659-20.8-8.551-31.7-8.062-16.038.717-31.434 11.651-38.974 27.7-6.4 13.6-1.012 28.973-3.768 44.068-3.391 18.595-9.9 36.272-16.846 53.555-3.735 9.289-13.847 19.346-14.46 29.523-.849 14.13 5.11 28.211 14.455 37.609s21.756 14.358 34.213 15.44c6.629.575 13.556.042 19.443-3.455 6.229-3.7 10.77-10.386 17.025-14.033 5.8-3.38 12.576-3.853 19.083-3.414a76.9 76.9 0 0124.913 6c9.1 3.87 18.454 7.517 27.517 11.442s19.214 6.116 28.488 2.841c8.719-3.077 15.6-10.55 21.809-18.117a286.9 286.9 0 0026.913-37.9c5.6-9.51 10.814-19.543 13.29-30.626 4.736-21.191-1.78-45.1-16.233-59.571a85.1 85.1 0 00-42.867-23.45c-14.345-2.88-25.339 7.393-44.669-1.585-21.098-9.794-26.603-21.044-37.632-27.965z" opacity=".2"/><path fill="#aaabb0" d="M144.667 145.963v9.363h2.662l-.515-10.052z"/><path fill="#aaabb0" d="M104.675 144.074v9.363h2.665l-.516-10.051z"/><rect width="3.436" height="16.667" fill="#aaabb0" rx="1.718" transform="translate(147.76 128.61)"/><rect width="3.436" height="20.361" fill="#aaabb0" rx="1.718" transform="translate(103.688 124.914)"/><path fill="#aaabb0" d="M155.579 28.868s3.436-1.461 3.951 0 .773 14.09.773 14.09h-3.264z"/><path fill="#aaabb0" d="M117.951 28.868s-3.438-1.461-3.953 0-.773 14.09-.773 14.09h3.265z"/><path fill="#aaabb0" d="M118.463 16.325l-.515 10.482h2.32v-10.74z"/><path fill="#33323d" d="M116.49 42.958l.688-15.121s-.258-3.35 7.9-2.32 32.046 3.093 32.046 3.093v14.348z"/><path fill="#33323d" d="M149.136 122.597l-1.289 23.108a50.083 50.083 0 01-41.84.516l2.062-24.312z"/><path fill="#444053" d="M131.18 31.616l.428 14.948h26.634l-1.546-19.758z"/><path fill="#4c4981" d="M108.799 112.716h25.087v31.786h-25.087z"/><path fill="#ffb9b9" d="M124.651 125.69s3.608-2.835 4.209-1.977-2.144 4.554-3.263 4.124-.946-2.147-.946-2.147z"/><path fill="#766551" d="M60.114 42.098h158.193v82.474H60.114z"/><path fill="#33323d" d="M116.574 15.724s-1.289-12.028 0-13.487 22.938-15.294 42.956.943c0 0 1.889.088 1.546 4.381a51.546 51.546 0 00.041 8.162s-43.081 3.094-44.543.001z"/><path d="M116.574 15.724s-1.289-12.028 0-13.487 22.938-15.294 42.956.943c0 0 1.889.088 1.546 4.381a51.546 51.546 0 00.041 8.162s-43.081 3.094-44.543.001z" opacity=".1"/><path fill="#33323d" d="M116.574 17.27s-1.289-12.028 0-13.487 22.938-15.294 42.956.943c0 0 1.889.088 1.546 4.381a51.546 51.546 0 00.041 8.162s-43.081 3.094-44.543.001z"/><path fill="#447bbd" d="M161.85 11.773s1.374 5.155.946 6.013a10.387 10.387 0 00-.351 3.265s.093 1.546-.6 1.716-1.289.258-.732.773 0 1.289 0 1.289a4.015 4.015 0 000 1.977c.3.773-1.763 1.1-1.588 2.062s.753 3.693 0 3.781.258 3.436-.42 3.436-1.16 6.013-1.16 6.013-4.768-4.036-7.946-2.92c0 0 .258-3.351 1.289-4.554s.719-4.294.719-4.294l5.113-15.379z"/><path fill="#ae6e79" d="M136.335 82.85c-1.116 1.235-2.32-5.358-2.32-5.358s-3.178 4.381-5.24 1.461c-1.428-2.023-.3-7.755.515-11.082.366-1.479.675-2.485.675-2.485l4.639-.773s.015 1.01.119 2.237c.139 1.657.441 3.714 1.083 4.206 1.132.853 1.648 10.549.529 11.794z"/><path d="M133.931 5.672s-8.077-.085-10.051 4.209-2.062 5.758-2.835 6.443 8.417 4.3 8.417 4.3l.43 14.776a4.91 4.91 0 014.724-1 15.9 15.9 0 006.616 0s-.173-.312 2.234 0 10.052-3.724 10.052-3.724.126-6.464-.044-7.84 5.454-11.49 5.454-11.49 4.381-4.209-.17-5.67c0 0-1.611-2.428-5.755-2.4s-19.072 2.396-19.072 2.396z" opacity=".1"/><path fill="#447bbd" d="M133.931 5.415s-8.077-.085-10.051 4.209-2.062 5.758-2.835 6.443 8.417 4.3 8.417 4.3l.43 14.776a4.91 4.91 0 014.724-1 15.9 15.9 0 006.616 0s-.173-.312 2.234 0 10.052-3.724 10.052-3.724 3.005-4.9 2.835-6.271 6.013-11.771 6.013-11.771.946-5.5-3.608-6.959c0 0-1.611-2.428-5.755-2.4s-19.072 2.397-19.072 2.397z"/><path d="M134.745 66.843c-1.771-.552-4.549.665-5.433 1.031.366-1.479.675-2.485.675-2.485l4.639-.773s.008 1.01.119 2.227z" opacity=".1"/><path fill="#447bbd" d="M123.533 16.067h-2.49s-.516 5.242 0 6.789.773 1.322.6 2.466 1.2 2.9 1.2 2.9.17 4.32 1.031 5.928-.946 8.82-.946 8.82a10.375 10.375 0 002.147 3.35c1.461 1.459 2.234 6.871 1.8 8.933a2.476 2.476 0 001.2 2.835s.688 9.624.946 9.624 5.24-2.577 6.786-.345l-1.2-8.848.088-17.1s-1.634-2.15-.773-4.039-.688-6.358-.688-6.358L131 21.058z"/><path fill="#33323d" d="M108.069 151.891s-3.608-.773-3.693 0-4.3 8.678.946 11 19.242 7.3 42.01.858c0 0 1.459.516 1.116-2.662s-.343-6.7-.343-6.7a18.449 18.449 0 00-6.015-.6c-2.578.341-25 4.893-34.021-1.896z"/><path d="M108.069 151.891s-3.608-.773-3.693 0-4.3 8.678.946 11 19.242 7.3 42.01.858c0 0 1.459.516 1.116-2.662s-.343-6.7-.343-6.7a18.449 18.449 0 00-6.015-.6c-2.578.341-25 4.893-34.021-1.896z" opacity=".1"/><path fill="#33323d" d="M108.069 150.86s-3.608-.773-3.693 0-4.3 8.678.946 11 19.242 7.3 42.01.858c0 0 1.459.515 1.116-2.662s-.343-6.7-.343-6.7a18.45 18.45 0 00-6.015-.6c-2.578.341-25 4.893-34.021-1.896z"/><path fill="#444053" d="M129.111 19.154a33.915 33.915 0 00-.8 3.747 3.212 3.212 0 001.593 3.227 5.366 5.366 0 01.951.387 2.092 2.092 0 01.735 1.425 7.785 7.785 0 01.09 2.119 3.585 3.585 0 00.134 2.1c.616 1.1 2.222.938 3.443.629l-.42 3.255a.619.619 0 00.753.858 6.567 6.567 0 003.064-.773 2.758 2.758 0 001.415-2.649c-.2-1.216-1.459-2.183-1.289-3.4.132-.946 1.057-1.546 1.665-2.273a4.372 4.372 0 00.3-4.856 5.525 5.525 0 00-4.247-2.608 11.373 11.373 0 01-2.835-.309 2.149 2.149 0 01-1.314-1.387"/><path fill="#767d9f" d="M99.137 133.765l.9-1.959s4.856-4.523 5.972-4.84 5.67-1.7 6.358-1.7 13.232-.688 13.232-.688l1.459 3.438-15.742 3.456-5.307 3.866z"/><path fill="#ffb9b9" d="M136.959 81.015l-.822 6.327-.317 2.436-3.693.515s-.4-.856-.964-2.17c-1.714-3.99-4.941-12.216-3.07-13.637 2.487-1.892 3.093 4.381 3.093 4.381l2.835-1.376z"/><path fill="#fff" d="M117.691 92.786h18.652v28.178h-18.652z"/><path d="M117.691 92.786h18.652v28.178h-18.652z" opacity=".1"/><path fill="#fff" d="M126.274 91.584l18.451 2.728-4.12 27.875-18.452-2.728z"/><path fill="#88bd45" d="M127.062 100.661l9.497 1.404-1.172 7.928-9.497-1.404z"/><path fill="#88bd45" d="M124.714 113.742l11.506 1.701-.303 2.046-11.505-1.701z"/><path fill="#88bd45" d="M125.43 110.498l11.506 1.701-.303 2.046-11.505-1.701z"/><path fill="#88bd45" d="M127.752 94.891l14.976 2.214-.46 3.115-14.977-2.214z"/><circle cx="10.781" cy="10.781" r="10.781" opacity=".1" transform="translate(130.451 .131)"/><circle cx="10.781" cy="10.781" r="10.781" fill="#ae6e79" transform="translate(130.451 -.126)"/><path fill="#444053" d="M132.343 18.644a1.227 1.227 0 01.075-.832c.41-.853 1.577-.928 2.523-.884 2.224.1 4.665.116 6.4-1.289.722-.577 1.528-2.028 2.577-1.753.933.245 1.322 1.51 2.294 1.791a4.708 4.708 0 002.149-.258 15.522 15.522 0 013.134-.026 3.856 3.856 0 002.9-.956c.964-1.031.807-2.642.722-4.054a21.827 21.827 0 01.369-5.448c.351-1.783.889-3.778-.1-5.307-.938-1.456-2.881-1.856-4.209-2.972-1.242-1.031-1.9-2.683-3.211-3.639-1.652-1.2-3.9-1.031-5.928-.822l-4.407.469a6.584 6.584 0 00-3.255.936c-1.688 1.222-1.92 3.76-3.518 5.1a14.318 14.318 0 01-2.433 1.33 2.922 2.922 0 00-1.688 2.062 6.341 6.341 0 00.544 2.232c.482 1.778-.271 3.608-.753 5.4s-.575 3.966.825 5.155c.284.242.613.428.889.68a3.91 3.91 0 01.856 3.577"/><ellipse cx=".258" cy=".644" fill="#444053" rx=".258" ry=".644" transform="translate(141.853 22.832)"/><ellipse cx=".258" cy=".644" fill="#444053" rx=".258" ry=".644" transform="translate(141.853 25.518)"/><path fill="#ae6e79" d="M136.394 82.832a4.72 4.72 0 00.565-2.206l-3.072-3.83s1.301 7.425 2.507 6.036z"/><path d="M139.858 146.136s-5.041 7.794-20.791 6.959c-14.838-.773-22.08-8.075-21.734-10.652s-.946-8.85 2.232-10.655c1.843-1.044 4.268-.425 5.979.281a3.377 3.377 0 003.549-.637c1.564-1.41 4.482-3 9.088-1.747a3.272 3.272 0 001.8-.034c1.918-.585 6.482-1.6 9.794.655a3.351 3.351 0 003.588.137l.046-.028c1.546-.946 8.763 7.99 8.763 7.99s.349 6.872-2.314 7.731z" opacity=".1"/><path fill="#767d9f" d="M139.858 146.394s-5.041 7.794-20.791 6.959c-14.838-.773-22.08-8.075-21.734-10.652s-.946-8.851 2.232-10.655c1.843-1.044 4.268-.425 5.979.281a3.377 3.377 0 003.549-.637c1.564-1.41 4.482-3 9.088-1.747a3.274 3.274 0 001.8-.034c1.918-.585 6.482-1.6 9.794.655a3.351 3.351 0 003.588.137l.046-.028c1.546-.946 8.763 7.99 8.763 7.99s.349 6.872-2.314 7.731z"/><circle cx="10.268" cy="10.268" r="10.268" opacity=".1" transform="translate(108.799 128.909)"/><circle cx="10.268" cy="10.268" r="10.268" fill="#ffb9b9" transform="translate(108.799 129.167)"/><path fill="#b96b6b" d="M116.124 130.558a4.279 4.279 0 00-2.665 1.761 7.109 7.109 0 01-.887 1.673c-.649.652-1.745.665-2.624 1.031s-1.459 1.655-.6 2.062a1.92 1.92 0 00-1.673 1.7 5.043 5.043 0 00.5 2.425c.984 2.536 2.044 5.183 4.214 6.987 3.536 2.943 8.866 2.807 13.616 2.495a2.227 2.227 0 001.116-.258 2.069 2.069 0 00.665-1.564c.358-2.443 1.683-4.662 2.549-6.995s1.222-5.072-.237-7.136c-2.142-3.065-10.361-5.16-13.974-4.181z"/><path d="M136.136 87.343l-.317 2.436-3.693.515s-.4-.856-.964-2.17l4.915-.923z" opacity=".1"/><path fill="#767d9f" d="M140.028 141.154l2.149-2.492-.43-13.745a22.3 22.3 0 00.43-3.008 18.392 18.392 0 00-1.075-4.724 10.239 10.239 0 01.729-1.892c.515-1.031-.727-3.351-.727-3.351s-1.85-6.013-1.077-9.021a6.752 6.752 0 00-.188-4.724 26.214 26.214 0 01-.67-4.724c.085-1.374-1.719-2.665-1.719-2.665l-1.374-3.351-5.5 1.031v11.6s.343 11.082 0 13.232a7.859 7.859 0 00.686 4.209s-.6 3.178-.085 4.381 1.546 4.124 1.546 4.124a6.7 6.7 0 00.173 3.134 2.94 2.94 0 010 2.363z"/><g opacity=".1" transform="translate(126.222 1.345)"><path d="M29.272 2.742a21.818 21.818 0 00-.389 4.58 21.927 21.927 0 01.4-3.8 14.721 14.721 0 00.454-3.518 21.4 21.4 0 01-.465 2.738z"/><path d="M2.032 13.381c-.276-.258-.606-.438-.889-.683a3.537 3.537 0 01-1.131-2.577 3.941 3.941 0 001.131 3.35c.284.245.613.43.889.683a3.15 3.15 0 01.933 2.152 3.539 3.539 0 00-.933-2.925z"/><path d="M1.211 3.757a4.859 4.859 0 00-.139-1.621C.923 1.584.655 1.046.557.492a1.707 1.707 0 01-.028.186 6.457 6.457 0 00.544 2.232 4.383 4.383 0 01.138.847z"/><path d="M28.182 12.245a3.825 3.825 0 01-2.9.956 15.334 15.334 0 00-3.134.028 4.539 4.539 0 01-2.149.258c-.972-.281-1.361-1.546-2.291-1.791-1.059-.278-1.866 1.173-2.577 1.75-1.74 1.392-4.18 1.379-6.4 1.289-.946-.044-2.113.031-2.521.887a1.2 1.2 0 00-.075.832l-3.149.495a6.089 6.089 0 01-.085.773l3.234-.515a1.2 1.2 0 01.075-.832c.407-.856 1.575-.93 2.521-.887 2.224.1 4.665.116 6.4-1.289.722-.577 1.528-2.028 2.577-1.75.93.242 1.32 1.51 2.291 1.791a4.743 4.743 0 002.149-.258 15.338 15.338 0 013.134-.028 3.856 3.856 0 002.9-.956 4.1 4.1 0 00.773-3.021 3.364 3.364 0 01-.773 2.268z"/></g><g opacity=".1" transform="translate(128.35 23.616)"><path d="M2.196 2.353a5.213 5.213 0 00-.951-.387A2.461 2.461 0 010 .693a2.758 2.758 0 001.5 2.046 5.216 5.216 0 01.951.387 1.429 1.429 0 01.456.534 1.989 1.989 0 00-.711-1.307z"/><path d="M6.598 8.624c-1.188.3-2.74.459-3.392-.549a1.77 1.77 0 00.206.693c.557.992 1.918.959 3.075.714z"/><path d="M11.413 9.33a2.765 2.765 0 01-1.417 2.639 6.734 6.734 0 01-3.064.773 1.052 1.052 0 01-.5-.057.613.613 0 00.758.83 6.568 6.568 0 003.064-.773 2.754 2.754 0 001.415-2.65 2.923 2.923 0 00-.256-.762z"/><path d="M12.557 0a4.242 4.242 0 01-.773 3.647c-.608.737-1.534 1.327-1.665 2.273a2.147 2.147 0 00.258 1.255 1.673 1.673 0 010-.482c.131-.946 1.057-1.546 1.665-2.273A4.336 4.336 0 0012.557 0z"/></g><g opacity=".1" transform="translate(107.654 130.202)"><path d="M2.296 5.22c.876-.363 1.972-.376 2.624-1.031a7.143 7.143 0 00.886-1.67A4.236 4.236 0 018.468.756c3.608-.979 11.835 1.113 13.979 4.147a5.631 5.631 0 01.985 3.113 5.82 5.82 0 00-.982-3.626C20.306 1.356 12.087-.736 8.471.243a4.257 4.257 0 00-2.662 1.763 7.148 7.148 0 01-.887 1.67c-.652.652-1.747.665-2.624 1.031a1.557 1.557 0 00-.982 1.637 1.773 1.773 0 01.979-1.124z"/><path d="M.028 8.965a1.912 1.912 0 011.673-1.7.685.685 0 01-.394-.441A2 2 0 00.018 8.445a2.717 2.717 0 000 .631.444.444 0 00.01-.111z"/></g><path fill="#fff" d="M138.824 45.768h23.453v30.585h-23.453z"/><path d="M138.824 45.768h23.453v30.585h-23.453z" opacity=".1"/><path fill="#fff" d="M148.125 51.539l23.114-3.976 5.184 30.143-23.113 3.975z"/><path fill="#ff6a00" d="M153.727 72.087l5.43-.934 1.218 7.082-5.43.934z"/><path fill="#ff6a00" d="M161.242 70.793l5.43-.934 1.218 7.082-5.43.934z"/><path fill="#ff6a00" d="M152.938 62.753l19.044-3.27 1.222 7.114-19.044 3.27z"/><path fill="#ff6a00" d="M151.35 54.263l19.044-3.27.273 1.586-19.045 3.27z"/><path fill="#ff6a00" d="M151.975 57.182l19.044-3.27.273 1.586-19.045 3.27z"/><path fill="#ae6e79" d="M152.013 37.459s-10.781 10.825-5.368 13.575 8.935-9.149 8.935-9.149l.856-2.706z"/><path d="M151.067 36.503l-1.333 2.943s6.572.923 7.946 2.91l-.814-5.193-.966-2.216z" opacity=".1"/><path fill="#436b9b" d="M151.324 36.245l-1.332 2.943s6.572.923 7.946 2.91l-.814-5.193-.966-2.216z"/><path fill="#464a5f" d="M191.11 90.36l-.142.1.2.088.211-.018.026-.147z"/><path d="M191.11 90.36l-.142.1.2.088.211-.018.026-.147z" opacity=".1"/><path fill="#9c9ca1" d="M191.11 90.36l-.144.093-.113-.139.07-.113.064-.021z"/><path d="M191.11 90.36l-.144.093-.113-.139.07-.113.064-.021z" opacity=".1"/><path fill="#9c9ca1" d="M216.478 72.547l-10.551-15.24a1.255 1.255 0 00-1.747-.322l-23.52 16.144a1.26 1.26 0 00-.327 1.75l10.523 15.433z"/><path d="M216.478 72.547l-10.551-15.24a1.255 1.255 0 00-1.747-.322l-23.52 16.144a1.26 1.26 0 00-.327 1.75l10.523 15.433z" opacity=".1"/><path fill="#9c9ca1" d="M216.736 72.585l-10.551-15.241a1.258 1.258 0 00-1.75-.322l-23.518 16.155a1.263 1.263 0 00-.33 1.75l10.523 15.441z"/><path fill="#464a5f" d="M225.554 75.597l-8.763-2.814-25.627 17.765 8.9 2.912a1.348 1.348 0 001.193-.18l24.368-17.206a.258.258 0 00-.072-.477z"/><path d="M225.554 75.597l-8.763-2.814-25.627 17.765 8.9 2.912a1.348 1.348 0 001.193-.18l24.368-17.206a.258.258 0 00-.072-.477z" opacity=".1"/><path fill="#464a5f" d="M225.501 75.42l-8.763-2.817-25.628 17.765 8.9 2.907a1.338 1.338 0 001.193-.178l24.368-17.206a.258.258 0 00-.072-.472z"/><g opacity=".1" transform="translate(187.197 65.52)"><path d="M25.4 6.384l-.647-.928a.258.258 0 00-.35-.064l-.961.642a.258.258 0 00-.07.348l.6.915a.258.258 0 00.348.075l1.013-.637a.258.258 0 00.067-.351z"/><path d="M23.673 7.58l-.649-.925a.258.258 0 00-.351-.064l-.959.647a.258.258 0 00-.072.348l.6.915a.258.258 0 00.348.077l1.015-.637a.258.258 0 00.072-.361z"/><path d="M21.86 8.837l-.65-.925a.258.258 0 00-.35-.064l-.961.647a.258.258 0 00-.07.351l.6.915a.258.258 0 00.348.075l1.013-.637a.258.258 0 00.075-.361z"/><path d="M20.021 10.108l-.65-.928a.258.258 0 00-.348-.064l-.961.649a.258.258 0 00-.07.348l.6.915a.258.258 0 00.345.077l1.016-.639a.258.258 0 00.072-.358z"/><path d="M18.186 11.379l-.649-.925a.258.258 0 00-.351-.064l-.959.647a.258.258 0 00-.072.348l.6.915a.258.258 0 00.348.077l1.015-.639a.258.258 0 00.072-.358z"/><path d="M16.431 12.765l-.807-1.149a.116.116 0 00-.162-.031l-1.18.8a.116.116 0 00-.033.162l.74 1.137a.118.118 0 00.162.036l1.247-.773a.119.119 0 00.034-.178z"/><path d="M14.597 14.036l-.812-1.149a.119.119 0 00-.165-.031l-1.18.8a.119.119 0 00-.031.162l.74 1.137a.113.113 0 00.162.036l1.245-.773a.116.116 0 00.041-.178z"/><path d="M12.972 15.164l-.807-1.139a.118.118 0 00-.162-.028l-1.18.794a.121.121 0 00-.034.165l.74 1.137a.121.121 0 00.162.036l1.247-.773a.119.119 0 00.034-.192z"/><path d="M11.15 16.42l-.807-1.149a.119.119 0 00-.162-.028l-1.18.794a.118.118 0 00-.034.165l.74 1.137a.121.121 0 00.162.036l1.247-.773a.121.121 0 00.034-.18z"/><path d="M9.392 17.631l-.807-1.15a.116.116 0 00-.162-.031l-1.18.8a.116.116 0 00-.034.162l.74 1.137a.119.119 0 00.162.036l1.247-.773a.119.119 0 00.033-.178z"/><path d="M7.625 18.864l-.8-1.152a.119.119 0 00-.162-.028l-1.18.794a.118.118 0 00-.033.165l.74 1.137a.121.121 0 00.162.036l1.247-.773a.119.119 0 00.026-.178z"/><path d="M5.862 20.082l-.807-1.149a.116.116 0 00-.162-.031l-1.18.791a.116.116 0 00-.033.162l.74 1.137a.119.119 0 00.162.036l1.247-.773a.119.119 0 00.034-.173z"/><path d="M24.24 4.706l-.649-.928a.258.258 0 00-.35-.064l-.951.649a.258.258 0 00-.072.348l.6.915a.258.258 0 00.348.075l1.015-.637a.258.258 0 00.059-.358z"/><path d="M21.702 1.039l-.65-.933a.258.258 0 00-.348-.064l-.961.647a.258.258 0 00-.072.348l.6.915a.258.258 0 00.348.077l1.016-.637a.258.258 0 00.067-.353z"/><path d="M22.507 5.902l-.649-.925a.258.258 0 00-.348-.064l-.961.647a.258.258 0 00-.07.348l.593.915a.258.258 0 00.348.077l1.015-.637a.258.258 0 00.072-.361z"/><path d="M20.697 7.158l-.649-.925a.258.258 0 00-.35-.064l-.959.639a.258.258 0 00-.072.35l.6.915a.258.258 0 00.348.075l1.016-.637a.258.258 0 00.066-.353z"/><path d="M18.859 8.43l-.647-.928a.258.258 0 00-.35-.064l-.961.657a.258.258 0 00-.07.348l.6.915a.258.258 0 00.348.075l1.013-.637a.258.258 0 00.072-.366z"/><path d="M20.014 2.294l-.649-.925a.258.258 0 00-.348-.064l-.961.647a.258.258 0 00-.072.348l.6.915a.258.258 0 00.348.077l1.015-.637a.258.258 0 00.072-.361z"/><path d="M18.199 3.551l-.649-.928a.258.258 0 00-.35-.064l-.959.639a.258.258 0 00-.072.348l.6.915a.258.258 0 00.348.075l1.015-.637a.258.258 0 00.067-.348z"/><path d="M16.362 4.822l-.65-.925a.258.258 0 00-.348-.067l-.961.657a.258.258 0 00-.07.348l.6.915a.258.258 0 00.348.077l1.013-.639a.258.258 0 00.072-.366z"/><path d="M17.024 9.701l-.649-.925a.258.258 0 00-.348-.067l-.954.65a.258.258 0 00-.07.348l.585.915a.258.258 0 00.345.077l1.015-.639a.258.258 0 00.075-.358z"/><path d="M15.189 10.972l-.65-.925a.258.258 0 00-.351-.064l-.959.647a.258.258 0 00-.072.348l.6.915a.258.258 0 00.348.077l1.016-.637a.258.258 0 00.072-.361z"/><path d="M13.438 12.358l-.807-1.149a.116.116 0 00-.162-.031l-1.18.8a.116.116 0 00-.034.162l.74 1.137a.116.116 0 00.162.036l1.247-.773a.119.119 0 00.034-.178z"/><path d="M11.812 13.485l-.807-1.152a.119.119 0 00-.162-.028l-1.178.794a.121.121 0 00-.033.165l.74 1.137a.121.121 0 00.162.036l1.247-.773a.113.113 0 00.031-.178z"/><path d="M9.988 14.742l-.807-1.149a.119.119 0 00-.162-.028l-1.18.794a.116.116 0 00-.033.162l.74 1.139a.121.121 0 00.162.036l1.247-.773a.121.121 0 00.034-.18z"/><path d="M8.225 15.964l-.807-1.149a.116.116 0 00-.162-.031l-1.18.786a.116.116 0 00-.034.162l.74 1.137a.119.119 0 00.162.036l1.247-.773a.119.119 0 00.033-.168z"/><path d="M19.488 5.413l-.649-.925a.258.258 0 00-.348-.064l-.961.65a.258.258 0 00-.07.348l.6.915a.258.258 0 00.345.075l1.015-.637a.258.258 0 00.072-.361z"/><path d="M17.65 6.685L17 5.757a.258.258 0 00-.35-.064l-.959.65a.258.258 0 00-.072.348l.6.915a.258.258 0 00.348.077l1.016-.639a.258.258 0 00.072-.358z"/><path d="M15.818 7.957l-.649-.925a.258.258 0 00-.35-.064l-.961.647a.258.258 0 00-.07.348l.6.915a.258.258 0 00.348.077l1.013-.639a.258.258 0 00.075-.358z"/><path d="M13.976 9.227l-.649-.925a.258.258 0 00-.348-.064l-.961.647a.258.258 0 00-.07.348l.6.925a.258.258 0 00.345.077l1.015-.637a.258.258 0 00.072-.371z"/><path d="M12.238 10.613l-.807-1.149a.116.116 0 00-.162-.031l-1.18.8a.118.118 0 00-.033.162l.74 1.139a.116.116 0 00.162.034l1.247-.773a.118.118 0 00.034-.178z"/><path d="M10.601 11.74l-.807-1.152a.121.121 0 00-.165-.028l-1.178.794a.121.121 0 00-.034.165l.74 1.137a.119.119 0 00.162.036l1.247-.773a.119.119 0 00.033-.178z"/><path d="M8.782 12.992l-.807-1.152a.121.121 0 00-.165-.028l-1.18.794a.124.124 0 00-.033.165l.742 1.137a.119.119 0 00.162.036l1.245-.773a.116.116 0 00.036-.178z"/><path d="M7.019 14.218l-.807-1.149a.119.119 0 00-.165-.031l-1.18.8a.119.119 0 00-.031.162l.74 1.137a.113.113 0 00.162.036l1.245-.773a.116.116 0 00.036-.178z"/><path d="M6.462 17.183l-.807-1.15a.119.119 0 00-.162-.028l-1.18.794a.116.116 0 00-.033.162l.74 1.139a.121.121 0 00.162.036l1.247-.773a.121.121 0 00.034-.18z"/><path d="M4.699 18.404l-.807-1.149a.116.116 0 00-.162-.031l-1.18.8a.116.116 0 00-.034.162l.74 1.137a.119.119 0 00.162.036l1.247-.773a.119.119 0 00.033-.178z"/><path d="M7.467 11.101l-.773-1.082a.16.16 0 00-.219-.039l-1.113.75a.157.157 0 00-.044.219l.7 1.07a.155.155 0 00.216.049l1.178-.74a.16.16 0 00.059-.227z"/><path d="M5.705 12.322l-.76-1.084a.157.157 0 00-.219-.041l-1.113.763a.155.155 0 00-.044.216l.7 1.072a.16.16 0 00.217.049l1.178-.74a.16.16 0 00.046-.237z"/><path d="M3.941 13.543l-.76-1.085a.16.16 0 00-.219-.039l-1.113.75a.157.157 0 00-.044.219l.7 1.07a.155.155 0 00.216.049l1.178-.74a.157.157 0 00.046-.224z"/><path d="M2.202 14.797l-.807-1.152a.118.118 0 00-.162-.028l-1.18.794a.121.121 0 00-.033.165l.74 1.137a.121.121 0 00.162.036l1.247-.773a.113.113 0 00.034-.178z"/><path d="M23.063 2.902l-.7-.992a.258.258 0 00-.35-.062l-2.727 1.91a.258.258 0 00-.067.345l.657 1.015a.258.258 0 00.358.07l2.768-1.936a.258.258 0 00.061-.35z"/><path d="M5.251 15.402l-.856-1.209a.116.116 0 00-.165-.028l-2.943 2.062a.116.116 0 00-.031.16l.8 1.245a.118.118 0 00.167.034l2.992-2.1a.121.121 0 00.036-.164z"/><path d="M14.614 6.157l-.789-1.155a.119.119 0 00-.162-.031L7.127 9.383a.119.119 0 00-.034.162l.807 1.237a.119.119 0 00.168.033l6.515-4.495a.119.119 0 00.031-.165z"/></g><path fill="#464a5f" d="M212.77 71.935l-.65-.928a.258.258 0 00-.35-.064l-.959.649a.258.258 0 00-.072.348l.6.915a.258.258 0 00.348.077l1.015-.639a.258.258 0 00.072-.358z"/><path fill="#464a5f" d="M211.033 73.131l-.649-.925a.258.258 0 00-.348-.064l-.961.647a.258.258 0 00-.072.348l.6.915a.258.258 0 00.348.077l1.015-.637a.258.258 0 00.072-.361z"/><path fill="#464a5f" d="M209.228 74.389l-.649-.925a.258.258 0 00-.351-.064l-.959.649a.258.258 0 00-.072.348l.6.915a.258.258 0 00.348.075l1.015-.637a.258.258 0 00.072-.361z"/><path fill="#464a5f" d="M207.388 75.659l-.649-.928a.258.258 0 00-.348-.064l-.961.65a.258.258 0 00-.067.361l.6.915a.258.258 0 00.348.077l1.013-.639a.258.258 0 00.07-.371z"/><path fill="#464a5f" d="M205.553 76.93l-.649-.925a.258.258 0 00-.348-.064l-.961.647a.258.258 0 00-.07.348l.593.915a.258.258 0 00.348.077l1.016-.639a.258.258 0 00.072-.358z"/><path fill="#464a5f" d="M203.798 78.317l-.807-1.149a.116.116 0 00-.162-.031l-1.18.8a.116.116 0 00-.034.162l.74 1.137a.119.119 0 00.162.036l1.247-.773a.119.119 0 00.034-.178z"/><path fill="#464a5f" d="M201.963 79.588l-.807-1.149a.118.118 0 00-.165-.031l-1.178.8a.116.116 0 00-.034.162l.74 1.139a.116.116 0 00.162.034l1.247-.773a.121.121 0 00.034-.178z"/><path fill="#464a5f" d="M200.337 80.714l-.807-1.152a.119.119 0 00-.162-.028l-1.18.783a.121.121 0 00-.034.165l.74 1.137a.121.121 0 00.162.036l1.247-.773a.119.119 0 00.034-.168z"/><path fill="#464a5f" d="M198.522 81.973l-.807-1.142a.119.119 0 00-.162-.028l-1.18.794a.119.119 0 00-.034.165l.74 1.137a.121.121 0 00.162.036l1.247-.773a.119.119 0 00.034-.189z"/><path fill="#464a5f" d="M196.754 83.192l-.807-1.15a.116.116 0 00-.162-.031l-1.18.8a.116.116 0 00-.033.162l.74 1.137a.116.116 0 00.162.036l1.247-.773a.119.119 0 00.034-.178z"/><path fill="#464a5f" d="M194.991 84.415l-.807-1.152a.119.119 0 00-.162-.028l-1.181.794a.121.121 0 00-.033.165l.74 1.137a.121.121 0 00.162.036l1.247-.773a.119.119 0 00.034-.178z"/><path fill="#464a5f" d="M193.229 85.633l-.807-1.15a.116.116 0 00-.162-.031l-1.18.8a.116.116 0 00-.034.162l.74 1.137a.116.116 0 00.162.036l1.247-.773a.118.118 0 00.033-.178z"/><path fill="#464a5f" d="M211.607 70.265l-.649-.928a.258.258 0 00-.348-.064l-.961.649a.258.258 0 00-.07.348l.593.915a.258.258 0 00.348.077l1.015-.639a.258.258 0 00.072-.358z"/><path fill="#464a5f" d="M209.069 66.59l-.649-.925a.258.258 0 00-.348-.064l-.961.647a.258.258 0 00-.07.348l.6.915a.258.258 0 00.345.077l1.016-.637a.258.258 0 00.072-.361z"/><path fill="#464a5f" d="M209.878 71.453l-.65-.93a.258.258 0 00-.348-.064l-.961.647a.258.258 0 00-.07.348l.6.915a.258.258 0 00.345.077l1.015-.637a.258.258 0 00.069-.356z"/><path fill="#464a5f" d="M208.064 72.709l-.639-.925a.258.258 0 00-.348-.064l-.961.647a.258.258 0 00-.07.35l.593.915a.258.258 0 00.348.075l1.016-.637a.258.258 0 00.062-.361z"/><path fill="#464a5f" d="M206.229 73.982l-.649-.928a.258.258 0 00-.351-.064l-.959.649a.258.258 0 00-.072.348l.6.915a.258.258 0 00.348.077l1.015-.639a.258.258 0 00.072-.358z"/><path fill="#464a5f" d="M207.38 67.845l-.649-.93a.258.258 0 00-.348-.064l-.961.647a.258.258 0 00-.07.348l.6.915a.258.258 0 00.345.077l1.016-.637a.258.258 0 00.067-.356z"/><path fill="#464a5f" d="M205.566 69.102l-.65-.928a.258.258 0 00-.348-.064l-.961.649a.258.258 0 00-.072.348l.6.915a.258.258 0 00.348.077l1.015-.639a.258.258 0 00.072-.358z"/><path fill="#464a5f" d="M203.731 70.374l-.65-.925a.258.258 0 00-.351-.064l-.959.647a.258.258 0 00-.072.348l.6.918a.258.258 0 00.348.077l1.013-.639a.258.258 0 00.075-.361z"/><path fill="#464a5f" d="M204.391 75.252l-.649-.925a.258.258 0 00-.348-.064l-.961.642a.258.258 0 00-.07.348l.6.915a.258.258 0 00.345.077l1.015-.639a.258.258 0 00.068-.354z"/><path fill="#464a5f" d="M202.556 76.523l-.649-.925a.258.258 0 00-.348-.064l-.961.66a.258.258 0 00-.072.348l.6.915a.258.258 0 00.348.077l1.015-.637a.258.258 0 00.072-.374z"/><path fill="#464a5f" d="M200.801 77.908l-.807-1.149a.116.116 0 00-.162-.031l-1.17.8a.116.116 0 00-.034.162l.74 1.137a.116.116 0 00.163.036l1.247-.773a.121.121 0 00.023-.178z"/><path fill="#464a5f" d="M199.176 79.028l-.807-1.152a.121.121 0 00-.165-.028l-1.18.794a.124.124 0 00-.034.165l.742 1.137a.119.119 0 00.162.036l1.245-.773a.116.116 0 00.036-.178z"/><path fill="#464a5f" d="M197.355 80.296l-.807-1.152a.118.118 0 00-.162-.028l-1.18.794a.121.121 0 00-.034.165l.74 1.137a.121.121 0 00.162.036l1.247-.773a.113.113 0 00.034-.178z"/><path fill="#464a5f" d="M195.594 81.515l-.8-1.149a.116.116 0 00-.162-.031l-1.18.8a.119.119 0 00-.034.162l.74 1.137a.119.119 0 00.162.036l1.247-.773a.116.116 0 00.026-.178z"/><path fill="#464a5f" d="M206.855 70.966l-.647-.928a.258.258 0 00-.351-.064l-.961.649a.258.258 0 00-.07.348l.6.915a.258.258 0 00.348.075l1.013-.637a.258.258 0 00.072-.358z"/><path fill="#464a5f" d="M205.02 72.237l-.649-.925a.258.258 0 00-.348-.067l-.961.65a.258.258 0 00-.07.348l.6.915a.258.258 0 00.345.077l1.016-.639a.258.258 0 00.072-.358z"/><path fill="#464a5f" d="M203.185 73.507l-.657-.923a.258.258 0 00-.35-.064l-.938.644a.258.258 0 00-.072.348l.6.915a.258.258 0 00.348.077l1.015-.637a.258.258 0 00.059-.361z"/><path fill="#464a5f" d="M201.347 74.778l-.649-.925a.258.258 0 00-.348-.064l-.961.647a.258.258 0 00-.07.348l.6.915a.258.258 0 00.345.077l1.016-.637a.258.258 0 00.072-.361z"/><path fill="#464a5f" d="M199.594 76.165l-.807-1.15a.118.118 0 00-.165-.031l-1.18.8a.119.119 0 00-.034.162l.74 1.139a.119.119 0 00.165.034l1.245-.773a.119.119 0 00.036-.178z"/><path fill="#464a5f" d="M197.968 77.29l-.807-1.15a.116.116 0 00-.162-.031l-1.173.794a.121.121 0 00-.034.165l.74 1.137a.121.121 0 00.162.036l1.247-.773a.119.119 0 00.026-.178z"/><path fill="#464a5f" d="M196.148 78.551l-.807-1.152a.121.121 0 00-.165-.028l-1.178.794a.121.121 0 00-.034.165l.74 1.137a.119.119 0 00.162.036l1.247-.773a.119.119 0 00.034-.178z"/><path fill="#464a5f" d="M194.386 79.771l-.807-1.149a.119.119 0 00-.165-.031l-1.178.8a.116.116 0 00-.033.162l.74 1.139a.116.116 0 00.162.034l1.247-.773a.121.121 0 00.034-.178z"/><path fill="#464a5f" d="M193.832 82.737l-.807-1.152a.121.121 0 00-.165-.028l-1.18.794a.121.121 0 00-.034.165l.74 1.137a.121.121 0 00.162.036l1.247-.773a.116.116 0 00.036-.178z"/><path fill="#464a5f" d="M192.068 83.956l-.807-1.149a.119.119 0 00-.165-.031l-1.18.8a.118.118 0 00-.033.162l.74 1.137a.119.119 0 00.165.036l1.245-.773a.116.116 0 00.036-.178z"/><path fill="#464a5f" d="M194.834 76.655l-.76-1.085a.16.16 0 00-.219-.039l-1.121.75a.16.16 0 00-.044.219l.7 1.072a.16.16 0 00.219.046l1.175-.74a.157.157 0 00.054-.224z"/><path fill="#464a5f" d="M193.072 77.869l-.76-1.082a.157.157 0 00-.219-.041l-1.113.753a.157.157 0 00-.044.216l.7 1.072a.162.162 0 00.219.049l1.178-.74a.162.162 0 00.044-.227z"/><path fill="#464a5f" d="M191.304 79.095l-.773-1.085a.157.157 0 00-.216-.039l-1.116.75a.16.16 0 00-.044.219l.7 1.072a.16.16 0 00.219.046l1.178-.74a.157.157 0 00.057-.224z"/><path fill="#464a5f" d="M189.571 80.35l-.807-1.152a.121.121 0 00-.165-.028l-1.18.794a.121.121 0 00-.031.165l.74 1.137a.119.119 0 00.162.036l1.247-.773a.118.118 0 00.034-.178z"/><path fill="#464a5f" d="M210.432 68.461l-.688-.995a.258.258 0 00-.351-.062l-2.742 1.91a.258.258 0 00-.067.345l.66 1.015a.258.258 0 00.358.07l2.765-1.936a.258.258 0 00.065-.347z"/><path fill="#464a5f" d="M192.617 80.953l-.856-1.209a.116.116 0 00-.165-.028l-2.943 2.062a.119.119 0 00-.031.162l.807 1.242a.119.119 0 00.168.034l2.992-2.1a.121.121 0 00.028-.163z"/><path fill="#464a5f" d="M201.981 71.709l-.773-1.146a.121.121 0 00-.165-.034l-6.533 4.407a.116.116 0 00-.033.162l.8 1.237a.119.119 0 00.168.033l6.515-4.495a.119.119 0 00.021-.164z"/><path d="M202.012 67.77l-3.474-5.049a.644.644 0 00-.892-.17l-9.569 6.425a.647.647 0 00-.173.9l3.541 5.193a.644.644 0 00.9.17l9.5-6.575a.642.642 0 00.165-.894z" opacity=".1"/><path fill="#aeb1be" d="M202.177 67.802l-3.474-5.049a.647.647 0 00-.892-.17l-9.557 6.43a.644.644 0 00-.175.9l3.531 5.188a.644.644 0 00.9.17l9.508-6.575a.642.642 0 00.16-.894z"/><path fill="#00a6e1" d="M223.716 75.961l-7.371-2.459-23.642 16.423 7.317 2.384a1.34 1.34 0 001.183-.175l22.58-15.7a.258.258 0 00-.067-.472z"/></g></svg>