<svg xmlns="http://www.w3.org/2000/svg" xmlns:xlink="http://www.w3.org/1999/xlink" width="308.557" height="220" viewBox="0 0 280.838 220"><defs><linearGradient id="a" x1=".5" x2=".5" y1="1" gradientUnits="objectBoundingBox"><stop offset="0" stop-color="gray" stop-opacity=".251"/><stop offset=".54" stop-color="gray" stop-opacity=".122"/><stop offset="1" stop-color="gray" stop-opacity=".102"/></linearGradient><linearGradient id="b" x1=".5" x2=".5" y1="1.009" y2="-.002" xlink:href="#a"/><style>.b{fill:#88bd45}.c{fill:#444053}.d,.e,.n{fill:none}.d,.e{stroke:#444053}.d,.e,.m,.n{stroke-miterlimit:10}.e{stroke-width:.75px}.m,.n{opacity:.2}.g,.p,.q,.r{fill:#ff6a00}.g,.v{opacity:.1}.i{fill:#fff}.m,.n{stroke:#5a5773}.m{fill:#f4f4f7}.n{stroke-dasharray:12}.q{stroke:#ff6a00}.r{opacity:.5}.u{fill:#2d293d}.w{fill:#575988}.x{opacity:.05}.z{fill:#ffcdd3}.aa{fill:#dce6f2}.ab{fill:#656691}.ad{fill:#ffd037}.af{fill:#9d9cb5}</style></defs><g><circle cx="110" cy="110" r="110" transform="translate(34.01)" style="fill:#447bbd;opacity:.16"/><path d="M51.514 19.428s-.907 3.539 5.432 13.541 5.9 11.42 5.533 14.28-.344 4.426-4.027 7.939c0 0-11.035 3.623-12.509 5.882s2.437 10.472 2.437 10.472 3.758 9.976-9.736 13.8c0 0-10.558.014-13.486 2.341 0 0 1.133-4.049-2.389-10S24.1 65.928 24.1 65.928s3.907-2.151 6.387-2.317 3.267-1.3 1.672-4.152c0 0-2.307-1.2-5.5 1.374s-5.581 4.412-8.364 4.2-6.753-1.39-9.358-6.541-3.979-12.441-5.93-15.764S0 38.673 0 38.673s2.466 1.872 10.979-4.482 12.957-3.635 12.957-3.635 6.842 1.838 7.939 13.9c0 0 1.989 11.5 6.033 4.532 0 0-1.369-3.921-4.1-9.695s4.585-11.208 9.945-13.027a14.58 14.58 0 007.761-6.838z" class="b"/><path d="M7.455 41.22l-.024-.06c1.684-.7 9.452 3.505 15.663 7.159l-.034.055c-8.761-5.152-14.303-7.692-15.605-7.154z" class="c"/><path d="M22.933 48.296L23 48.26c4.96 2.923 10.912 6.632 15.37 9.644.423.286.864.57 1.313.837l-.07.113c-.45-.269-.893-.553-1.318-.842-4.452-3.009-10.404-6.795-15.362-9.716z" class="c"/><path d="M39.484 58.782l.111-.087c8.942 5.367 21.521 4.09 21.632 4.09l-1.388 1.576c-.111.004-11.351-.176-20.355-5.579z" class="c"/><path d="M48.156 27.513s-2.928 8.153-.7 13.9-2.406 19.979-2.406 19.979-1.537 5.988-4.01 7.484c0 0-3.587 4.453-5.689 4.963s-6.938 5.028-6.81 7.527" class="d"/><path d="M52.116 28.088s-2.064 4.186-5.136 4.15" class="d"/><path d="M56.254 33.53s-1.249 5.757-8.983 7.366" class="d"/><path d="M59.475 42.109a12.4 12.4 0 01-11.482 5.12" class="d"/><path d="M58.794 53.033s-6.849 4.487-12.028 2.023" class="d"/><path d="M43.316 28.088s1.79 3.786 3.77 2.646" class="d"/><path d="M36.763 33.84s2.406 5.081 9.933 4.188" class="d"/><path d="M36.037 41.481s6.62 4.022 11.99 2.932" class="d"/><path d="M39.522 49.624s5.239 4.179 7.7 3.219" class="d"/><path d="M38.295 52.739s1.417 4.39.024 5.22" class="d"/><path d="M33.655 59.323s2.7-2.682 1.949-3.175" class="d"/><path d="M28.692 37.042s2.365 11.232-.707 14.263" class="d"/><path d="M18.805 63.767s10.7-6.873 11.636-10.934" class="d"/><path d="M12.606 58.922s10.068-4.693 12.8-9.19" class="d"/><path d="M19.365 33.443s4.871 8.126 1.828 13.813" class="e"/><path d="M9.322 51.542s7.457-3.019 8.966-5.928" class="e"/><path d="M10.895 35.921s2.495 4.6 1.333 6.6" class="e"/><path d="M36.741 63.134s6.736-.9 7.458.856" class="d"/><path d="M47.512 76.937s-.363-7.366-4.571-10.214" class="d"/><path d="M29.041 66.098s7.07.835 9.57 5.446" class="d"/><path d="M40.899 82.28a9.622 9.622 0 00-4.073-9.211" class="d"/><path d="M23.948 72.617s5.865-.3 9.007 2.487" class="d"/><path d="M32.031 83.284s-.548-4.282-2.078-5.093" class="d"/><path d="M134.601 56.81c-14.6 7-30.57 10.051-46.14 12.4s-31.286 4.165-46.63 9.083c-9.867 3.164-20.3 8.287-25.16 16.246-4.689 7.643-2.956 15.792-.476 22.9 1.863 5.341 4.258 10.745 9.356 14.01 3.545 2.266 8.146 3.328 12.009 5.257 13.441 6.7 15.621 22.431 13.454 36.9-1.017 6.786-2.762 13.661-2.738 20.312s2.038 13.242 7.579 17.171c5.492 3.894 13.739 4.685 21.821 4.056 16.422-1.267 32.934-7.754 48.66-14.725 34.823-15.43 68.179-33.826 101.459-52.176 12.31-6.791 24.676-13.615 36.01-21.658 6.293-4.467 12.507-9.6 15.413-15.737 3.7-7.792.878-16.282-6.583-19.788-12.507-5.881-33.418 1.873-44.2-5.807-5.958-4.228-6.735-11.965-5.764-19.227 2.081-15.6 10.682-32.8 4.117-46.009-4.508-9.07-16.371-14.348-29.325-13.042-13.572 1.369-28.612 9.868-32.657 21.326-4.161 11.798-17.312 22.316-30.205 28.508z" style="opacity:.2;fill:#00a6e1"/><ellipse cx="24.083" cy="5.949" class="g" rx="24.083" ry="5.949" transform="translate(130.562 194.61)"/><rect width="228.616" height="129.503" rx="12.49" transform="translate(32.394 50.059)" style="fill:url(#a)"/><rect width="227.916" height="127.251" class="i" rx="12.49" transform="translate(32.758 51.88)"/><rect width="227.916" height="127.251" class="i" rx="12.49" transform="translate(32.758 51.88)"/><path style="stroke:#e2e2e2;fill:#fff" d="M32.758 51.88h227.916v127.251H32.758z"/><path d="M259.518 50.42h-225.6a1.157 1.157 0 00-1.157 1.157v4.9H260.68v-4.9a1.157 1.157 0 00-1.162-1.157z" style="fill:#5a5773"/><g transform="translate(35.745 51.88)"><circle cx="1.564" cy="1.564" r="1.564" class="i"/><circle cx="1.564" cy="1.564" r="1.564" class="i" transform="translate(4.21)"/><circle cx="1.564" cy="1.564" r="1.564" class="i" transform="translate(8.42)"/></g><rect width="190.046" height="73.132" rx="10.19" transform="translate(48.014 84.643)" style="opacity:.187;fill:#ff6a00"/><rect width="181.046" height="73.132" class="i" rx="10.19" transform="matrix(1 .025 -.025 1 52.648 77.494)"/><path d="M81.075 93.012l132.387 3.365" class="m"/><path d="M80.813 103.354l132.387 3.365" class="m"/><path d="M80.551 113.693l132.387 3.365" class="m"/><path d="M80.286 124.035l132.39 3.365" class="m"/><path d="M92.319 121.533l-.334 13.147" class="n"/><path d="M80.024 134.377l132.387 3.363" class="m"/><path d="M106.957 135.06l.498-19.599" class="n"/><path d="M194.535 113.912a8.185 8.185 0 01-6.077-2.509 23.8 23.8 0 01-3.548-4.946 95.603 95.603 0 00-1-1.653 17.911 17.911 0 00-5.615-6 10.692 10.692 0 00-2.389-1.092 1.688 1.688 0 01-1.518 1.032h-.079a1.684 1.684 0 01-1.624-1.46 7.325 7.325 0 00-2.216.455 13.535 13.535 0 00-5.146 4.169 95.73 95.73 0 00-5.028 6.317q-.481.657-.962 1.321a36.065 36.065 0 01-5.774 6.794c-3.074 2.608-6.772 3.731-9.892 3.007-3.743-.868-6.421-4.176-8.333-6.962-.241-.361-.481-.722-.741-1.09-1.785-2.646-3.63-5.381-6.353-6.976a10.754 10.754 0 00-11.788.859 21.223 21.223 0 00-3.922 4.659c-.395.573-.8 1.164-1.224 1.732-2.165 2.908-4.347 4.487-6.7 4.828a12.736 12.736 0 01-2.807 0c-.621-.043-1.263-.091-1.891-.075a9.091 9.091 0 00-7.595 4.732l-.332 13.847 104 2.646.58-22.91a1.443 1.443 0 01-2.026-.722z" style="opacity:.2;fill:#88bd45"/><path d="M123.157 102.952l-.825 32.5" class="n"/><path d="M137.661 115.387l-.52 20.441" class="n"/><path d="M152.085 117.785l-.467 18.41" class="n"/><path d="M166.083 101.309l-.895 35.231" class="n"/><path d="M180.33 100.08l-.936 36.823" class="n"/><path d="M196.109 113.924l-.597 23.388" class="n"/><circle cx="2.443" cy="2.443" r="2.443" class="p" transform="translate(193.679 111.166)"/><path d="M173.39 97.327a1 1 0 00.022.19c-.164 0-.327 0-.481.012a7.357 7.357 0 00-2.218.455 13.561 13.561 0 00-5.148 4.169 96.12 96.12 0 00-5.03 6.315c-.32.438-.635.88-.962 1.323a36.319 36.319 0 01-5.774 6.794c-3.077 2.605-6.777 3.729-9.9 3-3.738-.866-6.416-4.176-8.34-6.962-.241-.358-.5-.722-.741-1.09-1.787-2.646-3.635-5.381-6.358-6.976a10.754 10.754 0 00-11.788.859 21.733 21.733 0 00-3.916 4.652c-.4.573-.806 1.167-1.227 1.732-2.165 2.908-4.349 4.487-6.7 4.828a12.887 12.887 0 01-2.807 0 18.39 18.39 0 00-1.893-.075 9.074 9.074 0 00-7.888 5.321l-.443-.192a9.574 9.574 0 018.316-5.61 17.931 17.931 0 011.944.077 12.524 12.524 0 002.7 0c2.22-.32 4.309-1.838 6.385-4.638.416-.561.823-1.15 1.217-1.72a21.881 21.881 0 014.02-4.756 11.092 11.092 0 0112.331-.9c2.819 1.653 4.7 4.434 6.517 7.126.241.361.481.722.739 1.085 1.864 2.714 4.462 5.935 8.049 6.765 2.973.69 6.517-.395 9.478-2.9a35.763 35.763 0 005.689-6.707q.473-.664.962-1.326a102.8 102.8 0 015.052-6.348 13.879 13.879 0 015.343-4.3 7.879 7.879 0 012.391-.481c.161 0 .327-.014.481 0a1.156 1.156 0 00-.022.278z" class="q"/><path d="M196.207 113.835c-2.822 1.054-5.8-.52-7.5-2.189a23.81 23.81 0 01-3.548-4.948c-.325-.544-.662-1.109-1-1.65a17.879 17.879 0 00-5.617-6 10.728 10.728 0 00-2.389-1.09 5.85 5.85 0 00-.481-.135 1.12 1.12 0 00.118-.469c.159.041.315.087.481.135a11.147 11.147 0 012.519 1.15 18.289 18.289 0 015.774 6.151c.344.548.681 1.114 1.01 1.665a23.336 23.336 0 003.471 4.847c1.595 1.568 4.388 3.058 7 2.083z" class="q"/><path d="M176.218 95.617a2.346 2.346 0 00-3.94 1.33 2.273 2.273 0 00-.027.4 1.189 1.189 0 00.02.267 2.34 2.34 0 00.7 1.374 2.3 2.3 0 001.557.668h.11a2.339 2.339 0 001.641-.715 2.4 2.4 0 00.471-.715 2.31 2.31 0 00.167-.652 1.86 1.86 0 000-.3 2.339 2.339 0 00-.699-1.657z" class="p"/><rect width="4.908" height="2.165" class="r" rx=".9" transform="matrix(1 .025 -.025 1 81.127 90.855)"/><rect width="4.908" height="2.165" class="p" rx=".9" transform="matrix(1 .025 -.025 1 80.861 101.194)"/><rect width="4.908" height="2.165" class="r" rx=".9" transform="matrix(1 .025 -.025 1 80.598 111.538)"/><rect width="4.908" height="2.165" class="r" rx=".9" transform="matrix(1 .025 -.025 1 80.334 121.877)"/><rect width="4.908" height="2.165" class="r" rx=".9" transform="matrix(1 .025 -.025 1 80.071 132.219)"/><rect width="4.908" height="2.165" class="r" rx=".9" transform="matrix(1 .025 -.025 1 89.172 136.782)"/><rect width="4.908" height="2.165" class="r" rx=".9" transform="matrix(1 .025 -.025 1 104.443 137.171)"/><rect width="4.908" height="2.165" class="p" rx=".9" transform="rotate(1.718 -4549.294 4046.56)"/><rect width="4.908" height="2.165" class="r" rx=".9" transform="matrix(1 .025 -.025 1 134.626 137.94)"/><rect width="4.908" height="2.165" class="r" rx=".9" transform="matrix(1 .025 -.025 1 149.102 138.311)"/><rect width="4.908" height="2.165" class="p" rx=".9" transform="matrix(1 .025 -.025 1 162.671 138.654)"/><rect width="4.908" height="2.165" class="p" rx=".9" transform="matrix(1 .025 -.025 1 176.978 139.018)"/><rect width="4.908" height="2.165" class="p" rx="1.083" transform="rotate(1.718 -4585.993 6488.684)"/><rect width="54.666" height="5.737" rx="2.869" transform="translate(39.955 62.891)" style="fill:#5a5773;opacity:.2"/><path d="M559.766 407.034a44.906 44.906 0 01-.659-2.718 5.662 5.662 0 00-.741-2.754l-.014-.4-.113-2.935a10 10 0 01.681-1.566c.5-.943-.164-4.3-.164-4.3s-2.143-4.689-1.783-7.729-4.537-13.267-4.537-13.267a13.113 13.113 0 01.308-2.985 2.444 2.444 0 00.034-.625v-.055a23.035 23.035 0 00-1.862-5.665l-.063-7.128a20.927 20.927 0 00-1.015-9.81c-.647-1.944-1.075-3.5-1.354-4.71-.031-.135-.063-.267-.089-.392 3.368-.647 5.92-1.174 5.92-1.174s-2.273-8.119-3.652-9.5-2.61-5.848-2.61-5.848-.912-5.762.135-7.5a11.288 11.288 0 001.095-4.657s2.468-1.944 2.755-2.774a13.609 13.609 0 00.707-3.671c-.036-.974-.39-1.831-.3-2.348s-.835-2.43-.447-3.368a2.541 2.541 0 00.135-.895v-.038a12.5 12.5 0 00-.315-2.394 6.8 6.8 0 00-2.564-1.249l-.065-.217-.168-.58a2.835 2.835 0 00-.255-.14l-.014-.209-.055-.83.325-1.876c.654-3.284-3.7-3.608-3.7-3.608a2.273 2.273 0 00-1.273-1.03c-.885-.274.043 4.9.464 5.213a19.872 19.872 0 011.816 2.617l.077.128a2.267 2.267 0 00-.19.216l.209 1.123.031.171a4.742 4.742 0 00-.647 1.2 2.531 2.531 0 01.707 1.821 5.656 5.656 0 00.349 2.242c-.048-.053-.63-.635-1.181-.467s-2.093.7-2.093.7-1.157.241-1.042.5-.741 1.414-.741 1.414l-3.243-2.846c-.034-.087-.07-.173-.1-.265a7.3 7.3 0 01-.322-1.287 7.364 7.364 0 00.989-.358 2.165 2.165 0 00.844-.587 3.387 3.387 0 00.452-1.369 20.259 20.259 0 011.061-2.632 8.436 8.436 0 00.443-4.655 3.086 3.086 0 00-.532-1.342c-.539-.683-1.475-.933-2.165-1.467s-1.164-1.374-1.965-1.766a3.757 3.757 0 00-2.382-.111 12.774 12.774 0 00-4.388 1.778 2.276 2.276 0 01-1.463.544 1.983 1.983 0 01-1.1-.743.06.06 0 01.012-.043l-.036-.041a5.511 5.511 0 00-.395 2.36 2.459 2.459 0 00.029.375.476.476 0 00.012.13.811.811 0 010 .108.649.649 0 01-.017.166 1.218 1.218 0 01-.277.435 2.5 2.5 0 00-.241.356.411.411 0 01.038-.128 1.847 1.847 0 00-.286 1 .979.979 0 00.262.7 3.4 3.4 0 00.527.392 5.8 5.8 0 00-.053 1.046 6.043 6.043 0 003.147 5.052l.116.265a7.514 7.514 0 01.7 3.39 1.5 1.5 0 01-.029.241 1.52 1.52 0 00-.108.135s-5.165.241-6.423-.806-2.966 2.807-2.966 2.807-1.838.431-2.22.087-2.543.046-2.543.046a4.679 4.679 0 00-3.274-1.054 9.534 9.534 0 00-2.418-1.227l-.058-.019a2.661 2.661 0 00-1.172-.1 23.745 23.745 0 01-3.4-3.1c-.784-1.1-4.474-5.143-4.491-5.16l-.017-.2-.063-.606a2.464 2.464 0 01-.315.039q-.031-.089-.079-.209a11.583 11.583 0 00-.816-1.684s-.029-.77.188-.962a13.222 13.222 0 00-.209-3.007s-2.495-5.264-4.393-1.188c0 0-3.777 2.735-.407 5.62 0 0 1.323.577 1.525 1.068.132.32.609 1.2.929 1.795l.142.265-.036.031.067.5.026.195c-.6.373-1 .734-.89.989a5.754 5.754 0 01.423 1.369s4.715 5.463 5.391 7.847c0 0 12.341 6.707 16.33 7.068l-.549 3.608a29.134 29.134 0 00-.048 2.925c.082.76-.313 4.27-.313 4.27s-.481 5.15-1.044 5.889-.332 3.808-.332 3.808a25.793 25.793 0 01-.625 4.385 11.168 11.168 0 000 4.359s-1.833 4.689 2.86 1.378c0 0 2.36-.241 5.078-.435v.272c0 .351.014.722.026 1.131.065 2.646.19 6.281.414 9.028.4 4.857 2.252 14.434 2.252 14.434l.185 4.838a6.582 6.582 0 00-.084 1.388 8.988 8.988 0 001.489 4.792l.5 3.214a12.137 12.137 0 011.015 3.368 1.773 1.773 0 01-.024.31 2.216 2.216 0 00-.024.5 27.209 27.209 0 001.025 4.939s.19 3.531.722 3.717c.459.159-.527 2.059-.82 2.608a.514.514 0 00-.024-.1l-.06.108a2.483 2.483 0 00-.132.9 1.287 1.287 0 00.635 1.22c1.03.577 1.59 1.068.743 1.306a9.224 9.224 0 00-.924.241l-.048-.115a.563.563 0 00-.306.606 2.6 2.6 0 00.361 1.186 12.754 12.754 0 001.535 2.557l.4-.063a2.023 2.023 0 01-.219.447 1.684 1.684 0 01-.577.553 1.842 1.842 0 01-.722.277 2.038 2.038 0 00-1.472.787 1.56 1.56 0 00.279 2.423l3.835 1.16s6.541.6 6.139-.852-.659-2.718-.659-2.718a5.8 5.8 0 00-.628-2.569 2.937 2.937 0 00-.241-.373l.229-.036s.354-3.245.962-3.883c.14-.149.168-.257.132-.342.058-.178-.111-.274-.327-.325-.014.043-.029.084-.041.13a3.042 3.042 0 00-.618-.043s-.277-1.684.387-2.324a.642.642 0 00.113-.508 2.74 2.74 0 00-.1-.686s-.014.026-.024.041a25.044 25.044 0 00-1.677-3.935 4.878 4.878 0 01.289-2.165c.4-.63-.375-8.348-.375-8.348a25.328 25.328 0 00-.529-5.468 6.177 6.177 0 01.426-3.813.525.525 0 00-.017-.111.117.117 0 00.012-.026s-.031-.241-.084-.587v.036c-.144-.986-.416-2.771-.6-3.594-.257-1.169-.209-6.815-.209-6.815l.861-2.444 1.852 4.09 2.011 5.463a4.7 4.7 0 011 2.317v.544a3.293 3.293 0 00.625 1.951s.577 2.593 1.342 3.231a2.986 2.986 0 01.818 1.925 32.718 32.718 0 001.494 4.4 6.846 6.846 0 01.481 2.562v.137s.178 1.35.217 2.49v.375a4.01 4.01 0 01-.075.926.08.08 0 01-.014.053v-.192a9.705 9.705 0 00-.18 2.372 6.087 6.087 0 001.16 3.885c1.492 1.585 2.384 1.345 2.384 1.345s-.609 2.076-1.443 2.519a.427.427 0 00-.087.06.688.688 0 00-.026-.118.994.994 0 00-.219.772 5.48 5.48 0 001.164 3 1.7 1.7 0 00.722.39 1.223 1.223 0 01-.13.087 2.567 2.567 0 01-.286.149 1.386 1.386 0 01-.428.13 2.026 2.026 0 00-1.47.787 1.557 1.557 0 00.277 2.42l3.837 1.16s6.545.587 6.143-.861z" transform="translate(-389.642 -207.481)" style="fill:url(#b)"/><path d="M145.356 202.931l-3.712-1.155a1.59 1.59 0 01-.272-2.422 1.949 1.949 0 011.422-.787 1.717 1.717 0 00.69-.274 1.645 1.645 0 00.56-.553 2.725 2.725 0 00.363-1.431s3.977-1.333 5.122-.2a2.961 2.961 0 01.515.7 5.968 5.968 0 01.613 2.564s.253 1.27.642 2.718-5.943.84-5.943.84z" class="u"/><path d="M163.223 200.436l-3.714-1.164a1.592 1.592 0 01-.272-2.422 1.937 1.937 0 011.422-.784 1.305 1.305 0 00.414-.13 2.266 2.266 0 00.279-.147 2.317 2.317 0 00.921-1.985s3.977-1.333 5.124-.2a2.931 2.931 0 01.4.508 5.825 5.825 0 01.722 2.759s.255 1.273.642 2.718-5.938.847-5.938.847z" class="u"/><path d="M149.53 196.101a2.963 2.963 0 01.515.7l-6 .931a2.725 2.725 0 00.363-1.431s3.977-1.335 5.122-.2z" class="v"/><path d="M167.794 194.113l.043 1.128c-.876 1.581-5.425 1.417-6.772.693a2.275 2.275 0 00.279-.147 2.317 2.317 0 00.921-1.985s3.977-1.333 5.124-.2a2.931 2.931 0 01.405.511z" class="v"/><path d="M168.323 189.223a10.054 10.054 0 00-.657 1.564l.156 4.046c-.962 1.73-6.31 1.371-7.063.481s-1.612-3.272-.808-3.714 1.391-2.514 1.391-2.514-.864.241-2.309-1.347-1.176-5.24-.962-6.12a18.787 18.787 0 00-.149-3.791 7.585 7.585 0 00-.462-2.7 33.413 33.413 0 01-1.443-4.407 3.032 3.032 0 00-.791-1.924c-.743-.642-1.3-3.233-1.3-3.233a3.368 3.368 0 01-.6-2.182 4.478 4.478 0 00-.974-2.632l-1.953-5.463-1.8-4.09-.83 2.444s-.038 5.644.212 6.813.678 4.284.678 4.284a6.305 6.305 0 00-.419 3.811 26.068 26.068 0 01.517 5.47s.76 7.717.373 8.348a4.989 4.989 0 00-.274 2.165s2.273 4.426 1.631 5.066-.373 2.321-.373 2.321 1.443-.055.842.585-.926 3.883-.926 3.883l-6.166.962a12.86 12.86 0 01-1.489-2.56c-.892-1.864.089-1.7.9-1.925s.277-.722-.722-1.306-.481-1.982-.481-1.982 1.388-2.567.868-2.752-.707-3.717-.707-3.717-1.186-4.162-.962-5.292-.962-3.811-.962-3.811l-.481-3.214a8.876 8.876 0 01-1.386-6.062l-.192-4.97s-1.8-9.574-2.2-14.434c-.241-3.113-.378-7.366-.435-10.022a257.953 257.953 0 01-.046-2.478l22.041-3.156a18.328 18.328 0 00.527 3.272c.272 1.2.688 2.766 1.318 4.713a21.628 21.628 0 01.994 9.81l.07 7.128s2.129 4.689 1.783 6.344a13.658 13.658 0 00-.286 2.983s4.754 10.231 4.41 13.272 1.732 7.729 1.732 7.729.641 3.361.165 4.304z" class="w"/><path d="M154.645 163.023l6.7-1.157s-3.654 4.041-6.7 1.157z" class="x"/><path d="M160.12 155.323s.322 2.372-1.1 3.325c-.004 0 2.594-.51 1.1-3.325z" class="v"/><path d="M159.415 147.757s-5.454 4.852-7.515 4.547 7.515-4.547 7.515-4.547z" class="v"/><path d="M146.379 165.52s-4.244 1.133-4.306 2.858 4.306-2.858 4.306-2.858z" class="v"/><path d="M148.142 186.844s-6 1.359-4.256 2.062a28.918 28.918 0 004.588 1.2s1.948.036-.332-3.262z" class="x"/><g transform="translate(135.592 132.664)" style="opacity:.05"><path d="M7.125 57.507a1.2 1.2 0 01-.585-.854l-.058.111s-.512 1.4.481 1.982c.115.065.221.13.325.195.176-.041.37-.072.553-.127.819-.236.278-.73-.716-1.307z"/><path d="M14.881 56.8c.161-.161.14-.553.019-1.056a2.833 2.833 0 00-.286 1.5 1.177 1.177 0 01.267-.44z"/><path d="M12.981 31.343a6.979 6.979 0 00-.337 1.9 7.49 7.49 0 01.419-1.313s-.032-.221-.082-.587z"/><path d="M26.713 28.129a2.4 2.4 0 00.036-.563c-.063.387-.1.743-.128 1.056.028-.166.06-.325.092-.493z"/><path d="M13.537 49.566a3.362 3.362 0 00.111-1.143 3.881 3.881 0 00-.241 1.443 1.376 1.376 0 01.13-.3z"/><path d="M15.178 59.176a20.033 20.033 0 00-.585 3.173l-6.166.962a12.721 12.721 0 01-1.484-2.564 5.869 5.869 0 01-.192-.445c-.363.185-.5.575.036 1.684a12.961 12.961 0 001.487 2.56l6.166-.962s.337-3.245.929-3.885c.287-.309.087-.451-.191-.523z"/><path d="M6.64 50.29s.188 3.534.707 3.719c.241-.6.387-1.157.154-1.239-.52-.185-.707-3.719-.707-3.719s-1.186-4.159-.962-5.292-.962-3.811-.962-3.811l-.481-3.212a8.89 8.89 0 01-1.362-6.053l-.193-4.968s-1.8-9.574-2.2-14.434C.393 8.171.256 3.915.199 1.259.199.778.18.359.173-.004L-.003.02s0 .986.043 2.478c.06 2.646.185 6.909.438 10.02.392 4.859 2.2 14.434 2.2 14.434l.176 4.965a8.89 8.89 0 001.362 6.053l.481 3.214s1.181 2.673.962 3.808.981 5.298.981 5.298z"/><path d="M25.324 61.27a5.931 5.931 0 01-1.075-2.394c-.611.594.2 2.781.917 3.633.753.895 6.1 1.253 7.061-.481l-.039-.977c-1.331 1.431-6.154 1.065-6.864.219z"/><path d="M32.885 55.184a10.052 10.052 0 00-.657 1.564l.026.722a11 11 0 01.481-1.046 3.127 3.127 0 00.176-1.277.16.16 0 00-.026.037z"/><path d="M25.447 56.278a10.114 10.114 0 00.457-1.237s-.864.241-2.309-1.347c-1.051-1.155-1.2-3.4-1.109-4.881-.224.88-.493 4.532.962 6.118a3.607 3.607 0 001.999 1.347z"/><path d="M22.338 45.022a27.984 27.984 0 01.219 3.031 3.932 3.932 0 01.087-.481 18.061 18.061 0 00-.149-3.789 7.6 7.6 0 00-.462-2.7 33.41 33.41 0 01-1.443-4.407 3.037 3.037 0 00-.791-1.924c-.743-.645-1.309-3.226-1.309-3.226a3.351 3.351 0 01-.6-2.182 4.489 4.489 0 00-.962-2.629l-1.97-5.473-1.8-4.09-.83 2.454v.779l.674-1.985 1.8 4.09 1.956 5.466a4.412 4.412 0 01.962 2.629 3.368 3.368 0 00.6 2.184s.563 2.593 1.3 3.233a3.052 3.052 0 01.794 1.924 34.53 34.53 0 001.443 4.407 7.833 7.833 0 01.481 2.689z"/></g><path d="M158.604 83.281l-.313 1.886.055.83.038.613-2.127.3-.257-.433a20.749 20.749 0 00-1.761-2.62c-.409-.315-1.313-5.487-.455-5.213a2.247 2.247 0 011.232 1.032s4.218.324 3.588 3.605z" class="z"/><path d="M158.385 86.61l-2.127.3-.257-.433a1.888 1.888 0 012.346-.481z" class="v"/><path d="M158.963 87.604l-2.793.76-.077-.416-.2-1.123a1.944 1.944 0 012.714-.481l.164.57z" class="aa"/><path d="M113.152 85.236l-2.944 1.73s-.125-.241-.3-.558c-.308-.589-.77-1.477-.9-1.795-.2-.481-1.477-1.073-1.477-1.073-3.264-2.887.387-5.617.387-5.617 1.831-4.073 4.253 1.2 4.253 1.2a13.631 13.631 0 01.2 3.007c-.209.2-.18.962-.18.962a11.272 11.272 0 01.791 1.684c.114.285.17.46.17.46z" class="z"/><path d="M113.151 85.235l-2.944 1.732s-.125-.241-.3-.558c.411-.37 1.869-1.65 2.367-1.614a3.825 3.825 0 00.722 0c.1.267.155.44.155.44z" class="v"/><path d="M113.495 86.134l-3.315 1.795-.1-.722-.067-.5s1.9-1.754 2.475-1.713a3.1 3.1 0 00.883-.036l.063.609z" class="aa"/><path d="M150.887 96.019s-14.674 2.23-11.956 1.229a3.692 3.692 0 002.716-3.305 7.558 7.558 0 00-.678-3.39 14.675 14.675 0 00-1.422-2.613s11.03-6.632 9-.914a8.984 8.984 0 00-.536 2.694 7.492 7.492 0 00.392 2.692 8.052 8.052 0 002.484 3.607z" class="z"/><path d="M148.544 87.027a8.984 8.984 0 00-.536 2.694c-1.027.933-2.194.919-3.688.977-1.15.043-2.406.37-3.349-.147a14.676 14.676 0 00-1.422-2.613s11.028-6.629 8.995-.911z" class="v"/><circle cx="6.101" cy="6.101" r="6.101" class="z" transform="translate(137.795 78.9)"/><path d="M150.887 96.019s-14.674 2.23-11.956 1.229a3.692 3.692 0 002.716-3.305 8.3 8.3 0 013.091-1.795 4.426 4.426 0 012.67-.147 3.682 3.682 0 01.989.414 8.051 8.051 0 002.49 3.604z" class="v"/><path d="M158.965 87.604l-2.793.76-.077-.416a2.5 2.5 0 012.675-1.032z" class="v"/><path d="M113.493 86.136l-3.315 1.795-.1-.722a24.707 24.707 0 013.353-1.641z" class="v"/><path d="M158.147 132.939c-5.673 1.121-13.753 2.608-15.057 2.264-1.083-.284-4.5-.118-7.458.1a258.624 258.624 0 01-.046-2.478l22.041-3.156a17.714 17.714 0 00.52 3.27z" class="v"/><path d="M163.791 131.379s-18.675 3.95-20.717 3.414-12.372.527-12.372.527c-4.542 3.3-2.771-1.381-2.771-1.381a11.451 11.451 0 01-.014-4.359 26.7 26.7 0 00.6-4.383s-.221-3.07.315-3.808 1-5.887 1-5.887.378-3.505.3-4.27.041-2.925.041-2.925l.527-3.608c-3.849-.366-15.815-7.087-15.815-7.087-.657-2.386-5.227-7.852-5.227-7.852a5.832 5.832 0 00-.411-1.369c-.339-.808 4.207-2.625 4.207-2.625s3.594 4.068 4.354 5.167a23.327 23.327 0 003.3 3.1 2.533 2.533 0 011.133.106.329.329 0 01.06.017 9.23 9.23 0 012.346 1.229 4.451 4.451 0 013.168 1.058s2.088-.387 2.461-.043 2.151-.082 2.151-.082 1.648-3.861 2.867-2.8 6.219.813 6.219.813a7.38 7.38 0 013.228-1.975 4.427 4.427 0 012.67-.147 3.458 3.458 0 011.075.481l3.147 2.853s.828-1.16.722-1.412 1.008-.5 1.008-.5 1.467-.52 2.026-.693 1.1.414 1.143.467a6.038 6.038 0 01-.339-2.242 2.653 2.653 0 00-.686-1.821c1.624-4.475 5.812-.941 5.812-.941s.553 2.389.178 3.327.52 2.853.438 3.368.257 1.376.3 2.348a13.567 13.567 0 01-.693 3.654c-.284.84-2.646 2.769-2.646 2.769a11.562 11.562 0 01-1.051 4.655c-1.01 1.73-.123 7.5-.123 7.5s1.2 4.467 2.533 5.853 3.536 9.504 3.536 9.504z" class="ab"/><path d="M135.089 98.73s-.628-1.67-1.147-1.8a12.19 12.19 0 01-1.511-.609l.305-.645s1.946.455 2.273 1.006a4.457 4.457 0 01.08 2.048z" class="v"/><path d="M124.651 95.386c-.084.517-4.624 1.152-4.624 1.152l2.216-2.406.058.019a9.228 9.228 0 012.35 1.234z" class="v"/><circle cx=".409" cy=".409" r=".409" class="w" transform="translate(110.78 88.456)"/><circle cx=".409" cy=".409" r=".409" class="w" transform="translate(111.336 89.254)"/><circle cx=".409" cy=".409" r=".409" class="w" transform="translate(111.877 89.99)"/><circle cx=".409" cy=".409" r=".409" class="w" transform="translate(112.447 90.789)"/><circle cx=".334" cy=".334" r=".334" class="w" transform="translate(160.803 88.961)"/><circle cx=".334" cy=".334" r=".334" class="w" transform="translate(160.882 89.714)"/><circle cx=".334" cy=".334" r=".334" class="w" transform="translate(160.957 90.467)"/><path d="M135.65 112.61c-.051-.06 12.057 14.078 20.688 5.307.01 0-14.08 2.466-20.688-5.307z" class="v"/><path d="M129.303 120.446s6.916-.077 7.715 1.881l.079 2.069a1.318 1.318 0 01-1.285.051c-.722-.351-4.97-2.312-6.4-1.234z" class="v"/><path d="M129.436 120.442s6.616-.075 7.378 1.795l.077 1.97a1.268 1.268 0 01-1.229.048c-.681-.332-4.754-2.2-6.125-1.174z" class="ab"/><path d="M132.501 105.31a22.28 22.28 0 002.858 4.491 18 18 0 004.352 3.892s-7.056-7.45-7.21-8.383z" class="v"/><path d="M129.931 97.357s1.345 4.932 4.381 6.507z" class="v"/><path d="M128.184 97.926c-.034-.091-.873 3.974 4.066 6.014 0 .003-2.088-.619-4.066-6.014z" class="v"/><path d="M158.227 93.428a34.168 34.168 0 013.154 2.187s-1.699-2.334-3.154-2.187z" class="v"/><path d="M142.462 90.591a1.278 1.278 0 00.508.8 1.241 1.241 0 00.58.106 12.386 12.386 0 005.49-.722 2.074 2.074 0 00.818-.589 3.419 3.419 0 00.435-1.366 19.393 19.393 0 011.025-2.632 8.689 8.689 0 00.423-4.672 3.127 3.127 0 00-.517-1.342c-.52-.686-1.429-.936-2.1-1.47s-1.126-1.376-1.9-1.768a3.526 3.526 0 00-2.3-.115 12.081 12.081 0 00-4.232 1.783 2.143 2.143 0 01-1.414.541 1.961 1.961 0 01-1.087-.767 5.689 5.689 0 00-.354 2.673 1.187 1.187 0 010 .4 1.218 1.218 0 01-.267.433 1.552 1.552 0 00-.219 1.924c.207.226.515.342.722.573.361.416.269 1.037.281 1.585a.811.811 0 00.156.534.789.789 0 00.758.152 2.037 2.037 0 01.8-.108 1.321 1.321 0 01.722.51 9.456 9.456 0 011.672 3.537z" class="u"/><g transform="translate(137.084 78.309)" style="opacity:.1"><path d="M12.956 11.397a2.06 2.06 0 01-.816.587 12.175 12.175 0 01-5.492.722.963.963 0 01-1.087-.912 9.613 9.613 0 00-1.684-3.546 1.333 1.333 0 00-.722-.508 2.076 2.076 0 00-.8.106.794.794 0 01-.76-.149.833.833 0 01-.156-.536c-.012-.548.079-1.169-.279-1.583-.2-.241-.51-.346-.722-.575a1.2 1.2 0 01-.164-1.217A1.4 1.4 0 00.25 5.422c.2.226.515.342.722.575.361.414.269 1.034.281 1.583a.81.81 0 00.156.534.789.789 0 00.758.152 2.083 2.083 0 01.8-.108 1.32 1.32 0 01.722.51 9.339 9.339 0 011.684 3.546 1.29 1.29 0 00.508.806 1.271 1.271 0 00.58.106 12.455 12.455 0 005.49-.722 2.093 2.093 0 00.818-.587 1.7 1.7 0 00.241-.505.952.952 0 01-.054.085z"/><path d="M.757 2.971a.864.864 0 00.173-.315 1.114 1.114 0 000-.4A5.648 5.648 0 011.13.04l-.036-.041A5.691 5.691 0 00.74 2.672a1.564 1.564 0 01.017.299z"/></g><path d="M141.517 94.328s7.652.722 8.295-.455" class="v"/><path d="M156.198 90.606s4.232-.156 5.223 1.393" class="v"/><g transform="translate(217.289 153.758)"><path d="M30.834 0s2.816 3.68-1.3 9.241-7.508 10.252-6.135 13.719c0 0 6.211-10.324 11.264-10.471S36.39 6.2 30.834 0z" class="b"/><path d="M30.823 0a4.376 4.376 0 01.574 1.154c4.934 5.794 7.56 11.2 2.821 11.335-4.416.128-9.716 8.025-10.984 10.015a4.65 4.65 0 00.152.475s6.211-10.324 11.264-10.471S36.383 6.2 30.823 0z" class="v"/><path d="M35.495 4.687c0 1.3-.147 2.346-.328 2.346s-.323-1.049-.323-2.346.181-.684.361-.684.29-.613.29.684z" class="ad"/><path d="M36.984 6.235c-1.14.617-2.132.992-2.218.836s.769-.788 1.9-1.425.689-.171.779 0 .678-.031-.461.589z" class="ad"/><path d="M18.751 0s-2.816 3.68 1.3 9.241 7.512 10.252 6.14 13.719c0 0-6.211-10.324-11.264-10.471S13.192 6.2 18.751 0z" class="b"/><path d="M18.762 0a4.365 4.365 0 00-.574 1.154c-4.934 5.794-7.56 11.2-2.821 11.335 4.416.128 9.711 8.025 10.984 10.015a4.682 4.682 0 01-.152.475s-6.211-10.324-11.264-10.471S13.203 6.2 18.762 0z" class="v"/><path d="M14.092 4.687c0 1.3.147 2.346.328 2.346s.323-1.049.323-2.346-.181-.684-.361-.684-.29-.613-.29.684z" class="ad"/><path d="M12.603 6.235c1.14.617 2.132.992 2.218.836s-.769-.788-1.9-1.425-.693-.171-.779 0-.679-.031.461.589z" class="ad"/><ellipse cx="24.789" cy="4.516" class="g" rx="24.789" ry="4.516" transform="translate(0 42.093)"/><path d="M33.349 17.993l-.08 1.149-.11 1.624-.046.679L33 23.069l-.048.679-.113 1.619-1.271 18.473a3.347 3.347 0 01-3.469 2.935h-6.611a3.341 3.341 0 01-3.466-2.935l-1.276-18.473-.11-1.619-.046-.679-.115-1.624-.046-.679-.113-1.624-.078-1.149a1.693 1.693 0 011.8-1.719h13.528a1.7 1.7 0 011.783 1.719z" style="fill:#65617d"/><path d="M33.203 19.142l-.112 1.624h-16.6l-.109-1.624z" class="af"/><path d="M32.923 21.44l-.108 1.629H16.77l-.11-1.629z" class="af"/><path d="M32.924 23.744l-.107 1.624H17.222l-.109-1.624z" class="af"/></g></g></svg>