<svg xmlns="http://www.w3.org/2000/svg" width="266.126" height="220" viewBox="0 0 266.126 220"><defs><linearGradient id="a" x1=".627" x2="1.626" y1=".5" y2=".5" gradientUnits="objectBoundingBox"><stop offset="0" stop-color="gray" stop-opacity=".251"/><stop offset=".54" stop-color="gray" stop-opacity=".122"/><stop offset="1" stop-color="gray" stop-opacity=".102"/></linearGradient><style>.b{fill:#6c63ff;opacity:.1}.c{fill:#3f3d56}.d{fill:#88bd45}.f{fill:#5d5d5d}.h{fill:#ff6a00}.i{fill:#a8a8a8}.j{opacity:.2}.m{fill:#a0616a}</style></defs><g transform="translate(-35.07 -6.19)"><circle cx="110" cy="110" r="110" transform="translate(48.333 6.19)" style="opacity:.16;fill:#447bbd"/><ellipse cx="15.527" cy="2.985" class="b" rx="15.527" ry="2.985" transform="translate(35.071 200.834)"/><ellipse cx="1.808" cy="2.367" class="c" rx="1.808" ry="2.367" transform="translate(48.531 200.183)"/><ellipse cx="1.808" cy="2.367" class="c" rx="1.808" ry="2.367" transform="translate(48.531 197.291)"/><ellipse cx="1.808" cy="2.367" class="c" rx="1.808" ry="2.367" transform="translate(48.531 194.398)"/><ellipse cx="1.808" cy="2.367" class="c" rx="1.808" ry="2.367" transform="translate(48.531 191.506)"/><ellipse cx="1.808" cy="2.367" class="c" rx="1.808" ry="2.367" transform="translate(48.531 188.613)"/><ellipse cx="1.808" cy="2.367" class="c" rx="1.808" ry="2.367" transform="translate(48.531 185.721)"/><ellipse cx="1.808" cy="2.367" class="c" rx="1.808" ry="2.367" transform="translate(48.531 182.829)"/><path d="M57.107 165.4a8.8 8.8 0 00.673-.991l-4.75-.782 5.137.041a8.686 8.686 0 00.166-6.863l-6.893 3.576 6.357-4.682a8.661 8.661 0 10-14.3 9.693 8.716 8.716 0 00-.986 1.58l6.166 3.2-6.575-2.206a8.666 8.666 0 001.394 8.133 8.661 8.661 0 1013.618 0 8.667 8.667 0 000-10.709z" class="d"/><path d="M41.64 170.755a8.626 8.626 0 001.852 5.355 8.661 8.661 0 1013.618 0c1.157-1.474-15.47-6.327-15.47-5.355z" style="opacity:.1"/><path d="M96.744 140.174v61.553q-10.86-.33-21.706-.793l-3.294-.144v-60.616c0-1.327 1.732-2.4 3.868-2.4h17.263c2.137-.002 3.869 1.074 3.869 2.4z" class="f"/><path d="M107.151 202.492V99.048c0-1.327 1.732-2.4 3.868-2.4h17.263c2.136 0 3.868 1.076 3.868 2.4v103.718z" class="f"/><path d="M142.557 202.817v-99.176c0-1.6 1.732-2.9 3.868-2.9h17.263c2.136 0 3.868 1.3 3.868 2.9v98.962z" class="f"/><path d="M202.963 94.114v107.809q-12.5.167-25 .314V94.114c0-1.005 1.732-1.82 3.868-1.82h17.263c2.137 0 3.869.815 3.869 1.82z" class="f"/><path d="M238.37 88.154v112.484c-8.333.25-16.667.428-25 .586V88.154c0-1.327 1.732-2.4 3.868-2.4h17.263c2.137-.002 3.869 1.073 3.869 2.4z" class="f"/><path d="M84.642 104.278l35.406-39.492 36.177 12.064 36.1-12.066 33.654-5.479" style="fill:none;stroke:#5d5d5d;stroke-linecap:round;stroke-miterlimit:10;stroke-width:5px"/><circle cx="7.626" cy="7.626" r="7.626" class="h" transform="translate(76.88 96.652)"/><circle cx="7.626" cy="7.626" r="7.626" class="h" transform="translate(112.287 57.16)"/><circle cx="7.626" cy="7.626" r="7.626" class="h" transform="translate(147.693 69.042)"/><circle cx="7.626" cy="7.626" r="7.626" class="h" transform="translate(183.1 56.034)"/><ellipse cx="5.088" cy=".861" class="b" rx="5.088" ry=".861" transform="translate(56.453 195.256)"/><path d="M58.126 192.122s2.9-.09 3.775-.714 4.464-1.362 4.682-.368 4.358 4.968 1.089 5-7.612-.512-8.484-1.043-1.062-2.875-1.062-2.875z" class="i"/><path d="M67.724 195.687c-3.268.027-7.61-.509-8.484-1.04-.665-.406-.929-1.857-1.019-2.527h-.1s.182 2.34 1.057 2.871 5.207 1.07 8.484 1.043c.945 0 1.272-.343 1.253-.842-.126.301-.486.489-1.191.495z" class="j"/><ellipse cx="9.345" cy="1.58" class="b" rx="9.345" ry="1.58" transform="translate(278.286 201.836)"/><path d="M281.364 196.076s5.33-.163 6.937-1.307 8.2-2.508 8.6-.675 8.013 9.124 1.994 9.173-13.983-.937-15.587-1.906-1.944-5.285-1.944-5.285z" class="i"/><path d="M298.99 202.629c-6.019.049-13.983-.937-15.587-1.906-1.22-.744-1.708-3.413-1.871-4.63h-.177s.338 4.3 1.939 5.276 9.571 1.964 15.587 1.906c1.738 0 2.337-.632 2.3-1.547-.238.544-.896.89-2.191.901z" class="j"/><g transform="translate(-6.55 -17.691)"><path d="M892.7 390.247a2.779 2.779 0 00.618 1.473 5.345 5.345 0 001.72 1.041 6.794 6.794 0 013.323 3.82c1.028 3 1.161 6.177 2.471 9.074s2.847 5.679 3.978 8.647a28.992 28.992 0 002.1 4.966 7.7 7.7 0 001.72 1.98 45.181 45.181 0 00-.093 3.249 1.235 1.235 0 011.056.556 3.215 3.215 0 01.463 1.158c.423 1.751-.1 3.616.281 5.377a27.351 27.351 0 01-.927 14.713c-.423 1.2-.954 5.164-.5 6.353 1.68-.17 3.169.862 4.741 1.544a6.522 6.522 0 01-.222 2.78 15.306 15.306 0 00-.553 5.117l.077 12.743a19.22 19.22 0 00.426 4.818c.46 1.763 1.427 3.561 1.4 5.383-.083 3.922 1.77 7.659 1.621 11.55-.028.747-.13 1.489-.2 2.23a25.361 25.361 0 00.148 5.927c.562 3.91 2.048 7.755 1.677 11.686-.025.266-.114.618-.364.72.309.349.636.695.97 1.025a.88.88 0 01-.269.281 2.729 2.729 0 01-1.18.309 2.5 2.5 0 00-1.35.439 1.943 1.943 0 00-.562 1.031 2.78 2.78 0 00.37 2.31 2.581 2.581 0 001.047.784c1.427.618 3.064.17 4.552-.281l5.831-1.767a1.964 1.964 0 00.948-.494 1.039 1.039 0 00.232-.5 7.976 7.976 0 004.015-.463l5.831-1.77a1.936 1.936 0 00.948-.494 1.131 1.131 0 00.238-.927c.043-.018.087-.031.13-.052.445-.2.927-.593.818-1.065-.077-.309-.386-.488-.519-.772a1.115 1.115 0 01.216-1.09c.229-.309.537-.565.747-.89.673-1.031.216-2.387-.037-3.595-.547-2.579-.04-5.272-.386-7.885-.117-.88-.33-1.745-.5-2.619a53.5 53.5 0 01-.714-6.245c-.222-2.989-1.053-5.936-.577-8.9a34.568 34.568 0 00.293-5.25 22.856 22.856 0 00-.145-3.348c-.121-.828-.334-1.64-.426-2.471a22.4 22.4 0 01-.049-2.807 27.762 27.762 0 00-.574-6.214c-.618-2.807-1.779-5.494-2.273-8.308.167.037.333.074.494.117.019-2.162-1.875-6.862-2.576-8.913a2.589 2.589 0 01-.185-.788 8.5 8.5 0 01.194-1.059 8.669 8.669 0 00-.417-2.205 5.178 5.178 0 01.114-1.569c.5-2.764 1.115-5.507 1.733-8.246a8.786 8.786 0 00.275-3.048 3.826 3.826 0 01.926-3.036 3.6 3.6 0 00.686-.862 2.187 2.187 0 00.136-.862 13.848 13.848 0 00-.556-3.752 9.712 9.712 0 00.9-3.338 54.193 54.193 0 00.679-7.607 12.89 12.89 0 00-.556-4.015 15.935 15.935 0 00-1.056-2.329 75.792 75.792 0 00-5.229-9.287c-.618-.871-.229-2.072-.185-3.147a8.985 8.985 0 00-.97-3.734 6.126 6.126 0 00-1.161-2 1.887 1.887 0 00-1.359-.618 2.047 2.047 0 00-1.448.886 4.777 4.777 0 00-.868 3.573 6.909 6.909 0 001.572 3.376 7.648 7.648 0 001.356 1.288q.766 2.434 1.544 4.864a60.7 60.7 0 002.78 7.61 6 6 0 01.747 2.208 6.489 6.489 0 01-.59 2.44 17.219 17.219 0 00-.995 5.145 1.777 1.777 0 00-.259.142c-.973.636-1.279 2.023-2.292 2.591a7.174 7.174 0 01-1.967.46.675.675 0 00-.179.049 5.042 5.042 0 01-.065-.371 1.006 1.006 0 010-.238 10.374 10.374 0 003.839-3.657 3.349 3.349 0 00.454-.927 3.584 3.584 0 00.046-1.2 19.219 19.219 0 00-.571-3.969 6.6 6.6 0 00-2.066-3.363c-.507-.408-1.09-.713-1.594-1.124-.982-.794-1.655-1.967-2.779-2.557a3.345 3.345 0 00-4.2 1.087 2.438 2.438 0 01-.618.785 6.358 6.358 0 00-.574.309 1.176 1.176 0 00-.247 1.217 12.673 12.673 0 01.352 2.653 6.485 6.485 0 00-.019 8.391c0 .574 0 1.149-.022 1.723a1.668 1.668 0 01-.022.327 2.227 2.227 0 01-.927-.618c-.346-.432-.408-1.069-.831-1.424a2.344 2.344 0 00-1.013-.371 6.291 6.291 0 01-2.471-1.17 4.963 4.963 0 00-1.831-1.137 40.642 40.642 0 00-4.015-6.127 11.916 11.916 0 01-1.05-1.442 20.027 20.027 0 01-1.282-3.789c-1.174-3.558-4.1-6.411-4.815-10.093a16.648 16.648 0 00-1.686-3.725 4.755 4.755 0 00-1.609-2.183 2.739 2.739 0 00-3.246.5 3.9 3.9 0 00-1.012 3.282zm36.668 124.982a2.729 2.729 0 01-1.18.309 5.71 5.71 0 00-.618.1c-.077-.649-.12-1.306-.17-1.946-.164-2.1-.491-4.179-.815-6.257a37.257 37.257 0 00-1.235-6.6c-1.183-3.379-2.381-6.859-2.23-10.439.034-.812.136-1.618.179-2.427.1-2-.182-4.052.309-6 .219-.886.593-1.733.735-2.634a12.517 12.517 0 00.031-2.452 32.585 32.585 0 01.7-8.447 5.961 5.961 0 01.927 2.65l1.158 6.282c.689 3.728 1.3 7.681 3.122 11a6.549 6.549 0 00-.086 3.613c.182.494.482.926.667 1.427a10.645 10.645 0 01.358 2.625c.2 1.853.967 3.675.4 5.463a26.644 26.644 0 00-1.121 5.67 13.834 13.834 0 01-.185 1.6c-.1.476-.259.927-.349 1.414a4.688 4.688 0 00.09 2.06 4.2 4.2 0 01.253 1.158c0 .4-.485.679-.874.741.114.148.238.29.364.429a1.352 1.352 0 01-.43.661z" transform="translate(-663.402 -295.442)" style="fill:url(#a)"/><ellipse cx="19.765" cy="5.247" class="b" rx="19.765" ry="5.247" transform="translate(245.172 220.146)"/><path d="M253.769 223.351a2.5 2.5 0 00-1.35.438 1.9 1.9 0 00-.562 1.025 2.743 2.743 0 00.37 2.292 2.574 2.574 0 001.047.781c1.427.618 3.064.167 4.552-.281l5.831-1.754a1.959 1.959 0 00.948-.491 1.288 1.288 0 00.025-1.5 2.915 2.915 0 00-1.235-.985 13.834 13.834 0 00-5.849-1.121c-.741 0-1.473-.179-1.977.392-.266.309-.216.639-.618.9a2.779 2.779 0 01-1.182.304z" class="c"/><path d="M264.786 220.145a2.523 2.523 0 00-1.349.439 1.913 1.913 0 00-.562 1.025 2.752 2.752 0 00.37 2.295 2.594 2.594 0 001.047.778c1.43.618 3.064.17 4.552-.278l5.831-1.757a1.957 1.957 0 00.948-.491 1.285 1.285 0 00.025-1.5 2.927 2.927 0 00-1.235-.985 13.859 13.859 0 00-5.852-1.124c-.741 0-1.47-.176-1.977.4-.266.309-.216.636-.618.9a2.686 2.686 0 01-1.18.298z" class="c"/><path d="M259.718 156.866a71.826 71.826 0 0110.343-.29 2.055 2.055 0 01.67.1c.76.309.877 1.3.948 2.115.309 3.3 1.748 6.371 2.471 9.6a27.428 27.428 0 01.574 6.177 22.162 22.162 0 00.05 2.78c.092.825.309 1.634.426 2.455a22.548 22.548 0 01.145 3.326 34.12 34.12 0 01-.293 5.21c-.476 2.943.355 5.868.578 8.845a52.733 52.733 0 00.7 6.211c.17.868.383 1.726.5 2.6.346 2.6-.16 5.272.386 7.835.253 1.2.71 2.545.037 3.57-.21.309-.519.571-.747.883a1.1 1.1 0 00-.216 1.084c.133.281.442.466.519.766.121.472-.374.859-.818 1.059a8.527 8.527 0 01-9.932-2.452c.389-.062.865-.343.874-.738a4.168 4.168 0 00-.253-1.149 4.631 4.631 0 01-.09-2.044c.089-.476.25-.927.349-1.405a13.617 13.617 0 00.185-1.587 26.327 26.327 0 011.121-5.633c.562-1.776-.2-3.573-.4-5.426a10.644 10.644 0 00-.358-2.61c-.185-.488-.485-.927-.667-1.414a6.472 6.472 0 01.087-3.592c-1.825-3.3-2.434-7.224-3.122-10.927l-1.158-6.239a6.135 6.135 0 00-.927-2.634 32.171 32.171 0 00-.7 8.391 12.36 12.36 0 01-.031 2.437c-.142.9-.516 1.739-.735 2.616-.479 1.936-.2 3.969-.309 5.96-.043.806-.145 1.606-.179 2.412-.151 3.558 1.047 7.017 2.23 10.374a38.321 38.321 0 011.235 6.557c.309 2.066.652 4.132.815 6.217.151 1.915.219 3.987 1.411 5.491a10.116 10.116 0 01-3.49 1.671 6.443 6.443 0 01-4.3-.834 13.528 13.528 0 01-3.4-2.888c.25-.087.34-.451.365-.713.371-3.91-1.115-7.721-1.677-11.612a25.013 25.013 0 01-.148-5.886c.071-.738.173-1.476.2-2.217.148-3.864-1.714-7.585-1.646-11.452.031-1.813-.927-3.6-1.4-5.349a19.354 19.354 0 01-.426-4.787l-.077-12.662a15.654 15.654 0 01.553-5.08c.68-1.946-.1-4.178-.216-6.235a25.7 25.7 0 009.943 1.113z" style="fill:#447bbd"/><path d="M248.708 120.485a40.346 40.346 0 00-4.728-7.465 11.853 11.853 0 01-1.05-1.433 19.89 19.89 0 01-1.282-3.765c-1.174-3.533-4.1-6.371-4.815-10.025a16.77 16.77 0 00-1.686-3.706 4.678 4.678 0 00-1.609-2.162 2.743 2.743 0 00-3.246.494 3.857 3.857 0 00-.994 3.258 2.758 2.758 0 00.618 1.464 5.385 5.385 0 001.72 1.035 6.758 6.758 0 013.323 3.8c1.028 2.98 1.161 6.137 2.471 9.015s2.848 5.639 3.978 8.583a29.584 29.584 0 002.1 4.941 6.082 6.082 0 004.188 3.07 10.331 10.331 0 01.5-3.3c.386-1.219 1.071-2.652.512-3.804z" class="m"/><path d="M267.824 122.795a17.065 17.065 0 011-6.418 6.652 6.652 0 00.59-2.424 5.949 5.949 0 00-.747-2.2 56.318 56.318 0 01-2.78-7.557l-1.544-4.833a7.509 7.509 0 01-1.356-1.282 6.824 6.824 0 01-1.572-3.354 4.709 4.709 0 01.868-3.545 2.053 2.053 0 011.448-.883 1.9 1.9 0 011.359.618 6.09 6.09 0 011.161 1.983 8.891 8.891 0 01.97 3.706c-.043 1.069-.442 2.261.185 3.129a75.019 75.019 0 015.229 9.228 15.591 15.591 0 011.056 2.313 12.718 12.718 0 01.556 4 55.451 55.451 0 01-.679 7.557c-.219 1.572-.506 3.283-1.7 4.324a24.482 24.482 0 00-4.044-4.362z" class="m"/><circle cx="6.408" cy="6.408" r="6.408" class="m" transform="translate(253.563 111.183)"/><path d="M263.075 124.339a8.573 8.573 0 001.38 3.2c.364.618.831 1.275 1.544 1.343a31.134 31.134 0 01-5.822 2.341 6.585 6.585 0 01-2.125.343 5.2 5.2 0 01-1.768-.46 8.8 8.8 0 01-5-5.843 11.611 11.611 0 002.381-.182 1.751 1.751 0 001.167-.574 1.851 1.851 0 00.241-1.031 52.82 52.82 0 000-3.209 12.662 12.662 0 014.657.574c.618.2 1.235.442 1.853.6.389.1 1.461 0 1.748.225.473.32-.364 1.886-.256 2.673z" class="m"/><path d="M260.258 128.234a4.033 4.033 0 013.07-3.586 7.176 7.176 0 001.967-.457c1.013-.565 1.319-1.943 2.292-2.576a2.709 2.709 0 013.2.519 6.87 6.87 0 011.621 3.054 15.462 15.462 0 01.831 4.679 2.158 2.158 0 01-.136.855 3.571 3.571 0 01-.686.855 3.786 3.786 0 00-.927 3.017 8.645 8.645 0 01-.275 3.027c-.618 2.724-1.235 5.445-1.733 8.193a5.086 5.086 0 00-.114 1.544 9.161 9.161 0 01.417 2.193 8.29 8.29 0 00-.195 1.053 2.55 2.55 0 00.185.781c.7 2.035 2.594 6.7 2.576 8.854a53.769 53.769 0 00-11.535-1.047 25.634 25.634 0 00-2.8.124c-2.233.241-4.518.892-6.683.29-2.011-.559-3.789-2.162-5.868-1.961-.451-1.18.08-5.117.5-6.31a27 27 0 00.927-14.617c-.38-1.748.142-3.6-.281-5.34a3.185 3.185 0 00-.463-1.152 1.236 1.236 0 00-1.056-.553 39.337 39.337 0 01.772-8.317c.2-.973.618-2.122 1.615-2.288.883-.151 1.625.6 2.335 1.143a6.272 6.272 0 002.471 1.161 2.343 2.343 0 011.013.371c.423.352.485.985.831 1.414.618.769 2 .7 2.437 1.591a6.047 6.047 0 01.232.809 2.972 2.972 0 001.019 1.316 5.732 5.732 0 002.441 1.361z" class="d"/><path d="M254.764 110.78a1.171 1.171 0 01.247-1.211c.17-.133.392-.182.574-.309a2.471 2.471 0 00.618-.781 3.354 3.354 0 014.2-1.065c1.115.584 1.788 1.751 2.78 2.539.5.408 1.087.71 1.593 1.118a6.55 6.55 0 012.066 3.342 18.97 18.97 0 01.571 3.941 3.551 3.551 0 01-.046 1.2 3.358 3.358 0 01-.454.927 10.318 10.318 0 01-4.046 3.743 6.253 6.253 0 01-5.392.093.927.927 0 01-.414-.33 1.19 1.19 0 01-.065-.713 4.882 4.882 0 00-.537-2.733c-.309-.618-.772-1.149-1.019-1.788a6.231 6.231 0 01-.29-2.217 23.952 23.952 0 00-.386-5.756z" style="fill:#2d293d"/><circle cx="8.647" cy="8.647" r="8.647" class="h" transform="translate(254.128 80.855)"/></g></g></svg>